<?xml version="1.0" encoding="UTF-8"?>
<svg version="1.1" xmlns="http://www.w3.org/2000/svg" width="138" height="112">
<path d="M0 0 C10.71850986 8.55032842 16.90238083 18.4884363 20.08203125 31.78515625 C21.481534 45.78018373 19.07000454 59.11968153 10.421875 70.5078125 C1.59491855 80.8292801 -9.71398437 88.75253255 -23.60546875 89.91015625 C-37.64754553 90.83094817 -51.26255393 86.95002552 -62.41796875 78.16015625 C-71.49840595 69.63205707 -77.99804302 57.26684879 -78.80859375 44.78125 C-79.02806127 28.70525442 -75.05447113 17.02520788 -64.0703125 5.2734375 C-46.54074312 -11.53383583 -20.04149092 -14.15223722 0 0 Z M-60.9375 12.65234375 C-68.7776198 23.26496494 -71.44128716 33.88658569 -70.60546875 46.91015625 C-69.34017275 53.9340435 -66.30087009 59.86313588 -62.60546875 65.91015625 C-60.62546875 64.92015625 -60.62546875 64.92015625 -58.60546875 63.91015625 C-58.60546875 63.25015625 -58.60546875 62.59015625 -58.60546875 61.91015625 C-58.02539062 61.62140625 -57.4453125 61.33265625 -56.84765625 61.03515625 C-55.45275746 60.33527672 -54.06140965 59.62821469 -52.67578125 58.91015625 C-40.3756967 52.58722122 -27.95065604 51.22654777 -14.60546875 54.91015625 C-7.69371783 57.1949377 -2.80083668 60.87050779 2.39453125 65.91015625 C8.5737058 60.76084412 11.12499254 53.74711638 12.39453125 45.91015625 C13.45603998 32.80460621 9.76769906 22.39058115 1.94140625 11.9765625 C-4.71810616 4.42575171 -15.63350522 -0.61469027 -25.5859375 -1.29296875 C-39.26378629 -1.49288859 -51.32651037 2.47063027 -60.9375 12.65234375 Z M-51.60546875 66.91015625 C-53.92824291 69.51929495 -53.92824291 69.51929495 -55.60546875 71.91015625 C-52.70650832 75.11678937 -50.05949851 76.87591527 -46.10546875 78.59765625 C-45.16703125 79.01402344 -44.22859375 79.43039063 -43.26171875 79.859375 C-33.68048318 83.64959907 -22.48576575 83.07020919 -13.05859375 79.1328125 C-9.398825 77.30875578 -5.95585236 75.25254479 -2.60546875 72.91015625 C-6.10138635 66.28631238 -10.68730257 63.50446857 -17.60546875 60.91015625 C-29.23604044 58.08531053 -42.10709933 59.22100005 -51.60546875 66.91015625 Z " fill="#5C5D61" transform="translate(101.60546875,14.08984375)"/>
<path d="M0 0 C4.41394567 4.28231707 5.6215007 7.40307236 5.9375 13.5 C5.80729915 18.64676283 4.70836703 22.57226697 1.5625 26.6875 C-3.28301703 31.11454056 -7.6361807 33.01252175 -14.3203125 32.90234375 C-20.5145955 32.2737726 -25.1358996 28.88906319 -29.4375 24.6875 C-32.16526187 19.18526801 -32.18612595 13.69990216 -31.4375 7.6875 C-29.75844439 3.04760971 -27.17887925 -0.14052207 -23 -2.75 C-14.59504776 -6.43638256 -7.15068676 -5.95674269 0 0 Z M-22.1875 7.5625 C-23.69324613 10.12226842 -24.2986714 11.70268516 -24.4375 14.6875 C-23.3044971 18.14614045 -22.15702203 20.82960835 -19.8125 23.625 C-16.04819823 25.30902974 -12.47643301 25.47944765 -8.4375 24.6875 C-5.68180553 22.50590855 -4.00161253 20.81572506 -2.4375 17.6875 C-1.9401234 12.713734 -1.89238581 10.62441502 -4.4375 6.25 C-7.6781206 3.4819699 -9.36236891 2.73442311 -13.51171875 2.515625 C-17.41951061 2.86439344 -19.60043512 4.79064477 -22.1875 7.5625 Z " fill="#5A5B5F" transform="translate(85.4375,29.3125)"/>
<path d="M0 0 C0.625 1.875 0.625 1.875 1 4 C-2.00687043 7.00687043 -5.46207477 6.34016151 -9.5 6.4375 C-16.47302482 6.70219371 -22.40140629 7.6665091 -29 10 C-32.5625 10.75 -32.5625 10.75 -35 11 C-35.33 10.67 -35.66 10.34 -36 10 C-36 10.66 -36 11.32 -36 12 C-37.98 12 -39.96 12 -42 12 C-42.33 12.66 -42.66 13.32 -43 14 C-42.67 12.35 -42.34 10.7 -42 9 C-41.34 9 -40.68 9 -40 9 C-40 8.01 -40 7.02 -40 6 C-26.88266031 -1.27978014 -14.57759432 -4.24075471 0 0 Z " fill="#5A5A5F" transform="translate(85,7)"/>
<path d="M0 0 C0.33 0.66 0.66 1.32 1 2 C0.01 2.495 0.01 2.495 -1 3 C-1 3.66 -1 4.32 -1 5 C0.98 5 2.96 5 5 5 C4.67 4.01 4.34 3.02 4 2 C7 2 7 2 10 4 C9.43152344 4.3403125 8.86304687 4.680625 8.27734375 5.03125 C-1.17559498 10.96498116 -7.71181833 18.15927606 -11 29 C-12.04982851 34.62116915 -12.55261594 40.30419994 -13 46 C-13.33 46 -13.66 46 -14 46 C-14.02717692 43.93757383 -14.0464758 41.87504297 -14.0625 39.8125 C-14.07410156 38.66394531 -14.08570313 37.51539063 -14.09765625 36.33203125 C-14.01192832 33.40699414 -13.67849023 30.83683709 -13 28 C-14.65 28.33 -16.3 28.66 -18 29 C-18.495 31.475 -18.495 31.475 -19 34 C-19.33 34 -19.66 34 -20 34 C-19.57472417 21.241725 -13.03024764 11.6526191 -4 3 C-2.68696815 1.97348885 -1.36016175 0.96319146 0 0 Z " fill="#5F6064" transform="translate(44,14)"/>
<path d="M0 0 C0.66 0.33 1.32 0.66 2 1 C2 2.32 2 3.64 2 5 C0.02 5.99 0.02 5.99 -2 7 C-1.34 7.33 -0.68 7.66 0 8 C-0.98504628 13.76955678 -3.98293441 16.11956809 -8.49609375 19.38671875 C-14.38028454 23.17793684 -19.81900168 26.00533976 -27 25 C-28.9375 23.5 -28.9375 23.5 -30 22 C-28.9865501 19.21010055 -28.38071275 18.19035638 -25.6796875 16.83984375 C-24.75414063 16.54207031 -23.82859375 16.24429688 -22.875 15.9375 C-21.88757813 15.60105469 -20.90015625 15.26460937 -19.8828125 14.91796875 C-18.17701409 14.37479446 -16.46517694 13.8491762 -14.7421875 13.36328125 C-7.66201204 11.18369782 -3.9945714 5.99185709 0 0 Z " fill="#595A5E" transform="translate(108,77)"/>
<path d="M0 0 C2.125 0.375 2.125 0.375 4 1 C3.98839844 2.28777344 3.97679687 3.57554688 3.96484375 4.90234375 C3.9554673 6.58072772 3.94636695 8.25911326 3.9375 9.9375 C3.92912109 10.78763672 3.92074219 11.63777344 3.91210938 12.51367188 C3.90727539 13.72700195 3.90727539 13.72700195 3.90234375 14.96484375 C3.89710693 15.7137085 3.89187012 16.46257324 3.88647461 17.23413086 C3.80658248 19.02667739 3.80658248 19.02667739 5 20 C5.23481693 22.18292774 5.41363323 24.37203174 5.5625 26.5625 C5.64628906 27.76003906 5.73007812 28.95757812 5.81640625 30.19140625 C5.87699219 31.11824219 5.93757813 32.04507813 6 33 C6.66 33 7.32 33 8 33 C7.67 33.99 7.34 34.98 7 36 C5.35 35.67 3.7 35.34 2 35 C2 34.34 2 33.68 2 33 C1.01 32.67 0.02 32.34 -1 32 C-4.69893986 24.16068301 -4.33329413 15.45579558 -4 7 C-3.34 7 -2.68 7 -2 7 C-2.04125 6.21625 -2.0825 5.4325 -2.125 4.625 C-2 2 -2 2 0 0 Z " fill="#58595E" transform="translate(27,41)"/>
<path d="M0 0 C1.65652924 2.48479386 3.16072474 4.9636255 4.625 7.5625 C5.29402344 8.74005859 5.29402344 8.74005859 5.9765625 9.94140625 C7 12 7 12 7 14 C8.32 13.34 9.64 12.68 11 12 C11.33 13.32 11.66 14.64 12 16 C11.01 16 10.02 16 9 16 C9.33 17.65 9.66 19.3 10 21 C10.5775 20.7525 11.155 20.505 11.75 20.25 C12.86375 20.12625 12.86375 20.12625 14 20 C16.25 21.9375 16.25 21.9375 18 24 C16.68 24.33 15.36 24.66 14 25 C13.67 26.32 13.34 27.64 13 29 C4.8325961 25.37004271 -0.72698595 18.30369946 -4.20703125 10.18359375 C-4.46871094 9.46300781 -4.73039062 8.74242188 -5 8 C-4.34 8 -3.68 8 -3 8 C-3 8.66 -3 9.32 -3 10 C-2.01 9.67 -1.02 9.34 0 9 C0.66 9.33 1.32 9.66 2 10 C2.33 9.34 2.66 8.68 3 8 C2.34 8 1.68 8 1 8 C0.67 5.36 0.34 2.72 0 0 Z " fill="#66666A" transform="translate(32,66)"/>
<path d="M0 0 C0.66 0.33 1.32 0.66 2 1 C0.35 2.98 -1.3 4.96 -3 7 C-0.03 7.495 -0.03 7.495 3 8 C2.74863281 8.556875 2.49726562 9.11375 2.23828125 9.6875 C0.46221865 14.12390953 -0.4552914 16.98752132 1.3125 21.5625 C1.869375 22.696875 2.42625 23.83125 3 25 C0 26 0 26 -2 26 C-2.66 26.99 -3.32 27.98 -4 29 C-8.65297507 23.13320534 -8.83964162 17.29842331 -8 10 C-6.18082391 5.51176246 -4.0238341 2.68255607 0 0 Z " fill="#5E5E63" transform="translate(62,27)"/>
<path d="M0 0 C6.04433574 1.35997554 9.63494136 4.85651794 14 9 C15.32 8.34 16.64 7.68 18 7 C16.4722133 10.43752007 14.49818944 13.18953688 12 16 C11.34 16 10.68 16 10 16 C9.67 16.99 9.34 17.98 9 19 C6.9375 19.6875 6.9375 19.6875 5 20 C5.99 18.68 6.98 17.36 8 16 C4.68090651 11.60708214 2.20112114 9.1772135 -3 7 C-3 5.68 -3 4.36 -3 3 C-2.01 2.67 -1.02 2.34 0 2 C0 1.34 0 0.68 0 0 Z " fill="#5B5B60" transform="translate(90,70)"/>
<path d="M0 0 C0.33 0 0.66 0 1 0 C1 2.31 1 4.62 1 7 C2.98 7 4.96 7 7 7 C5.54810658 15.77380752 0.97739213 22.60558051 -5 29 C-5.66 28.34 -6.32 27.68 -7 27 C-6.34 27 -5.68 27 -5 27 C-5 26.34 -5 25.68 -5 25 C-5.99 24.67 -6.98 24.34 -8 24 C-7.34 23.34 -6.68 22.68 -6 22 C-5.01 22 -4.02 22 -3 22 C-3.4125 21.05125 -3.825 20.1025 -4.25 19.125 C-5.57834304 14.61779465 -3.96605887 11.53840565 -2.04296875 7.4296875 C-0.97946794 4.95216876 -0.4390049 2.65291133 0 0 Z " fill="#65666B" transform="translate(113,60)"/>
<path d="M0 0 C7.91906056 1.76915183 13.61661992 5.0426942 20 10 C19.34 10.66 18.68 11.32 18 12 C17.34 11.34 16.68 10.68 16 10 C12.87802522 11.3089572 12.87802522 11.3089572 11 14 C10.19175781 13.57847656 9.38351563 13.15695313 8.55078125 12.72265625 C7.48214844 12.17480469 6.41351563 11.62695312 5.3125 11.0625 C3.72888672 10.24458984 3.72888672 10.24458984 2.11328125 9.41015625 C-0.66234047 8.1529424 -3.00272126 7.43930431 -6 7 C-6 6.67 -6 6.34 -6 6 C-4.02 5.34 -2.04 4.68 0 4 C0 2.68 0 1.36 0 0 Z " fill="#68686C" transform="translate(85,7)"/>
<path d="M0 0 C0.33 0.66 0.66 1.32 1 2 C1.66 2 2.32 2 3 2 C3.33 2.66 3.66 3.32 4 4 C4.99 3.67 5.98 3.34 7 3 C7.33 2.01 7.66 1.02 8 0 C8 4.146682 7.52075959 5.19732989 5.625 8.6875 C2.05636281 16.12805799 1.63752182 23.88349085 1 32 C0.67 32 0.34 32 0 32 C-0.02717692 29.93757383 -0.0464758 27.87504297 -0.0625 25.8125 C-0.07410156 24.66394531 -0.08570313 23.51539062 -0.09765625 22.33203125 C-0.01192832 19.40699414 0.32150977 16.83683709 1 14 C-0.65 14.33 -2.3 14.66 -4 15 C-4.33 16.65 -4.66 18.3 -5 20 C-5.33 20 -5.66 20 -6 20 C-5.62625268 12.40047112 -3.42410997 6.7597743 0 0 Z " fill="#6C6D71" transform="translate(30,28)"/>
<path d="M0 0 C0.66 0.33 1.32 0.66 2 1 C2 2.32 2 3.64 2 5 C0.02 5.99 0.02 5.99 -2 7 C-1.34 7.33 -0.68 7.66 0 8 C-1.06454383 13.58885509 -3.64531775 15.70406341 -8.02734375 18.8984375 C-10 20 -10 20 -13 20 C-13.33 18.02 -13.66 16.04 -14 14 C-12.9790625 13.505 -12.9790625 13.505 -11.9375 13 C-6.97576393 9.62179672 -3.31346723 4.97020084 0 0 Z " fill="#46474B" transform="translate(108,77)"/>
<path d="M0 0 C0.99 0.309375 1.98 0.61875 3 0.9375 C6.97731122 2.08433207 10.88767379 2.56712356 15 3 C14.34 5.31 13.68 7.62 13 10 C6.59858988 10.51211281 3.01989102 10.11888494 -2 6 C-1.125 1.125 -1.125 1.125 0 0 Z " fill="#5A5B60" transform="translate(61,51)"/>
<path d="M0 0 C1.4606285 2.64738916 2 3.89448334 2 7 C2.3062434 8.33981486 2.63451555 9.67511887 3 11 C-2.5825192 14.32575612 -6.49686791 15.46450943 -13 15 C-13 14.67 -13 14.34 -13 14 C-11.35 14 -9.7 14 -8 14 C-8.12375 13.278125 -8.2475 12.55625 -8.375 11.8125 C-7.81739422 7.63045664 -5.23013773 6.51950743 -2 4 C-0.62745412 1.85019503 -0.62745412 1.85019503 0 0 Z " fill="#646569" transform="translate(82,47)"/>
<path d="M0 0 C2.125 0.375 2.125 0.375 4 1 C4 1.66 4 2.32 4 3 C4.9590625 3.1546875 4.9590625 3.1546875 5.9375 3.3125 C6.618125 3.539375 7.29875 3.76625 8 4 C8.33 4.99 8.66 5.98 9 7 C8.01 8.485 8.01 8.485 7 10 C3.26512223 9.5020163 1.18762365 9.12508244 -2 7 C-2.3125 4.5 -2.3125 4.5 -2 2 C-1.34 1.34 -0.68 0.68 0 0 Z " fill="#54555A" transform="translate(47,89)"/>
<path d="M0 0 C4.67105792 1.55701931 8.08705685 4.08447373 12 7 C11.34 7.66 10.68 8.32 10 9 C9.34 8.34 8.68 7.68 8 7 C4.87802522 8.3089572 4.87802522 8.3089572 3 11 C-0.465 9.02 -0.465 9.02 -4 7 C-2.625 5.5 -2.625 5.5 -1 4 C-0.34 4 0.32 4 1 4 C0.67 2.68 0.34 1.36 0 0 Z " fill="#646468" transform="translate(93,10)"/>
<path d="M0 0 C0.33 0 0.66 0 1 0 C1 2.31 1 4.62 1 7 C2.98 7 4.96 7 7 7 C6.47731534 9.76276177 5.89130413 12.3260876 5 15 C2.9375 15.6875 2.9375 15.6875 1 16 C1 14.35 1 12.7 1 11 C0.01 11 -0.98 11 -2 11 C-1.34 7.37 -0.68 3.74 0 0 Z " fill="#6B6C70" transform="translate(113,60)"/>
<path d="M0 0 C0.886875 0.53625 1.77375 1.0725 2.6875 1.625 C2.6875 2.945 2.6875 4.265 2.6875 5.625 C-0.6125 4.965 -3.9125 4.305 -7.3125 3.625 C-7.6425 2.635 -7.9725 1.645 -8.3125 0.625 C-4.8011922 -1.33720142 -3.82270308 -1.58678241 0 0 Z " fill="#4A4A4F" transform="translate(104.3125,17.375)"/>
<path d="M0 0 C1.32 0.33 2.64 0.66 4 1 C3.01 1.495 3.01 1.495 2 2 C2.33 2.99 2.66 3.98 3 5 C2.34 5 1.68 5 1 5 C1 6.32 1 7.64 1 9 C-1.97 8.505 -1.97 8.505 -5 8 C-3.62845496 5.04590299 -2.01136276 2.55991624 0 0 Z " fill="#4A4A4F" transform="translate(64,26)"/>
<path d="M0 0 C1.64767247 0.28109113 3.29313145 0.57518526 4.9375 0.875 C5.85402344 1.03742187 6.77054687 1.19984375 7.71484375 1.3671875 C8.46894531 1.57601563 9.22304687 1.78484375 10 2 C11.24546405 4.49092811 10.7767578 5.41080733 10 8 C6.40094092 7.44449305 5.00090201 6.25112752 2.75 3.4375 C2.22921875 2.79683594 1.7084375 2.15617187 1.171875 1.49609375 C0.78515625 1.00238281 0.3984375 0.50867188 0 0 Z " fill="#4C4C51" transform="translate(98,21)"/>
<path d="M0 0 C0 4.31618166 -2.13270348 5.92789659 -5 9 C-5.66 9 -6.32 9 -7 9 C-7.33 9.99 -7.66 10.98 -8 12 C-10.0625 12.6875 -10.0625 12.6875 -12 13 C-11.484375 12.401875 -10.96875 11.80375 -10.4375 11.1875 C-9.963125 10.465625 -9.48875 9.74375 -9 9 C-9.33 8.01 -9.66 7.02 -10 6 C-9.01 5.67 -8.02 5.34 -7 5 C-6.67 4.34 -6.34 3.68 -6 3 C-4.34795544 2.29788106 -2.68076231 1.63028587 -1 1 C-0.67 0.67 -0.34 0.34 0 0 Z " fill="#6F7074" transform="translate(107,77)"/>
<path d="M0 0 C1.33333333 2.66666667 2.66666667 5.33333333 4 8 C1 9 1 9 -1 9 C-1.99 10.485 -1.99 10.485 -3 12 C-3.99 10.68 -4.98 9.36 -6 8 C-5.67 7.34 -5.34 6.68 -5 6 C-2.9375 5.375 -2.9375 5.375 -1 5 C-0.67 3.35 -0.34 1.7 0 0 Z " fill="#797A7E" transform="translate(61,44)"/>
<path d="M0 0 C0.68707555 2.49064888 1 4.37886292 1 7 C-1 9.1875 -1 9.1875 -3 11 C-3.33 10.01 -3.66 9.02 -4 8 C-4.66 8 -5.32 8 -6 8 C-6 7.34 -6 6.68 -6 6 C-5.01 6 -4.02 6 -3 6 C-2.690625 5.195625 -2.38125 4.39125 -2.0625 3.5625 C-1 1 -1 1 0 0 Z " fill="#45464A" transform="translate(37,22)"/>
<path d="M0 0 C2 1 2 1 2.6875 2.9375 C3 5 3 5 2 7 C2.66 7.33 3.32 7.66 4 8 C2.68 8.33 1.36 8.66 0 9 C-0.33 7.35 -0.66 5.7 -1 4 C-1.99 4.33 -2.98 4.66 -4 5 C-4.66 4.34 -5.32 3.68 -6 3 C-4.03533587 1.93224776 -2.03144641 0.93446535 0 0 Z " fill="#6D6E72" transform="translate(93,90)"/>
<path d="M0 0 C0.99 0.33 1.98 0.66 3 1 C2.67 3.31 2.34 5.62 2 8 C0.68 8.33 -0.64 8.66 -2 9 C-2.6875 6.75 -2.6875 6.75 -3 4 C-1.5625 1.6875 -1.5625 1.6875 0 0 Z " fill="#444549" transform="translate(44,78)"/>
<path d="M0 0 C0.99 0.33 1.98 0.66 3 1 C2.93941406 1.65484375 2.87882812 2.3096875 2.81640625 2.984375 C2.17354344 9.98663453 1.57484003 16.99184389 1 24 C0.67 24 0.34 24 0 24 C0 16.08 0 8.16 0 0 Z " fill="#7F8084" transform="translate(30,36)"/>
<path d="M0 0 C1.98 0 3.96 0 6 0 C5.67 1.98 5.34 3.96 5 6 C3.35 6 1.7 6 0 6 C-1.125 2.25 -1.125 2.25 0 0 Z " fill="#45454A" transform="translate(69,55)"/>
<path d="M0 0 C0.99 0.66 1.98 1.32 3 2 C2.34 2.66 1.68 3.32 1 4 C1 4.66 1 5.32 1 6 C-0.98 6 -2.96 6 -5 6 C-5.33 6.66 -5.66 7.32 -6 8 C-5.67 6.35 -5.34 4.7 -5 3 C-4.34 3 -3.68 3 -3 3 C-2.67 2.34 -2.34 1.68 -2 1 C-1.34 0.67 -0.68 0.34 0 0 Z " fill="#44464A" transform="translate(48,13)"/>
<path d="M0 0 C2.625 -0.1875 2.625 -0.1875 5 0 C4.67 2.31 4.34 4.62 4 7 C2.35 6.67 0.7 6.34 -1 6 C-1.33 5.01 -1.66 4.02 -2 3 C-1.34 2.01 -0.68 1.02 0 0 Z " fill="#4E4F54" transform="translate(80,95)"/>
<path d="M0 0 C2.0625 0.4375 2.0625 0.4375 4 1 C4 2.32 4 3.64 4 5 C4.66 5 5.32 5 6 5 C5.67 5.99 5.34 6.98 5 8 C3.35 7.67 1.7 7.34 0 7 C-0.38133299 5.0085944 -0.71325582 3.00720923 -1 1 C-0.67 0.67 -0.34 0.34 0 0 Z " fill="#444549" transform="translate(29,69)"/>
<path d="M0 0 C1.65 1.32 3.3 2.64 5 4 C4.67 5.32 4.34 6.64 4 8 C3.34 8 2.68 8 2 8 C1.67 9.32 1.34 10.64 1 12 C0.34 11.67 -0.32 11.34 -1 11 C-0.62875 9.906875 -0.2575 8.81375 0.125 7.6875 C0.558125 5.8621875 0.558125 5.8621875 1 4 C0.34 3.01 -0.32 2.02 -1 1 C-0.67 0.67 -0.34 0.34 0 0 Z " fill="#6A6B70" transform="translate(107,20)"/>
<path d="M0 0 C2.475 0.99 2.475 0.99 5 2 C1.80331012 4.6486859 -1.39486597 6.93992341 -5 9 C-5.33 7.35 -5.66 5.7 -6 4 C-4.02 4 -2.04 4 0 4 C-0.33 3.01 -0.66 2.02 -1 1 C-0.67 0.67 -0.34 0.34 0 0 Z " fill="#6F6F73" transform="translate(49,15)"/>
<path d="M0 0 C2.31 1.98 4.62 3.96 7 6 C6.67 6.66 6.34 7.32 6 8 C3.0625 7.25 3.0625 7.25 0 6 C-0.9375 4 -0.9375 4 -1 2 C-0.67 1.34 -0.34 0.68 0 0 Z " fill="#6D6D71" transform="translate(82,27)"/>
<path d="M0 0 C0.66 0.33 1.32 0.66 2 1 C2 2.32 2 3.64 2 5 C-2.07142857 8 -2.07142857 8 -5 8 C-3.62845496 5.04590299 -2.01136276 2.55991624 0 0 Z " fill="#44454A" transform="translate(108,77)"/>
<path d="M0 0 C2.475 0.99 2.475 0.99 5 2 C3.35 3.98 1.7 5.96 0 8 C-1.32 7.34 -2.64 6.68 -4 6 C-2.35 5.34 -0.7 4.68 1 4 C0.67 2.68 0.34 1.36 0 0 Z " fill="#7A7A7F" transform="translate(93,10)"/>
<path d="M0 0 C-5.875 5 -5.875 5 -7 5 C-7 3.35 -7 1.7 -7 0 C-3.98968256 -0.93423645 -3.13349732 -1.04449911 0 0 Z " fill="#6E7074" transform="translate(106,91)"/>
<path d="M0 0 C2.625 -0.1875 2.625 -0.1875 5 0 C2.525 3.465 2.525 3.465 0 7 C-0.66 5.68 -1.32 4.36 -2 3 C-1.34 2.01 -0.68 1.02 0 0 Z " fill="#7C7C7F" transform="translate(47,79)"/>
<path d="M0 0 C1.32 0.66 2.64 1.32 4 2 C3.67 3.32 3.34 4.64 3 6 C2.01 6 1.02 6 0 6 C-1.125 2.25 -1.125 2.25 0 0 Z " fill="#4C4C51" transform="translate(95,91)"/>
<path d="M0 0 C2.31 0.33 4.62 0.66 7 1 C6.67 2.65 6.34 4.3 6 6 C3.97945196 4.35830472 1.97956942 2.69088222 0 1 C0 0.67 0 0.34 0 0 Z " fill="#6C6C6E" transform="translate(98,21)"/>
<path d="M0 0 C0.99 0.33 1.98 0.66 3 1 C3 1.99 3 2.98 3 4 C1.35 4.66 -0.3 5.32 -2 6 C-1.34 4.02 -0.68 2.04 0 0 Z " fill="#44454A" transform="translate(91,10)"/>
<path d="M0 0 C0.66 0.99 1.32 1.98 2 3 C1.01 4.485 1.01 4.485 0 6 C-0.99 5.67 -1.98 5.34 -3 5 C-3 3.68 -3 2.36 -3 1 C-2.01 0.67 -1.02 0.34 0 0 Z " fill="#434449" transform="translate(54,93)"/>
<path d="M0 0 C0.99 0 1.98 0 3 0 C2.67 1.98 2.34 3.96 2 6 C1.01 5.67 0.02 5.34 -1 5 C-0.67 3.35 -0.34 1.7 0 0 Z " fill="#44454A" transform="translate(111,71)"/>
<path d="M0 0 C0 3.57575896 -1.08840607 5.05295935 -3 8 C-3.99 7.67 -4.98 7.34 -6 7 C-4.02 4.69 -2.04 2.38 0 0 Z " fill="#78797C" transform="translate(37,20)"/>
</svg>
