<?xml version="1.0" encoding="UTF-8"?>
<svg version="1.1" xmlns="http://www.w3.org/2000/svg" width="226" height="201">
<path d="M0 0 C0.83293579 -0.0065712 1.66587158 -0.0131424 2.52404785 -0.01991272 C5.28418063 -0.03964143 8.04425888 -0.0513102 10.80444336 -0.0612793 C12.22134366 -0.06739259 12.22134366 -0.06739259 13.66686821 -0.07362938 C18.67097632 -0.09449285 23.67505702 -0.1087908 28.67919922 -0.11816406 C33.8315741 -0.12920154 38.98351391 -0.16356985 44.13573551 -0.20333576 C48.11049666 -0.22957325 52.08515553 -0.23786244 56.05999565 -0.24144554 C57.95807251 -0.24629666 59.85614526 -0.25786827 61.75413704 -0.27648354 C82.9369223 -0.47125123 82.9369223 -0.47125123 92.14428711 6.48950195 C100.29819052 14.64340537 103.13725016 22.79545677 103.27427673 34.30014038 C103.27134109 35.42223907 103.26840546 36.54433777 103.26538086 37.70043945 C103.27062271 38.88239899 103.27586456 40.06435852 103.28126526 41.28213501 C103.28766182 43.77149676 103.28637931 46.26088884 103.27783203 48.75024414 C103.2693283 52.53367624 103.29810989 56.31559384 103.32983398 60.09887695 C103.33144652 62.52856401 103.33086746 64.9582537 103.32788086 67.38793945 C103.33911484 68.50598969 103.35034882 69.62403992 103.36192322 70.77597046 C103.26775544 81.52949642 100.6376547 90.38765781 93.11694336 98.23168945 C85.56808176 104.65789984 77.67192732 106.31800269 68.00317383 106.35400391 C67.2300737 106.3605751 66.45697357 106.3671463 65.66044617 106.37391663 C63.11078783 106.39356863 60.56118825 106.40529583 58.01147461 106.4152832 C57.13615208 106.41935873 56.26082954 106.42343426 55.35898209 106.42763329 C50.72329193 106.44846234 46.08763106 106.46277615 41.4519043 106.47216797 C36.68753672 106.48320902 31.92363915 106.51759131 27.15943718 106.55733967 C23.47544547 106.58361068 19.79156385 106.5918692 16.10748672 106.59544945 C14.35257935 106.60029052 12.59767607 106.61183292 10.84286118 106.63048744 C-1.82728174 106.75677668 -12.78907735 106.30084505 -22.44946289 97.03637695 C-28.23184216 90.78089393 -31.39258203 84.96720696 -31.45874023 76.22265625 C-31.47149994 75.0709343 -31.48425964 73.91921234 -31.49740601 72.73258972 C-31.50074448 70.88556206 -31.50074448 70.88556206 -31.50415039 69.0012207 C-31.51080719 67.7214888 -31.51746399 66.4417569 -31.52432251 65.12324524 C-31.53626228 62.419206 -31.54000683 59.71529419 -31.53881836 57.01123047 C-31.5386155 53.56822743 -31.56589713 50.12605282 -31.60036278 46.68324566 C-31.62812427 43.37256026 -31.62678476 40.06202071 -31.62915039 36.7512207 C-31.64352142 35.52594162 -31.65789246 34.30066254 -31.67269897 33.03825378 C-31.61824777 22.7627945 -29.16993762 15.54212417 -22.17211914 7.9699707 C-15.52317552 2.02091588 -8.74691979 0.02988448 0 0 Z M-16.54321289 17.67700195 C-17.00469727 18.24418945 -17.46618164 18.81137695 -17.94165039 19.39575195 C-20.54980307 23.1833877 -21.42135417 25.92332874 -21.45874023 30.55297852 C-21.47149994 31.62799622 -21.48425964 32.70301392 -21.49740601 33.81060791 C-21.49963165 34.96792419 -21.5018573 36.12524048 -21.50415039 37.31762695 C-21.51080719 38.51377625 -21.51746399 39.70992554 -21.52432251 40.94232178 C-21.53444882 43.47414614 -21.53913954 46.0059972 -21.53881836 48.5378418 C-21.54318067 52.39848267 -21.57947305 56.2579704 -21.61743164 60.1184082 C-21.62330203 62.58064389 -21.62726993 65.04288499 -21.62915039 67.50512695 C-21.64352142 68.65434631 -21.65789246 69.80356567 -21.67269897 70.98760986 C-21.62911301 78.69169715 -20.70467076 84.32850368 -15.30883789 90.20043945 C-14.37297852 90.86946289 -14.37297852 90.86946289 -13.41821289 91.55200195 C-12.80461914 92.01348633 -12.19102539 92.4749707 -11.55883789 92.95043945 C-3.177034 97.25090746 6.14127262 96.46979757 15.30053711 96.44262695 C16.90661681 96.44397644 18.5126961 96.44591934 20.11877441 96.44842529 C23.47416091 96.45136319 26.82944045 96.44712206 30.18481445 96.43774414 C34.46835598 96.42635039 38.75164679 96.43291704 43.03517914 96.44488907 C46.34846864 96.45214384 49.6616995 96.44980319 52.97499084 96.44463348 C54.55371633 96.44330698 56.13244728 96.44490938 57.71116638 96.44959259 C72.67871824 96.70157909 72.67871824 96.70157909 85.83178711 90.17700195 C92.80116533 82.89083382 93.14742979 76.38377555 93.16772461 66.7512207 C93.17438141 65.64905716 93.18103821 64.54689362 93.18789673 63.41133118 C93.19800168 61.08397078 93.20271442 58.75658153 93.20239258 56.42919922 C93.20675942 52.88695997 93.24308644 49.34597363 93.28100586 45.80395508 C93.28687586 43.53638119 93.29084403 41.26880141 93.29272461 39.0012207 C93.30709564 37.95093185 93.32146667 36.90064301 93.33627319 35.81852722 C93.29105113 28.46180113 92.25556032 21.85781636 87.08163452 16.29545593 C81.49930528 11.14782164 76.39219042 9.8772062 68.86376953 9.88647461 C68.07609695 9.87975739 67.28842438 9.87304016 66.47688293 9.86611938 C63.88027588 9.84716628 61.28392773 9.84321643 58.68725586 9.84106445 C56.87510575 9.83463417 55.06295667 9.82790563 53.25080872 9.82089233 C49.45380243 9.80892594 45.65688709 9.8052108 41.85986328 9.80639648 C37.00773181 9.80659952 32.15618703 9.77931015 27.30419445 9.74485207 C23.56111503 9.72255174 19.81817604 9.71855992 16.075037 9.71961594 C14.28695977 9.71726421 12.49887841 9.7084649 10.71086693 9.6929512 C8.2028299 9.67322927 5.69604799 9.67915306 3.18798828 9.69116211 C2.45784515 9.6799231 1.72770203 9.66868408 0.97543335 9.65710449 C-5.84313761 9.73955827 -12.23213904 12.1947115 -16.54321289 17.67700195 Z " fill="#424247" transform="translate(74.168212890625,56.822998046875)"/>
<path d="M0 0 C2.51146758 2.11492007 2.90995214 3.10876106 4.0625 6.0625 C4.92708325 8.23916374 4.92708325 8.23916374 6.375 10 C8.93883685 10.90614669 11.3328086 11.24478045 14.02734375 11.578125 C17.17302731 12.14340591 18.53434828 13.43909326 20.375 16 C21.80804064 18.86608129 21.68144155 20.81300783 21.375 24 C19.7500114 26.85773857 18.32002734 29.24622819 15.734375 31.30859375 C13.72080624 33.81398246 14.22167067 35.72781599 14.4375 38.875 C14.59733287 44.62203412 14.59733287 44.62203412 12.5 48.1875 C9.17932432 51.01984102 9.17932432 51.01984102 6.31640625 50.94921875 C5.53136719 50.86285156 4.74632812 50.77648437 3.9375 50.6875 C3.15503906 50.60886719 2.37257812 50.53023437 1.56640625 50.44921875 C-0.625 50 -0.625 50 -3.625 48 C-6.3772695 48.28971258 -8.44806324 48.91392266 -10.9375 50.125 C-14.71980287 51.35644745 -17.83529649 51.18675475 -21.625 50 C-24.125 48.0625 -24.125 48.0625 -25.625 45 C-26.12537102 40.45315028 -26.07544958 36.35134874 -24.625 32 C-25.2025 31.79375 -25.78 31.5875 -26.375 31.375 C-29.5551561 29.43157127 -30.86841266 27.26223364 -32.625 24 C-33.39288002 19.9046399 -32.84257901 18.37713694 -30.75 14.75 C-28.26032973 11.96868264 -26.27057743 11.61735167 -22.625 11.1875 C-18.72209171 10.6572845 -18.72209171 10.6572845 -16.0078125 7.95703125 C-14.72769586 5.53916713 -14.72769586 5.53916713 -13.7578125 3.09375 C-10.92666524 -2.13899115 -5.03050534 -1.91638299 0 0 Z M-5.625 9 C-5.96273437 9.61488281 -6.30046875 10.22976562 -6.6484375 10.86328125 C-8.78703024 14.73870798 -10.32916079 17.42328035 -14.46875 19.265625 C-17.18231723 19.97898546 -19.85303575 20.5708881 -22.625 21 C-22.20347656 21.43570313 -21.78195313 21.87140625 -21.34765625 22.3203125 C-17.87069672 26.09997204 -15.73625589 28.65971741 -15.625 34 C-15.8894354 36.34214207 -16.20744638 38.68025766 -16.625 41 C-15.6659375 40.5359375 -15.6659375 40.5359375 -14.6875 40.0625 C-9.25685172 38.17839753 -4.59119828 37.17777163 0.8125 39.4375 C1.658125 39.953125 2.50375 40.46875 3.375 41 C4.035 41 4.695 41 5.375 41 C5.30539063 40.14277344 5.23578125 39.28554687 5.1640625 38.40234375 C4.66679726 27.90057542 4.66679726 27.90057542 8.375 23.6875 C10.0625 22.07421875 10.0625 22.07421875 11.375 21 C10.63894531 20.88785156 9.90289062 20.77570313 9.14453125 20.66015625 C1.26915108 19.06843476 1.26915108 19.06843476 -1.46875 15.796875 C-2.67556025 13.5656793 -3.72547475 11.37057206 -4.625 9 C-4.955 9 -5.285 9 -5.625 9 Z " fill="#424247" transform="translate(116.625,85)"/>
<path d="M0 0 C4.59317692 2.33146073 7.31283227 5.55134908 8.92578125 10.3515625 C9.33512634 13.21697816 9.22364043 15.4226139 8.92578125 18.3515625 C6.92578125 20.3515625 6.92578125 20.3515625 3.30078125 20.4765625 C2.18703125 20.4353125 1.07328125 20.3940625 -0.07421875 20.3515625 C-0.30496094 19.78566406 -0.53570312 19.21976563 -0.7734375 18.63671875 C-2.68982933 13.94810656 -2.68982933 13.94810656 -6.69921875 11.2265625 C-9.26468787 11.09605514 -9.26468787 11.09605514 -11.07421875 13.3515625 C-11.76522428 15.34328432 -12.43324578 17.34318054 -13.07421875 19.3515625 C-14.07421875 20.3515625 -14.07421875 20.3515625 -17.51171875 20.5390625 C-21.07421875 20.3515625 -21.07421875 20.3515625 -23.07421875 18.3515625 C-23.57733119 13.11919309 -22.94743947 9.75716761 -20.07421875 5.3515625 C-14.18259451 -0.47721775 -8.14966303 -2.54772893 0 0 Z " fill="#434449" transform="translate(147.07421875,28.6484375)"/>
<path d="M0 0 C4.37317227 2.18658613 7.43901378 4.82654097 10 9 C11.07890213 12.70226004 11.4855733 15.85747459 9.9375 19.5 C8 21 8 21 5 21.5 C2 21 2 21 0.1875 19.25 C-0.92860361 17.13527738 -1.58118383 15.34537058 -2 13 C-4.97 12.505 -4.97 12.505 -8 12 C-8.27714844 12.56589844 -8.55429688 13.13179687 -8.83984375 13.71484375 C-9.38318359 14.81505859 -9.38318359 14.81505859 -9.9375 15.9375 C-10.29714844 16.66839844 -10.65679687 17.39929688 -11.02734375 18.15234375 C-12 20 -12 20 -13 21 C-15.33297433 21.04092937 -17.66705225 21.04241723 -20 21 C-21.89360771 17.86059775 -22.20275256 16.12677783 -21.375 12.5625 C-20.00351822 7.27621895 -17.89986066 4.31180855 -13.375 1.1875 C-8.81048593 -0.41853273 -4.78760537 -0.70176626 0 0 Z " fill="#434348" transform="translate(85,28)"/>
<path d="M0 0 C0.99 0.33 1.98 0.66 3 1 C-1.41028226 5.78830645 -1.41028226 5.78830645 -4.4375 6.875 C-7.58816182 8.25821738 -8.80052908 9.86347129 -10.8125 12.625 C-11.41707031 13.44226563 -12.02164063 14.25953125 -12.64453125 15.1015625 C-13.09183594 15.72804688 -13.53914063 16.35453125 -14 17 C-14.33 16.34 -14.66 15.68 -15 15 C-10.62829984 8.75249942 -6.37505202 4.25003468 0 0 Z " fill="#3A3A3E" transform="translate(60,59)"/>
<path d="M0 0 C0.33 0.99 0.66 1.98 1 3 C1.99 3 2.98 3 4 3 C4 2.34 4 1.68 4 1 C4.66 1 5.32 1 6 1 C4.55746343 4.36591866 2.66735273 6.51047079 0 9 C-0.66 8.67 -1.32 8.34 -2 8 C-1.67 7.67 -1.34 7.34 -1 7 C-1 6.01 -1 5.02 -1 4 C-1 1 -1 1 0 0 Z " fill="#3B3C3F" transform="translate(165,148)"/>
<path d="M0 0 C0.66 0.33 1.32 0.66 2 1 C1.360625 1.763125 0.72125 2.52625 0.0625 3.3125 C-2.14232781 5.88246713 -2.14232781 5.88246713 -3 9 C-3.66 9 -4.32 9 -5 9 C-5.33 9.99 -5.66 10.98 -6 12 C-6.33 11.34 -6.66 10.68 -7 10 C-5.29152862 5.86370087 -3.32643967 2.98232523 0 0 Z " fill="#3E3E41" transform="translate(131,30)"/>
<path d="M0 0 C2.875 -0.125 2.875 -0.125 6 0 C6.66 0.66 7.32 1.32 8 2 C5.36 2.99 2.72 3.98 0 5 C0 3.35 0 1.7 0 0 Z " fill="#3D3D41" transform="translate(61,66)"/>
</svg>
