<?xml version="1.0" encoding="UTF-8"?>
<svg version="1.1" xmlns="http://www.w3.org/2000/svg" width="187" height="171">
<path d="M0 0 C9.03868361 7.31174844 16.02900401 15.72254315 21.04248047 26.19970703 C21.47814331 27.1070459 21.47814331 27.1070459 21.92260742 28.03271484 C28.47479959 42.47965052 28.69967799 61.67613643 23.54248047 76.57470703 C15.99199295 94.55205826 4.1669082 107.97106857 -13.83251953 116.07470703 C-30.3841424 122.65956888 -47.98919929 122.61926797 -64.77001953 116.69970703 C-82.99455092 108.74535355 -95.18629005 95.8563809 -102.97167969 77.76220703 C-109.86047617 59.96509612 -107.300438 41.29579437 -100.05126953 24.12548828 C-97.87571845 20.00653333 -97.87571845 20.00653333 -95.77001953 18.69970703 C-89.65742109 18.73734618 -85.52576122 21.24139689 -80.52001953 24.38720703 C-79.12022188 25.24730784 -77.71915658 26.10534867 -76.31689453 26.96142578 C-75.58849365 27.40695801 -74.86009277 27.85249023 -74.10961914 28.31152344 C-70.69324226 30.33860462 -67.19563547 32.20720865 -63.70117188 34.09545898 C-58.48193199 36.95199949 -53.34710716 39.95293698 -48.20751953 42.94970703 C-47.12921875 43.57361328 -46.05091797 44.19751953 -44.93994141 44.84033203 C-43.91320312 45.43845703 -42.88646484 46.03658203 -41.82861328 46.65283203 C-40.90363037 47.19069336 -39.97864746 47.72855469 -39.02563477 48.28271484 C-36.77001953 49.69970703 -36.77001953 49.69970703 -34.77001953 51.69970703 C-34.39501953 54.13720703 -34.39501953 54.13720703 -34.77001953 56.69970703 C-36.39501953 58.63720703 -36.39501953 58.63720703 -38.77001953 59.69970703 C-42.98956772 58.57973981 -46.55511549 56.84611553 -50.31689453 54.66064453 C-51.32623047 54.08056641 -52.33556641 53.50048828 -53.37548828 52.90283203 C-54.41318359 52.29955078 -55.45087891 51.69626953 -56.52001953 51.07470703 C-58.59591363 49.87033273 -60.67393237 48.66961057 -62.75439453 47.47314453 C-63.66930664 46.94124512 -64.58421875 46.4093457 -65.52685547 45.86132812 C-67.64500302 44.5464241 -67.64500302 44.5464241 -69.77001953 44.69970703 C-72.33676208 53.69373987 -70.99864956 62.45512956 -66.77001953 70.69970703 C-62.41167805 77.32754757 -56.46834509 81.82825695 -48.91455078 84.30908203 C-38.67637642 86.17395896 -29.65286203 84.84864602 -20.81298828 79.52001953 C-14.64407532 74.97733417 -10.90246973 67.36594761 -9.12158203 60.02783203 C-7.65563712 50.32001906 -10.33058961 41.66215207 -15.96533203 33.74267578 C-21.32687942 27.67321845 -28.3906132 24.01483892 -36.46142578 23.43408203 C-37.73888672 23.43923828 -39.01634766 23.44439453 -40.33251953 23.44970703 C-41.61255859 23.44455078 -42.89259766 23.43939453 -44.21142578 23.43408203 C-47.57943526 23.6854812 -49.70700065 24.40502895 -52.77001953 25.69970703 C-56.58251953 25.32470703 -56.58251953 25.32470703 -59.77001953 24.69970703 C-60.45751953 21.88720703 -60.45751953 21.88720703 -60.77001953 18.69970703 C-56.78070492 13.66381297 -50.19734 12.56811622 -44.14501953 11.82470703 C-31.70327202 11.086371 -21.15349944 14.66589549 -11.59033203 22.48095703 C-2.33646673 31.00149716 2.03223254 41.56403301 2.60498047 53.94970703 C2.37290721 64.30597619 -1.27925551 73.70019398 -7.77001953 81.69970703 C-8.27146484 82.32490234 -8.77291016 82.95009766 -9.28955078 83.59423828 C-15.70495641 90.75888836 -25.13724794 95.35917277 -34.71142578 95.93798828 C-49.19683365 96.28979695 -59.70252787 93.71888038 -70.77001953 83.69970703 C-80.54794395 72.29807618 -82.42838504 61.44403227 -81.77001953 46.69970703 C-81.30032358 43.58337649 -80.62332662 40.73961353 -79.77001953 37.69970703 C-83.73001953 35.38970703 -87.69001953 33.07970703 -91.77001953 30.69970703 C-96.72550506 49.87528146 -97.43746833 65.39184767 -87.77783203 83.43798828 C-79.8406451 96.33205654 -67.2224845 105.0061764 -52.64501953 108.94970703 C-35.80291591 112.21231349 -20.14112501 108.26417634 -6.03955078 98.88330078 C5.31931758 90.37703779 12.68420403 77.65503314 15.22998047 63.69970703 C16.77837195 48.20552666 14.21366306 33.69327369 5.22998047 20.69970703 C-0.51331781 13.84352051 -6.82102565 8.7571389 -14.77001953 4.69970703 C-15.89730469 4.11576172 -15.89730469 4.11576172 -17.04736328 3.52001953 C-30.41474758 -2.91699857 -45.82035304 -3.07689678 -59.77001953 1.69970703 C-67.29415364 4.93818297 -67.29415364 4.93818297 -73.77001953 9.69970703 C-77.27001953 9.82470703 -77.27001953 9.82470703 -80.77001953 9.69970703 C-81.77001953 8.69970703 -81.77001953 8.69970703 -82.39501953 5.51220703 C-81.77001953 1.69970703 -81.77001953 1.69970703 -80.14892578 0.07861328 C-77.75849754 -1.56187669 -75.33746251 -2.95313175 -72.77001953 -4.30029297 C-71.47064453 -4.98285156 -71.47064453 -4.98285156 -70.14501953 -5.67919922 C-47.59486853 -16.65928728 -20.41542961 -14.99759698 0 0 Z " fill="#5C1250" transform="translate(134.77001953125,28.30029296875)"/>
<path d="M0 0 C2.54435248 1.25582436 5.06239667 2.55579026 7.57421875 3.875 C8.94516912 4.5836108 10.31626719 5.29193591 11.6875 6 C12.35716797 6.35578125 13.02683594 6.7115625 13.71679688 7.078125 C22.03938356 11.33878065 29.79331004 12.31196582 39.0625 12.125 C39.92810547 12.11597656 40.79371094 12.10695312 41.68554688 12.09765625 C43.79048779 12.07439723 45.89528342 12.03854008 48 12 C46.31922561 14.08097505 45.47829802 14.93264224 42.78271484 15.31225586 C39.97829017 15.20603169 37.17718236 15.09358486 34.375 14.9375 C33.41464844 14.90978516 32.45429687 14.88207031 31.46484375 14.85351562 C24.82054828 14.53347154 19.87213138 13.05376511 14 10 C12.86691406 9.484375 11.73382813 8.96875 10.56640625 8.4375 C9.57511719 7.963125 8.58382812 7.48875 7.5625 7 C6.04849609 6.2884375 6.04849609 6.2884375 4.50390625 5.5625 C1.85517691 3.90962678 1.04090651 2.89209953 0 0 Z " fill="#531B4A" transform="translate(58,126)"/>
<path d="M0 0 C5.08189476 4.3559098 8.16980516 10.35844129 9 17 C8.01 17 7.02 17 6 17 C5.34 14.69 4.68 12.38 4 10 C3.01 10.495 3.01 10.495 2 11 C1.53476937 12.89533342 1.53476937 12.89533342 1.375 15.0625 C1.25125 16.361875 1.1275 17.66125 1 19 C-2 18 -2 18 -3.60546875 15.05859375 C-4.12753906 13.86363281 -4.64960937 12.66867188 -5.1875 11.4375 C-5.98220703 9.64119141 -5.98220703 9.64119141 -6.79296875 7.80859375 C-7.19128906 6.88175781 -7.58960937 5.95492187 -8 5 C-7.34 5 -6.68 5 -6 5 C-5.34 6.65 -4.68 8.3 -4 10 C-1.13275314 9.42655063 -0.1385485 9.1385485 2 7 C1.34 4.69 0.68 2.38 0 0 Z " fill="#56184A" transform="translate(127,56)"/>
<path d="M0 0 C0 0.33 0 0.66 0 1 C-0.57105469 0.9278125 -1.14210937 0.855625 -1.73046875 0.78125 C-15.13601212 -0.95091361 -15.13601212 -0.95091361 -28 2 C-29.60875 2.495 -29.60875 2.495 -31.25 3 C-34.13213612 3.69115171 -34.13213612 3.69115171 -35 6 C-35.66 6 -36.32 6 -37 6 C-36.78515625 4.13671875 -36.78515625 4.13671875 -36 2 C-25.12928132 -4.6750027 -11.67907451 -3.89302484 0 0 Z " fill="#521C49" transform="translate(111,43)"/>
<path d="M0 0 C0.33 0.66 0.66 1.32 1 2 C-1 4 -1 4 -4 6 C-4.73343428 9.06556598 -4.73343428 9.06556598 -5 12 C-3.64455078 11.33291016 -3.64455078 11.33291016 -2.26171875 10.65234375 C-0.49248047 9.80349609 -0.49248047 9.80349609 1.3125 8.9375 C2.48425781 8.36902344 3.65601563 7.80054688 4.86328125 7.21484375 C8 6 8 6 11 7 C0.65819106 13.99164548 0.65819106 13.99164548 -6 13 C-7 12 -7 12 -7.5 8.75 C-7 5 -7 5 -5.4375 3.42578125 C-3.66762023 2.18044246 -1.89278566 1.04779206 0 0 Z " fill="#511945" transform="translate(60,25)"/>
<path d="M0 0 C-0.556875 0.268125 -1.11375 0.53625 -1.6875 0.8125 C-4.08933398 2.00699665 -4.08933398 2.00699665 -6.625 3.625 C-9 5 -9 5 -11 5 C-11.33 6.65 -11.66 8.3 -12 10 C-13.32 9.67 -14.64 9.34 -16 9 C-16 8.34 -16 7.68 -16 7 C-16.66 6.67 -17.32 6.34 -18 6 C-17.34 6 -16.68 6 -16 6 C-15.67 5.01 -15.34 4.02 -15 3 C-12.0625 1.875 -12.0625 1.875 -9 1 C-6.04335481 -0.4783226 -3.25770263 -0.06032783 0 0 Z " fill="#601054" transform="translate(92,43)"/>
<path d="M0 0 C0.33 0 0.66 0 1 0 C1 10.23 1 20.46 1 31 C0.34 31 -0.32 31 -1 31 C-2.93906201 20.57754168 -2.31245644 10.3028193 0 0 Z " fill="#521846" transform="translate(30,65)"/>
<path d="M0 0 C4.47400851 1.43397709 7.50725665 3.89727489 10.875 7.0625 C11.65955566 7.7891687 11.65955566 7.7891687 12.45996094 8.53051758 C16.81371401 12.64665859 20.55763878 17.09099896 24 22 C23.67 22.66 23.34 23.32 23 24 C21.5 22.625 21.5 22.625 20 21 C20 20.34 20 19.68 20 19 C19.34 19 18.68 19 18 19 C17.608125 18.319375 17.21625 17.63875 16.8125 16.9375 C13.38552736 11.38344089 9.26474652 7.08824884 3 5 C1.1875 3.5 1.1875 3.5 0 2 C0 1.34 0 0.68 0 0 Z " fill="#58224E" transform="translate(128,25)"/>
<path d="M0 0 C3.06273831 -0.05410136 6.12451452 -0.09372225 9.1875 -0.125 C10.48397461 -0.15013672 10.48397461 -0.15013672 11.80664062 -0.17578125 C20.18596194 -0.23999061 20.18596194 -0.23999061 24 2 C25.3125 4.625 25.3125 4.625 26 7 C25.46890625 6.72285156 24.9378125 6.44570313 24.390625 6.16015625 C23.68421875 5.79792969 22.9778125 5.43570313 22.25 5.0625 C21.55390625 4.70285156 20.8578125 4.34320313 20.140625 3.97265625 C15.74912504 1.97724842 11.54792248 1.74847646 6.75 1.4375 C5.48671875 1.35371094 4.2234375 1.26992188 2.921875 1.18359375 C1.95765625 1.12300781 0.9934375 1.06242187 0 1 C0 0.67 0 0.34 0 0 Z " fill="#541D4B" transform="translate(88,50)"/>
<path d="M0 0 C3.63983188 -0.07428228 7.02126073 0.00329908 10.625 0.5625 C13.80578372 0.97482381 15.93676558 0.83542757 19 0 C19 1.32 19 2.64 19 4 C19.66 4.33 20.32 4.66 21 5 C21 5.66 21 6.32 21 7 C15 5 15 5 12.80859375 4.234375 C8.54729031 2.76346823 4.49422161 1.57618226 0 1 C0 0.67 0 0.34 0 0 Z " fill="#561C4C" transform="translate(101,26)"/>
<path d="M0 0 C0.66 0.33 1.32 0.66 2 1 C1.34 3.31 0.68 5.62 0 8 C-0.66 8 -1.32 8 -2 8 C-2.20625 8.9075 -2.4125 9.815 -2.625 10.75 C-4.3204079 14.75732776 -6.27549784 15.89484661 -10 18 C-10.66 17.67 -11.32 17.34 -12 17 C-11.13375 16.4225 -10.2675 15.845 -9.375 15.25 C-4.58832045 11.34087837 -2.48045711 5.5150589 0 0 Z " fill="#521B49" transform="translate(125,91)"/>
<path d="M0 0 C2.66666667 0.66666667 5.33333333 1.33333333 8 2 C8.33 1.34 8.66 0.68 9 0 C10.32 0.66 11.64 1.32 13 2 C12.34 3.32 11.68 4.64 11 6 C11.66 6 12.32 6 13 6 C12.67 6.66 12.34 7.32 12 8 C9.99743426 6.85865673 7.99800203 5.71181367 6 4.5625 C4.88625 3.92441406 3.7725 3.28632812 2.625 2.62890625 C1.75875 2.09136719 0.8925 1.55382813 0 1 C0 0.67 0 0.34 0 0 Z " fill="#55184B" transform="translate(43,58)"/>
<path d="M0 0 C5.74533736 2.16382835 7.58779922 7.71444242 10 13 C10.88796658 15.68484235 11.4743448 18.21402745 12 21 C11.34 21 10.68 21 10 21 C9.69707031 20.23816406 9.39414063 19.47632812 9.08203125 18.69140625 C6.44531697 12.19291966 3.57968736 6.03215402 0 0 Z " fill="#511A46" transform="translate(139,47)"/>
<path d="M0 0 C6.69730942 1.61659193 6.69730942 1.61659193 8.875 4.375 C11.06192507 7.07649568 13.01333332 8.30486486 16 10 C16.33 10.66 16.66 11.32 17 12 C12.34160316 11.52328794 10.17067431 9.73777828 6.8125 6.5625 C5.95269531 5.75941406 5.09289062 4.95632812 4.20703125 4.12890625 C2.79284291 2.76477768 1.38938393 1.38938393 0 0 Z " fill="#571B4A" transform="translate(124,34)"/>
<path d="M0 0 C1.6852084 4.07679159 0.16939007 6.83075593 -1.4375 10.75 C-1.91058594 11.92046875 -2.38367188 13.0909375 -2.87109375 14.296875 C-3.24363281 15.18890625 -3.61617187 16.0809375 -4 17 C-4.33 17 -4.66 17 -5 17 C-5.32409782 12.63278182 -4.24972949 9.66813458 -2.5 5.6875 C-2.0359375 4.61886719 -1.571875 3.55023438 -1.09375 2.44921875 C-0.7328125 1.64097656 -0.371875 0.83273438 0 0 Z " fill="#551B4B" transform="translate(159,95)"/>
<path d="M0 0 C3.4375 0.8125 3.4375 0.8125 7 2 C7.33 2.99 7.66 3.98 8 5 C6.35 5.66 4.7 6.32 3 7 C2.67 6.01 2.34 5.02 2 4 C1.01 3.34 0.02 2.68 -1 2 C-0.67 1.34 -0.34 0.68 0 0 Z " fill="#630E57" transform="translate(39,50)"/>
<path d="M0 0 C3.99012371 0.55989303 6.5255052 1.75669768 9.8125 4.0625 C10.60269531 4.61035156 11.39289063 5.15820312 12.20703125 5.72265625 C12.79871094 6.14417969 13.39039062 6.56570312 14 7 C13.01 7.495 13.01 7.495 12 8 C9.1796875 6.6015625 9.1796875 6.6015625 5.875 4.625 C4.77929688 3.97789062 3.68359375 3.33078125 2.5546875 2.6640625 C1.71164063 2.11492187 0.86859375 1.56578125 0 1 C0 0.67 0 0.34 0 0 Z " fill="#4F1646" transform="translate(54,135)"/>
<path d="M0 0 C1.98270912 0.95098266 3.96108379 1.91100703 5.9375 2.875 C7.03964844 3.40867187 8.14179687 3.94234375 9.27734375 4.4921875 C12 6 12 6 13 8 C8.77096401 6.69101267 4.83550432 5.22994437 1 3 C0.67 2.01 0.34 1.02 0 0 Z " fill="#511A48" transform="translate(76,66)"/>
<path d="M0 0 C2.125 0.9375 2.125 0.9375 4 2 C4 2.33 4 2.66 4 3 C-2.93 4.485 -2.93 4.485 -10 6 C-10 5.34 -10 4.68 -10 4 C-9.16855469 3.69255859 -9.16855469 3.69255859 -8.3203125 3.37890625 C-7.59585938 3.10949219 -6.87140625 2.84007812 -6.125 2.5625 C-5.40570313 2.29566406 -4.68640625 2.02882813 -3.9453125 1.75390625 C-1.96351155 1.02083146 -1.96351155 1.02083146 0 0 Z " fill="#521849" transform="translate(84,24)"/>
<path d="M0 0 C0 0.99 0 1.98 0 3 C-6.625 6.125 -6.625 6.125 -10 5 C-6.7321794 2.82145293 -3.61941735 1.50239966 0 0 Z " fill="#55194A" transform="translate(112,109)"/>
<path d="M0 0 C0.99 0.33 1.98 0.66 3 1 C2.88637738 2.4800841 2.75877092 3.95910074 2.625 5.4375 C2.52058594 6.67306641 2.52058594 6.67306641 2.4140625 7.93359375 C2.27742188 8.61550781 2.14078125 9.29742187 2 10 C1.01 10.495 1.01 10.495 0 11 C0 7.37 0 3.74 0 0 Z " fill="#511748" transform="translate(37,68)"/>
<path d="M0 0 C0.33 1.32 0.66 2.64 1 4 C-2.76624671 5.25541557 -4.37188934 4.37061958 -8 3 C-8 2.67 -8 2.34 -8 2 C-2.25 0 -2.25 0 0 0 Z " fill="#521548" transform="translate(78,142)"/>
<path d="M0 0 C1.83836919 3.67673838 2.93651813 7.04992447 4 11 C2.68 10.67 1.36 10.34 0 10 C0 6.7 0 3.4 0 0 Z " fill="#551A46" transform="translate(63,88)"/>
<path d="M0 0 C0.66 0 1.32 0 2 0 C3.32 2.97 4.64 5.94 6 9 C5.01 9.33 4.02 9.66 3 10 C2.01 6.7 1.02 3.4 0 0 Z " fill="#54184A" transform="translate(41,104)"/>
<path d="M0 0 C2.96052484 3.36423277 3.92289822 6.69159287 5 11 C4.34 11 3.68 11 3 11 C0.84694043 7.14243493 -0.39253254 4.44870215 0 0 Z " fill="#511D4A" transform="translate(154,53)"/>
<path d="M0 0 C0 4.38968456 -2.12805101 5.76905739 -5 9 C-5.33 8.34 -5.66 7.68 -6 7 C-4.31525278 3.63050557 -3.1808342 2.12055614 0 0 Z " fill="#511A47" transform="translate(149,119)"/>
</svg>
