<?xml version="1.0" encoding="UTF-8"?>
<svg version="1.1" xmlns="http://www.w3.org/2000/svg" width="96" height="98">
<path d="M0 0 C3.88446678 2.58964452 6.69907021 5.64814041 8.8125 9.875 C9.3363576 15.13075165 9.47755372 19.52026095 7.125 24.3125 C2.29899039 29.66024038 -1.89885364 32.46059536 -9.1875 32.875 C-15.09164413 32.03768501 -18.45180368 29.06600487 -22.05859375 24.49609375 C-24.859871 20.47349839 -24.61463538 16.6379624 -24.1875 11.875 C-22.373534 6.43310201 -18.80487362 3.0966675 -14.1875 -0.125 C-9.20670617 -1.78526461 -4.88476371 -1.72403425 0 0 Z M-16.1875 6.875 C-18.68283622 10.22810805 -19.43504613 12.8375173 -19.1875 16.9375 C-18.47134294 21.13788184 -16.50533179 23.20455002 -13.1875 25.875 C-10.12320224 27.40714888 -7.5709358 27.10438548 -4.1875 26.875 C-1.14010312 25.55907862 0.4991919 24.23008251 2.6875 21.75 C4.31694423 17.58586473 4.19747793 14.12226566 2.8125 9.875 C0.48180743 6.66651412 -2.38195393 5.14922845 -6.125 3.875 C-10.22178967 3.875 -12.65570798 4.80923486 -16.1875 6.875 Z " fill="#646569" transform="translate(62.1875,13.125)"/>
<path d="M0 0 C3.8215289 3.3264672 7.10206983 6.64605325 8.71875 11.49609375 C8.84656786 14.17004339 8.76266871 16.81705232 8.71875 19.49609375 C7.72875 19.82609375 6.73875 20.15609375 5.71875 20.49609375 C3.48806279 18.26540654 3.25081021 17.16645162 2.46875 14.18359375 C0.72055199 8.76504968 -2.04707321 6.21403282 -7.09765625 3.53125 C-13.70972517 0.63262585 -20.74457249 0.42633186 -27.59375 2.68359375 C-32.24900527 4.7255367 -35.28835588 7.27159578 -37.40234375 12.0078125 C-38.09586915 13.78862315 -38.75919707 15.58159255 -39.38671875 17.38671875 C-40.28125 19.49609375 -40.28125 19.49609375 -42.28125 20.49609375 C-42.94125 20.16609375 -43.60125 19.83609375 -44.28125 19.49609375 C-44.10170449 11.38390127 -42.60816058 6.73069691 -36.81640625 1.0625 C-26.61606489 -7.34218225 -10.6790205 -7.62463964 0 0 Z " fill="#717175" transform="translate(72.28125,53.50390625)"/>
<path d="M0 0 C1.37432457 3.81756824 0.67975039 7.07255329 0 11 C0.66 11 1.32 11 2 11 C2.12375 9.700625 2.2475 8.40125 2.375 7.0625 C2.5859375 4.84765625 2.5859375 4.84765625 3 3 C3.66 2.67 4.32 2.34 5 2 C4.938125 3.03125 4.87625 4.0625 4.8125 5.125 C5.01509838 9.31203327 5.72688402 11.50914332 8 15 C11.34870986 17.63112918 14.87988064 17.36141398 19 17 C21.78307606 15.66457328 21.78307606 15.66457328 24 14 C24.66 13.67 25.32 13.34 26 13 C25 15 24 17 23 19 C23.66 19.66 24.32 20.32 25 21 C19.7522194 23.25946109 15.50271918 24.73062558 9.921875 22.93359375 C5.05139373 20.56764858 0.99260735 17.10069345 -1 12 C-1.23046875 9.74609375 -1.23046875 9.74609375 -1.1875 7.4375 C-1.18105469 6.67308594 -1.17460938 5.90867187 -1.16796875 5.12109375 C-1 3 -1 3 0 0 Z " fill="#616266" transform="translate(39,22)"/>
<path d="M0 0 C2.5 1.3125 2.5 1.3125 4 3 C4 3.99 4 4.98 4 6 C3.25234375 5.89300781 2.5046875 5.78601563 1.734375 5.67578125 C0.74953125 5.55589844 -0.2353125 5.43601562 -1.25 5.3125 C-2.22453125 5.18488281 -3.1990625 5.05726562 -4.203125 4.92578125 C-7.51683192 5.01371481 -8.54236117 5.88490818 -11 8 C-11.66 8 -12.32 8 -13 8 C-14.50560497 10.85410334 -15.63216796 13.68124642 -16.625 16.75 C-16.88539062 17.54921875 -17.14578125 18.3484375 -17.4140625 19.171875 C-17.60742188 19.77515625 -17.80078125 20.3784375 -18 21 C-18.66 21 -19.32 21 -20 21 C-20.27089168 9.74106461 -20.27089168 9.74106461 -17.2578125 5.61328125 C-11.90897183 0.94039297 -7.20047645 -0.82580917 0 0 Z " fill="#6F7073" transform="translate(59,12)"/>
<path d="M0 0 C0 0.99 0 1.98 0 3 C0.66 3.66 1.32 4.32 2 5 C0.9275 5.515625 -0.145 6.03125 -1.25 6.5625 C-6.49826515 9.56302331 -8.2319685 13.69590551 -10.125 19.375 C-11 22 -11 22 -13 23 C-13.66 22.67 -14.32 22.34 -15 22 C-14.84546188 15.01768668 -14.0389776 10.05179943 -9 5 C-3.09898477 0 -3.09898477 0 0 0 Z " fill="#57585B" transform="translate(43,51)"/>
<path d="M0 0 C0 0.33 0 0.66 0 1 C-3.96 1 -7.92 1 -12 1 C-12 1.66 -12 2.32 -12 3 C-6.06 3.99 -6.06 3.99 0 5 C-4.18730624 6.04682656 -7.97856931 6.11155353 -12.25 6.0625 C-12.99507812 6.05798828 -13.74015625 6.05347656 -14.5078125 6.04882812 C-16.3385764 6.03709246 -18.16929873 6.0191585 -20 6 C-20.33 5.34 -20.66 4.68 -21 4 C-18.82725179 0.74087768 -18.56980943 0.5404578 -15 -0.25 C-9.87195473 -1.26727077 -5.13017602 -0.79255329 0 0 Z " fill="#727377" transform="translate(63,49)"/>
<path d="M0 0 C2.4375 0.8125 2.4375 0.8125 5 2 C6.28317892 5.84953676 6.06643637 8.94738135 6 13 C5.01 13.33 4.02 13.66 3 14 C0.25046054 11.25046054 -0.17042807 8.7649803 -1 5 C-0.625 2.0625 -0.625 2.0625 0 0 Z " fill="#77787C" transform="translate(75,60)"/>
<path d="M0 0 C2.08268593 -0.08126087 4.16628658 -0.13930839 6.25 -0.1875 C7.99023438 -0.23970703 7.99023438 -0.23970703 9.765625 -0.29296875 C14.26608431 0.11468155 15.91376383 1.91376383 19 5 C12.20160929 5.31620422 5.69016016 4.12676382 -1 3 C-0.67 2.01 -0.34 1.02 0 0 Z " fill="#232429" transform="translate(51,50)"/>
<path d="M0 0 C3.93673644 1.31224548 6.22719294 2.91910327 9 6 C8.67 6.66 8.34 7.32 8 8 C7.34 8 6.68 8 6 8 C5.34 8.66 4.68 9.32 4 10 C3.360625 9.360625 2.72125 8.72125 2.0625 8.0625 C-1.91930882 5.38087365 -5.294792 5.20501996 -10 5 C-8 3 -8 3 -5.1875 2.75 C-2.03686185 2.99710887 0.15915182 3.66313027 3 5 C3 4.01 3 3.02 3 2 C2.01 1.67 1.02 1.34 0 1 C0 0.67 0 0.34 0 0 Z " fill="#828287" transform="translate(60,13)"/>
<path d="M0 0 C0.99 0.66 1.98 1.32 3 2 C3 2.99 3 3.98 3 5 C2.26394531 4.9278125 1.52789062 4.855625 0.76953125 4.78125 C-0.69419922 4.64203125 -0.69419922 4.64203125 -2.1875 4.5 C-3.15042969 4.4071875 -4.11335938 4.314375 -5.10546875 4.21875 C-7.75187667 4.01875156 -10.34760865 3.96120817 -13 4 C-8.62333082 -0.37666918 -5.91469727 -0.57239006 0 0 Z " fill="#2B2D32" transform="translate(60,13)"/>
<path d="M0 0 C0.33 0 0.66 0 1 0 C0.91306859 1.79258558 0.80489496 3.58415144 0.6875 5.375 C0.62949219 6.37273437 0.57148437 7.37046875 0.51171875 8.3984375 C0.34285156 9.25695312 0.17398438 10.11546875 0 11 C-0.99 11.66 -1.98 12.32 -3 13 C-3.66 12.67 -4.32 12.34 -5 12 C-5 10.02 -5 8.04 -5 6 C-4.34 6 -3.68 6 -3 6 C-2.690625 5.38125 -2.38125 4.7625 -2.0625 4.125 C-1.375 2.75 -0.6875 1.375 0 0 Z " fill="#4F4F53" transform="translate(33,61)"/>
<path d="M0 0 C1.37432457 3.81756824 0.67975039 7.07255329 0 11 C0.66 11 1.32 11 2 11 C2.12375 9.700625 2.2475 8.40125 2.375 7.0625 C2.5859375 4.84765625 2.5859375 4.84765625 3 3 C3.66 2.67 4.32 2.34 5 2 C4.979375 3.051875 4.95875 4.10375 4.9375 5.1875 C4.98896802 8.32704904 5.26517187 10.96883396 6 14 C5.01 13.67 4.02 13.34 3 13 C2.67 14.32 2.34 15.64 2 17 C-1.47844436 12.50700937 -1.53089929 8.45192731 -1 3 C-0.67 2.01 -0.34 1.02 0 0 Z " fill="#85868A" transform="translate(39,22)"/>
<path d="M0 0 C0.99 0 1.98 0 3 0 C2.69106068 1.6256807 2.3777305 3.25052748 2.0625 4.875 C1.88847656 5.77992187 1.71445312 6.68484375 1.53515625 7.6171875 C1 10 1 10 0 12 C-0.66 12 -1.32 12 -2 12 C-2.17835515 7.45194365 -1.99785435 4.1205746 0 0 Z " fill="#25262A" transform="translate(41,21)"/>
<path d="M0 0 C4.40114397 0.50298788 6.71195019 2.08772731 10 5 C3.375 5.25 3.375 5.25 0 3 C0 2.01 0 1.02 0 0 Z " fill="#333439" transform="translate(60,50)"/>
<path d="M0 0 C0.66 0.33 1.32 0.66 2 1 C1.67 1.99 1.34 2.98 1 4 C0.65772583 5.33106622 0.32248257 6.66400079 0 8 C-1.32 8.33 -2.64 8.66 -4 9 C-4 5.00095031 -2.27413033 3.19799578 0 0 Z " fill="#2F3134" transform="translate(66,33)"/>
<path d="M0 0 C-0.639375 0.268125 -1.27875 0.53625 -1.9375 0.8125 C-4.33131686 1.88667752 -4.33131686 1.88667752 -5 5 C-5.33 4.34 -5.66 3.68 -6 3 C-7.32 3.33 -8.64 3.66 -10 4 C-9 1 -9 1 -6.6875 -0.25 C-3.90126985 -1.0275526 -2.66561622 -0.98726527 0 0 Z " fill="#535357" transform="translate(50,18)"/>
<path d="M0 0 C0.66 1.32 1.32 2.64 2 4 C-4.75 4.125 -4.75 4.125 -7 3 C-7 2.34 -7 1.68 -7 1 C-3.535 0.505 -3.535 0.505 0 0 Z " fill="#27282D" transform="translate(59,40)"/>
<path d="M0 0 C0.99 0 1.98 0 3 0 C3.33 2.64 3.66 5.28 4 8 C3.01 8 2.02 8 1 8 C0.67 5.36 0.34 2.72 0 0 Z " fill="#24262B" transform="translate(76,64)"/>
<path d="M0 0 C0.99 0.33 1.98 0.66 3 1 C3.33 3.31 3.66 5.62 4 8 C3.67 7.34 3.34 6.68 3 6 C2.01 5.67 1.02 5.34 0 5 C-0.75 3 -0.75 3 -1 1 C-0.67 0.67 -0.34 0.34 0 0 Z " fill="#28292D" transform="translate(66,20)"/>
<path d="M0 0 C0.99 0.33 1.98 0.66 3 1 C1.8125 2.5 1.8125 2.5 0 4 C-2.6875 4.1875 -2.6875 4.1875 -5 4 C-2.6875 1.9375 -2.6875 1.9375 0 0 Z " fill="#24262A" transform="translate(52,13)"/>
</svg>
