<?xml version="1.0" encoding="UTF-8"?>
<svg version="1.1" xmlns="http://www.w3.org/2000/svg" width="106" height="102">
<path d="M0 0 C2.4375 2.5 2.4375 2.5 4 5 C7.08669291 4.25931761 7.08669291 4.25931761 8.75 1.9375 C11 0 11 0 14.3125 -0.5625 C18.88149548 0.13446541 21.64882874 1.8760268 25 5 C26.98384711 8.96769422 26.32630565 13.85529486 25 18 C26.093125 18.103125 27.18625 18.20625 28.3125 18.3125 C33.05988024 19.19760479 33.05988024 19.19760479 35 22 C36.57523419 26.72570256 36.45771233 30.5730145 34.9375 35.3125 C32.39024347 38.84579131 30.1887753 39.20966504 26 40 C26.10441406 41.10408203 26.10441406 41.10408203 26.2109375 42.23046875 C26.64584523 50.06916275 26.64584523 50.06916275 24.76953125 52.7734375 C23.1875 54.0625 23.1875 54.0625 20 56 C19.01 56.66 18.02 57.32 17 58 C12.92146505 57.85168964 10.712576 57.60294892 7.5625 54.9375 C7.046875 54.298125 6.53125 53.65875 6 53 C3.73540723 54.05141807 1.99272611 55.0065465 0.125 56.6875 C-2 58 -2 58 -4.8125 58 C-8.81837974 56.74325341 -11.86157622 54.77530037 -15 52 C-16.3899408 49.2201184 -16.18488204 47.0813674 -16 44 C-15.37606888 42.64614174 -14.71601076 41.30749792 -14 40 C-14.62648438 39.89042969 -15.25296875 39.78085938 -15.8984375 39.66796875 C-17.12433594 39.43013672 -17.12433594 39.43013672 -18.375 39.1875 C-19.18710937 39.03667969 -19.99921875 38.88585938 -20.8359375 38.73046875 C-23 38 -23 38 -25 35 C-25.30078125 32.22265625 -25.30078125 32.22265625 -25.3125 29.0625 C-25.32925781 28.02222656 -25.34601562 26.98195313 -25.36328125 25.91015625 C-24.95424663 22.63348108 -24.32632044 21.31038674 -22 19 C-18.3125 17.75 -18.3125 17.75 -15 17 C-15.13019531 16.33613281 -15.26039062 15.67226563 -15.39453125 14.98828125 C-16.52900965 7.72549895 -16.52900965 7.72549895 -13.8125 4 C-8.98515869 0.56722396 -6.12525602 -0.765657 0 0 Z M-11 8 C-10.89300781 8.59167969 -10.78601562 9.18335938 -10.67578125 9.79296875 C-10.10217087 13.57386298 -9.75246365 16.27286198 -11 19.9375 C-13.69800191 22.71981447 -16.26338105 23.22447531 -20 24 C-20 26.97 -20 29.94 -20 33 C-18.700625 33.45375 -17.40125 33.9075 -16.0625 34.375 C-12.125 35.75 -12.125 35.75 -11 38 C-11.08252543 39.79279382 -11.19009228 41.58448709 -11.3125 43.375 C-11.49302417 47.32094931 -11.49302417 47.32094931 -9.66796875 50.61328125 C-7.84410022 51.85046851 -7.84410022 51.85046851 -5 53 C-3.00016466 52.20882096 -3.00016466 52.20882096 -1 51 C-0.67 50.01 -0.34 49.02 0 48 C3.0534135 47.70640255 5.95743422 47.5548742 9 48 C11.5625 50.5 11.5625 50.5 13 53 C18.19476517 51.56313493 18.19476517 51.56313493 22 48 C22.14595151 45.54100246 22.14595151 45.54100246 21.6875 42.9375 C21.56761719 42.05964844 21.44773438 41.18179688 21.32421875 40.27734375 C21.21722656 39.52582031 21.11023438 38.77429687 21 38 C21 37.34 21 36.68 21 36 C21.95712891 35.80083984 21.95712891 35.80083984 22.93359375 35.59765625 C23.75988281 35.42105469 24.58617187 35.24445312 25.4375 35.0625 C26.67306641 34.80146484 26.67306641 34.80146484 27.93359375 34.53515625 C29.97661204 34.19247006 29.97661204 34.19247006 31 33 C31.32460261 28.96916989 31.32460261 28.96916989 31 25 C28.00937337 23.00624891 25.39085683 22.10571418 22 21 C21 20 21 20 20.875 16.6875 C20.97106738 13.85351237 21.14750432 11.66404901 22 9 C17.4947161 5.64377102 17.4947161 5.64377102 12 5 C11.21625 5.845625 10.4325 6.69125 9.625 7.5625 C7 10 7 10 3.875 10.0625 C0.61069071 8.85612483 -0.04517895 7.75452058 -2 5 C-6.27709699 5 -7.55930376 5.70620251 -11 8 Z " fill="#5E5F64" transform="translate(51,25)"/>
<path d="M0 0 C3.0190434 1.75299294 5.41511201 3.83022401 7 7 C7.40710593 11.23390162 7.25575965 13.51588352 5.25 17.3125 C1.94117647 21.26470588 1.94117647 21.26470588 -1 22 C-5.82767137 21.9233703 -8.01506168 21.71250857 -11.9375 18.875 C-14.44741437 15.37633149 -15 13.29748201 -15 9 C-12.30555121 1.62571911 -8.01630881 -1.69250282 0 0 Z M-8.375 6.6875 C-10.27422969 8.88783853 -10.27422969 8.88783853 -9.875 11.625 C-9.13532087 14.14405125 -9.13532087 14.14405125 -7 16 C-3.5 16.41666667 -3.5 16.41666667 0 16 C2.15502531 12.76746204 2.46856135 11.74849077 2 8 C0.91666667 6.08333333 0.91666667 6.08333333 -1 5 C-4.35891247 4.39711827 -5.57579573 4.6985917 -8.375 6.6875 Z " fill="#5A5D62" transform="translate(60,43)"/>
<path d="M0 0 C0.66 0 1.32 0 2 0 C2 1.98 2 3.96 2 6 C2.66 6 3.32 6 4 6 C4.375 9.1875 4.375 9.1875 4 13 C1.18665523 15.81334477 -1.69987317 17.79991544 -5 20 C-8.4375 20 -8.4375 20 -12 19 C-14.25 16.125 -14.25 16.125 -16 13 C-17.62351109 11.20605554 -17.62351109 11.20605554 -19 10 C-15.6875 9.75 -15.6875 9.75 -12 10 C-10.0625 12 -10.0625 12 -9 14 C-4.80953104 13.00279881 -4.80953104 13.00279881 -1.625 10.3125 C-0.77928679 7.18336111 -0.93912993 4.2261135 -1 1 C-0.67 0.67 -0.34 0.34 0 0 Z " fill="#545457" transform="translate(73,63)"/>
<path d="M0 0 C3 2 3 2 4 5 C4.39064728 10.17607648 4.07989632 13.72788575 1 18 C-1.3140622 18.73075648 -3.64828869 19.40138258 -6 20 C-7.49743888 21.98567734 -7.49743888 21.98567734 -8 24 C-8 22.02 -8 20.04 -8 18 C-8.66 18.33 -9.32 18.66 -10 19 C-10.65555119 21.52733235 -10.65555119 21.52733235 -11 24 C-11.33 24 -11.66 24 -12 24 C-12.36042403 18.59363958 -12.36042403 18.59363958 -10.9375 16.25 C-8.14094853 14.44577325 -5.21002051 13.78736352 -2 13 C-2 10.36 -2 7.72 -2 5 C-4.64 4.01 -7.28 3.02 -10 2 C-6.93276207 0.46638104 -4.30408233 1.45933198 -1 2 C-0.67 2 -0.34 2 0 2 C0 1.34 0 0.68 0 0 Z " fill="#5E5F63" transform="translate(83,45)"/>
<path d="M0 0 C3.1875 -0.375 3.1875 -0.375 7 0 C10.67081686 3.20220194 11.7912546 4.70113976 12.5625 9.5 C11.87671684 13.76709522 10.99018608 15.86030462 8 19 C4.16689044 20.24171155 0.85132219 20.28377406 -3 19 C-2.505 17.515 -2.505 17.515 -2 16 C1.5625 14.8125 1.5625 14.8125 5 14 C5.86013727 10.73723433 5.86013727 10.73723433 6 7 C4.30252228 4.14842545 4.30252228 4.14842545 2 2 C1.34 1.34 0.68 0.68 0 0 Z " fill="#5E5E64" transform="translate(55,44)"/>
<path d="M0 0 C2.125 0.9375 2.125 0.9375 4 2 C4.14285714 9.42857143 4.14285714 9.42857143 3 13 C5.31 13.33 7.62 13.66 10 14 C10.33 15.32 10.66 16.64 11 18 C10.34 18.33 9.68 18.66 9 19 C9 18.34 9 17.68 9 17 C7.9275 17.04125 6.855 17.0825 5.75 17.125 C2.34252515 17.0114175 0.79260369 16.78726636 -2 15 C-2.07485655 11.10745958 -1.93973036 7.75892143 -1 4 C-1.33 3.01 -1.66 2.02 -2 1 C-1.34 0.67 -0.68 0.34 0 0 Z " fill="#5E5F64" transform="translate(73,30)"/>
<path d="M0 0 C0 0.33 0 0.66 0 1 C-1.65 1.33 -3.3 1.66 -5 2 C-3.68 2.99 -2.36 3.98 -1 5 C-1.33 5.66 -1.66 6.32 -2 7 C-3.32 7 -4.64 7 -6 7 C-6.78375 7.680625 -7.5675 8.36125 -8.375 9.0625 C-11 11 -11 11 -14.125 10.9375 C-16.96592312 10.01111203 -18.18628409 9.31752588 -20 7 C-19.34 6.01 -18.68 5.02 -18 4 C-18.66 4 -19.32 4 -20 4 C-19.67 3.34 -19.34 2.68 -19 2 C-18.2575 2.53625 -17.515 3.0725 -16.75 3.625 C-14.16141627 5.3096879 -14.16141627 5.3096879 -11.875 4.375 C-9.96275195 3.09559161 -9.96275195 3.09559161 -8.6875 1.375 C-6.00207143 -0.81312698 -3.32772689 -0.1883619 0 0 Z " fill="#535457" transform="translate(60,72)"/>
<path d="M0 0 C5.625 -0.25 5.625 -0.25 9 2 C8.67 6.29 8.34 10.58 8 15 C8.66 15 9.32 15 10 15 C9.67 15.99 9.34 16.98 9 18 C7.125 17.6875 7.125 17.6875 5 17 C2.26395244 12.89592866 2.67199639 9.88602075 3.5 5.125 C3.665 4.42375 3.83 3.7225 4 3 C2.68 2.67 1.36 2.34 0 2 C0 1.34 0 0.68 0 0 Z " fill="#505255" transform="translate(32,61)"/>
<path d="M0 0 C0.33 0 0.66 0 1 0 C1.33 2.64 1.66 5.28 2 8 C3.7015625 8.433125 3.7015625 8.433125 5.4375 8.875 C6.613125 9.24625 7.78875 9.6175 9 10 C9.33 10.66 9.66 11.32 10 12 C7.36 11.67 4.72 11.34 2 11 C2 11.66 2 12.32 2 13 C3.65 13.33 5.3 13.66 7 14 C5 15 5 15 1.5 14.25 C-2 13 -2 13 -4 10 C-3.67 9.01 -3.34 8.02 -3 7 C-3 7.66 -3 8.32 -3 9 C-2.34 8.67 -1.68 8.34 -1 8 C-0.53476937 6.10466658 -0.53476937 6.10466658 -0.375 3.9375 C-0.25125 2.638125 -0.1275 1.33875 0 0 Z " fill="#7B7C7F" transform="translate(30,50)"/>
<path d="M0 0 C0.66 0 1.32 0 2 0 C2 1.98 2 3.96 2 6 C2.66 6 3.32 6 4 6 C4 8.31 4 10.62 4 13 C3.01 13 2.02 13 1 13 C-0.99544337 8.88439805 -1.26247139 5.54950416 -1 1 C-0.67 0.67 -0.34 0.34 0 0 Z " fill="#26292D" transform="translate(73,63)"/>
<path d="M0 0 C1.9896995 0.39013716 3.99019869 0.73202649 6 1 C6 1.33 6 1.66 6 2 C5.030625 2.12375 4.06125 2.2475 3.0625 2.375 C1.5465625 2.684375 1.5465625 2.684375 0 3 C-0.33 3.66 -0.66 4.32 -1 5 C1.97 5 4.94 5 8 5 C7.34 5.66 6.68 6.32 6 7 C0.99873499 6.91801205 -1.07523282 6.75137334 -5 3.5625 C-7 1 -7 1 -7 -1 C-3.51418144 -2.2020064 -3.32007656 -2.21338437 0 0 Z " fill="#6E6F73" transform="translate(53,58)"/>
<path d="M0 0 C2.125 0.9375 2.125 0.9375 4 2 C4 4.31 4 6.62 4 9 C3.01 9 2.02 9 1 9 C0.67 9.99 0.34 10.98 0 12 C-0.33 12 -0.66 12 -1 12 C-0.96744792 10.01432292 -0.93489583 8.02864583 -0.90234375 6.04296875 C-0.91736783 3.79694539 -0.91736783 3.79694539 -2 1 C-1.34 0.67 -0.68 0.34 0 0 Z " fill="#35363C" transform="translate(73,30)"/>
<path d="M0 0 C0.66 0.33 1.32 0.66 2 1 C2 1.99 2 2.98 2 4 C2.15127402 5.56406528 2.31902522 7.12659252 2.5 8.6875 C2.5928125 9.49574219 2.685625 10.30398437 2.78125 11.13671875 C2.8534375 11.75160156 2.925625 12.36648437 3 13 C2.01 13 1.02 13 0 13 C-1.79477439 9.18610442 -2.37453719 6.21354337 -2 2 C-1.34 1.34 -0.68 0.68 0 0 Z " fill="#37383E" transform="translate(37,30)"/>
<path d="M0 0 C-0.33 3.63 -0.66 7.26 -1 11 C-1.99 11.33 -2.98 11.66 -4 12 C-5.52491998 8.95016004 -5.23562548 6.3576631 -5 3 C-3.37600669 0.7116458 -2.82814211 0 0 0 Z " fill="#25262B" transform="translate(31,47)"/>
<path d="M0 0 C3 2 3 2 4 5 C4.03954234 7.33299825 4.04401732 9.66708189 4 12 C3.67 12 3.34 12 3 12 C3 10.35 3 8.7 3 7 C2.401875 6.87625 1.80375 6.7525 1.1875 6.625 C-1 6 -1 6 -4 4 C-5.98799818 3.29835358 -7.98698517 2.62627128 -10 2 C-6.93276207 0.46638104 -4.30408233 1.45933198 -1 2 C-0.67 2 -0.34 2 0 2 C0 1.34 0 0.68 0 0 Z " fill="#6D6D71" transform="translate(83,45)"/>
<path d="M0 0 C5.29441695 -0.50423019 7.81413519 0.81076967 12 4 C11.01 4.33 10.02 4.66 9 5 C8.38125 5.268125 7.7625 5.53625 7.125 5.8125 C5 6 5 6 2.25 4.1875 C1.5075 3.465625 0.765 2.74375 0 2 C0 1.34 0 0.68 0 0 Z " fill="#47474C" transform="translate(64,26)"/>
<path d="M0 0 C1.32 0.33 2.64 0.66 4 1 C4 3.64 4 6.28 4 9 C3.01 8.67 2.02 8.34 1 8 C1 8.99 1 9.98 1 11 C0.01 11 -0.98 11 -2 11 C-1.34 7.37 -0.68 3.74 0 0 Z " fill="#3D3E42" transform="translate(82,51)"/>
<path d="M0 0 C0 2.97 0 5.94 0 9 C-0.99 9.495 -0.99 9.495 -2 10 C-2.99 9.34 -3.98 8.68 -5 8 C-4.74438677 5.6568787 -4.40729228 3.32156597 -4 1 C-2 0 -2 0 0 0 Z " fill="#3C3E43" transform="translate(50,48)"/>
<path d="M0 0 C3.3125 -0.3125 3.3125 -0.3125 7 0 C8.9375 2.5 8.9375 2.5 10 5 C9.01 6.485 9.01 6.485 8 8 C2.25 3.375 2.25 3.375 0 0 Z " fill="#3B3E43" transform="translate(55,44)"/>
<path d="M0 0 C0 0.33 0 0.66 0 1 C-1.65 1.33 -3.3 1.66 -5 2 C-3.68 2.99 -2.36 3.98 -1 5 C-1.33 5.66 -1.66 6.32 -2 7 C-3.32 7 -4.64 7 -6 7 C-6.33 6.34 -6.66 5.68 -7 5 C-9.02463255 4.34786708 -9.02463255 4.34786708 -11 4 C-7.65667474 -0.27945633 -5.29105716 -0.4070044 0 0 Z " fill="#6C6D71" transform="translate(60,72)"/>
<path d="M0 0 C5.625 -0.25 5.625 -0.25 9 2 C9 3.32 9 4.64 9 6 C8.34 6 7.68 6 7 6 C6.67 6.66 6.34 7.32 6 8 C5.7525 7.195625 5.505 6.39125 5.25 5.5625 C4.27761141 2.828919 4.27761141 2.828919 1.875 2.1875 C1.25625 2.125625 0.6375 2.06375 0 2 C0 1.34 0 0.68 0 0 Z " fill="#25272A" transform="translate(32,61)"/>
<path d="M0 0 C2.64 0 5.28 0 8 0 C8.33 0.99 8.66 1.98 9 3 C2.375 4.125 2.375 4.125 -1 3 C-0.67 2.01 -0.34 1.02 0 0 Z " fill="#2D2F35" transform="translate(53,60)"/>
<path d="M0 0 C0 0.33 0 0.66 0 1 C-1.65 1 -3.3 1 -5 1 C-5 1.66 -5 2.32 -5 3 C-4.01 3.33 -3.02 3.66 -2 4 C-2.639375 4.12375 -3.27875 4.2475 -3.9375 4.375 C-4.9584375 4.684375 -4.9584375 4.684375 -6 5 C-6.33 5.66 -6.66 6.32 -7 7 C-7 5.68 -7 4.36 -7 3 C-7.99 3.33 -8.98 3.66 -10 4 C-9.67 3.01 -9.34 2.02 -9 1 C-6.04335481 -0.4783226 -3.25770263 -0.06032783 0 0 Z " fill="#68696E" transform="translate(69,25)"/>
<path d="M0 0 C1.5 1.0625 1.5 1.0625 3 3 C3.1875 6.6875 3.1875 6.6875 3 10 C2.67 9.01 2.34 8.02 2 7 C0.68 7.33 -0.64 7.66 -2 8 C-1.33333333 5.33333333 -0.66666667 2.66666667 0 0 Z " fill="#5F6065" transform="translate(64,47)"/>
<path d="M0 0 C2.31 0 4.62 0 7 0 C7.33 1.32 7.66 2.64 8 4 C6.02 4 4.04 4 2 4 C1.34 2.68 0.68 1.36 0 0 Z " fill="#404145" transform="translate(44,25)"/>
<path d="M0 0 C0.99 0.99 1.98 1.98 3 3 C2.34 4.32 1.68 5.64 1 7 C0.34 7 -0.32 7 -1 7 C-2.625 5 -2.625 5 -4 3 C-2.68 2.01 -1.36 1.02 0 0 Z " fill="#525558" transform="translate(72,73)"/>
<path d="M0 0 C0.66 0.33 1.32 0.66 2 1 C4.32873375 1.68255989 6.66182791 2.35050775 9 3 C6.35261084 4.4606285 5.10551666 5 2 5 C2 4.34 2 3.68 2 3 C-0.475 4.485 -0.475 4.485 -3 6 C-1.125 1.125 -1.125 1.125 0 0 Z " fill="#707074" transform="translate(29,44)"/>
<path d="M0 0 C0 0.99 0 1.98 0 3 C-2.97 3 -5.94 3 -9 3 C-8 1 -8 1 -5.625 -0.1875 C-3 -1 -3 -1 0 0 Z " fill="#2F2F32" transform="translate(71,78)"/>
<path d="M0 0 C1.32 0.33 2.64 0.66 4 1 C4 1.66 4 2.32 4 3 C4.66 3 5.32 3 6 3 C5.67 3.99 5.34 4.98 5 6 C3.68 5.67 2.36 5.34 1 5 C0.67 3.35 0.34 1.7 0 0 Z " fill="#383B3F" transform="translate(36,73)"/>
<path d="M0 0 C1.9896995 0.39013716 3.99019869 0.73202649 6 1 C6 1.33 6 1.66 6 2 C2.04 2 -1.92 2 -6 2 C-6.33 1.01 -6.66 0.02 -7 -1 C-3.51418144 -2.2020064 -3.32007656 -2.21338437 0 0 Z " fill="#808086" transform="translate(53,58)"/>
<path d="M0 0 C0.66 0 1.32 0 2 0 C2 2.31 2 4.62 2 7 C1.01 7 0.02 7 -1 7 C-1 3 -1 3 0 0 Z " fill="#3A3A40" transform="translate(75,69)"/>
<path d="M0 0 C1.32 0 2.64 0 4 0 C4 0.66 4 1.32 4 2 C4.66 2 5.32 2 6 2 C6 2.66 6 3.32 6 4 C4.125 4.625 4.125 4.625 2 5 C1.34 4.34 0.68 3.68 0 3 C0 2.01 0 1.02 0 0 Z " fill="#404146" transform="translate(50,30)"/>
<path d="M0 0 C2.64 0.33 5.28 0.66 8 1 C8.33 1.99 8.66 2.98 9 4 C8.01 4.495 8.01 4.495 7 5 C7 4.34 7 3.68 7 3 C5.02 3 3.04 3 1 3 C0.67 2.01 0.34 1.02 0 0 Z " fill="#232328" transform="translate(75,44)"/>
<path d="M0 0 C1.4540625 0.0309375 1.4540625 0.0309375 2.9375 0.0625 C3.2675 1.0525 3.5975 2.0425 3.9375 3.0625 C1.0625 3.1875 1.0625 3.1875 -2.0625 3.0625 C-2.7225 2.4025 -3.3825 1.7425 -4.0625 1.0625 C-3.0625 0.0625 -3.0625 0.0625 0 0 Z " fill="#292A2E" transform="translate(34.0625,43.9375)"/>
<path d="M0 0 C0.66 0 1.32 0 2 0 C2.1875 2.375 2.1875 2.375 2 5 C1.01 5.66 0.02 6.32 -1 7 C-1.625 5.1875 -1.625 5.1875 -2 3 C-1.34 2.01 -0.68 1.02 0 0 Z " fill="#38393D" transform="translate(60,28)"/>
<path d="M0 0 C0 1.65 0 3.3 0 5 C-1.32 5 -2.64 5 -4 5 C-4 3.68 -4 2.36 -4 1 C-2 0 -2 0 0 0 Z " fill="#2F3034" transform="translate(66,54)"/>
<path d="M0 0 C0.99 0 1.98 0 3 0 C3 1.98 3 3.96 3 6 C2.01 6 1.02 6 0 6 C0 4.02 0 2.04 0 0 Z " fill="#222327" transform="translate(83,52)"/>
</svg>
