<?xml version="1.0" encoding="UTF-8"?>
<svg version="1.1" xmlns="http://www.w3.org/2000/svg" width="93" height="85">
<path d="M0 0 C0.77943466 0.00222061 1.55886932 0.00444122 2.36192322 0.00672913 C3.68317955 0.00684242 3.68317955 0.00684242 5.03112793 0.00695801 C5.98841293 0.01211929 6.94569794 0.01728058 7.93199158 0.02259827 C9.39480812 0.02472069 9.39480812 0.02472069 10.88717651 0.02688599 C14.01542675 0.03250319 17.14360656 0.04505859 20.27183533 0.05775452 C22.38706867 0.0627673 24.50230313 0.06733059 26.61753845 0.07142639 C31.81482829 0.0824782 37.01207678 0.09923305 42.20933533 0.12025452 C42.25357521 1.69682023 42.28489358 3.27375136 42.31089783 4.85072327 C42.32975037 5.72881653 42.34860291 6.60690979 42.36802673 7.51161194 C42.07518551 12.32547118 40.07050327 16.11270258 36.81871033 19.62025452 C32.38250741 23.54279183 28.15706847 26.12025452 22.20933533 26.12025452 C22.20933533 32.39025452 22.20933533 38.66025452 22.20933533 45.12025452 C25.83933533 45.12025452 29.46933533 45.12025452 33.20933533 45.12025452 C33.20933533 46.44025452 33.20933533 47.76025452 33.20933533 49.12025452 C24.95933533 49.12025452 16.70933533 49.12025452 8.20933533 49.12025452 C8.53933533 47.80025452 8.86933533 46.48025452 9.20933533 45.12025452 C12.17933533 45.12025452 15.14933533 45.12025452 18.20933533 45.12025452 C18.20933533 39.18025452 18.20933533 33.24025452 18.20933533 27.12025452 C15.56933533 26.46025452 12.92933533 25.80025452 10.20933533 25.12025452 C4.73411123 22.23055291 0.16663815 18.09340278 -1.79066467 12.12025452 C-2.42209886 8.45693393 -2.822846 4.84041609 -2.79066467 1.12025452 C-1.79066467 0.12025452 -1.79066467 0.12025452 0 0 Z M2.20933533 4.12025452 C2.20933533 5.11025452 2.20933533 6.10025452 2.20933533 7.12025452 C14.08933533 7.12025452 25.96933533 7.12025452 38.20933533 7.12025452 C38.20933533 6.13025452 38.20933533 5.14025452 38.20933533 4.12025452 C26.32933533 4.12025452 14.44933533 4.12025452 2.20933533 4.12025452 Z M4.20933533 11.12025452 C6.38134209 16.55027143 8.16352942 18.30448561 13.03746033 21.21009827 C17.24882404 22.97493234 21.73952485 22.64573296 26.20933533 22.12025452 C30.64706796 19.94173122 33.42484573 17.18989315 36.20933533 13.12025452 C36.20933533 12.46025452 36.20933533 11.80025452 36.20933533 11.12025452 C25.64933533 11.12025452 15.08933533 11.12025452 4.20933533 11.12025452 Z " fill="#4E4E53" transform="translate(24.790664672851563,18.879745483398438)"/>
<path d="M0 0 C0.99 0 1.98 0 3 0 C3.33 6.27 3.66 12.54 4 19 C4.33 12.73 4.66 6.46 5 0 C5.33 0 5.66 0 6 0 C6 6.27 6 12.54 6 19 C9.63 19 13.26 19 17 19 C17 20.32 17 21.64 17 23 C8.75 23 0.5 23 -8 23 C-7.67 21.68 -7.34 20.36 -7 19 C-4.03 19 -1.06 19 2 19 C2 13.06 2 7.12 2 1 C1.34 0.67 0.68 0.34 0 0 Z " fill="#626367" transform="translate(41,45)"/>
<path d="M0 0 C0.86625 1.36125 0.86625 1.36125 1.75 2.75 C4.75970208 7.09734745 8.10931315 9.39756264 13.23046875 10.46484375 C15.14597907 10.71233446 17.07330578 10.86479339 19 11 C19 11.33 19 11.66 19 12 C17.02 12 15.04 12 13 12 C13 12.66 13 13.32 13 14 C10.06010051 14.87626634 8.54539738 15.23636952 5.68359375 13.99609375 C1.02463274 10.76317994 -2.35356421 8.06274673 -5 3 C-5 2.34 -5 1.68 -5 1 C-3 0 -3 0 0 0 Z " fill="#757579" transform="translate(29,30)"/>
<path d="M0 0 C2.64 0 5.28 0 8 0 C7.5155542 0.40323486 7.0311084 0.80646973 6.53198242 1.22192383 C4.63082835 3.42847445 4.5848884 4.57032554 4.48828125 7.44921875 C4.45283203 8.29677734 4.41738281 9.14433594 4.38085938 10.01757812 C4.35830078 10.89865234 4.33574219 11.77972656 4.3125 12.6875 C4.27833984 13.58017578 4.24417969 14.47285156 4.20898438 15.39257812 C4.12654352 17.59492671 4.05738449 19.79687938 4 22 C3.34 22.33 2.68 22.66 2 23 C2 16.4 2 9.8 2 3 C0.68 2.67 -0.64 2.34 -2 2 C-1.34 2 -0.68 2 0 2 C0 1.34 0 0.68 0 0 Z " fill="#26272B" transform="translate(42,42)"/>
<path d="M0 0 C0.66 0 1.32 0 2 0 C1.67905423 2.99549387 1.0450519 3.95752249 -1.1875 6.0625 C-8.61867427 11.18175339 -8.61867427 11.18175339 -12.375 10.6875 C-12.91125 10.460625 -13.4475 10.23375 -14 10 C-13.34 9.67 -12.68 9.34 -12 9 C-12.33 8.34 -12.66 7.68 -13 7 C-12.22914062 6.66226563 -11.45828125 6.32453125 -10.6640625 5.9765625 C-9.66117188 5.53054687 -8.65828125 5.08453125 -7.625 4.625 C-6.62726562 4.18414062 -5.62953125 3.74328125 -4.6015625 3.2890625 C-1.91977521 2.13287556 -1.91977521 2.13287556 0 0 Z " fill="#434348" transform="translate(61,34)"/>
<path d="M0 0 C0.33 0 0.66 0 1 0 C1.58714933 11.00361343 1.58714933 11.00361343 -2 16 C-3.9375 16.75 -3.9375 16.75 -6 17 C-7.98 17.99 -7.98 17.99 -10 19 C-8.35 16.36 -6.7 13.72 -5 11 C-6.98 11 -8.96 11 -11 11 C-11 10.67 -11 10.34 -11 10 C-8.66705225 9.95758277 -6.33297433 9.95907063 -4 10 C-3.67 10.33 -3.34 10.66 -3 11 C-2.67 10.01 -2.34 9.02 -2 8 C-1.67 8 -1.34 8 -1 8 C-0.67 5.36 -0.34 2.72 0 0 Z " fill="#656669" transform="translate(66,19)"/>
<path d="M0 0 C0.66 2.64 1.32 5.28 2 8 C1.01 7.67 0.02 7.34 -1 7 C-1 6.34 -1 5.68 -1 5 C-1.99 5 -2.98 5 -4 5 C-4.33 3.68 -4.66 2.36 -5 1 C-3 0 -3 0 0 0 Z " fill="#58575D" transform="translate(29,30)"/>
<path d="M0 0 C0.66 0 1.32 0 2 0 C1.60196439 2.88575819 1.20990931 3.82189513 -1.0625 5.75 C-1.701875 6.1625 -2.34125 6.575 -3 7 C-2.25 2.25 -2.25 2.25 0 0 Z " fill="#4C4D50" transform="translate(61,34)"/>
<path d="M0 0 C-0.3125 1.9375 -0.3125 1.9375 -1 4 C-1.99 4.33 -2.98 4.66 -4 5 C-4.33 3.68 -4.66 2.36 -5 1 C-3 0 -3 0 0 0 Z " fill="#3C3B40" transform="translate(58,38)"/>
</svg>
