<?xml version="1.0" encoding="UTF-8"?>
<svg version="1.1" xmlns="http://www.w3.org/2000/svg" width="92" height="96">
<path d="M0 0 C4.25014924 0.10366218 6.59191791 1.16344591 9.625 4 C16.12039166 11.12908841 17.76192545 17.96760262 17.44140625 27.5625 C16.41130292 35.58454362 12.56707179 41.47797631 6.3359375 46.52734375 C2.19024981 49.14092947 -2.32271113 50.61572885 -7 52 C-7.33 54.31 -7.66 56.62 -8 59 C-4.04 59 -0.08 59 4 59 C4.495 60.98 4.495 60.98 5 63 C4 64 4 64 1.31616211 64.11352539 C0.14835205 64.10828857 -1.01945801 64.10305176 -2.22265625 64.09765625 C-4.11274414 64.09282227 -4.11274414 64.09282227 -6.04101562 64.08789062 C-7.38151109 64.07953403 -8.72200588 64.07106907 -10.0625 64.0625 C-11.40689942 64.0574866 -12.7513006 64.05292342 -14.09570312 64.04882812 C-17.39717941 64.03699488 -20.69856803 64.02050971 -24 64 C-24.5625 62.0625 -24.5625 62.0625 -25 60 C-24 59 -24 59 -21.49609375 58.90234375 C-20.48675781 58.91394531 -19.47742188 58.92554688 -18.4375 58.9375 C-17.42558594 58.94652344 -16.41367187 58.95554688 -15.37109375 58.96484375 C-14.19740234 58.98224609 -14.19740234 58.98224609 -13 59 C-13 56.36 -13 53.72 -13 51 C-14.155 50.938125 -15.31 50.87625 -16.5 50.8125 C-21.49494394 50.22381018 -24.98558388 47.89336907 -29 45 C-28.67 43.35 -28.34 41.7 -28 40 C-25.2154294 41.09695205 -22.58664286 42.21933236 -19.9375 43.625 C-14.2377504 46.05174929 -7.52677133 46.0267081 -1.625 44.30859375 C4.11523358 41.71026832 7.59014175 37.95398871 10.3125 32.25 C11.99373532 24.30234213 11.4370659 18.37850318 7.51171875 11.19140625 C6.05496015 9.07967091 4.70200153 7.68970784 2.6875 6.125 C1.800625 5.42375 0.91375 4.7225 0 4 C0 2.68 0 1.36 0 0 Z " fill="#4A4C51" transform="translate(56,7)"/>
<path d="M0 0 C3.6791163 2.18252662 6.26894626 4.76038714 8.4375 8.4375 C9.49411835 13.25098357 9.66231761 17.22831621 7.4375 21.6875 C5.02416602 25.43407443 2.23267962 27.59740616 -2 29 C-6.71100291 29.79611025 -10.00402057 29.48859368 -14.3125 27.375 C-17.95342677 24.15743681 -20.5913541 21.56029164 -21.3828125 16.6015625 C-21.63841279 10.92723615 -20.92760361 7.3522094 -17 3 C-11.37787365 -0.97662595 -6.59874696 -1.78374089 0 0 Z M-15 9 C-16.41000664 11.82001327 -16.24548451 13.87007255 -16 17 C-14.75234694 19.74483673 -13.64684565 21.47294058 -11.3125 23.375 C-7.73328552 24.34235527 -4.55267887 23.9994189 -1 23 C1.99379675 20.92737148 2.8116114 19.57772504 3.9375 16.125 C4.01558205 12.2208974 3.10414303 10.26504953 1 7 C-1.30507623 4.61543838 -2.59710972 4.07006787 -5.875 3.5 C-10.2394451 4.19831122 -11.85406918 5.92723037 -15 9 Z " fill="#68696E" transform="translate(52,17)"/>
<path d="M0 0 C5.51522058 0.13451758 7.84898664 2.33870009 11.484375 6.11328125 C17.07566869 13.07357725 16.12327008 21.53545466 16 30 C15.01 30 14.02 30 13 30 C12.99742188 29.40574219 12.99484375 28.81148437 12.9921875 28.19921875 C12.62456997 20.3199496 10.07969364 12.92313654 4.26953125 7.3359375 C3.72683594 6.91570313 3.18414062 6.49546875 2.625 6.0625 C1.75875 5.381875 0.8925 4.70125 0 4 C0 2.68 0 1.36 0 0 Z " fill="#3F3F43" transform="translate(56,7)"/>
<path d="M0 0 C3.38129034 5.07193551 2.4596217 11.07154619 2 17 C1.26689824 19.68662727 0.3887578 21.56967385 -1 24 C-1.33 23.01 -1.66 22.02 -2 21 C-3.65 21.99 -5.3 22.98 -7 24 C-6.79503906 23.45472656 -6.59007813 22.90945312 -6.37890625 22.34765625 C-4.41324021 16.84567235 -3.46218398 11.8235181 -3 6 C-2.67 6 -2.34 6 -2 6 C-2 9.3 -2 12.6 -2 16 C-1.01 16 -0.02 16 1 16 C0.67 10.72 0.34 5.44 0 0 Z " fill="#75767A" transform="translate(71,21)"/>
<path d="M0 0 C2.79165038 1.09974106 5.4904604 2.24042177 8.1875 3.5625 C12.61952352 5.50396163 17.21799979 5.72096981 22 6 C22 6.33 22 6.66 22 7 C20.2709226 7.02725341 18.54171824 7.04650987 16.8125 7.0625 C15.36810547 7.07990234 15.36810547 7.07990234 13.89453125 7.09765625 C11.14423487 7.00486622 8.67520409 6.62111685 6 6 C6.33 6.99 6.66 7.98 7 9 C4.0280615 7.87548273 1.66559313 6.77706209 -1 5 C-0.67 3.35 -0.34 1.7 0 0 Z " fill="#717175" transform="translate(28,47)"/>
<path d="M0 0 C0.66 0.33 1.32 0.66 2 1 C1.67 3.31 1.34 5.62 1 8 C4.96 8 8.92 8 13 8 C13.33 9.32 13.66 10.64 14 12 C13 13 13 13 10.31616211 13.11352539 C9.14835205 13.10828857 7.98054199 13.10305176 6.77734375 13.09765625 C5.51728516 13.09443359 4.25722656 13.09121094 2.95898438 13.08789062 C1.61848891 13.07953403 0.27799412 13.07106907 -1.0625 13.0625 C-2.40689942 13.0574866 -3.7513006 13.05292342 -5.09570312 13.04882812 C-8.39717941 13.03699488 -11.69856803 13.02050971 -15 13 C-15 12.67 -15 12.34 -15 12 C-2.625 11.505 -2.625 11.505 10 11 C10 10.34 10 9.68 10 9 C6.7 9 3.4 9 0 9 C0 6.03 0 3.06 0 0 Z " fill="#838387" transform="translate(47,58)"/>
<path d="M0 0 C6.6 0 13.2 0 20 0 C19.01 0.495 19.01 0.495 18 1 C17.67 1.99 17.34 2.98 17 4 C11.47098776 5.17638558 6.31097302 5.23379981 1 3 C0.67 2.01 0.34 1.02 0 0 Z " fill="#24272B" transform="translate(34,53)"/>
<path d="M0 0 C0.33 0.66 0.66 1.32 1 2 C2.485 2.2475 2.485 2.2475 4 2.5 C5.485 2.7475 5.485 2.7475 7 3 C8.12256131 5.24512262 8.13413762 6.51456649 8.125 9 C8.12757812 9.70125 8.13015625 10.4025 8.1328125 11.125 C8 13 8 13 7 15 C6.34 15 5.68 15 5 15 C4.67 15.66 4.34 16.32 4 17 C4.04640625 16.39671875 4.0928125 15.7934375 4.140625 15.171875 C4.504546 9.99313592 4.504546 9.99313592 2.0625 5.625 C1.381875 5.08875 0.70125 4.5525 0 4 C-0.33 3.01 -0.66 2.02 -1 1 C-0.67 0.67 -0.34 0.34 0 0 Z " fill="#3C3C41" transform="translate(52,20)"/>
<path d="M0 0 C0.66 0.33 1.32 0.66 2 1 C2 3.31 2 5.62 2 8 C2.66 8 3.32 8 4 8 C4.33 5.69 4.66 3.38 5 1 C5.33 1 5.66 1 6 1 C6.49842868 7.10575128 5.42265865 10.11048764 2 15 C1.01 15.33 0.02 15.66 -1 16 C-1 15.01 -1 14.02 -1 13 C-1.99 12.67 -2.98 12.34 -4 12 C-3.51917969 11.60167969 -3.03835937 11.20335937 -2.54296875 10.79296875 C-0.62608175 8.56549753 -0.52258357 7.21165331 -0.3125 4.3125 C-0.21388672 3.10013672 -0.21388672 3.10013672 -0.11328125 1.86328125 C-0.07589844 1.24839844 -0.03851563 0.63351563 0 0 Z " fill="#79797E" transform="translate(55,27)"/>
<path d="M0 0 C6.72505081 0.16439013 10.21055351 1.21055351 15 6 C12.47064411 7.26467795 11.65809097 6.7249339 9 6 C8.01 6 7.02 6 6 6 C3.6485148 5.04346365 1.31254012 4.04718798 -1 3 C-0.67 2.01 -0.34 1.02 0 0 Z " fill="#515155" transform="translate(43,16)"/>
<path d="M0 0 C2 1 2 1 2.62109375 2.671875 C3.09148053 5.56208656 3.0943182 8.32272535 3.0625 11.25 C3.05347656 12.32765625 3.04445313 13.4053125 3.03515625 14.515625 C3.02355469 15.33546875 3.01195313 16.1553125 3 17 C2.01 17 1.02 17 0 17 C-0.19386492 14.35448944 -0.38038267 11.70882217 -0.5625 9.0625 C-0.61857422 8.30775391 -0.67464844 7.55300781 -0.73242188 6.77539062 C-0.86176157 4.85254042 -0.93516912 2.92610452 -1 1 C-0.67 0.67 -0.34 0.34 0 0 Z " fill="#222429" transform="translate(69,20)"/>
<path d="M0 0 C0.33 0.66 0.66 1.32 1 2 C3.01669827 3.13350534 3.01669827 3.13350534 5 4 C2.41210938 5.07421875 2.41210938 5.07421875 -0.17578125 6.1484375 C-2.26533932 7.06806692 -2.26533932 7.06806692 -5 9 C-5.33 7.68 -5.66 6.36 -6 5 C-6.99 5.66 -7.98 6.32 -9 7 C-7.4576387 2.93377477 -4.5679954 0 0 0 Z " fill="#5D5E63" transform="translate(42,17)"/>
<path d="M0 0 C0.66 0 1.32 0 2 0 C2.4375 2.125 2.4375 2.125 2 5 C-0.12689146 7.276147 -2.5023433 9.1458722 -5 11 C-5.38613383 8.37428995 -5.38493778 6.6156121 -3.95703125 4.33203125 C-2.625 2.6875 -2.625 2.6875 0 0 Z " fill="#47484D" transform="translate(67,42)"/>
<path d="M0 0 C0.042721 1.66611905 0.04063832 3.33382885 0 5 C-0.33 5.33 -0.66 5.66 -1 6 C-1.23192865 7.51469448 -1.41215238 9.03754562 -1.5625 10.5625 C-1.64628906 11.38878906 -1.73007812 12.21507812 -1.81640625 13.06640625 C-1.87699219 13.70449219 -1.93757813 14.34257813 -2 15 C-2.33 14.34 -2.66 13.68 -3 13 C-3.66 13 -4.32 13 -5 13 C-4.91266424 11.39482903 -4.80447776 9.79078338 -4.6875 8.1875 C-4.62949219 7.29417969 -4.57148437 6.40085937 -4.51171875 5.48046875 C-4.01883612 3.09130488 -2.94198053 0 0 0 Z " fill="#23252A" transform="translate(37,21)"/>
<path d="M0 0 C0 1.32 0 2.64 0 4 C-2.40545638 5.20272819 -3.94996953 5.10071472 -6.625 5.0625 C-7.85089844 5.04896484 -7.85089844 5.04896484 -9.1015625 5.03515625 C-10.04128906 5.01775391 -10.04128906 5.01775391 -11 5 C-10.67 4.01 -10.34 3.02 -10 2 C-6.54310037 0.78368346 -3.67168136 0 0 0 Z " fill="#2F2F33" transform="translate(54,40)"/>
<path d="M0 0 C2.79872437 2.52788007 4.45773019 4.20411134 5 8 C4.34 8 3.68 8 3 8 C2.67 9.65 2.34 11.3 2 13 C0.00902154 10.01353231 -0.94124926 7.40312738 -2 4 C-1.34 4 -0.68 4 0 4 C0 2.68 0 1.36 0 0 Z " fill="#727276" transform="translate(66,13)"/>
<path d="M0 0 C-2.31 0.33 -4.62 0.66 -7 1 C-7 1.66 -7 2.32 -7 3 C-4.03 3.495 -4.03 3.495 -1 4 C-1 4.33 -1 4.66 -1 5 C-2.45792884 5.05399736 -3.91642712 5.09279177 -5.375 5.125 C-6.18710937 5.14820313 -6.99921875 5.17140625 -7.8359375 5.1953125 C-10 5 -10 5 -12 3 C-10 0 -10 0 -6.5625 -0.75 C-3 -1 -3 -1 0 0 Z " fill="#76777A" transform="translate(51,41)"/>
<path d="M0 0 C1.2380014 3.57644848 0.74926071 6.33694766 0 10 C0.66 10 1.32 10 2 10 C2.66 12.64 3.32 15.28 4 18 C-0.92937918 13.22963305 -0.92937918 13.22963305 -1.1328125 9.6875 C-1.13023438 8.800625 -1.12765625 7.91375 -1.125 7 C-1.12757812 6.113125 -1.13015625 5.22625 -1.1328125 4.3125 C-1 2 -1 2 0 0 Z " fill="#84858A" transform="translate(32,24)"/>
<path d="M0 0 C2.9375 0.375 2.9375 0.375 6 1 C6.33 1.66 6.66 2.32 7 3 C5.68 3 4.36 3 3 3 C3.33 3.99 3.66 4.98 4 6 C2.68 5.34 1.36 4.68 0 4 C0 2.68 0 1.36 0 0 Z " fill="#717275" transform="translate(56,7)"/>
<path d="M0 0 C0 3.11227195 -0.45627049 5.94152152 -1 9 C-1.66 9 -2.32 9 -3 9 C-3 8.01 -3 7.02 -3 6 C-3.99 5.67 -4.98 5.34 -6 5 C-4.02 3.35 -2.04 1.7 0 0 Z " fill="#626366" transform="translate(63,45)"/>
<path d="M0 0 C2.125 0.375 2.125 0.375 4 1 C3.34 1.66 2.68 2.32 2 3 C1.35232207 5.57061311 1.35232207 5.57061311 1 8 C0.34 6.68 -0.32 5.36 -1 4 C-1.99 4.66 -2.98 5.32 -4 6 C-2.84826645 3.53199953 -1.95216435 1.95216435 0 0 Z " fill="#79797E" transform="translate(37,18)"/>
<path d="M0 0 C1.65 0 3.3 0 5 0 C4.67 1.32 4.34 2.64 4 4 C2.35 3.67 0.7 3.34 -1 3 C-0.67 2.01 -0.34 1.02 0 0 Z " fill="#45474D" transform="translate(43,16)"/>
<path d="M0 0 C0.99 0 1.98 0 3 0 C3.36923077 4.55384615 3.36923077 4.55384615 1.5 6.8125 C1.005 7.204375 0.51 7.59625 0 8 C0 5.36 0 2.72 0 0 Z " fill="#2E3035" transform="translate(44,58)"/>
<path d="M0 0 C-0.66 0 -1.32 0 -2 0 C-2.33 0.99 -2.66 1.98 -3 3 C-5.0625 3.6875 -5.0625 3.6875 -7 4 C-7 2.68 -7 1.36 -7 0 C-3.86650268 -1.04449911 -3.01031744 -0.93423645 0 0 Z " fill="#2D2F34" transform="translate(54,54)"/>
<path d="M0 0 C2.475 0.495 2.475 0.495 5 1 C5 2.32 5 3.64 5 5 C3.68 4.67 2.36 4.34 1 4 C0.67 2.68 0.34 1.36 0 0 Z " fill="#47464B" transform="translate(35,39)"/>
<path d="M0 0 C0.66 0.33 1.32 0.66 2 1 C2.625 3.5625 2.625 3.5625 3 6 C1.68 6.33 0.36 6.66 -1 7 C-1.04254356 5.00045254 -1.04080783 2.99958364 -1 1 C-0.67 0.67 -0.34 0.34 0 0 Z " fill="#2D2E33" transform="translate(69,20)"/>
<path d="M0 0 C1.65 0 3.3 0 5 0 C5.33 0.99 5.66 1.98 6 3 C4.02 3 2.04 3 0 3 C0 2.01 0 1.02 0 0 Z " fill="#3E3F43" transform="translate(31,67)"/>
<path d="M0 0 C1.32 0.33 2.64 0.66 4 1 C3.01 1.495 3.01 1.495 2 2 C1.34 1.34 0.68 0.68 0 0 Z M0 2 C0.99 2.33 1.98 2.66 3 3 C2.01 4.485 2.01 4.485 1 6 C-0.32 5.67 -1.64 5.34 -3 5 C-2.01 4.01 -1.02 3.02 0 2 Z " fill="#616166" transform="translate(52,52)"/>
</svg>
