<?xml version="1.0" encoding="UTF-8"?>
<svg version="1.1" xmlns="http://www.w3.org/2000/svg" width="92" height="87">
<path d="M0 0 C5.51464563 3.3256977 9.65952556 7.48095892 11.375 13.875 C11.89622672 19.40000321 11.2035253 24.09835131 8.375 28.875 C4.70391018 32.92750175 0.72700509 36.36974857 -4.625 37.875 C-4.625 40.185 -4.625 42.495 -4.625 44.875 C-1.985 45.205 0.655 45.535 3.375 45.875 C3.705 46.865 4.035 47.855 4.375 48.875 C2.375 50.875 2.375 50.875 -1.25 51 C-2.36375 50.95875 -3.4775 50.9175 -4.625 50.875 C-4.955 54.175 -5.285 57.475 -5.625 60.875 C-6.945 60.875 -8.265 60.875 -9.625 60.875 C-10.7827506 57.40174819 -10.69366652 54.51432552 -10.625 50.875 C-13.595 50.875 -16.565 50.875 -19.625 50.875 C-19.955 49.555 -20.285 48.235 -20.625 46.875 C-19.625 45.875 -19.625 45.875 -17.55859375 45.77734375 C-14.09179688 45.82617188 -14.09179688 45.82617188 -10.625 45.875 C-10.625 42.905 -10.625 39.935 -10.625 36.875 C-11.49125 36.7925 -12.3575 36.71 -13.25 36.625 C-17.74540105 35.62602199 -21.07522596 33.99056456 -23.85546875 30.1953125 C-27.15794999 24.63951374 -28.16139197 20.3117036 -27.625 13.875 C-25.31861481 6.69186057 -20.64001255 2.0832569 -14.125 -1.5 C-8.73826948 -2.84668263 -4.91128774 -2.53722672 0 0 Z M-20.4375 9.625 C-23.00988157 14.49898614 -23.0355267 18.50657767 -21.5 23.625 C-18.95687138 28.03308961 -16.44717759 30.26760747 -11.625 31.875 C-6.27280697 32.22030278 -2.95502984 32.36307959 1.375 28.875 C4.37717884 25.45585188 6.23991694 23.25284718 6.6875 18.6875 C6.19953148 12.73428404 4.07155756 9.41373825 -0.3125 5.4375 C-8.29779408 1.67085185 -14.20870215 3.61098828 -20.4375 9.625 Z " fill="#494B4E" transform="translate(54.625,13.125)"/>
<path d="M0 0 C-0.99 0.495 -0.99 0.495 -2 1 C-1.67 2.32 -1.34 3.64 -1 5 C-1.56976563 4.84144531 -2.13953125 4.68289062 -2.7265625 4.51953125 C-7.97807759 3.31944275 -12.48756213 3.27178917 -17.375 5.625 C-20.37855123 8.34249873 -21.7395074 10.14437558 -23 14 C-23.14477333 18.91264178 -22.17976886 23.16234793 -19 27 C-13.89001936 30.61437655 -9.00218284 30.32027458 -3 30 C-3.33 30.66 -3.66 31.32 -4 32 C-6.32288812 32.39310414 -8.61845176 32.50749695 -10.96875 32.65625 C-11.6390625 32.7696875 -12.309375 32.883125 -13 33 C-13.33 33.66 -13.66 34.32 -14 35 C-13.34 35.33 -12.68 35.66 -12 36 C-17.02346252 35.521575 -20.10192881 34.22014577 -24 31 C-28.20200656 25.26392755 -29.58654951 20.03859417 -29 13 C-26.69361481 5.81686057 -22.01501255 1.2082569 -15.5 -2.375 C-9.46717758 -3.88320561 -5.3300127 -3.12000743 0 0 Z " fill="#636469" transform="translate(56,14)"/>
<path d="M0 0 C0.99 0.33 1.98 0.66 3 1 C2.01 1.495 2.01 1.495 1 2 C1 4.31 1 6.62 1 9 C3.64 9.33 6.28 9.66 9 10 C9.33 10.99 9.66 11.98 10 13 C8 15 8 15 4.375 15.125 C3.26125 15.08375 2.1475 15.0425 1 15 C0.67 18.3 0.34 21.6 0 25 C-1.32 25 -2.64 25 -4 25 C-5.1577506 21.52674819 -5.06866652 18.63932552 -5 15 C-7.97 15 -10.94 15 -14 15 C-14.33 13.68 -14.66 12.36 -15 11 C-14 10 -14 10 -11.93359375 9.90234375 C-8.46679688 9.95117188 -8.46679688 9.95117188 -5 10 C-5 7.03 -5 4.06 -5 1 C-4.67 1 -4.34 1 -4 1 C-3.67 3.97 -3.34 6.94 -3 10 C-2.67 10 -2.34 10 -2 10 C-1.93941406 9.36191406 -1.87882812 8.72382812 -1.81640625 8.06640625 C-1.73261719 7.24011719 -1.64882813 6.41382813 -1.5625 5.5625 C-1.48128906 4.73878906 -1.40007813 3.91507813 -1.31640625 3.06640625 C-1 1 -1 1 0 0 Z " fill="#5E6064" transform="translate(49,49)"/>
<path d="M0 0 C-0.99 0.495 -0.99 0.495 -2 1 C-1.67 2.32 -1.34 3.64 -1 5 C-1.56976563 4.84144531 -2.13953125 4.68289062 -2.7265625 4.51953125 C-8.04708538 3.30367293 -12.52080937 3.20561984 -17.375 5.8125 C-19.36763142 7.47302618 -21.2666284 9.07403156 -23 11 C-23.33 9.68 -23.66 8.36 -24 7 C-24.33 7.99 -24.66 8.98 -25 10 C-25.66 10 -26.32 10 -27 10 C-25.60496038 4.72985034 -22.26402346 2.07492759 -18 -1 C-11.693932 -4.4683374 -6.04980747 -3.54135072 0 0 Z " fill="#5E5F63" transform="translate(56,14)"/>
<path d="M0 0 C0.99 0.33 1.98 0.66 3 1 C2.01 1.495 2.01 1.495 1 2 C1 4.31 1 6.62 1 9 C3.64 9.33 6.28 9.66 9 10 C9.33 10.99 9.66 11.98 10 13 C8 15 8 15 4.375 15.125 C3.26125 15.08375 2.1475 15.0425 1 15 C0.67 18.3 0.34 21.6 0 25 C-1.32 24.67 -2.64 24.34 -4 24 C-3.01 24 -2.02 24 -1 24 C-1.08378906 23.26136719 -1.16757812 22.52273437 -1.25390625 21.76171875 C-1.95850792 14.74245909 -2.17934251 7.9843284 -1 1 C-0.67 0.67 -0.34 0.34 0 0 Z " fill="#7B7C7F" transform="translate(49,49)"/>
<path d="M0 0 C2.97 0 5.94 0 9 0 C9 0.99 9 1.98 9 3 C8.01 3.33 7.02 3.66 6 4 C5.67 7.63 5.34 11.26 5 15 C4.01 14.67 3.02 14.34 2 14 C1.92652344 12.93458984 1.92652344 12.93458984 1.8515625 11.84765625 C1.73941406 10.46900391 1.73941406 10.46900391 1.625 9.0625 C1.55539063 8.14597656 1.48578125 7.22945312 1.4140625 6.28515625 C1.27742188 5.53105469 1.14078125 4.77695312 1 4 C0.34 3.67 -0.32 3.34 -1 3 C-0.67 2.01 -0.34 1.02 0 0 Z " fill="#232329" transform="translate(43,46)"/>
<path d="M0 0 C1.423125 0.7425 1.423125 0.7425 2.875 1.5 C7.51587433 3.52978692 12.02390572 3.27033108 17 3 C16.67 3.66 16.34 4.32 16 5 C13.67711188 5.39310414 11.38154824 5.50749695 9.03125 5.65625 C8.3609375 5.7696875 7.690625 5.883125 7 6 C6.67 6.66 6.34 7.32 6 8 C6.66 8.33 7.32 8.66 8 9 C2.46153846 8.38461538 2.46153846 8.38461538 0.125 6.4375 C-0.24625 5.963125 -0.6175 5.48875 -1 5 C0.32 4.67 1.64 4.34 3 4 C2.01 3.67 1.02 3.34 0 3 C0 2.01 0 1.02 0 0 Z " fill="#808184" transform="translate(36,41)"/>
<path d="M0 0 C0 0.99 0 1.98 0 3 C-0.33 3.33 -0.66 3.66 -1 4 C-0.01 4.66 0.98 5.32 2 6 C-2.625 10 -2.625 10 -6 10 C-5.58578031 5.16743695 -3.53586014 3.17320782 0 0 Z " fill="#535559" transform="translate(58,39)"/>
<path d="M0 0 C0.99 0.33 1.98 0.66 3 1 C2.34 1 1.68 1 1 1 C1.0928125 2.5778125 1.0928125 2.5778125 1.1875 4.1875 C0.992078 8.16108064 0.4326186 9.91244563 -2 13 C-2.66 13 -3.32 13 -4 13 C-3.88590407 11.54077307 -3.75834456 10.08259402 -3.625 8.625 C-3.55539063 7.81289063 -3.48578125 7.00078125 -3.4140625 6.1640625 C-3 4 -3 4 -1 2 C-0.67 1.34 -0.34 0.68 0 0 Z " fill="#292A30" transform="translate(32,20)"/>
<path d="M0 0 C0.99 0.33 1.98 0.66 3 1 C2.125 4.875 2.125 4.875 1 6 C-0.66617115 6.04063832 -2.33388095 6.042721 -4 6 C-2.68 4.02 -1.36 2.04 0 0 Z " fill="#2E2F33" transform="translate(60,38)"/>
<path d="M0 0 C2.64 0 5.28 0 8 0 C8 0.99 8 1.98 8 3 C5.36 3 2.72 3 0 3 C0 2.01 0 1.02 0 0 Z " fill="#24252A" transform="translate(50,60)"/>
<path d="M0 0 C2.97 0 5.94 0 9 0 C9 0.66 9 1.32 9 2 C6.29120665 3.35439668 3.99066732 3.06501451 1 3 C0.67 2.01 0.34 1.02 0 0 Z " fill="#2D2E32" transform="translate(34,60)"/>
<path d="M0 0 C0.66 0 1.32 0 2 0 C2 0.99 2 1.98 2 3 C3.65 3.33 5.3 3.66 7 4 C5.02 4.99 5.02 4.99 3 6 C2.01 5.34 1.02 4.68 0 4 C0 2.68 0 1.36 0 0 Z " fill="#222328" transform="translate(34,41)"/>
</svg>
