<?xml version="1.0" encoding="UTF-8"?>
<svg version="1.1" xmlns="http://www.w3.org/2000/svg" width="122" height="113">
<path d="M0 0 C4.10719229 1.62837319 6.74516515 4.52278557 9.43359375 7.96484375 C10.37109375 10.90234375 10.37109375 10.90234375 10.43359375 12.96484375 C6.4220246 14.4506101 5.95229071 13.77232253 1.43359375 11.96484375 C1.43359375 19.22484375 1.43359375 26.48484375 1.43359375 33.96484375 C3.74359375 33.30484375 6.05359375 32.64484375 8.43359375 31.96484375 C9.09359375 32.62484375 9.75359375 33.28484375 10.43359375 33.96484375 C10.11832753 37.4399373 8.59526112 39.23543363 6.18359375 41.65234375 C5.6009375 42.25433594 5.01828125 42.85632813 4.41796875 43.4765625 C1.96945731 45.31294608 0.50180047 45.89012334 -2.56640625 45.96484375 C-5.0234375 44.453125 -5.0234375 44.453125 -7.37890625 42.27734375 C-8.56419922 41.21966797 -8.56419922 41.21966797 -9.7734375 40.140625 C-11.56640625 37.96484375 -11.56640625 37.96484375 -11.56640625 33.96484375 C-9.25640625 33.96484375 -6.94640625 33.96484375 -4.56640625 33.96484375 C-4.23640625 26.70484375 -3.90640625 19.44484375 -3.56640625 11.96484375 C-6.20640625 12.29484375 -8.84640625 12.62484375 -11.56640625 12.96484375 C-11.56640625 8.1143996 -10.69063089 7.49648332 -7.37890625 4.15234375 C-6.60160156 3.34152344 -5.82429688 2.53070312 -5.0234375 1.6953125 C-2.56640625 -0.03515625 -2.56640625 -0.03515625 0 0 Z " fill="#25282C" transform="translate(49.56640625,26.03515625)"/>
<path d="M0 0 C2.69876877 1.12024364 3.65834165 2.54223493 5.3203125 4.921875 C5.84109375 5.65535156 6.361875 6.38882813 6.8984375 7.14453125 C7.28515625 7.71042969 7.671875 8.27632812 8.0703125 8.859375 C6.0903125 9.519375 4.1103125 10.179375 2.0703125 10.859375 C1.7403125 19.109375 1.4103125 27.359375 1.0703125 35.859375 C0.0803125 35.529375 -0.9096875 35.199375 -1.9296875 34.859375 C-1.9296875 25.949375 -1.9296875 17.039375 -1.9296875 7.859375 C-3.9096875 7.859375 -5.8896875 7.859375 -7.9296875 7.859375 C-6.4314101 4.36339439 -4.31185905 -0.31422455 0 0 Z " fill="#232429" transform="translate(48.9296875,26.140625)"/>
<path d="M0 0 C1.36705078 -0.01836914 1.36705078 -0.01836914 2.76171875 -0.03710938 C4.08236328 -0.04000977 4.08236328 -0.04000977 5.4296875 -0.04296875 C6.23390137 -0.04707764 7.03811523 -0.05118652 7.86669922 -0.05541992 C10.34901431 0.21159667 11.97680414 0.94683238 14.125 2.1875 C13.465 3.5075 12.805 4.8275 12.125 6.1875 C4.535 6.1875 -3.055 6.1875 -10.875 6.1875 C-11.205 4.5375 -11.535 2.8875 -11.875 1.1875 C-8.25046571 -0.62476714 -3.99021368 0.00279819 0 0 Z " fill="#6C6D71" transform="translate(78.875,63.8125)"/>
<path d="M0 0 C0.84433594 0.00322266 1.68867187 0.00644531 2.55859375 0.00976562 C3.86763672 0.02233398 3.86763672 0.02233398 5.203125 0.03515625 C6.09128906 0.03966797 6.97945312 0.04417969 7.89453125 0.04882812 C10.08079829 0.06058225 12.26692679 0.07701376 14.453125 0.09765625 C15.113125 1.41765625 15.773125 2.73765625 16.453125 4.09765625 C14.453125 6.09765625 14.453125 6.09765625 12.33007812 6.34057617 C11.04520508 6.33441284 11.04520508 6.33441284 9.734375 6.328125 C8.80238281 6.32619141 7.87039062 6.32425781 6.91015625 6.32226562 C5.93433594 6.31001953 4.95851563 6.29777344 3.953125 6.28515625 C2.97730469 6.28451172 2.00148438 6.28386719 0.99609375 6.28320312 C-6.26618304 6.23800223 -6.26618304 6.23800223 -8.546875 5.09765625 C-8.546875 3.77765625 -8.546875 2.45765625 -8.546875 1.09765625 C-5.6220117 0.25573843 -3.03945844 -0.02053688 0 0 Z " fill="#646469" transform="translate(76.546875,45.90234375)"/>
<path d="M0 0 C0.33 1.32 0.66 2.64 1 4 C-1.55723229 5.27861615 -3.36737102 5.11336609 -6.2265625 5.09765625 C-7.2578125 5.09443359 -8.2890625 5.09121094 -9.3515625 5.08789062 C-10.97191406 5.07532227 -10.97191406 5.07532227 -12.625 5.0625 C-14.25695312 5.05573242 -14.25695312 5.05573242 -15.921875 5.04882812 C-18.61463789 5.03701776 -21.30729188 5.02054778 -24 5 C-24.5625 3.0625 -24.5625 3.0625 -25 1 C-20.31041727 -3.68958273 -6.07387447 -0.47912845 0 0 Z " fill="#5F5F64" transform="translate(92,29)"/>
<path d="M0 0 C1.12894876 0.93274109 2.25300876 1.87140122 3.375 2.8125 C4.00148438 3.33457031 4.62796875 3.85664063 5.2734375 4.39453125 C7 6 7 6 9 9 C9 9.99 9 10.98 9 12 C4.98843085 13.48576635 4.51869696 12.80747878 0 11 C0 18.26 0 25.52 0 33 C2.31 32.34 4.62 31.68 7 31 C7.33 31.66 7.66 32.32 8 33 C3.545 33.495 3.545 33.495 -1 34 C-1 26.08 -1 18.16 -1 10 C0.98 9.01 2.96 8.02 5 7 C4.175 6.21625 3.35 5.4325 2.5 4.625 C0 2 0 2 0 0 Z " fill="#8E8E92" transform="translate(51,27)"/>
<path d="M0 0 C3.625 0.375 3.625 0.375 7 1 C7.02886338 5.47915328 7.04675187 9.95828291 7.0625 14.4375 C7.07087891 15.71689453 7.07925781 16.99628906 7.08789062 18.31445312 C7.09111328 19.52939453 7.09433594 20.74433594 7.09765625 21.99609375 C7.10289307 23.12200928 7.10812988 24.2479248 7.11352539 25.40795898 C7 28 7 28 6 29 C4.33382885 29.04063832 2.66611905 29.042721 1 29 C1.33 28.34 1.66 27.68 2 27 C2.99 27 3.98 27 5 27 C5.33 19.74 5.66 12.48 6 5 C3.36 5.33 0.72 5.66 -2 6 C-2 2 -2 2 0 0 Z " fill="#646569" transform="translate(40,33)"/>
<path d="M0 0 C-0.84801704 5.05462789 -4.11514652 7.89211722 -8 11 C-10.9375 11.9375 -10.9375 11.9375 -13 12 C-12.34 10.68 -11.68 9.36 -11 8 C-10.34 8 -9.68 8 -9 8 C-8.32041397 5.60280568 -8.32041397 5.60280568 -8 3 C-8.66 2.34 -9.32 1.68 -10 1 C-6.56484998 0.37542727 -3.50935186 0 0 0 Z " fill="#4D4F53" transform="translate(60,60)"/>
<path d="M0 0 C0.99 0 1.98 0 3 0 C3 0.66 3 1.32 3 2 C4.32 2.33 5.64 2.66 7 3 C6.67 4.98 6.34 6.96 6 9 C1.3125 5.484375 1.3125 5.484375 0 4 C0 2.68 0 1.36 0 0 Z " fill="#404247" transform="translate(38,60)"/>
<path d="M0 0 C0.61359375 0.28746094 1.2271875 0.57492188 1.859375 0.87109375 C2.189375 1.86109375 2.519375 2.85109375 2.859375 3.87109375 C-0.91447534 6.02757966 -3.83093771 5.87109375 -8.140625 5.87109375 C-7.24034912 4.83577649 -6.31969465 3.8181521 -5.390625 2.80859375 C-4.62492187 1.95587891 -4.62492187 1.95587891 -3.84375 1.0859375 C-2.140625 -0.12890625 -2.140625 -0.12890625 0 0 Z " fill="#404045" transform="translate(49.140625,26.12890625)"/>
</svg>
