<?xml version="1.0" encoding="UTF-8"?>
<svg version="1.1" xmlns="http://www.w3.org/2000/svg" width="110" height="98">
<path d="M0 0 C4.2922673 0.44402765 4.94424651 1.13848054 7.625 4.375 C8.45336046 6.19204875 9.24349016 8.02688201 10 9.875 C11.97096606 13.7000965 12.99117373 15.09862227 16.984375 16.83984375 C19.43125358 17.47186944 21.89921409 18.02874996 24.3828125 18.49609375 C27.97119611 19.46884834 29.40078657 20.43329837 31.625 23.375 C31.74257444 28.78342411 29.25004291 31.58135044 25.625 35.375 C24.861875 35.849375 24.09875 36.32375 23.3125 36.8125 C21.23758503 38.38412409 21.23758503 38.38412409 21.3125 41.8125 C21.51046586 45.13904379 21.51046586 45.13904379 22.125 47.375 C23.12884932 51.39039729 23.32198553 55.05072749 21.375 58.75 C19.28424116 60.69141892 18.48966981 61.29542584 15.625 61.375 C11.75515336 59.98769649 8.47406699 58.29723796 5 56.125 C1.20832731 54.15894749 0.54364203 54.20951618 -3.375 55.375 C-5.71142701 56.5045468 -5.71142701 56.5045468 -7.9375 57.875 C-10.72886988 59.53917893 -13.13456894 60.8929524 -16.375 61.375 C-19.0625 60.375 -19.0625 60.375 -21.375 58.375 C-22.91900542 53.53711634 -22.13108429 50.42435861 -20.875 45.5625 C-20.08380453 41.53597018 -19.91980978 40.0670056 -22.20703125 36.58984375 C-24.63521965 33.98639822 -24.63521965 33.98639822 -27.23828125 31.7265625 C-29.81183235 28.89424484 -30.23621732 27.16325324 -30.375 23.375 C-28.73755727 20.66692163 -28.09043919 19.81289989 -25.375 18.375 C-23.25588548 18.00609656 -21.12970857 17.6767905 -19 17.375 C-14.52158132 16.52800575 -12.87645596 16.02092903 -10.04296875 12.37109375 C-8.24231028 9.14952587 -6.83982038 5.75986185 -5.375 2.375 C-3.375 0.375 -3.375 0.375 0 0 Z M-0.375 5.375 C-3.3337498 9.19274168 -5.3313218 13.22081272 -7.25 17.640625 C-9.22527203 20.68583604 -11.73604466 21.23043189 -15.171875 22.0078125 C-16.14640625 22.17023437 -17.1209375 22.33265625 -18.125 22.5 C-19.10984375 22.66757812 -20.0946875 22.83515625 -21.109375 23.0078125 C-21.85703125 23.12898438 -22.6046875 23.25015625 -23.375 23.375 C-24.1784812 25.18346076 -24.1784812 25.18346076 -24.375 27.375 C-23.0318439 29.28768216 -23.0318439 29.28768216 -21.0625 30.9375 C-15.44452231 36.05407603 -15.44452231 36.05407603 -15.1875 40.9375 C-15.30456594 45.77322403 -15.82385784 50.57218971 -16.375 55.375 C-12.71454174 55.03183204 -10.46194762 53.85244058 -7.5 51.8125 C-3.54105297 49.28645544 -1.1454364 48.47026206 3.625 49.375 C6.28831655 50.84498557 8.79438606 52.42492008 11.29296875 54.16015625 C13.53412339 55.61353692 13.53412339 55.61353692 15.92578125 55.05859375 C16.48652344 54.83300781 17.04726562 54.60742188 17.625 54.375 C17.46902344 53.66214844 17.31304687 52.94929688 17.15234375 52.21484375 C14.91874523 41.22435566 14.91874523 41.22435566 16.625 36.375 C18.89887372 33.91619015 21.25758341 31.6809316 23.7890625 29.48828125 C24.39492187 28.79089844 25.00078125 28.09351562 25.625 27.375 C25.52217113 25.13817121 25.52217113 25.13817121 24.625 23.375 C23.72136719 23.17003906 22.81773438 22.96507813 21.88671875 22.75390625 C20.11748047 22.34978516 20.11748047 22.34978516 18.3125 21.9375 C17.14074219 21.67066406 15.96898437 21.40382813 14.76171875 21.12890625 C11.625 20.375 11.625 20.375 8.625 19.375 C7.90066653 17.39515519 7.24756028 15.38916562 6.625 13.375 C5.36668512 10.66889425 4.00763387 8.01945506 2.625 5.375 C1.635 5.375 0.645 5.375 -0.375 5.375 Z " fill="#77787B" transform="translate(57.375,15.625)"/>
<path d="M0 0 C1.89772191 0.25726693 3.79315677 0.53143339 5.6875 0.8125 C6.74324219 0.96332031 7.79898438 1.11414062 8.88671875 1.26953125 C12.14970125 2.03512438 14.3096788 3.01613005 17 5 C18.0625 7.8125 18.0625 7.8125 18 11 C16.11212486 14.70023527 14.05545616 17.03495942 10.75 19.4375 C7.6387061 21.78601284 7.6387061 21.78601284 7.5625 25.5625 C7.90330639 28.78054835 7.90330639 28.78054835 8.5 31 C9.50384932 35.01539729 9.69698553 38.67572749 7.75 42.375 C5.65924116 44.31641892 4.86466981 44.92042584 2 45 C-1.86984664 43.61269649 -5.15093301 41.92223796 -8.625 39.75 C-12.41667269 37.78394749 -13.08135797 37.83451618 -17 39 C-19.33642701 40.1295468 -19.33642701 40.1295468 -21.5625 41.5 C-24.35386988 43.16417893 -26.75956894 44.5179524 -30 45 C-32.6875 44 -32.6875 44 -35 42 C-36.69680492 36.34398361 -35.51813229 31.53302761 -34 26 C-33.67 26 -33.34 26 -33 26 C-33 30.95 -33 35.9 -33 41 C-31.02 41.66 -29.04 42.32 -27 43 C-27 42.01 -27 41.02 -27 40 C-28.32 40 -29.64 40 -31 40 C-31 37.69 -31 35.38 -31 33 C-30.67 33 -30.34 33 -30 33 C-30 34.98 -30 36.96 -30 39 C-28.39459341 38.21085079 -26.79071984 37.41858235 -25.1875 36.625 C-24.29417969 36.18414062 -23.40085937 35.74328125 -22.48046875 35.2890625 C-19.85443619 33.98133095 -19.85443619 33.98133095 -17 32 C-10.74763923 30.97920641 -7.24381119 33.32713286 -2.234375 36.6875 C-0.00076941 38.25324651 -0.00076941 38.25324651 3 38 C2.84402344 37.28714844 2.68804687 36.57429688 2.52734375 35.83984375 C0.29374523 24.84935566 0.29374523 24.84935566 2 20 C4.23451324 17.50507357 6.567603 15.24544631 9.06640625 13.015625 C11.34613489 11.10470089 11.34613489 11.10470089 11 8 C7.37 7.34 3.74 6.68 0 6 C0 5.67 0 5.34 0 5 C3.3 5 6.6 5 10 5 C10.33 4.34 10.66 3.68 11 3 C10.28972656 2.95101562 9.57945313 2.90203125 8.84765625 2.8515625 C7.92855469 2.77679688 7.00945312 2.70203125 6.0625 2.625 C5.14597656 2.55539063 4.22945312 2.48578125 3.28515625 2.4140625 C2.53105469 2.27742188 1.77695313 2.14078125 1 2 C0.505 1.01 0.505 1.01 0 0 Z " fill="#4C4D51" transform="translate(71,32)"/>
<path d="M0 0 C3.72137194 2.96132295 5.20266356 6.34562793 7.125 10.625 C9.47360679 15.38022988 9.47360679 15.38022988 13.67578125 18.29296875 C16.16643349 18.76150729 18.46850562 19.02546775 21 19 C20.67 19.99 20.34 20.98 20 22 C18.08247047 21.93970033 16.16582574 21.85083293 14.25 21.75 C13.18265625 21.70359375 12.1153125 21.6571875 11.015625 21.609375 C7.36301108 20.87128203 6.27583228 19.90468067 4 17 C2.515625 14.4921875 2.515625 14.4921875 1.25 11.875 C0.82203125 11.00617187 0.3940625 10.13734375 -0.046875 9.2421875 C-1 7 -1 7 -1 5 C-4.82946843 6.45255699 -6.12050295 8.42895561 -8 12 C-8.99 11.67 -9.98 11.34 -11 11 C-10.40298507 3.71641791 -10.40298507 3.71641791 -8.875 1 C-5.79968313 -0.640169 -3.40757541 -0.41847417 0 0 Z " fill="#5E6064" transform="translate(61,16)"/>
<path d="M0 0 C5.02160776 1.07605881 7.74088986 3.08129567 10.87109375 6.99609375 C13.17398171 11.08391909 12.39783128 15.01084359 11.5 19.5 C11.335 19.995 11.17 20.49 11 21 C10.34 21 9.68 21 9 21 C9 23.31 9 25.62 9 28 C10.32 28 11.64 28 13 28 C13 28.99 13 29.98 13 31 C10.625 31.125 10.625 31.125 8 31 C7.34 30.34 6.68 29.68 6 29 C6.01171502 26.08588931 6.10719566 23.21983505 6.25 20.3125 C6.52123708 14.14709771 6.52123708 14.14709771 4.671875 8.39453125 C2.84907245 6.40925232 2.84907245 6.40925232 0 4 C0 2.68 0 1.36 0 0 Z " fill="#505155" transform="translate(31,44)"/>
<path d="M0 0 C1.89772191 0.25726693 3.79315677 0.53143339 5.6875 0.8125 C6.74324219 0.96332031 7.79898438 1.11414062 8.88671875 1.26953125 C12.14970125 2.03512438 14.3096788 3.01613005 17 5 C18.0625 7.8125 18.0625 7.8125 18 11 C16.12884642 14.66746101 14.07250411 17.02793175 10.8125 19.4375 C7.65994175 21.82100744 7.65994175 21.82100744 7.125 25.8125 C7.08375 26.864375 7.0425 27.91625 7 29 C6.67 29 6.34 29 6 29 C6 25.7 6 22.4 6 19 C5.34 18.67 4.68 18.34 4 18 C4.5053125 17.52949219 5.010625 17.05898438 5.53125 16.57421875 C6.1809375 15.95160156 6.830625 15.32898437 7.5 14.6875 C8.1496875 14.07261719 8.799375 13.45773438 9.46875 12.82421875 C11.3214614 11.01398471 11.3214614 11.01398471 11 8 C7.37 7.34 3.74 6.68 0 6 C0 5.67 0 5.34 0 5 C3.3 5 6.6 5 10 5 C10.33 4.34 10.66 3.68 11 3 C10.28972656 2.95101562 9.57945313 2.90203125 8.84765625 2.8515625 C7.92855469 2.77679688 7.00945312 2.70203125 6.0625 2.625 C5.14597656 2.55539063 4.22945313 2.48578125 3.28515625 2.4140625 C2.15400391 2.20910156 2.15400391 2.20910156 1 2 C0.67 1.34 0.34 0.68 0 0 Z " fill="#747478" transform="translate(71,32)"/>
<path d="M0 0 C0.99 0 1.98 0 3 0 C3 3.3 3 6.6 3 10 C3.66 10 4.32 10 5 10 C6.18391699 13.69974059 6.27585754 17.13799438 6 21 C4.6280531 23.60669911 3.77476855 24.67509706 1.0625 25.8125 C-1.20368984 26.01851726 -2.84422562 25.69292748 -5 25 C-5.33 23.68 -5.66 22.36 -6 21 C-3.3333581 19.66667905 -1.83319697 20.32897967 1 21 C0.77183594 20.14277344 0.54367188 19.28554687 0.30859375 18.40234375 C-2.59561987 6.85060618 -2.59561987 6.85060618 -1 1 C-0.67 0.67 -0.34 0.34 0 0 Z " fill="#4E4F53" transform="translate(74,51)"/>
<path d="M0 0 C0.33 0 0.66 0 1 0 C1 4.95 1 9.9 1 15 C2.98 15.66 4.96 16.32 7 17 C7 16.01 7 15.02 7 14 C5.68 14 4.36 14 3 14 C3 11.69 3 9.38 3 7 C3.33 7 3.66 7 4 7 C4 8.98 4 10.96 4 13 C5.03060547 12.45859375 5.03060547 12.45859375 6.08203125 11.90625 C6.98308594 11.4421875 7.88414063 10.978125 8.8125 10.5 C9.70582031 10.0359375 10.59914063 9.571875 11.51953125 9.09375 C14 8 14 8 17 8 C16.34 9.32 15.68 10.64 15 12 C15.66 12.33 16.32 12.66 17 13 C15.58671871 13.81837442 14.16921654 14.62946219 12.75 15.4375 C11.56664062 16.11619141 11.56664062 16.11619141 10.359375 16.80859375 C8.1778422 17.91019558 6.41047597 18.64270607 4 19 C1.3125 18 1.3125 18 -1 16 C-2.69680492 10.34398361 -1.51813229 5.53302761 0 0 Z " fill="#7B7B80" transform="translate(37,58)"/>
<path d="M0 0 C1.89772191 0.25726693 3.79315677 0.53143339 5.6875 0.8125 C6.74324219 0.96332031 7.79898438 1.11414062 8.88671875 1.26953125 C12.15474743 2.03630837 14.31688374 2.99492756 17 5 C17.9375 8.0625 17.9375 8.0625 18 11 C17.34 11.66 16.68 12.32 16 13 C15.67 10.69 15.34 8.38 15 6 C14.67 6 14.34 6 14 6 C13.67 7.65 13.34 9.3 13 11 C12.34 10.01 11.68 9.02 11 8 C8.35308332 7.19907746 8.35308332 7.19907746 5.375 6.8125 C3.87066406 6.57466797 3.87066406 6.57466797 2.3359375 6.33203125 C1.56507812 6.22246094 0.79421875 6.11289062 0 6 C0 5.67 0 5.34 0 5 C3.3 5 6.6 5 10 5 C10.33 4.34 10.66 3.68 11 3 C10.28972656 2.95101562 9.57945313 2.90203125 8.84765625 2.8515625 C7.92855469 2.77679688 7.00945312 2.70203125 6.0625 2.625 C5.14597656 2.55539063 4.22945313 2.48578125 3.28515625 2.4140625 C2.15400391 2.20910156 2.15400391 2.20910156 1 2 C0.67 1.34 0.34 0.68 0 0 Z " fill="#838387" transform="translate(71,32)"/>
<path d="M0 0 C-0.33 0.99 -0.66 1.98 -1 3 C-1.99 3 -2.98 3 -4 3 C-4.66 5.31 -5.32 7.62 -6 10 C-7.32 10 -8.64 10 -10 10 C-7.4 -0.6 -7.4 -0.6 0 0 Z " fill="#3F4043" transform="translate(60,17)"/>
<path d="M0 0 C0.66 0.33 1.32 0.66 2 1 C2.29359745 4.0534135 2.4451258 6.95743422 2 10 C-0.5 12.5625 -0.5 12.5625 -3 14 C-2.48594831 9.03083364 -1.76615118 4.70973649 0 0 Z " fill="#5D5D61" transform="translate(85,37)"/>
<path d="M0 0 C2.11332501 3.83934743 2.39370371 6.59051846 2 11 C0.62790785 13.60697509 -0.26130857 14.66639742 -2.9375 15.875 C-5.49878708 16.03022952 -6.83409519 15.31501363 -9 14 C-8.236875 13.9175 -7.47375 13.835 -6.6875 13.75 C-3.98306864 13.19938002 -3.98306864 13.19938002 -2.25 11.5 C-0.4044713 7.8089426 -0.25277064 4.07919514 0 0 Z " fill="#7C7E84" transform="translate(78,61)"/>
<path d="M0 0 C0.66 0.33 1.32 0.66 2 1 C1.34 1.66 0.68 2.32 0 3 C0 3.99 0 4.98 0 6 C0.66 5.01 1.32 4.02 2 3 C4.35953094 5.35953094 4.49141413 6.77895617 5 10 C3.68 9.67 2.36 9.34 1 9 C0.67 9.99 0.34 10.98 0 12 C-1.5625 10.375 -1.5625 10.375 -3 8 C-2.77962372 4.32706204 -2.63033454 2.63033454 0 0 Z " fill="#797A7D" transform="translate(30,35)"/>
<path d="M0 0 C-0.33 0.99 -0.66 1.98 -1 3 C-1.69867188 3.10957031 -2.39734375 3.21914063 -3.1171875 3.33203125 C-4.02726562 3.49058594 -4.93734375 3.64914063 -5.875 3.8125 C-6.77992187 3.96332031 -7.68484375 4.11414062 -8.6171875 4.26953125 C-11.34412478 4.83051301 -11.34412478 4.83051301 -13 8 C-13.6875 6.1875 -13.6875 6.1875 -14 4 C-12.36646432 1.40556099 -11.11210833 1.02680851 -8.125 0.3125 C-5.38423875 0.03842388 -2.75093571 -0.08090987 0 0 Z " fill="#25252B" transform="translate(43,34)"/>
<path d="M0 0 C-0.8125 2.4375 -0.8125 2.4375 -3 5 C-6.65557149 5.76562117 -10.27182653 5.93037367 -14 6 C-13.401875 5.71125 -12.80375 5.4225 -12.1875 5.125 C-9.80672208 3.95257974 -9.80672208 3.95257974 -7 2 C-9.97 2 -12.94 2 -16 2 C-16 1.67 -16 1.34 -16 1 C-13.70952777 0.63818911 -11.41757055 0.28576776 -9.125 -0.0625 C-7.84882812 -0.25972656 -6.57265625 -0.45695312 -5.2578125 -0.66015625 C-2 -1 -2 -1 0 0 Z " fill="#6B6C70" transform="translate(48,33)"/>
<path d="M0 0 C0.66 0 1.32 0 2 0 C2 2.31 2 4.62 2 7 C3.32 7 4.64 7 6 7 C6 7.99 6 8.98 6 10 C3.625 10.125 3.625 10.125 1 10 C-1 8 -1 8 -1.1875 4.4375 C-1 1 -1 1 0 0 Z " fill="#27272C" transform="translate(38,65)"/>
<path d="M0 0 C1.9375 1.5 1.9375 1.5 3 3 C3 3.33 3 3.66 3 4 C-2.625 4.25 -2.625 4.25 -6 2 C-8.62531524 1.83286431 -8.62531524 1.83286431 -11 2 C-11 1.34 -11 0.68 -11 0 C-7.16455058 -1.38076179 -3.92847503 -0.85712183 0 0 Z " fill="#4C4D51" transform="translate(65,68)"/>
<path d="M0 0 C5.75 1.625 5.75 1.625 8 5 C7.01 5.99 6.02 6.98 5 8 C2.5 6.25 2.5 6.25 0 4 C0 2.68 0 1.36 0 0 Z " fill="#414045" transform="translate(31,44)"/>
<path d="M0 0 C3.63 0.66 7.26 1.32 11 2 C10.67 2.99 10.34 3.98 10 5 C6.7 4.67 3.4 4.34 0 4 C0 2.68 0 1.36 0 0 Z " fill="#24252A" transform="translate(71,33)"/>
<path d="M0 0 C0.66 0 1.32 0 2 0 C2.1875 2.375 2.1875 2.375 2 5 C1.01 5.66 0.02 6.32 -1 7 C-0.67 4.69 -0.34 2.38 0 0 Z M-7 6 C-4.03 6.495 -4.03 6.495 -1 7 C-1 7.99 -1 8.98 -1 10 C-2.98 10 -4.96 10 -7 10 C-7 8.68 -7 7.36 -7 6 Z " fill="#25262C" transform="translate(76,65)"/>
<path d="M0 0 C0.66 0.33 1.32 0.66 2 1 C1.34 2.32 0.68 3.64 0 5 C0.66 5.33 1.32 5.66 2 6 C0.35 6.66 -1.3 7.32 -3 8 C-3 7.01 -3 6.02 -3 5 C-3.99 4.67 -4.98 4.34 -6 4 C-4.02 2.68 -2.04 1.36 0 0 Z " fill="#6C6B70" transform="translate(52,65)"/>
<path d="M0 0 C2.475 0.99 2.475 0.99 5 2 C5 3.98 5 5.96 5 8 C2.525 7.01 2.525 7.01 0 6 C0 4.02 0 2.04 0 0 Z " fill="#47494D" transform="translate(66,29)"/>
<path d="M0 0 C0.53109375 0.28875 1.0621875 0.5775 1.609375 0.875 C2.31578125 1.24625 3.0221875 1.6175 3.75 2 C4.44609375 2.37125 5.1421875 2.7425 5.859375 3.125 C8.23167757 4.25224649 8.23167757 4.25224649 12 4 C12 4.66 12 5.32 12 6 C9.69 6 7.38 6 5 6 C4.67 5.01 4.34 4.02 4 3 C1.98491642 2.26676204 1.98491642 2.26676204 0 2 C0 1.34 0 0.68 0 0 Z M1 6 C2.32 6 3.64 6 5 6 C5.33 6.99 5.66 7.98 6 9 C3.525 8.01 3.525 8.01 1 7 C1 6.67 1 6.34 1 6 Z " fill="#7A7C81" transform="translate(63,66)"/>
<path d="M0 0 C0.99 0.33 1.98 0.66 3 1 C3 1.66 3 2.32 3 3 C2.34 3.66 1.68 4.32 1 5 C0.3574765 7.06874034 0.3574765 7.06874034 0 9 C-2.875 4.25 -2.875 4.25 -4 2 C-3.01 2 -2.02 2 -1 2 C-0.67 1.34 -0.34 0.68 0 0 Z " fill="#6C6D71" transform="translate(38,49)"/>
<path d="M0 0 C1.2065625 0.0309375 1.2065625 0.0309375 2.4375 0.0625 C2.1075 1.0525 1.7775 2.0425 1.4375 3.0625 C0.4475 3.0625 -0.5425 3.0625 -1.5625 3.0625 C-1.8925 3.7225 -2.2225 4.3825 -2.5625 5.0625 C-3.5525 5.0625 -4.5425 5.0625 -5.5625 5.0625 C-3.15007962 0.07683121 -3.15007962 0.07683121 0 0 Z " fill="#222429" transform="translate(57.5625,16.9375)"/>
<path d="M0 0 C0.66 0.33 1.32 0.66 2 1 C2 2.65 2 4.3 2 6 C0.02 6.99 0.02 6.99 -2 8 C-1.125 1.125 -1.125 1.125 0 0 Z " fill="#292A2E" transform="translate(85,37)"/>
</svg>
