<?xml version="1.0" encoding="UTF-8"?>
<svg version="1.1" xmlns="http://www.w3.org/2000/svg" width="91" height="90">
<path d="M0 0 C1.26651146 -0.00574036 1.26651146 -0.00574036 2.55860901 -0.01159668 C4.33962195 -0.01431165 6.12067504 -0.00697946 7.90161133 0.00976562 C10.61696025 0.03115589 13.32965557 0.00996519 16.04492188 -0.015625 C17.77995372 -0.01298113 19.51498392 -0.00785491 21.25 0 C22.05642441 -0.00809692 22.86284882 -0.01619385 23.69371033 -0.02453613 C28.96612646 0.06245218 32.00827683 1.03626679 36.19140625 4.53125 C40.3509528 12.85034311 38.31313878 27.27065327 38.06640625 36.34375 C38.052146 37.74802246 38.052146 37.74802246 38.03759766 39.18066406 C37.86569562 43.61460661 37.64124736 45.90500062 35 49.58203125 C31.98482297 51.67462282 29.97608822 52.33107805 26.37890625 52.90625 C21.76072797 53.86837047 19.23777042 54.96174752 15.87890625 58.28125 C12.56667323 61.49104282 12.56667323 61.49104282 8.69140625 61.90625 C4.62994359 60.31067538 2.47588499 58.14804474 -0.62890625 55.1640625 C-3.7303159 52.84078431 -6.61123715 52.56047717 -10.4140625 52.30859375 C-13.99805439 51.14511188 -15.93804013 48.68332085 -17.80859375 45.53125 C-18.28802297 42.64540138 -18.49065204 40.36960436 -18.4375 37.5 C-18.43991196 36.74585815 -18.44232391 35.99171631 -18.44480896 35.21472168 C-18.44383401 33.62795731 -18.43052449 32.04115745 -18.40551758 30.45458984 C-18.37118327 28.03755162 -18.38487914 25.62417056 -18.40429688 23.20703125 C-18.39739782 21.65883874 -18.38772488 20.11065559 -18.375 18.5625 C-18.37995987 17.84670776 -18.38491974 17.13091553 -18.39002991 16.39343262 C-18.24196494 10.0271567 -15.84732197 6.70191058 -11.60913086 2.18945312 C-7.69892074 -0.12578941 -4.46791632 -0.0447479 0 0 Z M-11.80859375 5.53125 C-14.33007269 9.31346842 -14.02110291 12.2269933 -13.890625 16.59375 C-13.87271408 17.38144775 -13.85480316 18.16914551 -13.83634949 18.98071289 C-13.79518146 20.64515836 -13.74860451 22.30947756 -13.69702148 23.97363281 C-13.62138624 26.52139739 -13.57239246 29.06875317 -13.52539062 31.6171875 C-13.48208622 33.23441912 -13.43721682 34.85160975 -13.390625 36.46875 C-13.37796097 37.23131104 -13.36529694 37.99387207 -13.35224915 38.77954102 C-13.216984 42.89817967 -13.216984 42.89817967 -11.40966797 46.50488281 C-9.30923952 47.85136058 -7.59461657 48.01720047 -5.12109375 48.28125 C0.1541204 49.15019927 2.73011537 51.29874642 6.3046875 55.16796875 C8.15139382 56.79946951 8.15139382 56.79946951 10.76171875 56.41796875 C13.50755602 55.63299548 13.50755602 55.63299548 15.75390625 52.65625 C19.34138516 48.7100232 23.59560982 48.14741758 28.6796875 47.171875 C29.50855469 46.96046875 30.33742187 46.7490625 31.19140625 46.53125 C32.69968187 43.51469875 32.47241099 40.35415204 32.578125 37.0390625 C32.61641167 35.92553909 32.61641167 35.92553909 32.6554718 34.78952026 C32.70750219 33.21767223 32.75692652 31.64573611 32.80395508 30.07373047 C32.87840765 27.67233192 32.96911818 25.27189803 33.06054688 22.87109375 C33.10907606 21.34378154 33.1566339 19.8164381 33.203125 18.2890625 C33.2321843 17.57227325 33.26124359 16.85548401 33.29118347 16.11697388 C33.38409095 12.42160308 33.38111244 9.60397126 31.19140625 6.53125 C27.77251177 4.82180276 23.86051022 5.34629264 20.09765625 5.328125 C19.19519165 5.32242493 18.29272705 5.31672485 17.36291504 5.31085205 C15.45305557 5.30139894 13.54317976 5.29486683 11.63330078 5.29101562 C8.70316411 5.28128903 5.77372257 5.25026038 2.84375 5.21875 C0.9908896 5.21222218 -0.86197584 5.20697084 -2.71484375 5.203125 C-3.59507202 5.1907782 -4.47530029 5.1784314 -5.38220215 5.16571045 C-8.10252397 5.14037008 -8.10252397 5.14037008 -11.80859375 5.53125 Z " fill="#2C2D32" transform="translate(37.80859375,11.46875)"/>
<path d="M0 0 C0.84175781 -0.01095703 1.68351562 -0.02191406 2.55078125 -0.03320312 C6.62414025 0.01490741 8.96952205 0.24804142 12.53125 2.359375 C14.83407125 4.93634164 15.41300821 7.03781191 15.63671875 10.4765625 C15.27044237 16.06489362 12.24706014 20.59502456 8.5 24.5625 C5.75755977 26.65541491 3.97908651 27.49114669 0.5625 28 C-6.01498175 27.06035975 -9.68757503 22.57311568 -13.5 17.5625 C-14.70256511 15.15736979 -14.7703777 13.43396436 -14.875 10.75 C-14.92398438 9.89792969 -14.97296875 9.04585937 -15.0234375 8.16796875 C-13.38486774 0.01180434 -6.89315175 -0.19528837 0 0 Z M-7.5 5.5625 C-9.34587664 7.63451057 -9.34587664 7.63451057 -10.5 10.5625 C-8.9590173 16.31550208 -6.50116243 19.36175604 -1.5 22.5625 C1.46299994 22.784725 2.76504363 22.11550115 5.109375 20.3515625 C7.94317228 17.80114495 9.34560975 16.08742686 10.4375 12.375 C10.65997761 9.48038889 10.65997761 9.48038889 9.5 6.5625 C6.59926819 5.88448966 6.59926819 5.88448966 3.5 5.5625 C2.84 6.2225 2.18 6.8825 1.5 7.5625 C-0.3125 7.25 -0.3125 7.25 -2.5 6.5625 C-4.16519519 6.22189189 -5.83157466 5.88691604 -7.5 5.5625 Z " fill="#57585C" transform="translate(47.5,25.4375)"/>
<path d="M0 0 C0.84671265 -0.00145523 1.69342529 -0.00291046 2.5657959 -0.00440979 C4.35102794 -0.00275421 6.13627476 0.00876892 7.92138672 0.02954102 C10.64742926 0.05850005 13.37152591 0.05014247 16.09765625 0.03710938 C17.83594691 0.04334731 19.57423146 0.05173868 21.3125 0.0625 C22.12408569 0.05956436 22.93567139 0.05662872 23.77185059 0.05360413 C28.40582741 0.13050938 31.32717253 0.59980183 35.15625 3.49609375 C34.16625 3.82609375 33.17625 4.15609375 32.15625 4.49609375 C32.64544922 5.53056641 32.64544922 5.53056641 33.14453125 6.5859375 C36.95162286 17.53683807 33.80980712 33.00049081 33.15625 44.49609375 C32.82625 44.49609375 32.49625 44.49609375 32.15625 44.49609375 C32.16148682 43.48708008 32.16672363 42.47806641 32.17211914 41.43847656 C32.19024262 37.68881113 32.20170888 33.93914957 32.21118164 30.18945312 C32.21620505 28.56770171 32.22302494 26.9459548 32.23168945 25.32421875 C32.24384229 22.99087406 32.24949828 20.65758935 32.25390625 18.32421875 C32.25906754 17.6011554 32.26422882 16.87809204 32.26954651 16.13311768 C32.26993125 12.66722666 32.00500938 9.89113126 31.15625 6.49609375 C16.96625 6.49609375 2.77625 6.49609375 -11.84375 6.49609375 C-13.43020357 9.66900088 -12.96453213 13.08434759 -12.94140625 16.56640625 C-12.9399913 17.36263397 -12.93857635 18.15886169 -12.93711853 18.97921753 C-12.93151345 21.52654755 -12.91896014 24.07379022 -12.90625 26.62109375 C-12.90123565 28.3463529 -12.89667263 30.07161342 -12.89257812 31.796875 C-12.88154237 36.02998166 -12.86427436 40.26302289 -12.84375 44.49609375 C-13.17375 44.49609375 -13.50375 44.49609375 -13.84375 44.49609375 C-13.84375 37.23609375 -13.84375 29.97609375 -13.84375 22.49609375 C-14.83375 22.49609375 -15.82375 22.49609375 -16.84375 22.49609375 C-16.84375 30.08609375 -16.84375 37.67609375 -16.84375 45.49609375 C-17.17375 45.49609375 -17.50375 45.49609375 -17.84375 45.49609375 C-17.94299823 40.621479 -18.01539581 35.74745878 -18.06347656 30.87207031 C-18.08353009 29.2153905 -18.11078029 27.55878093 -18.14550781 25.90234375 C-18.19430512 23.51414617 -18.21678064 21.12688828 -18.234375 18.73828125 C-18.25502014 18.00366669 -18.27566528 17.26905212 -18.29693604 16.51217651 C-18.29974188 10.00869699 -15.96144843 6.75520738 -11.64648438 2.15209961 C-7.72236062 -0.16648327 -4.48007249 -0.06201321 0 0 Z " fill="#5C5E63" transform="translate(37.84375,11.50390625)"/>
<path d="M0 0 C0.99 0 1.98 0 3 0 C3 7.26 3 14.52 3 22 C6.47754925 23.73877462 8.09349878 24.23917103 11.75 24.6875 C16.87732208 25.61905187 19.64503455 27.73372925 23.30859375 31.34375 C25.1010742 33.20157752 25.1010742 33.20157752 28 35 C27.34 35 26.68 35 26 35 C26 35.99 26 36.98 26 38 C27.485 38.495 27.485 38.495 29 39 C23.985619 38.89553373 21.79000248 38.09896883 18.1875 34.5625 C14.41320808 30.94271126 11.44558981 30.06574809 6.296875 29.58203125 C3.16167811 28.78756809 2.02188824 27.50452745 0 25 C-0.45410156 22.25097656 -0.45410156 22.25097656 -0.390625 19.140625 C-0.37773437 18.02558594 -0.36484375 16.91054688 -0.3515625 15.76171875 C-0.31804688 14.60285156 -0.28453125 13.44398437 -0.25 12.25 C-0.23195313 11.07566406 -0.21390625 9.90132812 -0.1953125 8.69140625 C-0.1481912 5.7934466 -0.08241305 2.89713582 0 0 Z " fill="#34363A" transform="translate(21,34)"/>
<path d="M0 0 C5.46261638 -0.07428762 10.92493716 -0.12866714 16.38793945 -0.16479492 C18.24541345 -0.17985946 20.10285201 -0.20031509 21.96020508 -0.22631836 C24.63371539 -0.26280459 27.30675444 -0.2797497 29.98046875 -0.29296875 C31.2213752 -0.31619453 31.2213752 -0.31619453 32.48735046 -0.33988953 C37.18680757 -0.34125398 40.12407525 0.03404523 44 3 C43.01 3.33 42.02 3.66 41 4 C41.48919922 5.03447266 41.48919922 5.03447266 41.98828125 6.08984375 C45.79537286 17.04074432 42.65355712 32.50439706 42 44 C41.67 44 41.34 44 41 44 C41.00523682 42.99098633 41.01047363 41.98197266 41.01586914 40.94238281 C41.03399262 37.19271738 41.04545888 33.44305582 41.05493164 29.69335938 C41.05995505 28.07160796 41.06677494 26.44986105 41.07543945 24.828125 C41.08759229 22.49478031 41.09324828 20.1614956 41.09765625 17.828125 C41.10281754 17.10506165 41.10797882 16.38199829 41.11329651 15.63702393 C41.11368125 12.17113291 40.84875938 9.39503751 40 6 C20.2 5.505 20.2 5.505 0 5 C0 4.67 0 4.34 0 4 C11.88 3.67 23.76 3.34 36 3 C36 2.67 36 2.34 36 2 C24.12 1.67 12.24 1.34 0 1 C0 0.67 0 0.34 0 0 Z " fill="#8D8D91" transform="translate(29,12)"/>
<path d="M0 0 C0.85464844 -0.01998047 1.70929687 -0.03996094 2.58984375 -0.06054688 C8.86907349 -0.05564888 8.86907349 -0.05564888 12.09375 2.46484375 C12.5578125 3.11582031 13.021875 3.76679688 13.5 4.4375 C12.51 4.4375 11.52 4.4375 10.5 4.4375 C10.17 5.0975 9.84 5.7575 9.5 6.4375 C8.55125 6.39625 7.6025 6.355 6.625 6.3125 C3.39755144 6.08776182 3.39755144 6.08776182 1.5 8.4375 C-0.3125 8.125 -0.3125 8.125 -2.5 7.4375 C-4.16519519 7.09689189 -5.83157466 6.76191604 -7.5 6.4375 C-8.16 7.7575 -8.82 9.0775 -9.5 10.4375 C-10.49 10.1075 -11.48 9.7775 -12.5 9.4375 C-12.83 8.7775 -13.16 8.1175 -13.5 7.4375 C-13.83 8.4275 -14.16 9.4175 -14.5 10.4375 C-14.01747162 4.043999 -14.01747162 4.043999 -12.046875 1.734375 C-8.11761986 -0.26641136 -4.34601713 -0.03605293 0 0 Z " fill="#4D4E52" transform="translate(47.5,25.5625)"/>
<path d="M0 0 C2.63153781 1.3157689 3.00184274 2.70399321 4.3125 5.3125 C6.3873636 9.13974107 8.18672629 11.71203578 12 14 C14.68507329 14.78946609 14.68507329 14.78946609 17 15 C16.67 16.32 16.34 17.64 16 19 C12.18590099 19.55622277 10.110341 19.72361541 6.82421875 17.58203125 C0.54066841 12.19448992 0.54066841 12.19448992 -1 8 C-0.96986729 5.24787881 -0.45482541 2.72895247 0 0 Z " fill="#47494D" transform="translate(34,33)"/>
<path d="M0 0 C12.21 0 24.42 0 37 0 C37 0.99 37 1.98 37 3 C25.12 3 13.24 3 1 3 C0.67 2.01 0.34 1.02 0 0 Z " fill="#222328" transform="translate(28,13)"/>
<path d="M0 0 C2.4375 2 2.4375 2 4 4 C3.01 4 2.02 4 1 4 C0.67 4.66 0.34 5.32 0 6 C-0.94875 5.95875 -1.8975 5.9175 -2.875 5.875 C-6.10244856 5.65026182 -6.10244856 5.65026182 -8 8 C-10.0625 7.75 -10.0625 7.75 -12 7 C-12.33 6.34 -12.66 5.68 -13 5 C-12.01 5 -11.02 5 -10 5 C-10.33 3.68 -10.66 2.36 -11 1 C-7.28983366 -0.18725323 -3.87209322 -0.34572261 0 0 Z " fill="#545458" transform="translate(57,26)"/>
<path d="M0 0 C0.99 0 1.98 0 3 0 C3.33 7.92 3.66 15.84 4 24 C2.68 23.67 1.36 23.34 0 23 C0 15.41 0 7.82 0 0 Z " fill="#212429" transform="translate(21,34)"/>
<path d="M0 0 C0.99 0.66 1.98 1.32 3 2 C4.71444889 2.43738696 6.44667784 2.80848688 8.1875 3.125 C9.08855469 3.29257812 9.98960938 3.46015625 10.91796875 3.6328125 C11.60503906 3.75398438 12.29210937 3.87515625 13 4 C13 4.33 13 4.66 13 5 C11.35 5.33 9.7 5.66 8 6 C8.33 6.66 8.66 7.32 9 8 C4.64642017 8.43535798 1.95900264 8.38921814 -1.4375 5.625 C-4 3 -4 3 -4 1 C-2.68 1.33 -1.36 1.66 0 2 C0 1.34 0 0.68 0 0 Z " fill="#535558" transform="translate(25,56)"/>
<path d="M0 0 C-0.3015987 3.51865145 -1.00605962 5.00757452 -3.25 7.8125 C-6 10 -6 10 -8.8125 10.3125 C-9.534375 10.209375 -10.25625 10.10625 -11 10 C-11 7 -11 7 -9.35546875 5.17578125 C-8.64003906 4.56089844 -7.92460938 3.94601563 -7.1875 3.3125 C-6.47980469 2.68988281 -5.77210937 2.06726563 -5.04296875 1.42578125 C-3 0 -3 0 0 0 Z " fill="#2D2E32" transform="translate(58,62)"/>
<path d="M0 0 C0 0.99 0 1.98 0 3 C0.66 2.67 1.32 2.34 2 2 C2.99 2 3.98 2 5 2 C3.48941618 6.22963468 0.87685679 7.91246173 -3 10 C-6.375 10.25 -6.375 10.25 -9 10 C-9 9.67 -9 9.34 -9 9 C-7.35 9 -5.7 9 -4 9 C-4.33 7.35 -4.66 5.7 -5 4 C-3.35 2.68 -1.7 1.36 0 0 Z " fill="#6C6D71" transform="translate(54,43)"/>
<path d="M0 0 C2.19726562 1.85546875 2.19726562 1.85546875 4.39453125 3.7109375 C5.8655046 4.89201099 7.43037794 5.95358529 9 7 C8.34 7 7.68 7 7 7 C7 7.99 7 8.98 7 10 C7.99 10.33 8.98 10.66 10 11 C6.625 10.6875 6.625 10.6875 3 10 C1 7 1 7 1 4 C0.6937566 2.66018514 0.36548445 1.32488113 0 0 Z " fill="#56575B" transform="translate(40,62)"/>
<path d="M0 0 C0.99 0.33 1.98 0.66 3 1 C3.33 3.31 3.66 5.62 4 8 C2.02 8.99 2.02 8.99 0 10 C-0.19412181 8.52168779 -0.38012131 7.04230684 -0.5625 5.5625 C-0.66691406 4.73878906 -0.77132812 3.91507813 -0.87890625 3.06640625 C-0.91886719 2.38449219 -0.95882812 1.70257812 -1 1 C-0.67 0.67 -0.34 0.34 0 0 Z " fill="#37393D" transform="translate(58,29)"/>
<path d="M0 0 C-1.32 0.99 -2.64 1.98 -4 3 C-1.03 3.495 -1.03 3.495 2 4 C2 4.33 2 4.66 2 5 C-1.3 5.33 -4.6 5.66 -8 6 C-8 5.01 -8 4.02 -8 3 C-8.66 2.67 -9.32 2.34 -10 2 C-6.5980513 -0.09350689 -3.94727588 -0.17942163 0 0 Z " fill="#616266" transform="translate(66,59)"/>
<path d="M0 0 C-0.33 1.32 -0.66 2.64 -1 4 C-7.75 4.125 -7.75 4.125 -10 3 C-10 2.34 -10 1.68 -10 1 C-6.78548731 -0.60725635 -3.56387464 -0.05748185 0 0 Z " fill="#393B3F" transform="translate(51,48)"/>
<path d="M0 0 C-0.33 1.32 -0.66 2.64 -1 4 C-3.97 4 -6.94 4 -10 4 C-7.16124653 -0.25813021 -4.8137938 -0.13010254 0 0 Z " fill="#2A2C30" transform="translate(71,59)"/>
<path d="M0 0 C0.66 0.33 1.32 0.66 2 1 C2 3.64 2 6.28 2 9 C1.01 8.67 0.02 8.34 -1 8 C-1.33 7.34 -1.66 6.68 -2 6 C-2.33 6.99 -2.66 7.98 -3 9 C-2.25 2.25 -2.25 2.25 0 0 Z " fill="#656669" transform="translate(36,27)"/>
<path d="M0 0 C0.99 0 1.98 0 3 0 C3 0.99 3 1.98 3 3 C4.98 3 6.96 3 9 3 C8.38125 3.28875 7.7625 3.5775 7.125 3.875 C4.86674235 4.93720042 4.86674235 4.93720042 3 7 C0.9375 6.75 0.9375 6.75 -1 6 C-1.33 5.34 -1.66 4.68 -2 4 C-1.01 4 -0.02 4 1 4 C0.67 2.68 0.34 1.36 0 0 Z " fill="#6D6E74" transform="translate(46,27)"/>
<path d="M0 0 C1.98 0 3.96 0 6 0 C4.25 4.875 4.25 4.875 2 6 C2 5.01 2 4.02 2 3 C0.68 2.67 -0.64 2.34 -2 2 C-1.34 2 -0.68 2 0 2 C0 1.34 0 0.68 0 0 Z " fill="#5B5F61" transform="translate(69,56)"/>
<path d="M0 0 C1.98 1.65 3.96 3.3 6 5 C5.01 5.66 4.02 6.32 3 7 C0 2.25 0 2.25 0 0 Z M1 7 C1.66 7 2.32 7 3 7 C2.67 7.66 2.34 8.32 2 9 C1.67 8.34 1.34 7.68 1 7 Z " fill="#6D6E73" transform="translate(40,62)"/>
</svg>
