<?xml version="1.0" encoding="UTF-8"?>
<svg version="1.1" xmlns="http://www.w3.org/2000/svg" width="112" height="89">
<path d="M0 0 C5.61581407 4.26975555 9.51652983 10.82504141 10.921875 17.703125 C11.88211874 27.35700401 9.3085468 34.28622913 3.953125 42.08984375 C-1.95082292 47.99379167 -8.67932656 50.98482054 -16.984375 51.21484375 C-24.41300148 51.13549927 -30.03312395 48.76873595 -36.171875 44.71484375 C-42.78372587 37.79546494 -45.22445483 30.54426423 -45.14453125 21.11328125 C-44.53953431 14.30084994 -41.79158966 7.70125531 -36.859375 2.90234375 C-25.04388767 -6.2696007 -13.07516629 -7.71874313 0 0 Z M-19.859375 0.90234375 C-19.859375 2.55234375 -19.859375 4.20234375 -19.859375 5.90234375 C-17.384375 6.39734375 -17.384375 6.39734375 -14.859375 6.90234375 C-15.189375 8.22234375 -15.519375 9.54234375 -15.859375 10.90234375 C-21.609375 10.15234375 -21.609375 10.15234375 -23.859375 7.90234375 C-24.25701763 5.91413062 -24.59712849 3.91290036 -24.859375 1.90234375 C-30.23040852 3.64003107 -34.36043657 6.22270305 -37.12890625 11.171875 C-40.39638153 18.68822274 -40.96899025 24.27705276 -38.296875 32.02734375 C-35.51705717 38.39939097 -31.47153809 41.42376087 -25.546875 44.77734375 C-18.23172025 47.00908588 -11.77862552 46.67033693 -4.90234375 43.23828125 C0.1169454 39.95606922 3.30561891 35.58172912 5.140625 29.90234375 C5.97787232 22.29896988 5.98646912 15.12259395 1.140625 8.90234375 C-2.90035059 4.62197387 -7.08758656 1.081041 -13.16796875 0.79296875 C-15.40322274 0.77902021 -17.62602257 0.8147613 -19.859375 0.90234375 Z " fill="#6C6D71" transform="translate(75.859375,17.09765625)"/>
<path d="M0 0 C0.33 0.66 0.66 1.32 1 2 C1.66 2 2.32 2 3 2 C3.33 1.34 3.66 0.68 4 0 C3.95359375 0.67804687 3.9071875 1.35609375 3.859375 2.0546875 C3.56597439 9.62023172 4.34595548 16.60882834 9.35546875 22.62890625 C15.08694194 27.77647601 21.58518515 29.34957764 29 30 C29 30.33 29 30.66 29 31 C27.54176788 31.0270043 26.08339325 31.04639787 24.625 31.0625 C23.81289063 31.07410156 23.00078125 31.08570312 22.1640625 31.09765625 C20 31 20 31 18 30 C18 30.99 18 31.98 18 33 C22.29 33.33 26.58 33.66 31 34 C31 34.33 31 34.66 31 35 C21.50299432 35.64998518 14.64931701 34.07030368 6.6875 28.8125 C0.89878263 22.75453996 -2.15250588 16.18304683 -2.0625 7.8125 C-2.05347656 6.72582031 -2.04445313 5.63914062 -2.03515625 4.51953125 C-2.02355469 3.68808594 -2.01195313 2.85664062 -2 2 C-1.34 2 -0.68 2 0 2 C0 1.34 0 0.68 0 0 Z " fill="#4B4C50" transform="translate(33,33)"/>
<path d="M0 0 C0.99 0 1.98 0 3 0 C3.80669104 7.14497775 2.60149175 10.99988713 -1.8203125 16.69140625 C-6.10143294 21.22571123 -10.58847532 24.5318424 -16.875 25.39453125 C-21.65218599 25.46592941 -26.32444584 25.01093063 -31 24 C-31 23.01 -31 22.02 -31 21 C-30.31035156 21.04640625 -29.62070312 21.0928125 -28.91015625 21.140625 C-20.55984327 21.46135033 -15.33178627 19.55969189 -8.25 15.375 C-4.18819833 11.08754268 -1.85496922 5.56490767 0 0 Z " fill="#45474C" transform="translate(82,42)"/>
<path d="M0 0 C6.74778337 1.7672766 10.94390991 5.13126875 14.75 10.8125 C19.27085941 18.62921175 19.20180326 25.165122 18 34 C17.67 34 17.34 34 17 34 C17 32.02 17 30.04 17 28 C16.01 28 15.02 28 14 28 C13.67 28.99 13.34 29.98 13 31 C12.96132812 29.948125 12.96132812 29.948125 12.921875 28.875 C12.48508447 21.56868575 11.70160653 15.35084946 6.0625 10.24609375 C4.0871413 8.7391565 2.08749493 7.34594129 0 6 C-0.99 5.34 -1.98 4.68 -3 4 C-1.02 4 0.96 4 3 4 C3 3.34 3 2.68 3 2 C2.01 1.67 1.02 1.34 0 1 C0 0.67 0 0.34 0 0 Z " fill="#76767A" transform="translate(68,14)"/>
<path d="M0 0 C-1.24423208 3.73269624 -2.39216332 4.05771371 -5.6875 6.0625 C-10.66464041 9.37112686 -13.05879678 12.72838233 -15.6484375 18.05859375 C-16.09445313 18.69925781 -16.54046875 19.33992188 -17 20 C-18.32 20 -19.64 20 -21 20 C-20.65355836 13.24438805 -16.9988612 7.96454929 -12.29296875 3.3125 C-8.24210825 0.09375757 -5.26996946 -0.53775199 0 0 Z " fill="#494A50" transform="translate(53,15)"/>
<path d="M0 0 C1.32 0 2.64 0 4 0 C4 0.66 4 1.32 4 2 C5.8871875 2.061875 5.8871875 2.061875 7.8125 2.125 C8.52019531 2.14820313 9.22789063 2.17140625 9.95703125 2.1953125 C12.31359719 2.13254462 12.31359719 2.13254462 15 0 C15.99 0 16.98 0 18 0 C18.3125 2.3125 18.3125 2.3125 18 5 C14.47954841 8.29332568 10.77580813 8.50208888 6.16015625 8.37109375 C2.98837544 7.82621278 1.19852574 6.26944593 -1 4 C-0.67 2.68 -0.34 1.36 0 0 Z " fill="#4A4A4F" transform="translate(50,46)"/>
<path d="M0 0 C0.59167969 0.40992188 1.18335938 0.81984375 1.79296875 1.2421875 C2.58316406 1.78101563 3.37335937 2.31984375 4.1875 2.875 C4.96480469 3.40867188 5.74210937 3.94234375 6.54296875 4.4921875 C11.64039865 7.62034003 16.14954862 8.40503884 22 9 C22 9.33 22 9.66 22 10 C20.54176788 10.0270043 19.08339325 10.04639787 17.625 10.0625 C16.81289063 10.07410156 16.00078125 10.08570312 15.1640625 10.09765625 C13 10 13 10 11 9 C11 9.99 11 10.98 11 12 C15.29 12.33 19.58 12.66 24 13 C24 13.33 24 13.66 24 14 C14.59987447 14.6433546 6.81038679 13.36199242 -0.625 7.25 C-1.40875 6.5075 -2.1925 5.765 -3 5 C-2.67 4.34 -2.34 3.68 -2 3 C-0.68 3.99 0.64 4.98 2 6 C1.34 4.02 0.68 2.04 0 0 Z " fill="#606165" transform="translate(40,54)"/>
<path d="M0 0 C-0.25 2.375 -0.25 2.375 -1 5 C-6.32148649 8.5841062 -13.63863189 7.32018551 -19.6875 6.5 C-20.8321875 6.2525 -20.8321875 6.2525 -22 6 C-22 5.01 -22 4.02 -22 3 C-21.29875 3.03480469 -20.5975 3.06960937 -19.875 3.10546875 C-12.65608397 3.31144326 -6.72344752 0 0 0 Z " fill="#505155" transform="translate(73,60)"/>
<path d="M0 0 C-1.31625194 3.94875582 -3.05365398 4.54992713 -6.5625 6.6875 C-7.57441406 7.31011719 -8.58632813 7.93273437 -9.62890625 8.57421875 C-10.41136719 9.04472656 -11.19382813 9.51523437 -12 10 C-12.33 8.68 -12.66 7.36 -13 6 C-12.34 6 -11.68 6 -11 6 C-10.896875 5.38125 -10.79375 4.7625 -10.6875 4.125 C-9.01700373 -1.03835211 -4.53131276 -0.17099293 0 0 Z " fill="#3A3C40" transform="translate(53,15)"/>
<path d="M0 0 C2.87941809 2.87941809 3.50331506 6.07053053 4 10 C3.87846737 13.69945328 3.49873128 17.33365111 3 21 C2.67 21 2.34 21 2 21 C2 19.02 2 17.04 2 15 C1.01 15 0.02 15 -1 15 C-1.33 15.99 -1.66 16.98 -2 18 C-2.33 13.38 -2.66 8.76 -3 4 C-1 6 -1 6 -0.875 8.625 C-0.91625 9.40875 -0.9575 10.1925 -1 11 C-0.34 11 0.32 11 1 11 C0.67 7.37 0.34 3.74 0 0 Z " fill="#84868A" transform="translate(83,27)"/>
<path d="M0 0 C0.33 1.32 0.66 2.64 1 4 C3.97 4.495 3.97 4.495 7 5 C6.67 6.65 6.34 8.3 6 10 C3.125 9.75 3.125 9.75 0 9 C-2.16898181 6.14088761 -2 4.71556422 -2 1 C-1.34 0.67 -0.68 0.34 0 0 Z " fill="#4F4E52" transform="translate(54,19)"/>
<path d="M0 0 C2.7977017 1.67862102 3.9071995 2.79119888 5.25 5.8125 C6.00037229 9.00158224 6.1553621 11.73739599 6 15 C5.01 14.67 4.02 14.34 3 14 C2.67 11.69 2.34 9.38 2 7 C1.34 7 0.68 7 0 7 C-0.38133299 5.0085944 -0.71325582 3.00720923 -1 1 C-0.67 0.67 -0.34 0.34 0 0 Z " fill="#25262B" transform="translate(79,24)"/>
<path d="M0 0 C1.32 0 2.64 0 4 0 C4 0.66 4 1.32 4 2 C6.31 2.33 8.62 2.66 11 3 C9.68 3.33 8.36 3.66 7 4 C7 4.66 7 5.32 7 6 C4.6875 6.6875 4.6875 6.6875 2 7 C0.125 5.8125 0.125 5.8125 -1 4 C-0.6875 1.8125 -0.6875 1.8125 0 0 Z " fill="#67696D" transform="translate(50,46)"/>
<path d="M0 0 C1.46022163 0.95545366 2.91811468 1.91446678 4.375 2.875 C5.18710937 3.40867188 5.99921875 3.94234375 6.8359375 4.4921875 C9 6 9 6 11 8 C8.23723823 7.47731534 5.6739124 6.89130413 3 6 C3.66 7.32 4.32 8.64 5 10 C1.62496331 8.8141763 -0.64722731 7.72426311 -3 5 C-2.67 4.34 -2.34 3.68 -2 3 C-0.68 3.99 0.64 4.98 2 6 C1.34 4.02 0.68 2.04 0 0 Z " fill="#86878B" transform="translate(40,54)"/>
<path d="M0 0 C7.38461538 -0.49230769 7.38461538 -0.49230769 10.5 2 C10.995 2.66 11.49 3.32 12 4 C8.03956254 5.32014582 5.90278401 4.27727477 2 3 C1.34 2.67 0.68 2.34 0 2 C0 1.34 0 0.68 0 0 Z " fill="#2D2F32" transform="translate(60,14)"/>
<path d="M0 0 C0.99 0 1.98 0 3 0 C3 2.97 3 5.94 3 9 C1.68 8.67 0.36 8.34 -1 8 C-0.67 5.36 -0.34 2.72 0 0 Z " fill="#323337" transform="translate(82,42)"/>
<path d="M0 0 C-0.875 4.75 -0.875 4.75 -2 7 C-3.32 7 -4.64 7 -6 7 C-5.625 4.0625 -5.625 4.0625 -5 1 C-3 0 -3 0 0 0 Z " fill="#424348" transform="translate(38,28)"/>
<path d="M0 0 C3 1 3 1 4.1875 3.375 C5 6 5 6 5 9 C2.50638429 7.79618552 0.31856917 6.54571278 -2 5 C-1.67 4.34 -1.34 3.68 -1 3 C-0.67 2.01 -0.34 1.02 0 0 Z " fill="#414247" transform="translate(37,51)"/>
<path d="M0 0 C3.35595828 0.59927826 5.37801226 1.84622436 8 4 C7.67 4.66 7.34 5.32 7 6 C6.01 5.34 5.02 4.68 4 4 C3.67 5.32 3.34 6.64 3 8 C0.37613513 4.93882432 0 4.26826873 0 0 Z " fill="#5E5E63" transform="translate(75,21)"/>
<path d="M0 0 C1 3 1 3 0.9375 6.6875 C0.86419633 11.07757516 1.79688749 14.78910622 3 19 C1.68 18.67 0.36 18.34 -1 18 C-1.02690844 15.37493198 -1.04679404 12.75013827 -1.0625 10.125 C-1.07087891 9.37863281 -1.07925781 8.63226563 -1.08789062 7.86328125 C-1.11328125 2.2265625 -1.11328125 2.2265625 0 0 Z " fill="#7E7F83" transform="translate(36,33)"/>
<path d="M0 0 C-0.33 1.65 -0.66 3.3 -1 5 C-3.31 5.33 -5.62 5.66 -8 6 C-8.33 5.34 -8.66 4.68 -9 4 C-3.375 0 -3.375 0 0 0 Z " fill="#292C31" transform="translate(73,60)"/>
<path d="M0 0 C3.3 0.33 6.6 0.66 10 1 C9.67 1.99 9.34 2.98 9 4 C6.03 3.67 3.06 3.34 0 3 C0 2.01 0 1.02 0 0 Z " fill="#212428" transform="translate(51,63)"/>
<path d="M0 0 C1.32 1.32 2.64 2.64 4 4 C3.67 4.99 3.34 5.98 3 7 C1.02 7.33 -0.96 7.66 -3 8 C-2.690625 7.236875 -2.38125 6.47375 -2.0625 5.6875 C-1.32106407 3.81210323 -0.63771783 1.91315348 0 0 Z " fill="#505257" transform="translate(80,47)"/>
<path d="M0 0 C0 1.65 0 3.3 0 5 C-1.98 5.99 -1.98 5.99 -4 7 C-4.66 5.35 -5.32 3.7 -6 2 C-3 0 -3 0 0 0 Z " fill="#616366" transform="translate(68,46)"/>
<path d="M0 0 C1.98 0.495 1.98 0.495 4 1 C3.67 2.32 3.34 3.64 3 5 C1.68 5 0.36 5 -1 5 C-0.67 3.35 -0.34 1.7 0 0 Z " fill="#7D7D7F" transform="translate(49,32)"/>
<path d="M0 0 C1.98 0.495 1.98 0.495 4 1 C3.67 2.32 3.34 3.64 3 5 C1.68 5 0.36 5 -1 5 C-0.67 3.35 -0.34 1.7 0 0 Z " fill="#78787B" transform="translate(66,32)"/>
<path d="M0 0 C2 1.375 2 1.375 4 3 C4 3.66 4 4.32 4 5 C3.01 5 2.02 5 1 5 C0.67 5.66 0.34 6.32 0 7 C-0.38133299 5.0085944 -0.71325582 3.00720923 -1 1 C-0.67 0.67 -0.34 0.34 0 0 Z " fill="#39383F" transform="translate(79,24)"/>
</svg>
