<?xml version="1.0" encoding="UTF-8"?>
<svg version="1.1" xmlns="http://www.w3.org/2000/svg" width="106" height="94">
<path d="M0 0 C2.10667894 -0.00974187 4.21239521 -0.04084802 6.31884766 -0.07226562 C7.67691487 -0.07879441 9.03498895 -0.08404537 10.39306641 -0.08789062 C11.61058594 -0.09723633 12.82810547 -0.10658203 14.08251953 -0.11621094 C18.7944801 0.35967883 22.6198051 1.75252973 26.46337891 4.62304688 C27.9635331 6.73550891 28.45576449 8.58311725 28.98681641 11.11523438 C29.27685547 12.37980469 29.27685547 12.37980469 29.57275391 13.66992188 C29.65861746 19.31974397 25.14668441 22.99682689 21.48681641 26.86523438 C17.76748717 30.83639642 14.21287608 34.87291573 10.79931641 39.11523438 C2.0890699 49.84389807 2.0890699 49.84389807 -1.95068359 50.92773438 C-5.32327731 49.97648999 -7.04983127 47.72049509 -9.38818359 45.24023438 C-10.18156128 44.40504272 -10.18156128 44.40504272 -10.9909668 43.55297852 C-12.75612947 41.6850105 -14.51124933 39.80811233 -16.26318359 37.92773438 C-17.1908252 36.93241699 -17.1908252 36.93241699 -18.13720703 35.91699219 C-32.8492653 20.08815142 -32.8492653 20.08815142 -32.72412109 12.40429688 C-32.38818359 10.24023438 -32.38818359 10.24023438 -30.38818359 7.67773438 C-29.72818359 7.20335937 -29.06818359 6.72898437 -28.38818359 6.24023438 C-27.45394715 9.25055181 -27.34368449 10.10673705 -28.38818359 13.24023438 C-25.41818359 13.24023438 -22.44818359 13.24023438 -19.38818359 13.24023438 C-20.62568359 11.81710938 -20.62568359 11.81710938 -21.88818359 10.36523438 C-24.38818359 7.49023438 -24.38818359 7.49023438 -24.38818359 5.24023438 C-25.04818359 4.91023438 -25.70818359 4.58023437 -26.38818359 4.24023438 C-18.06570571 -0.42847273 -9.28746389 0.02597287 0 0 Z M-19.38818359 5.24023438 C-17.73818359 7.22023438 -16.08818359 9.20023438 -14.38818359 11.24023438 C-10.66958181 9.7015026 -10.03184818 8.76512049 -7.38818359 5.24023438 C-11.34818359 5.24023438 -15.30818359 5.24023438 -19.38818359 5.24023438 Z M3.61181641 5.24023438 C5.26181641 7.22023438 6.91181641 9.20023438 8.61181641 11.24023438 C12.33041819 9.7015026 12.96815182 8.76512049 15.61181641 5.24023438 C11.65181641 5.24023438 7.69181641 5.24023438 3.61181641 5.24023438 Z M-2.38818359 6.24023438 C-4.36818359 8.55023438 -6.34818359 10.86023438 -8.38818359 13.24023438 C-4.42818359 13.24023438 -0.46818359 13.24023438 3.61181641 13.24023438 C1.72837708 9.47335573 0.92049171 8.44601791 -2.38818359 6.24023438 Z M17.42431641 9.11523438 C15.39550087 11.02834771 15.39550087 11.02834771 15.61181641 13.24023438 C20.06681641 12.74523437 20.06681641 12.74523437 24.61181641 12.24023438 C23.95181641 10.59023438 23.29181641 8.94023438 22.61181641 7.24023438 C19.5112601 6.91483869 19.5112601 6.91483869 17.42431641 9.11523438 Z M-27.38818359 17.24023438 C-21.78794797 25.24057098 -15.08643853 32.16433302 -8.38818359 39.24023438 C-7.13686432 37.28374689 -7.13686432 37.28374689 -7.91723633 35.17724609 C-8.21573486 34.3498291 -8.5142334 33.52241211 -8.82177734 32.66992188 C-9.14082031 31.77402344 -9.45986328 30.878125 -9.78857422 29.95507812 C-10.13082031 29.01792969 -10.47306641 28.08078125 -10.82568359 27.11523438 C-11.1640625 26.17035156 -11.50244141 25.22546875 -11.85107422 24.25195312 C-12.69004489 21.91228844 -13.53825746 19.5759416 -14.38818359 17.24023438 C-18.67818359 17.24023438 -22.96818359 17.24023438 -27.38818359 17.24023438 Z M-10.38818359 17.24023438 C-7.74818359 25.16023438 -5.10818359 33.08023438 -2.38818359 41.24023438 C-0.19088172 39.04293251 0.33076075 37.64309329 1.33837891 34.74023438 C1.64775391 33.85335937 1.95712891 32.96648438 2.27587891 32.05273438 C2.59298828 31.12460937 2.91009766 30.19648437 3.23681641 29.24023438 C3.56166016 28.31210937 3.88650391 27.38398437 4.22119141 26.42773438 C5.94468851 21.93395304 5.94468851 21.93395304 6.61181641 17.24023438 C1.00181641 17.24023438 -4.60818359 17.24023438 -10.38818359 17.24023438 Z M11.61181641 17.24023438 C10.66273184 19.61294579 9.71464577 21.98606217 8.77197266 24.36132812 C8.00787211 26.25742949 7.22441577 28.14586276 6.42041016 30.02539062 C6.05044922 30.90066406 5.68048828 31.7759375 5.29931641 32.67773438 C4.95255859 33.48082031 4.60580078 34.28390625 4.24853516 35.11132812 C3.34368178 37.39383831 3.34368178 37.39383831 4.61181641 40.24023438 C7.61861954 36.9129783 10.61679023 33.57809344 13.61181641 30.24023438 C14.28857422 29.49128906 14.96533203 28.74234375 15.66259766 27.97070312 C16.26458984 27.29652344 16.86658203 26.62234375 17.48681641 25.92773438 C18.02048828 25.33347656 18.55416016 24.73921875 19.10400391 24.12695312 C21.01142547 21.82622964 21.01142547 21.82622964 23.61181641 17.24023438 C19.65181641 17.24023438 15.69181641 17.24023438 11.61181641 17.24023438 Z " fill="#4A4C50" transform="translate(56.38818359375,24.759765625)"/>
<path d="M0 0 C0.33 0 0.66 0 1 0 C1 2.31 1 4.62 1 7 C1.66 6.67 2.32 6.34 3 6 C5.55157655 5.9283265 8.07472971 5.90691558 10.625 5.9375 C11.68460938 5.94426758 11.68460938 5.94426758 12.765625 5.95117188 C14.51045275 5.96296125 16.255237 5.98089676 18 6 C18 6.33 18 6.66 18 7 C12.06 7.495 12.06 7.495 6 8 C6.71285156 8.7734375 7.42570312 9.546875 8.16015625 10.34375 C13.51607289 16.16478818 18.83558 22.00715768 24 28 C23.77183594 27.38511719 23.54367188 26.77023438 23.30859375 26.13671875 C23.02113281 25.32847656 22.73367187 24.52023438 22.4375 23.6875 C22.14746094 22.88699219 21.85742188 22.08648437 21.55859375 21.26171875 C21 19 21 19 22 16 C22.33 16.33 22.66 16.66 23 17 C22.67 14.03 22.34 11.06 22 8 C24.19768517 10.19768517 24.61110685 11.42752232 25.5078125 14.3515625 C25.77207031 15.20234375 26.03632812 16.053125 26.30859375 16.9296875 C26.57800781 17.81914063 26.84742187 18.70859375 27.125 19.625 C27.40214844 20.5221875 27.67929687 21.419375 27.96484375 22.34375 C28.64884026 24.56084214 29.32696672 26.77956001 30 29 C31.66042444 26.50936335 32.55324168 24.74823602 33.5078125 21.98828125 C33.77207031 21.23095703 34.03632812 20.47363281 34.30859375 19.69335938 C34.57800781 18.90767578 34.84742188 18.12199219 35.125 17.3125 C35.40214844 16.51521484 35.67929687 15.71792969 35.96484375 14.89648438 C36.6470154 12.93230048 37.32401098 10.96632027 38 9 C39.125 12.75 39.125 12.75 38 15 C38.66 15 39.32 15 40 15 C40.66 13.68 41.32 12.36 42 11 C40.75971762 17.17222879 39.10396411 23.06682122 37 29 C37.40089844 28.53851563 37.80179688 28.07703125 38.21484375 27.6015625 C51.25204216 12.64278156 51.25204216 12.64278156 56 8 C57.32 8.66 58.64 9.32 60 10 C59.23816406 10.81082031 58.47632813 11.62164062 57.69140625 12.45703125 C52.67297763 17.82878989 47.73881866 23.21163274 43.125 28.9375 C34.48846811 39.6006549 34.48846811 39.6006549 30.4375 40.6875 C27.06490629 39.73625562 25.33835233 37.48026072 23 35 C22.20662231 34.16480835 22.20662231 34.16480835 21.3972168 33.31274414 C19.63205412 31.44477612 17.87693426 29.56787796 16.125 27.6875 C15.50657227 27.02395508 14.88814453 26.36041016 14.25097656 25.67675781 C-0.29075853 10.03116934 -0.29075853 10.03116934 -0.125 4.3125 C-0.10695313 3.50425781 -0.08890625 2.69601563 -0.0703125 1.86328125 C-0.04710938 1.24839844 -0.02390625 0.63351563 0 0 Z " fill="#606166" transform="translate(24,35)"/>
<path d="M0 0 C1.05896484 0.01095703 2.11792969 0.02191406 3.20898438 0.03320312 C11.70242209 0.1516683 20.15961298 0.55285048 28.625 1.25 C28.625 2.24 28.625 3.23 28.625 4.25 C23.345 4.25 18.065 4.25 12.625 4.25 C13.12 6.23 13.12 6.23 13.625 8.25 C11.13138429 7.04618552 8.94356917 5.79571278 6.625 4.25 C6.295 5.24 5.965 6.23 5.625 7.25 C4.305 7.25 2.985 7.25 1.625 7.25 C1.625 6.26 1.625 5.27 1.625 4.25 C-2.005 4.58 -5.635 4.91 -9.375 5.25 C-7.64644074 7.39567913 -7.64644074 7.39567913 -5.375 9.25 C-3.15641747 9.11358623 -3.15641747 9.11358623 -1.375 8.25 C-1.705 8.9925 -2.035 9.735 -2.375 10.5 C-3.60282871 13.38883312 -3.60282871 13.38883312 -3.375 17.25 C-3.045 16.59 -2.715 15.93 -2.375 15.25 C3.895 15.25 10.165 15.25 16.625 15.25 C16.295 15.91 15.965 16.57 15.625 17.25 C10.015 16.92 4.405 16.59 -1.375 16.25 C-0.715 18.56 -0.055 20.87 0.625 23.25 C0.25 25.6875 0.25 25.6875 -0.375 27.25 C-4.02690574 24.81539617 -4.29474717 23.40481857 -5.375 19.25 C-5.375 17.93 -5.375 16.61 -5.375 15.25 C-13.79 15.745 -13.79 15.745 -22.375 16.25 C-22.375 13.28 -22.375 10.31 -22.375 7.25 C-21.055 6.59 -19.735 5.93 -18.375 5.25 C-18.705 7.56 -19.035 9.87 -19.375 12.25 C-16.405 12.25 -13.435 12.25 -10.375 12.25 C-11.6125 10.826875 -11.6125 10.826875 -12.875 9.375 C-15.375 6.5 -15.375 6.5 -15.375 4.25 C-16.035 3.92 -16.695 3.59 -17.375 3.25 C-11.74526091 -0.40068405 -6.5667234 -0.13552337 0 0 Z " fill="#595B5F" transform="translate(47.375,25.75)"/>
<path d="M0 0 C0.33 0 0.66 0 1 0 C1 2.31 1 4.62 1 7 C1.66 6.67 2.32 6.34 3 6 C5.55157655 5.9283265 8.07472971 5.90691558 10.625 5.9375 C11.68460938 5.94426758 11.68460938 5.94426758 12.765625 5.95117188 C14.51045275 5.96296125 16.255237 5.98089676 18 6 C18 6.33 18 6.66 18 7 C12.06 7.495 12.06 7.495 6 8 C6.71285156 8.7734375 7.42570312 9.546875 8.16015625 10.34375 C13.51607289 16.16478818 18.83558 22.00715768 24 28 C23.77183594 27.38511719 23.54367188 26.77023438 23.30859375 26.13671875 C23.02113281 25.32847656 22.73367187 24.52023438 22.4375 23.6875 C22.14746094 22.88699219 21.85742188 22.08648437 21.55859375 21.26171875 C21 19 21 19 22 16 C22.33 16.33 22.66 16.66 23 17 C22.67 14.03 22.34 11.06 22 8 C24.70482125 10.70482125 25.5076736 13.82543681 26.6875 17.375 C26.92533203 18.04789063 27.16316406 18.72078125 27.40820312 19.4140625 C29.06028677 24.33639969 29.09054798 26.69060429 26.9375 31.25 C26.628125 31.8275 26.31875 32.405 26 33 C25.01 32.34 24.02 31.68 23 31 C22.67 31.99 22.34 32.98 22 34 C-0.29364392 10.13071509 -0.29364392 10.13071509 -0.125 4.3125 C-0.10695313 3.50425781 -0.08890625 2.69601563 -0.0703125 1.86328125 C-0.04710938 1.24839844 -0.02390625 0.63351563 0 0 Z " fill="#777A7C" transform="translate(24,35)"/>
<path d="M0 0 C1.05896484 0.01095703 2.11792969 0.02191406 3.20898438 0.03320312 C11.70242209 0.1516683 20.15961298 0.55285048 28.625 1.25 C28.625 2.24 28.625 3.23 28.625 4.25 C23.345 4.25 18.065 4.25 12.625 4.25 C12.955 5.57 13.285 6.89 13.625 8.25 C11.13138429 7.04618552 8.94356917 5.79571278 6.625 4.25 C6.295 5.24 5.965 6.23 5.625 7.25 C4.305 7.25 2.985 7.25 1.625 7.25 C1.955 6.26 2.285 5.27 2.625 4.25 C-0.00006802 4.22309156 -2.62486173 4.20320596 -5.25 4.1875 C-5.99636719 4.17912109 -6.74273437 4.17074219 -7.51171875 4.16210938 C-11.57345578 4.04311916 -11.57345578 4.04311916 -15.375 5.25 C-16.035 4.59 -16.695 3.93 -17.375 3.25 C-11.74526091 -0.40068405 -6.5667234 -0.13552337 0 0 Z " fill="#2B2C30" transform="translate(47.375,25.75)"/>
<path d="M0 0 C4.28666736 -0.07462728 8.57298207 -0.12882508 12.86010742 -0.16479492 C14.31590368 -0.17980313 15.77165532 -0.20021633 17.22729492 -0.22631836 C19.33002789 -0.26305676 21.43215885 -0.2798056 23.53515625 -0.29296875 C24.797229 -0.3086792 26.05930176 -0.32438965 27.35961914 -0.34057617 C32.14599486 0.10721366 35.9431119 1.47573766 39.85546875 4.375 C41.37021758 6.52563315 41.81040507 8.42436801 42.3125 11 C42.49425781 11.86625 42.67601562 12.7325 42.86328125 13.625 C43 16 43 16 41 19 C40.505 14.545 40.505 14.545 40 10 C39.67 10.99 39.34 11.98 39 13 C37.35 13 35.7 13 34 13 C35.32 12.67 36.64 12.34 38 12 C37.34 10.68 36.68 9.36 36 8 C34.68 8 33.36 8 32 8 C32 7.34 32 6.68 32 6 C31.29423828 6.66708984 31.29423828 6.66708984 30.57421875 7.34765625 C29.95160156 7.91355469 29.32898438 8.47945312 28.6875 9.0625 C28.07261719 9.63097656 27.45773438 10.19945312 26.82421875 10.78515625 C26.22222656 11.18605469 25.62023437 11.58695313 25 12 C24.01 11.67 23.02 11.34 22 11 C23.98 9.35 25.96 7.7 28 6 C24.04 5.67 20.08 5.34 16 5 C16 4.67 16 4.34 16 4 C18.45840605 3.97308315 20.91651882 3.95320198 23.375 3.9375 C24.07367188 3.92912109 24.77234375 3.92074219 25.4921875 3.91210938 C30.7734375 3.88671875 30.7734375 3.88671875 33 5 C33 4.01 33 3.02 33 2 C32.04222656 2.01160156 31.08445312 2.02320313 30.09765625 2.03515625 C20.02602697 2.11687332 10.04632047 1.69627964 0 1 C0 0.67 0 0.34 0 0 Z " fill="#909194" transform="translate(43,25)"/>
<path d="M0 0 C0.66 0.33 1.32 0.66 2 1 C2 2.32 2 3.64 2 5 C4.64 4.67 7.28 4.34 10 4 C9.64005447 6.6635969 9.28838998 8.58183452 7.75 10.8125 C5.24627193 12.51145833 3.97201476 12.56609805 1 12 C-2.35745095 9.40560608 -3.79449238 7.83783875 -4.8125 3.6875 C-4.874375 2.800625 -4.93625 1.91375 -5 1 C-4.01 1.495 -4.01 1.495 -3 2 C-3 2.66 -3 3.32 -3 4 C-2.34 4 -1.68 4 -1 4 C-0.67 2.68 -0.34 1.36 0 0 Z " fill="#333439" transform="translate(51,63)"/>
<path d="M0 0 C1.65 0.33 3.3 0.66 5 1 C0.19231392 7.82066033 -5.32624925 13.9001573 -11 20 C-11.82516442 17.66891052 -12.19164794 16.47512719 -11.25 14.140625 C-7.88589905 9.05242231 -4.13636289 4.48205316 0 0 Z " fill="#595A5E" transform="translate(79,43)"/>
<path d="M0 0 C1.125 3.75 1.125 3.75 0 6 C0.66 6 1.32 6 2 6 C2.66 4.68 3.32 3.36 4 2 C2.90301833 7.69139902 1.45946923 12.74567937 -1 18 C-1.66 17.01 -2.32 16.02 -3 15 C-3.66 16.32 -4.32 17.64 -5 19 C-6 17 -6 17 -5.56274414 15.21240234 C-5.30614014 14.51066895 -5.04953613 13.80893555 -4.78515625 13.0859375 C-4.37426758 11.94511719 -4.37426758 11.94511719 -3.95507812 10.78125 C-3.66052734 9.9871875 -3.36597656 9.193125 -3.0625 8.375 C-2.77181641 7.57320312 -2.48113281 6.77140625 -2.18164062 5.9453125 C-1.46117475 3.96107862 -0.73144862 1.98021163 0 0 Z " fill="#727376" transform="translate(62,44)"/>
<path d="M0 0 C0.33 0 0.66 0 1 0 C1 2.31 1 4.62 1 7 C1.66 6.67 2.32 6.34 3 6 C5.55157655 5.9283265 8.07472971 5.90691558 10.625 5.9375 C11.68460938 5.94426758 11.68460938 5.94426758 12.765625 5.95117188 C14.51045275 5.96296125 16.255237 5.98089676 18 6 C18 6.33 18 6.66 18 7 C12.06 7.495 12.06 7.495 6 8 C6.33 8.66 6.66 9.32 7 10 C6.34 10.66 5.68 11.32 5 12 C6.32 13.32 7.64 14.64 9 16 C8.67 16.66 8.34 17.32 8 18 C6.85111717 16.87811441 5.70598863 15.75238316 4.5625 14.625 C3.60537109 13.68527344 3.60537109 13.68527344 2.62890625 12.7265625 C-0.0212372 9.91753755 -0.11615606 8.13092394 -0.0625 4.375 C-0.05347656 3.55773438 -0.04445313 2.74046875 -0.03515625 1.8984375 C-0.02355469 1.27195313 -0.01195313 0.64546875 0 0 Z " fill="#88888C" transform="translate(24,35)"/>
<path d="M0 0 C5.94 0 11.88 0 18 0 C16 2 16 2 13.3984375 2.1953125 C12.40070312 2.17210937 11.40296875 2.14890625 10.375 2.125 C8.87066406 2.09792969 8.87066406 2.09792969 7.3359375 2.0703125 C6.56507812 2.04710937 5.79421875 2.02390625 5 2 C5.99 3.32 6.98 4.64 8 6 C7.34 6 6.68 6 6 6 C6 6.99 6 7.98 6 9 C5.34 9 4.68 9 4 9 C2.7109375 7.46875 2.7109375 7.46875 1.375 5.5 C0.92898437 4.8503125 0.48296875 4.200625 0.0234375 3.53125 C-0.31429687 3.0259375 -0.65203125 2.520625 -1 2 C-0.67 1.34 -0.34 0.68 0 0 Z " fill="#818185" transform="translate(33,29)"/>
<path d="M0 0 C0.66 0.33 1.32 0.66 2 1 C2 3.97 2 6.94 2 10 C0.68 10.33 -0.64 10.66 -2 11 C-1.67 9.68 -1.34 8.36 -1 7 C-4.96 7 -8.92 7 -13 7 C-10.50494038 4.50494038 -9.32671112 4.64051624 -5.875 4.375 C-4.96492188 4.30023438 -4.05484375 4.22546875 -3.1171875 4.1484375 C-2.06917969 4.07496094 -2.06917969 4.07496094 -1 4 C-0.67 2.68 -0.34 1.36 0 0 Z " fill="#25272B" transform="translate(82,34)"/>
<path d="M0 0 C3.47443075 0.56648327 4.98733887 1.64415973 7.25 4.3125 C7.77078125 4.90675781 8.2915625 5.50101563 8.828125 6.11328125 C10 8 10 8 10 12 C6.55571735 10.55218207 4.63869038 8.72305391 2.25 5.875 C1.63640625 5.15054688 1.0228125 4.42609375 0.390625 3.6796875 C-0.06828125 3.12539063 -0.5271875 2.57109375 -1 2 C-0.67 1.34 -0.34 0.68 0 0 Z " fill="#3E3E42" transform="translate(29,45)"/>
<path d="M0 0 C2.97 1.98 2.97 1.98 6 4 C6.33 3.01 6.66 2.02 7 1 C8.98 3.64 10.96 6.28 13 9 C11.68 8.67 10.36 8.34 9 8 C9.99 9.32 10.98 10.64 12 12 C11.67 12.66 11.34 13.32 11 14 C9.16056628 12.04709472 7.32840869 10.08818082 5.5 8.125 C4.97535156 7.56941406 4.45070313 7.01382813 3.91015625 6.44140625 C0 2.2265625 0 2.2265625 0 0 Z " fill="#909194" transform="translate(33,53)"/>
<path d="M0 0 C0.66 0 1.32 0 2 0 C2 1.32 2 2.64 2 4 C6.95 4 11.9 4 17 4 C16.67 4.66 16.34 5.32 16 6 C13.28553021 6.31241455 10.66090639 6.51336592 7.9375 6.625 C7.17888672 6.66367187 6.42027344 6.70234375 5.63867188 6.7421875 C3.75952805 6.83673562 1.87979664 6.91946756 0 7 C0 4.69 0 2.38 0 0 Z " fill="#222328" transform="translate(25,35)"/>
<path d="M0 0 C0.66 0.33 1.32 0.66 2 1 C2 2.32 2 3.64 2 5 C2.61875 4.814375 3.2375 4.62875 3.875 4.4375 C6 4 6 4 8 5 C7.67 5.66 7.34 6.32 7 7 C3.63365602 7.76219109 0.99440092 8.26168445 -2.375 7.375 C-4.60797683 5.48555807 -4.70101879 3.84032146 -5 1 C-4.01 1.495 -4.01 1.495 -3 2 C-3 2.66 -3 3.32 -3 4 C-2.34 4 -1.68 4 -1 4 C-0.67 2.68 -0.34 1.36 0 0 Z " fill="#26272C" transform="translate(51,63)"/>
<path d="M0 0 C1.38294718 0.01329757 2.76582404 0.03715018 4.1484375 0.0703125 C4.85484375 0.07933594 5.56125 0.08835937 6.2890625 0.09765625 C8.03399848 0.12123647 9.77876045 0.15710789 11.5234375 0.1953125 C11.5234375 1.1853125 11.5234375 2.1753125 11.5234375 3.1953125 C5.9134375 2.8653125 0.3034375 2.5353125 -5.4765625 2.1953125 C-3.4765625 0.1953125 -3.4765625 0.1953125 0 0 Z " fill="#222328" transform="translate(64.4765625,26.8046875)"/>
<path d="M0 0 C0.33 0 0.66 0 1 0 C0.25 7.75 0.25 7.75 -2 10 C-3.32 10 -4.64 10 -6 10 C-5.6875 8.125 -5.6875 8.125 -5 6 C-4.01 5.34 -3.02 4.68 -2 4 C-0.80767387 1.94996045 -0.80767387 1.94996045 0 0 Z " fill="#454549" transform="translate(59,58)"/>
<path d="M0 0 C0.33 0 0.66 0 1 0 C1 1.65 1 3.3 1 5 C2.32 5.33 3.64 5.66 5 6 C4 7 4 7 1.4375 7.0625 C0.2309375 7.0315625 0.2309375 7.0315625 -1 7 C-1.33 7.99 -1.66 8.98 -2 10 C-3.05236973 6.65155086 -3.20005388 5.40920111 -1.625 2.1875 C-1.08875 1.465625 -0.5525 0.74375 0 0 Z " fill="#212429" transform="translate(46,34)"/>
<path d="M0 0 C0.93423645 3.01031744 1.04449911 3.86650268 0 7 C3.63 7 7.26 7 11 7 C11 7.33 11 7.66 11 8 C7.04 8 3.08 8 -1 8 C-1 6.68 -1 5.36 -1 4 C-1.66 4 -2.32 4 -3 4 C-2.67 3.01 -2.34 2.02 -2 1 C-1.34 0.67 -0.68 0.34 0 0 Z " fill="#424347" transform="translate(28,31)"/>
<path d="M0 0 C0.8125 1.6875 0.8125 1.6875 1 4 C-1.4375 6.75 -1.4375 6.75 -4 9 C-3.47731534 6.23723823 -2.89130413 3.6739124 -2 1 C-1.34 0.67 -0.68 0.34 0 0 Z " fill="#49494E" transform="translate(71,54)"/>
<path d="M0 0 C2.475 0.99 2.475 0.99 5 2 C5.33 4.31 5.66 6.62 6 9 C3.43004926 7.71502463 3.09565537 6.50087627 1.875 3.9375 C1.52179687 3.20402344 1.16859375 2.47054687 0.8046875 1.71484375 C0.53914063 1.14894531 0.27359375 0.58304688 0 0 Z " fill="#46454A" transform="translate(41,60)"/>
<path d="M0 0 C1.875 0.25 1.875 0.25 4 1 C5.25 3.0625 5.25 3.0625 6 5 C4.02 4.34 2.04 3.68 0 3 C0 2.01 0 1.02 0 0 Z " fill="#545557" transform="translate(29,45)"/>
<path d="M0 0 C0.33 0.66 0.66 1.32 1 2 C1.99 2.33 2.98 2.66 4 3 C2.35 4.32 0.7 5.64 -1 7 C-1.625 4.625 -1.625 4.625 -2 2 C-1.34 1.34 -0.68 0.68 0 0 Z " fill="#646468" transform="translate(48,31)"/>
<path d="M0 0 C4.875 1.75 4.875 1.75 6 4 C8.01669827 5.13350534 8.01669827 5.13350534 10 6 C7.8125 6.3125 7.8125 6.3125 5 6 C2.1875 3.5625 2.1875 3.5625 0 1 C0 0.67 0 0.34 0 0 Z " fill="#86868B" transform="translate(47,69)"/>
<path d="M0 0 C1.32 0.33 2.64 0.66 4 1 C3.01 2.485 3.01 2.485 2 4 C0.68 4 -0.64 4 -2 4 C-1.34 2.68 -0.68 1.36 0 0 Z " fill="#3D3E41" transform="translate(51,29)"/>
<path d="" fill="#2E2D32" transform="translate(0,0)"/>
</svg>
