<?xml version="1.0" encoding="UTF-8"?>
<svg version="1.1" xmlns="http://www.w3.org/2000/svg" width="100" height="108">
<path d="M0 0 C2.02156704 0.95564988 4.02966574 1.94274747 6 3 C8.74858021 2.36784258 8.74858021 2.36784258 11 1 C15.22175634 -1.11087817 20.41604421 -0.50549888 25 0 C30.70175886 2.12670105 34.09892763 5.66202685 37 11 C38.79750058 16.39250175 38.76681926 21.81246104 36.5 27.0625 C36.005 28.031875 35.51 29.00125 35 30 C33.68 29.34 32.36 28.68 31 28 C31.03480469 26.97519531 31.06960937 25.95039062 31.10546875 24.89453125 C31.13362035 23.53387064 31.16091904 22.1731922 31.1875 20.8125 C31.21263672 20.13896484 31.23777344 19.46542969 31.26367188 18.77148438 C31.32907829 14.30204626 30.84051619 11.4916008 28 8 C24.01165412 5.32211062 19.64415428 5.15855044 15 6 C13.22635343 7.10858117 13.22635343 7.10858117 11.75 8.5625 C9 11 9 11 6.375 11 C4 10 4 10 2.25 8.5 C-1.2392749 6.17381673 -4.85332236 5.87389352 -9 6 C-12.79705382 7.56834832 -14.83317669 9.55360414 -17 13 C-18.51922997 20.81991241 -16.70943776 27.39056365 -12.90234375 34.234375 C-8.05633951 41.27949 -1.74862352 45.648347 6 49 C7.33659434 49.66010438 8.67079988 50.32513018 10 51 C9.34 52.32 8.68 53.64 8 55 C-2.38623156 53.70172106 -10.39137369 46.5264869 -16.86328125 38.765625 C-22.12969697 31.3952566 -25.02434246 23.07274751 -24 14 C-22.3155636 8.40639988 -19.22019267 4.36949571 -14.4140625 1.06640625 C-9.74010636 -0.99830253 -4.97633722 -0.75101281 0 0 Z " fill="#848689" transform="translate(48,26)"/>
<path d="M0 0 C3.01052734 2.44096811 4.08201572 4.18354717 5.3125 7.875 C5.19500608 10.28159952 4.88824263 12.55484987 4.44140625 14.921875 C4.39886719 15.56640625 4.35632813 16.2109375 4.3125 16.875 C4.9725 17.535 5.6325 18.195 6.3125 18.875 C5.9375 21.5 5.9375 21.5 5.3125 23.875 C3.3125 22.875 1.3125 21.875 -0.6875 20.875 C-1.3475 21.205 -2.0075 21.535 -2.6875 21.875 C-7.69154498 22.25266377 -10.68635156 21.98700434 -14.6875 18.875 C-17.65122527 15.8054274 -18.60380661 13.14336265 -18.6875 8.875 C-17.28743415 4.76230657 -15.41391476 2.36454038 -11.8125 -0.0625 C-7.36004853 -1.5763335 -4.37342342 -1.83073538 0 0 Z M-11.0625 5.4375 C-13.03109806 7.88959258 -13.03109806 7.88959258 -12.625 11.5 C-12.0124155 15.13016924 -12.0124155 15.13016924 -8.6875 16.875 C-5.61084973 16.79278291 -5.61084973 16.79278291 -2.6875 15.875 C-0.37467413 12.40576119 -0.26271414 10.95294425 -0.6875 6.875 C-1.75095052 4.89470318 -1.75095052 4.89470318 -3.6875 3.875 C-6.97403916 3.28510836 -8.26132999 3.59462499 -11.0625 5.4375 Z " fill="#414247" transform="translate(77.6875,59.125)"/>
<path d="M0 0 C0.66 0.33 1.32 0.66 2 1 C2.16796875 3.01171875 2.16796875 3.01171875 2.1875 5.6875 C2.91899445 15.20932605 7.45684664 24.12827408 14.4375 30.625 C18.35256902 33.75171041 22.41776589 36.01796298 27 38 C28.33659434 38.66010438 29.67079988 39.32513018 31 40 C30.34 41.32 29.68 42.64 29 44 C18.66287859 42.70785982 10.34796945 35.51995299 4.1015625 27.58984375 C0.15060742 21.81759475 -2.28603237 17.06290102 -2.25 9.9375 C-2.25515625 8.91527344 -2.2603125 7.89304687 -2.265625 6.83984375 C-2.00365182 4.0390422 -1.44074562 2.38409096 0 0 Z " fill="#535358" transform="translate(27,37)"/>
<path d="M0 0 C4.94586526 2.29629459 7.30760518 5.31323865 10 10 C11.79750058 15.39250175 11.76681926 20.81246104 9.5 26.0625 C9.005 27.031875 8.51 28.00125 8 29 C6.68 28.34 5.36 27.68 4 27 C4.03480469 25.97519531 4.06960937 24.95039062 4.10546875 23.89453125 C4.13362035 22.53387064 4.16091904 21.1731922 4.1875 19.8125 C4.21263672 19.13896484 4.23777344 18.46542969 4.26367188 17.77148438 C4.32932925 13.28489698 3.72547687 10.57471966 1 7 C-3.39672856 3.26944243 -8.4705181 3.31136888 -14 3 C-14 2.34 -14 1.68 -14 1 C-9.81388848 -1.09305576 -4.55867052 -0.42364608 0 0 Z " fill="#424248" transform="translate(75,27)"/>
<path d="M0 0 C0.66 0.33 1.32 0.66 2 1 C2.2734375 3.1875 2.2734375 3.1875 2.375 6 C2.72239681 11.02742176 3.88839713 14.75189898 6.16015625 19.22265625 C7 21 7 21 7 23 C5.68 23 4.36 23 3 23 C2.67 23.66 2.34 24.32 2 25 C-1.88872023 18.12529816 -2.97881992 11.8647042 -2 4 C-0.9765625 1.64453125 -0.9765625 1.64453125 0 0 Z " fill="#606064" transform="translate(27,37)"/>
<path d="M0 0 C4.64687703 -0.32420072 7.33937303 0.03192408 11 3 C13.52566926 6.62012594 14.21215854 9.078883 13.6875 13.375 C13.460625 14.57125 13.23375 15.7675 13 17 C12.67 17 12.34 17 12 17 C12 13.7 12 10.4 12 7 C11.34 7 10.68 7 10 7 C9.34 10.3 8.68 13.6 8 17 C7.34 16.67 6.68 16.34 6 16 C6.33 15.34 6.66 14.68 7 14 C7.25 11 7.25 11 7 8 C5.10244856 5.65026182 5.10244856 5.65026182 1.875 5.875 C0.92625 5.91625 -0.0225 5.9575 -1 6 C-1.33 5.01 -1.66 4.02 -2 3 C-1.34 2.67 -0.68 2.34 0 2 C0 2.66 0 3.32 0 4 C1.97536745 3.65213292 1.97536745 3.65213292 4 3 C4.33 2.34 4.66 1.68 5 1 C3.35 1 1.7 1 0 1 C0 0.67 0 0.34 0 0 Z " fill="#7C7D81" transform="translate(69,58)"/>
<path d="M0 0 C2.70308147 4.0546222 2.54301708 7.23876332 2 12 C1.2062105 14.51901986 0.20764211 16.6350342 -1 19 C-2.32 18.34 -3.64 17.68 -5 17 C-4.67 12.05 -4.34 7.1 -4 2 C-3.67 2 -3.34 2 -3 2 C-2.67 4.97 -2.34 7.94 -2 11 C-1.34 11 -0.68 11 0 11 C0 7.37 0 3.74 0 0 Z " fill="#87888B" transform="translate(84,37)"/>
<path d="M0 0 C-0.33 0.99 -0.66 1.98 -1 3 C-2.65 2.67 -4.3 2.34 -6 2 C-6.061875 2.53625 -6.12375 3.0725 -6.1875 3.625 C-7.38983135 7.13950702 -9.50523067 9.25575374 -12 12 C-12.33 12 -12.66 12 -13 12 C-13.41668469 7.74981621 -13.44022082 5.64657432 -11 2.0625 C-6.96968211 -0.70834355 -4.80160858 -0.40691598 0 0 Z " fill="#36383D" transform="translate(74,59)"/>
<path d="M0 0 C0.33 0 0.66 0 1 0 C1.33 1.65 1.66 3.3 2 5 C2.99 4.01 3.98 3.02 5 2 C5.28875 3.11375 5.5775 4.2275 5.875 5.375 C6.69241329 9.00291092 6.69241329 9.00291092 9 11 C8.01 11.66 7.02 12.32 6 13 C6.33 13.66 6.66 14.32 7 15 C3.62118566 13.60186993 1.84982122 12.17112209 0 9 C-0.88695963 5.37824817 -1.188117 3.56435101 0 0 Z " fill="#66686B" transform="translate(60,65)"/>
<path d="M0 0 C2.1875 0.3125 2.1875 0.3125 4 1 C3.01 1.61875 2.02 2.2375 1 2.875 C0.01 3.57625 -0.98 4.2775 -2 5 C-2 5.66 -2 6.32 -2 7 C-1.34 7.33 -0.68 7.66 0 8 C-0.33 11.96 -0.66 15.92 -1 20 C-1.33 20 -1.66 20 -2 20 C-2.33 16.37 -2.66 12.74 -3 9 C-5.29633824 12.44450737 -5.54016485 14.93812283 -6 19 C-6.33 19 -6.66 19 -7 19 C-7.50673683 11.90568432 -6.1994271 6.73266496 -1.5 1.25 C-1.005 0.8375 -0.51 0.425 0 0 Z " fill="#939498" transform="translate(31,29)"/>
<path d="M0 0 C0.66 0.33 1.32 0.66 2 1 C2 5.29 2 9.58 2 14 C1.01 14.33 0.02 14.66 -1 15 C-2.16297973 12.67404054 -2.16600691 11.21276769 -2.1875 8.625 C-2.20167969 7.85414062 -2.21585938 7.08328125 -2.23046875 6.2890625 C-1.97801607 3.78165112 -1.25193467 2.16738098 0 0 Z " fill="#303135" transform="translate(27,37)"/>
<path d="M0 0 C3.96 0 7.92 0 12 0 C12 1.32 12 2.64 12 4 C8.04 3.67 4.08 3.34 0 3 C0 2.01 0 1.02 0 0 Z " fill="#28292E" transform="translate(38,27)"/>
<path d="M0 0 C0.66 0 1.32 0 2 0 C2.33102914 3.6413205 2.42019439 5.41472925 0.25 8.4375 C-2 10 -2 10 -4.25 9.75 C-5.11625 9.37875 -5.11625 9.37875 -6 9 C-5 6 -5 6 -2.4375 4.5 C-1.633125 4.005 -0.82875 3.51 0 3 C0 2.01 0 1.02 0 0 Z " fill="#525357" transform="translate(34,27)"/>
<path d="M0 0 C0.91007812 0.00902344 1.82015625 0.01804687 2.7578125 0.02734375 C3.45648438 0.03894531 4.15515625 0.05054687 4.875 0.0625 C4.545 1.0525 4.215 2.0425 3.875 3.0625 C0.245 3.0625 -3.385 3.0625 -7.125 3.0625 C-7.125 2.4025 -7.125 1.7425 -7.125 1.0625 C-4.60024538 -0.19987731 -2.81299534 -0.03606404 0 0 Z " fill="#222327" transform="translate(68.125,26.9375)"/>
<path d="M0 0 C4.67461851 -0.32613618 7.16674383 0.29417212 11 3 C10.67 3.66 10.34 4.32 10 5 C9.01 4.67 8.02 4.34 7 4 C6.34 4.66 5.68 5.32 5 6 C1.875 6.125 1.875 6.125 -1 6 C-1.33 5.01 -1.66 4.02 -2 3 C-1.34 2.67 -0.68 2.34 0 2 C0 2.66 0 3.32 0 4 C1.97536745 3.65213292 1.97536745 3.65213292 4 3 C4.33 2.34 4.66 1.68 5 1 C3.35 1 1.7 1 0 1 C0 0.67 0 0.34 0 0 Z " fill="#6A6B6F" transform="translate(69,58)"/>
<path d="M0 0 C1.32 0.99 2.64 1.98 4 3 C3.67 4.65 3.34 6.3 3 8 C1.68 7.34 0.36 6.68 -1 6 C-1 3 -1 3 0 0 Z " fill="#636466" transform="translate(80,75)"/>
<path d="M0 0 C0.66 0 1.32 0 2 0 C2 0.66 2 1.32 2 2 C3.65 2 5.3 2 7 2 C7 2.99 7 3.98 7 5 C5.02 5.33 3.04 5.66 1 6 C0.67 4.02 0.34 2.04 0 0 Z " fill="#292A30" transform="translate(51,29)"/>
<path d="M0 0 C1.2065625 0.0309375 1.2065625 0.0309375 2.4375 0.0625 C2.4375 1.3825 2.4375 2.7025 2.4375 4.0625 C1.1175 4.3925 -0.2025 4.7225 -1.5625 5.0625 C-1.5625 4.0725 -1.5625 3.0825 -1.5625 2.0625 C-2.2225 1.7325 -2.8825 1.4025 -3.5625 1.0625 C-2.5625 0.0625 -2.5625 0.0625 0 0 Z " fill="#5C5B61" transform="translate(54.5625,75.9375)"/>
<path d="M0 0 C0.33 0.99 0.66 1.98 1 3 C-2.375 3.1875 -2.375 3.1875 -6 3 C-6.66 2.01 -7.32 1.02 -8 0 C-5.13822943 -1.43088528 -3.06624227 -0.59991697 0 0 Z " fill="#23252A" transform="translate(73,77)"/>
<path d="M0 0 C2.97 0.495 2.97 0.495 6 1 C5.34 1.66 4.68 2.32 4 3 C4.33 3.99 4.66 4.98 5 6 C2.525 5.01 2.525 5.01 0 4 C0 2.68 0 1.36 0 0 Z " fill="#424449" transform="translate(48,74)"/>
<path d="M0 0 C1.65 0.99 3.3 1.98 5 3 C4.67 4.65 4.34 6.3 4 8 C-0.875 6.25 -0.875 6.25 -2 4 C-1.01 4 -0.02 4 1 4 C0.67 2.68 0.34 1.36 0 0 Z " fill="#606265" transform="translate(44,70)"/>
<path d="M0 0 C2.475 0.99 2.475 0.99 5 2 C4.01 2.495 4.01 2.495 3 3 C3 3.99 3 4.98 3 6 C0.525 5.01 0.525 5.01 -2 4 C-1.34 2.68 -0.68 1.36 0 0 Z " fill="#4C4D51" transform="translate(73,27)"/>
<path d="M0 0 C0.66 0 1.32 0 2 0 C1.67 2.31 1.34 4.62 1 7 C0.01 7.33 -0.98 7.66 -2 8 C-1.125 1.125 -1.125 1.125 0 0 Z " fill="#292A2E" transform="translate(83,41)"/>
<path d="M0 0 C1.32 0 2.64 0 4 0 C4.33 0.99 4.66 1.98 5 3 C4.01 3.99 3.02 4.98 2 6 C0 3 0 3 0 0 Z " fill="#444449" transform="translate(30,60)"/>
<path d="M0 0 C2.08954032 4.17908064 2.16552619 4.80410573 1 9 C0.34 9 -0.32 9 -1 9 C-0.67 6.03 -0.34 3.06 0 0 Z " fill="#232427" transform="translate(27,43)"/>
<path d="M0 0 C1.32 0 2.64 0 4 0 C4.33 1.32 4.66 2.64 5 4 C3.35 4 1.7 4 0 4 C0 2.68 0 1.36 0 0 Z " fill="#333539" transform="translate(40,70)"/>
</svg>
