<?xml version="1.0" encoding="UTF-8"?>
<svg version="1.1" xmlns="http://www.w3.org/2000/svg" width="189" height="159">
<path d="M0 0 C1.83984375 0.23046875 1.83984375 0.23046875 4 1 C5.37890625 2.86328125 5.37890625 2.86328125 6.5625 5.3125 C7.15224609 6.48232422 7.15224609 6.48232422 7.75390625 7.67578125 C11.47000775 17.58926831 12.41071455 26.70740521 12.1875 37.25 C12.16719727 39.10044922 12.16719727 39.10044922 12.14648438 40.98828125 C12.11154967 43.99266604 12.06250145 46.99608409 12 50 C12.61125732 49.31583008 13.22251465 48.63166016 13.85229492 47.92675781 C14.65771729 47.02795898 15.46313965 46.12916016 16.29296875 45.203125 C17.08985107 44.31270508 17.8867334 43.42228516 18.70776367 42.50488281 C26.09987115 34.42702332 35.70292128 27.51350358 47 27 C48.81318329 31.82375177 46.61883694 35.30807452 44.63671875 39.77734375 C39.57832271 49.73719275 32.40667949 56.87595727 24 64 C25.00417969 64.02578125 26.00835937 64.0515625 27.04296875 64.078125 C37.6392585 64.47255692 47.48261837 65.94672357 57 71 C57 73.25 57 73.25 56 76 C51.45979952 79.36639255 46.53503556 80.53874704 41 81 C40.67 79.68 40.34 78.36 40 77 C42.97 75.68 45.94 74.36 49 73 C35.37133178 69.0041601 24.58437269 69.92014223 11 73 C13.9345922 74.63229325 16.44748121 75.38361915 19.765625 75.8515625 C20.65507813 75.98046875 21.54453125 76.109375 22.4609375 76.2421875 C23.38132812 76.36851563 24.30171875 76.49484375 25.25 76.625 C26.18585938 76.7590625 27.12171875 76.893125 28.0859375 77.03125 C30.38981945 77.36037599 32.69441524 77.68306149 35 78 C35 79.32 35 80.64 35 82 C27.95559921 82.21133202 21.75887425 82.07965362 15 80 C15.34933594 80.54269531 15.69867188 81.08539063 16.05859375 81.64453125 C16.51363281 82.35996094 16.96867187 83.07539062 17.4375 83.8125 C17.88996094 84.52019531 18.34242187 85.22789063 18.80859375 85.95703125 C20.85031644 89.45808359 21.11404367 92.21863735 21.0625 96.1875 C21.05347656 97.08855469 21.04445313 97.98960938 21.03515625 98.91796875 C21.02355469 99.60503906 21.01195313 100.29210937 21 101 C15.97637096 100.52155914 12.96816238 99.10551838 9 96 C7.68 94.35 6.36 92.7 5 91 C4.67 97.6 4.34 104.2 4 111 C2.02 111.495 2.02 111.495 0 112 C-1.58403524 110.41596476 -1.21974935 108.7228362 -1.31640625 106.52734375 C-1.35830078 105.62822266 -1.40019531 104.72910156 -1.44335938 103.80273438 C-1.48267578 102.85720703 -1.52199219 101.91167969 -1.5625 100.9375 C-1.60568359 99.98810547 -1.64886719 99.03871094 -1.69335938 98.06054688 C-1.79979276 95.70718647 -1.90181008 93.35371646 -2 91 C-2.39687012 91.48283447 -2.79374023 91.96566895 -3.20263672 92.46313477 C-3.73131348 93.09533936 -4.25999023 93.72754395 -4.8046875 94.37890625 C-5.58561768 95.31972046 -5.58561768 95.31972046 -6.38232422 96.27954102 C-8.63982652 98.68047955 -10.92824466 99.86478607 -14 101 C-15.32 101 -16.64 101 -18 101 C-19.60056637 94.8917161 -17.92330651 89.48255858 -14.90625 84.01953125 C-13.99063088 82.6428325 -13.00306014 81.31435467 -12 80 C-12.99 80.33 -13.98 80.66 -15 81 C-26.96122503 83.94789057 -41.45704428 82.86603405 -52.25 76.8125 C-53.1575 76.214375 -54.065 75.61625 -55 75 C-54.63543463 72.54560216 -54.44791086 71.34179731 -52.43359375 69.8046875 C-51.77488281 69.49789062 -51.11617187 69.19109375 -50.4375 68.875 C-49.79683594 68.56304687 -49.15617187 68.25109375 -48.49609375 67.9296875 C-42.01371393 65.51527999 -35.85424695 64.66104551 -29 64.375 C-25.04 64.189375 -25.04 64.189375 -21 64 C-26.94 58.555 -26.94 58.555 -33 53 C-32.67 52.01 -32.34 51.02 -32 50 C-28 50 -28 50 -25.875 52 C-25.45476562 52.45375 -25.03453125 52.9075 -24.6015625 53.375 C-18.59707895 59.46735404 -11.61312922 64.17504619 -4 68 C-12.57350867 52.7987435 -21.94459349 39.30308501 -39 33 C-38.55527344 33.75925781 -38.11054687 34.51851562 -37.65234375 35.30078125 C-36.80349609 36.79158203 -36.80349609 36.79158203 -35.9375 38.3125 C-35.36902344 39.29863281 -34.80054687 40.28476562 -34.21484375 41.30078125 C-33 44 -33 44 -34 47 C-35.32 47 -36.64 47 -38 47 C-44.70387244 34.51480638 -44.70387244 34.51480638 -45 28 C-38.55058598 26.13213692 -33.69499639 28.99627996 -28 32 C-20.88504658 36.82728426 -13.79648336 42.80527496 -9 50 C-9.02094727 49.26064209 -9.04189453 48.52128418 -9.06347656 47.75952148 C-9.90605189 13.48323729 -9.90605189 13.48323729 0 0 Z M1 6 C-8.05479517 26.26340085 -5.46517366 46.34910548 1 67 C3.27816974 63.58274539 4.11289949 60.30449016 5.0625 56.375 C5.32691895 55.29085815 5.32691895 55.29085815 5.59667969 54.18481445 C6.79788311 49.13192614 7.76931638 44.19999327 8 39 C8.0515625 38.18917969 8.103125 37.37835938 8.15625 36.54296875 C8.52803693 25.96253239 6.39536633 15.60332139 2 6 C1.67 6 1.34 6 1 6 Z M21.75390625 45.04296875 C15.48716532 51.53296372 9.45177666 59.25312111 7 68 C21.80140318 62.53281504 33.32487896 51.54317069 40.73046875 37.78515625 C42.13825474 35.20683209 42.13825474 35.20683209 42 33 C34.33215499 33 26.9389118 40.12348268 21.75390625 45.04296875 Z M-8 51 C-7 53 -7 53 -7 53 Z M10 51 C11 53 11 53 11 53 Z M-48 74 C-33.94097707 79.48063606 -19.23302253 78.74434084 -5 74 C-14.73070487 67.51286342 -39.04859694 65.04859694 -48 74 Z M-7.4375 81.9375 C-11.2641771 85.82795505 -12.75220174 89.75924731 -14 95 C-9.87916485 93.68946229 -8.07158933 92.32262014 -5.75 88.6875 C-5.24984375 87.92824219 -4.7496875 87.16898438 -4.234375 86.38671875 C-2.94904342 83.9014732 -2.40967869 81.75557688 -2 79 C-4.76292937 79 -5.4531807 80.05559718 -7.4375 81.9375 Z M5 79 C6.23711318 84.51077689 8.05859829 88.85704934 12 93 C14.6378567 94.47772157 14.6378567 94.47772157 17 95 C15.82550047 88.09981529 12.10792316 83.69290441 7 79 C6.34 79 5.68 79 5 79 Z " fill="#191A1F" transform="translate(95,13)"/>
<path d="M0 0 C1.98 0 3.96 0 6 0 C5.70703125 1.953125 5.4140625 3.90625 5.12109375 5.859375 C4.89306318 7.96940581 4.89306318 7.96940581 5.47265625 9.8359375 C6.04501553 12.18473039 6.20808589 14.35162832 6.31640625 16.765625 C6.37924805 18.09980469 6.37924805 18.09980469 6.44335938 19.4609375 C6.48267578 20.38132812 6.52199219 21.30171875 6.5625 22.25 C6.60568359 23.18585938 6.64886719 24.12171875 6.69335938 25.0859375 C6.7991805 27.39048641 6.90126557 29.69513839 7 32 C7.33 32 7.66 32 8 32 C8 25.07 8 18.14 8 11 C9.32 11.33 10.64 11.66 12 12 C11.67 12.66 11.34 13.32 11 14 C10.84876169 15.5195764 10.75118307 17.04472502 10.68359375 18.5703125 C10.64169922 19.46621094 10.59980469 20.36210938 10.55664062 21.28515625 C10.51732422 22.22230469 10.47800781 23.15945312 10.4375 24.125 C10.39431641 25.06988281 10.35113281 26.01476562 10.30664062 26.98828125 C10.20040928 29.32537092 10.09836824 31.6625683 10 34 C8.0625 34.5625 8.0625 34.5625 6 35 C4.41596476 33.41596476 4.78025065 31.7228362 4.68359375 29.52734375 C4.64169922 28.62822266 4.59980469 27.72910156 4.55664062 26.80273438 C4.51732422 25.85720703 4.47800781 24.91167969 4.4375 23.9375 C4.39431641 22.98810547 4.35113281 22.03871094 4.30664062 21.06054688 C4.20020724 18.70718647 4.09818992 16.35371646 4 14 C2.35 15.65 0.7 17.3 -1 19 C0 17 1 15 2 13 C1.01 13.99 0.02 14.98 -1 16 C-1.66 15.67 -2.32 15.34 -3 15 C-2.66226563 14.48050781 -2.32453125 13.96101563 -1.9765625 13.42578125 C0.39891701 9.71151993 2.55762815 6.19599085 4 2 C1.36 3.98 -1.28 5.96 -4 8 C-2.66666667 5.33333333 -1.33333333 2.66666667 0 0 Z " fill="#15171C" transform="translate(89,90)"/>
<path d="M0 0 C0.99 0.33 1.98 0.66 3 1 C3.89553822 3.73753153 4.58523269 6.32223072 5.1875 9.125 C5.45336914 10.24648438 5.45336914 10.24648438 5.72460938 11.390625 C6.76650868 16.00877326 7.17211647 20.24008942 7 25 C7 25.99 7 26.98 7 28 C5.1875 27.8125 5.1875 27.8125 3 27 C0.59610056 23.79480075 -0.43624605 20.94627764 -1 17 C-0.01 17 0.98 17 2 17 C2 13.33245832 1.21354341 10.04568945 0.4375 6.47265625 C0 4 0 4 0 0 Z " fill="#1D1F24" transform="translate(87,52)"/>
<path d="M0 0 C0.66 0.66 1.32 1.32 2 2 C2.99 1.34 3.98 0.68 5 0 C4.01 2.97 3.02 5.94 2 9 C2.99 8.34 3.98 7.68 5 7 C6.32 7 7.64 7 9 7 C9.33 6.01 9.66 5.02 10 4 C10.66 4 11.32 4 12 4 C11.33333333 5.33333333 10.66666667 6.66666667 10 8 C9.7525 8.680625 9.505 9.36125 9.25 10.0625 C7.39057083 12.94461521 5.13261837 13.74695265 2 15 C0.68 15 -0.64 15 -2 15 C-3.08056059 11.02840314 -2.85815614 8.57446843 -1.5625 4.6875 C-1.27503906 3.80449219 -0.98757812 2.92148438 -0.69140625 2.01171875 C-0.46324219 1.34785156 -0.23507813 0.68398437 0 0 Z " fill="#1B1C22" transform="translate(79,99)"/>
<path d="M0 0 C4 0 4 0 6.3125 2.125 C7.199375 3.07375 8.08625 4.0225 9 5 C11.29699661 7.0433699 13.64443964 9.02458771 16 11 C15.01 11.33 14.02 11.66 13 12 C13.66 13.32 14.32 14.64 15 16 C8.93974033 12.24841068 3.82995861 8.24927977 -1 3 C-0.67 2.01 -0.34 1.02 0 0 Z " fill="#16161D" transform="translate(63,63)"/>
<path d="M0 0 C0.42487047 21.66839378 0.42487047 21.66839378 -2 28 C-2.66 28.33 -3.32 28.66 -4 29 C-3.67 19.76 -3.34 10.52 -3 1 C-1 0 -1 0 0 0 Z " fill="#202126" transform="translate(106,37)"/>
<path d="M0 0 C5.48964166 0.57324268 10.86009809 0.73480999 16.375 0.625 C16.045 1.285 15.715 1.945 15.375 2.625 C13.61254883 3.05151367 13.61254883 3.05151367 11.33203125 3.29296875 C10.50509766 3.38126953 9.67816406 3.46957031 8.82617188 3.56054688 C7.95541016 3.64369141 7.08464844 3.72683594 6.1875 3.8125 C5.33607422 3.90724609 4.48464844 4.00199219 3.60742188 4.09960938 C-1.01806923 4.56823995 -5.04281814 4.68242658 -9.625 3.625 C-9.625 2.965 -9.625 2.305 -9.625 1.625 C-6.20204902 -0.50014966 -3.95319927 -0.46937722 0 0 Z " fill="#22232A" transform="translate(115.625,78.375)"/>
<path d="M0 0 C1.26650391 0.00966797 1.26650391 0.00966797 2.55859375 0.01953125 C3.43128906 0.03628906 4.30398437 0.05304688 5.203125 0.0703125 C6.53537109 0.08384766 6.53537109 0.08384766 7.89453125 0.09765625 C10.08100558 0.12116673 12.26692594 0.15402751 14.453125 0.1953125 C14.783125 0.8553125 15.113125 1.5153125 15.453125 2.1953125 C10.833125 2.1953125 6.213125 2.1953125 1.453125 2.1953125 C6.733125 2.8553125 12.013125 3.5153125 17.453125 4.1953125 C17.453125 4.5253125 17.453125 4.8553125 17.453125 5.1953125 C9.533125 5.1953125 1.613125 5.1953125 -6.546875 5.1953125 C-5.556875 4.8653125 -4.566875 4.5353125 -3.546875 4.1953125 C-3.546875 3.5353125 -3.546875 2.8753125 -3.546875 2.1953125 C-5.196875 2.1953125 -6.846875 2.1953125 -8.546875 2.1953125 C-5.55561181 0.47325062 -3.44001787 -0.04648673 0 0 Z " fill="#121419" transform="translate(61.546875,77.8046875)"/>
<path d="M0 0 C0.99 0.495 0.99 0.495 2 1 C2.33 7.6 2.66 14.2 3 21 C3.33 21 3.66 21 4 21 C4 14.07 4 7.14 4 0 C5.32 0.33 6.64 0.66 8 1 C7.67 1.66 7.34 2.32 7 3 C6.84876169 4.5195764 6.75118307 6.04472502 6.68359375 7.5703125 C6.64169922 8.46621094 6.59980469 9.36210938 6.55664062 10.28515625 C6.51732422 11.22230469 6.47800781 12.15945312 6.4375 13.125 C6.39431641 14.06988281 6.35113281 15.01476562 6.30664062 15.98828125 C6.20040928 18.32537092 6.09836824 20.6625683 6 23 C4.0625 23.5625 4.0625 23.5625 2 24 C0.31699331 22.31699331 0.77190923 20.17991273 0.68359375 17.87109375 C0.64169922 16.83662109 0.59980469 15.80214844 0.55664062 14.73632812 C0.51732422 13.64771484 0.47800781 12.55910156 0.4375 11.4375 C0.39431641 10.34501953 0.35113281 9.25253906 0.30664062 8.12695312 C0.20017932 5.41810436 0.09816484 2.70916008 0 0 Z " fill="#0A0B11" transform="translate(93,101)"/>
<path d="M0 0 C0.33 0 0.66 0 1 0 C1 3.3 1 6.6 1 10 C0.34 10 -0.32 10 -1 10 C-1 13.63 -1 17.26 -1 21 C-1.66 21 -2.32 21 -3 21 C-3.05425226 18.60385874 -3.09379027 16.20896147 -3.125 13.8125 C-3.14175781 13.13896484 -3.15851563 12.46542969 -3.17578125 11.77148438 C-3.21535232 7.71544996 -2.84514755 4.62879019 -1 1 C-0.67 0.67 -0.34 0.34 0 0 Z " fill="#1D1E23" transform="translate(90,30)"/>
<path d="M0 0 C1.25541557 3.76624671 0.37061958 5.37188934 -1 9 C-1.33 8.01 -1.66 7.02 -2 6 C-2.66 6 -3.32 6 -4 6 C-4.268125 6.928125 -4.53625 7.85625 -4.8125 8.8125 C-5.91148371 11.76240366 -6.62418561 13.05615186 -9 15 C-7.88786134 11.50470706 -6.68426809 8.25530808 -5 5 C-5.69867188 5.37253906 -6.39734375 5.74507812 -7.1171875 6.12890625 C-8.02726563 6.60199219 -8.93734375 7.07507812 -9.875 7.5625 C-11.23238281 8.27599609 -11.23238281 8.27599609 -12.6171875 9.00390625 C-13.40351563 9.33261719 -14.18984375 9.66132812 -15 10 C-15.66 9.67 -16.32 9.34 -17 9 C-8.46836346 3.26284491 -8.46836346 3.26284491 -4 3 C-3.34 3.33 -2.68 3.66 -2 4 C-1.34 2.68 -0.68 1.36 0 0 Z " fill="#0E0E13" transform="translate(142,41)"/>
<path d="M0 0 C0 3.26516041 -0.2965511 5.17421216 -2.4375 7.6875 C-4 9 -4 9 -6 9 C-6.33 9.99 -6.66 10.98 -7 12 C-7.66 12 -8.32 12 -9 12 C-8.34 8.7 -7.68 5.4 -7 2 C-4.69 1.34 -2.38 0.68 0 0 Z " fill="#212329" transform="translate(108,65)"/>
<path d="M0 0 C0.33 1.32 0.66 2.64 1 4 C-7.95588235 10.39705882 -7.95588235 10.39705882 -13.875 9.625 C-14.57625 9.41875 -15.2775 9.2125 -16 9 C-16 8.01 -16 7.02 -16 6 C-14.35 5.67 -12.7 5.34 -11 5 C-11.33 5.66 -11.66 6.32 -12 7 C-7.63890395 6.49289581 -4.54924701 5.63658349 -1 3 C-0.67 2.01 -0.34 1.02 0 0 Z " fill="#0C0D11" transform="translate(151,84)"/>
<path d="M0 0 C0.66 0.66 1.32 1.32 2 2 C2.99 1.34 3.98 0.68 5 0 C4.01 2.97 3.02 5.94 2 9 C3.65 8.34 5.3 7.68 7 7 C5 10 5 10 2.875 10.6875 C2.25625 10.790625 1.6375 10.89375 1 11 C0.7834375 9.6078125 0.7834375 9.6078125 0.5625 8.1875 C0.07899889 4.99274889 0.07899889 4.99274889 -1 2 C-0.67 1.34 -0.34 0.68 0 0 Z " fill="#101216" transform="translate(79,99)"/>
<path d="M0 0 C5.12583611 -0.10251672 9.94997778 -0.03590199 15 1 C15 1.66 15 2.32 15 3 C9.72 2.67 4.44 2.34 -1 2 C-0.67 1.34 -0.34 0.68 0 0 Z " fill="#222329" transform="translate(54,91)"/>
<path d="M0 0 C0.99 0 1.98 0 3 0 C3.93423645 3.01031744 4.04449911 3.86650268 3 7 C0.4375 8.6875 0.4375 8.6875 -2 10 C-2.20271267 6.35117201 -1.81140333 4.16995583 0 1 C0 0.67 0 0.34 0 0 Z " fill="#1B1B22" transform="translate(82,92)"/>
<path d="M0 0 C1.65 0.33 3.3 0.66 5 1 C4.67 1.99 4.34 2.98 4 4 C-8.66970387 4.18451025 -8.66970387 4.18451025 -14 3 C-14 2.67 -14 2.34 -14 2 C-7.25 0.875 -7.25 0.875 -5 2 C-2.6670134 2.04022391 -0.33293334 2.04320247 2 2 C1.34 1.34 0.68 0.68 0 0 Z " fill="#0F0F15" transform="translate(126,91)"/>
<path d="M0 0 C0.87785156 0.00515625 1.75570312 0.0103125 2.66015625 0.015625 C3.53542969 0.01046875 4.41070312 0.0053125 5.3125 0 C7.72265625 0.265625 7.72265625 0.265625 10.72265625 2.265625 C9.72265625 3.265625 9.72265625 3.265625 6.59765625 3.390625 C2.89644413 3.27123106 -0.62575452 2.86180283 -4.27734375 2.265625 C-2.27734375 0.265625 -2.27734375 0.265625 0 0 Z " fill="#212127" transform="translate(118.27734375,90.734375)"/>
<path d="M0 0 C1.98 0 3.96 0 6 0 C5.625 2.9375 5.625 2.9375 5 6 C4.01 6.495 4.01 6.495 3 7 C3.33 5.35 3.66 3.7 4 2 C1.36 3.98 -1.28 5.96 -4 8 C-2.66666667 5.33333333 -1.33333333 2.66666667 0 0 Z " fill="#0D0D13" transform="translate(89,90)"/>
<path d="M0 0 C2.32472205 2.85306797 3.7508258 5.54074837 5 9 C3.35 9.33 1.7 9.66 0 10 C-0.93423645 6.98968256 -1.04449911 6.13349732 0 3 C0 2.01 0 1.02 0 0 Z " fill="#0F1012" transform="translate(57,50)"/>
<path d="M0 0 C0.66 0.66 1.32 1.32 2 2 C1.9765625 4.6015625 1.9765625 4.6015625 1.625 7.625 C1.51414062 8.62789062 1.40328125 9.63078125 1.2890625 10.6640625 C1.19367188 11.43492188 1.09828125 12.20578125 1 13 C0.34 13 -0.32 13 -1 13 C-1.02686553 11.02090602 -1.04633375 9.04171029 -1.0625 7.0625 C-1.07410156 5.96035156 -1.08570312 4.85820313 -1.09765625 3.72265625 C-1 1 -1 1 0 0 Z " fill="#232429" transform="translate(88,38)"/>
<path d="M0 0 C1.32 0.66 2.64 1.32 4 2 C3.01 2.495 3.01 2.495 2 3 C2.66 4.65 3.32 6.3 4 8 C1.36 6.02 -1.28 4.04 -4 2 C-3.01 2 -2.02 2 -1 2 C-0.67 1.34 -0.34 0.68 0 0 Z " fill="#121318" transform="translate(72,50)"/>
<path d="M0 0 C2.29633824 3.44450737 2.54016485 5.93812283 3 10 C2.34 9.34 1.68 8.68 1 8 C1 9.65 1 11.3 1 13 C0.34 13 -0.32 13 -1 13 C-1.625 9.625 -1.625 9.625 -2 6 C-1.34 5.34 -0.68 4.68 0 4 C0 2.68 0 1.36 0 0 Z " fill="#14141A" transform="translate(102,21)"/>
<path d="M0 0 C0.36923077 4.55384615 0.36923077 4.55384615 -1.5 6.8125 C-1.995 7.204375 -2.49 7.59625 -3 8 C-3.66 7.67 -4.32 7.34 -5 7 C-4.34 6.01 -3.68 5.02 -3 4 C-4.32 4.33 -5.64 4.66 -7 5 C-2.25 0 -2.25 0 0 0 Z " fill="#101016" transform="translate(125,47)"/>
<path d="M0 0 C0.78375 0.04125 1.5675 0.0825 2.375 0.125 C1.385 2.105 0.395 4.085 -0.625 6.125 C-1.285 6.125 -1.945 6.125 -2.625 6.125 C-3.285 4.805 -3.945 3.485 -4.625 2.125 C-2.625 0.125 -2.625 0.125 0 0 Z " fill="#232429" transform="translate(107.625,88.875)"/>
<path d="M0 0 C0.66 0.33 1.32 0.66 2 1 C2 2.98 2 4.96 2 7 C0.35 7 -1.3 7 -3 7 C-3 6.01 -3 5.02 -3 4 C-2.01 4.33 -1.02 4.66 0 5 C0 3.35 0 1.7 0 0 Z " fill="#22232C" transform="translate(113,105)"/>
<path d="M0 0 C0.99 0.33 1.98 0.66 3 1 C3 2.32 3 3.64 3 5 C1.35 4.67 -0.3 4.34 -2 4 C-2 3.01 -2 2.02 -2 1 C-1.34 0.67 -0.68 0.34 0 0 Z " fill="#131317" transform="translate(137,89)"/>
<path d="M0 0 C0.66 0 1.32 0 2 0 C2 0.66 2 1.32 2 2 C1.34 2 0.68 2 0 2 C-0.33 3.65 -0.66 5.3 -1 7 C-1.99 6.67 -2.98 6.34 -4 6 C-2.84826645 3.53199953 -1.95216435 1.95216435 0 0 Z " fill="#1E1E25" transform="translate(125,66)"/>
<path d="M0 0 C1.65 0 3.3 0 5 0 C5 0.66 5 1.32 5 2 C5.99 2.66 6.98 3.32 8 4 C5 5 5 5 2.3125 3.6875 C1.549375 3.130625 0.78625 2.57375 0 2 C0 1.34 0 0.68 0 0 Z " fill="#10121A" transform="translate(44,85)"/>
<path d="M0 0 C0 0.66 0 1.32 0 2 C-2.64 2.33 -5.28 2.66 -8 3 C-5.53387212 -0.1151089 -3.89156016 -0.31553191 0 0 Z " fill="#21232A" transform="translate(58,80)"/>
</svg>
