<?xml version="1.0" encoding="UTF-8"?>
<svg version="1.1" xmlns="http://www.w3.org/2000/svg" width="86" height="88">
<path d="M0 0 C2 1.5625 2 1.5625 3 3.5625 C3.09772811 5.78996339 3.13077394 8.0203947 3.1328125 10.25 C3.13376923 10.90830811 3.13472595 11.56661621 3.13571167 12.24487305 C3.13639225 13.63688248 3.13454646 15.0288951 3.13037109 16.42089844 C3.12502104 18.55410883 3.13032012 20.68710867 3.13671875 22.8203125 C3.13605795 24.17187547 3.13477674 25.5234383 3.1328125 26.875 C3.13168457 28.10863281 3.13055664 29.34226562 3.12939453 30.61328125 C3 33.5625 3 33.5625 2 35.5625 C0.56333984 35.47548828 0.56333984 35.47548828 -0.90234375 35.38671875 C-9.54304337 35.03556002 -16.5520316 36.02604713 -24.74365234 38.77294922 C-31.59184804 40.97409822 -37.80793192 41.07540501 -45 40.5625 C-45.33 43.2025 -45.66 45.8425 -46 48.5625 C-45.01 48.8925 -44.02 49.2225 -43 49.5625 C-43 50.5525 -43 51.5425 -43 52.5625 C-45.97 52.5625 -48.94 52.5625 -52 52.5625 C-52 51.2425 -52 49.9225 -52 48.5625 C-51.34 48.5625 -50.68 48.5625 -50 48.5625 C-50.00666183 47.99064972 -50.01332367 47.41879944 -50.02018738 46.82962036 C-50.08641392 40.89281827 -50.13174751 34.9561206 -50.16479492 29.01904297 C-50.17990753 26.80155172 -50.20039826 24.58409047 -50.22631836 22.36669922 C-50.26259293 19.18449511 -50.27970139 16.00268518 -50.29296875 12.8203125 C-50.30845261 11.82444122 -50.32393646 10.82856995 -50.33988953 9.80252075 C-50.34011612 8.88171722 -50.34034271 7.9609137 -50.34057617 7.01220703 C-50.34723801 6.1994632 -50.35389984 5.38671936 -50.36076355 4.54934692 C-50.24171158 3.89368744 -50.12265961 3.23802795 -50 2.5625 C-49.01 1.9025 -48.02 1.2425 -47 0.5625 C-46.154375 1.0575 -45.30875 1.5525 -44.4375 2.0625 C-37.76038663 4.97614947 -31.98241099 3.24380759 -25.375 1.125 C-8.58612594 -4.11418535 -8.58612594 -4.11418535 0 0 Z M-18.25 3.3125 C-19.2709375 3.58707031 -19.2709375 3.58707031 -20.3125 3.8671875 C-24.00568021 4.88352779 -27.43231433 6.13542573 -31 7.5625 C-31 16.8025 -31 26.0425 -31 35.5625 C-25.44722158 34.21092704 -25.44722158 34.21092704 -20.0234375 32.4453125 C-16.14240984 31.31209254 -12.63777842 31.34390991 -8.625 31.4375 C-4.850625 31.499375 -4.850625 31.499375 -1 31.5625 C-1 22.3225 -1 13.0825 -1 3.5625 C-8.43427843 1.91043813 -11.54672939 1.31191149 -18.25 3.3125 Z M-46 6.5625 C-46.10729431 13.63200297 -46.04412744 20.68877669 -45.6875 27.75 C-45.62949219 29.00167969 -45.57148437 30.25335938 -45.51171875 31.54296875 C-45.34285156 32.53941406 -45.17398438 33.53585938 -45 34.5625 C-41.3558226 36.9919516 -39.28758728 36.72429575 -35 36.5625 C-34.97096108 32.47918161 -34.95318811 28.3958898 -34.9375 24.3125 C-34.92912109 23.15363281 -34.92074219 21.99476562 -34.91210938 20.80078125 C-34.90888672 19.68574219 -34.90566406 18.57070313 -34.90234375 17.421875 C-34.89710693 16.39545898 -34.89187012 15.36904297 -34.88647461 14.31152344 C-34.91713682 11.32077055 -34.91713682 11.32077055 -36 7.5625 C-39.3 7.2325 -42.6 6.9025 -46 6.5625 Z " fill="#464648" transform="translate(71,22.4375)"/>
<path d="M0 0 C0.33 0 0.66 0 1 0 C1 9.24 1 18.48 1 28 C0.01 28 -0.98 28 -2 28 C-2 28.66 -2 29.32 -2 30 C-0.35 29.67 1.3 29.34 3 29 C3 29.66 3 30.32 3 31 C2.04222656 30.94199219 1.08445313 30.88398437 0.09765625 30.82421875 C-8.60776877 30.4706092 -15.75447593 31.47743299 -24.02490234 34.21044922 C-29.5406706 35.99659349 -34.17203338 36.46253703 -40 36 C-40 35.67 -40 35.34 -40 35 C-36.535 34.505 -36.535 34.505 -33 34 C-34.98 33.67 -36.96 33.34 -39 33 C-39 32.67 -39 32.34 -39 32 C-37.35 32 -35.7 32 -34 32 C-34.33 31.01 -34.66 30.02 -35 29 C-35.08291953 27.0079697 -35.10738177 25.01326287 -35.09765625 23.01953125 C-35.09443359 21.85615234 -35.09121094 20.69277344 -35.08789062 19.49414062 C-35.07951172 18.27919922 -35.07113281 17.06425781 -35.0625 15.8125 C-35.05798828 14.58595703 -35.05347656 13.35941406 -35.04882812 12.09570312 C-35.03703065 9.06375332 -35.02056921 6.03190094 -35 3 C-34.34 3.66 -33.68 4.32 -33 5 C-32.34 4.01 -31.68 3.02 -31 2 C-30.34 2.33 -29.68 2.66 -29 3 C-29.33 12.24 -29.66 21.48 -30 31 C-27.958125 30.175 -25.91625 29.35 -23.8125 28.5 C-16.12560253 25.59828728 -7.96376063 24.34541312 0 27 C0 18.09 0 9.18 0 0 Z " fill="#6B6B6F" transform="translate(70,27)"/>
<path d="M0 0 C6.2928125 0.4840625 6.2928125 0.4840625 9.20996094 2.61230469 C11.63813443 5.85119405 11.45874034 7.93432023 11.390625 11.953125 C11.38496521 12.61334656 11.37930542 13.27356812 11.37347412 13.95379639 C11.3511623 16.05328263 11.30098314 18.1510337 11.25 20.25 C11.22992794 21.6770586 11.21167839 23.10414408 11.1953125 24.53125 C11.15131693 28.02139293 11.08232876 31.51052699 11 35 C8.03 35.495 8.03 35.495 5 36 C5 35.34 5 34.68 5 34 C5.99 34 6.98 34 8 34 C7.67 24.76 7.34 15.52 7 6 C4.36 4.68 1.72 3.36 -1 2 C-0.67 1.34 -0.34 0.68 0 0 Z " fill="#464548" transform="translate(63,21)"/>
<path d="M0 0 C0.33 0 0.66 0 1 0 C1 9.24 1 18.48 1 28 C0.01 28 -0.98 28 -2 28 C-2 28.66 -2 29.32 -2 30 C-0.35 29.67 1.3 29.34 3 29 C3 29.66 3 30.32 3 31 C1.96101563 30.96519531 0.92203125 30.93039063 -0.1484375 30.89453125 C-7.53832179 30.725128 -13.9896112 30.68996944 -20.984375 33.44140625 C-23 34 -23 34 -27 33 C-24.36 32.01 -21.72 31.02 -19 30 C-19.99 29.34 -20.98 28.68 -22 28 C-17.61238219 26.32062435 -14.00251512 25.75258111 -9.3125 25.8125 C-8.19488281 25.81894531 -7.07726562 25.82539062 -5.92578125 25.83203125 C-3 26 -3 26 0 27 C0 18.09 0 9.18 0 0 Z " fill="#8B8B8C" transform="translate(70,27)"/>
<path d="M0 0 C0 0.99 0 1.98 0 3 C0.66 3.66 1.32 4.32 2 5 C1.32195312 5.03738281 0.64390625 5.07476563 -0.0546875 5.11328125 C-6.02093745 5.53471996 -11.2630832 6.47946776 -16.90625 8.4765625 C-19 9 -19 9 -22 8 C-21.67 7.67 -21.34 7.34 -21 7 C-21.66 6.34 -22.32 5.68 -23 5 C-20.93847611 4.35105763 -18.87573742 3.7059736 -16.8125 3.0625 C-15.66394531 2.70285156 -14.51539063 2.34320312 -13.33203125 1.97265625 C-8.76607917 0.63980506 -4.75936401 -0.13598183 0 0 Z " fill="#79797C" transform="translate(64,20)"/>
<path d="M0 0 C0.33 0 0.66 0 1 0 C1.02505615 0.87325928 1.0501123 1.74651855 1.07592773 2.64624023 C1.17087709 5.87602552 1.27012029 9.10564154 1.37231445 12.33520508 C1.41571434 13.73489199 1.45738564 15.13463359 1.49731445 16.53442383 C1.55489445 18.54261495 1.61914 20.55061149 1.68359375 22.55859375 C1.72025146 23.76829834 1.75690918 24.97800293 1.79467773 26.22436523 C1.68938266 28.90705456 1.68938266 28.90705456 3 30 C3.04080783 31.99958364 3.04254356 34.00045254 3 36 C4.32 36.33 5.64 36.66 7 37 C7 37.99 7 38.98 7 40 C4.03 40 1.06 40 -2 40 C-2 38.68 -2 37.36 -2 36 C-1.34 36 -0.68 36 0 36 C0 24.12 0 12.24 0 0 Z " fill="#8C8C8F" transform="translate(21,35)"/>
<path d="M0 0 C0 0.66 0 1.32 0 2 C3.96 2 7.92 2 12 2 C12 2.33 12 2.66 12 3 C10.69675781 3.18175781 10.69675781 3.18175781 9.3671875 3.3671875 C8.21476562 3.53476562 7.06234375 3.70234375 5.875 3.875 C4.73804688 4.03742187 3.60109375 4.19984375 2.4296875 4.3671875 C-1.00568503 4.90700411 -1.00568503 4.90700411 -4.1796875 6.1328125 C-7 7 -7 7 -11 6 C-8.36 5.01 -5.72 4.02 -3 3 C-3.99 2.34 -4.98 1.68 -6 1 C-3 0 -3 0 0 0 Z " fill="#9E9EA0" transform="translate(54,54)"/>
<path d="M0 0 C0.33 0.66 0.66 1.32 1 2 C-3.79137588 3.6290678 -7.05632546 4.20577428 -12 3 C-7.86112344 0.24074896 -4.92824278 -0.13689563 0 0 Z " fill="#48484B" transform="translate(51,56)"/>
<path d="M0 0 C2.64 0 5.28 0 8 0 C8 0.99 8 1.98 8 3 C5.36 3 2.72 3 0 3 C0 2.01 0 1.02 0 0 Z " fill="#464647" transform="translate(54,53)"/>
<path d="M0 0 C1.65 0 3.3 0 5 0 C5 0.99 5 1.98 5 3 C5.66 3.66 6.32 4.32 7 5 C3.7 5 0.4 5 -3 5 C-2.01 3.68 -1.02 2.36 0 1 C0 0.67 0 0.34 0 0 Z " fill="#9E9E9E" transform="translate(59,20)"/>
<path d="M0 0 C-4.30769231 3.93846154 -4.30769231 3.93846154 -7.8125 4.25 C-8.534375 4.1675 -9.25625 4.085 -10 4 C-10 3.34 -10 2.68 -10 2 C-6.3558226 -0.4294516 -4.28758728 -0.16179575 0 0 Z " fill="#363637" transform="translate(61,21)"/>
<path d="M0 0 C-0.66 0 -1.32 0 -2 0 C-2 0.66 -2 1.32 -2 2 C-0.68 2.33 0.64 2.66 2 3 C-0.64 3 -3.28 3 -6 3 C-6 2.01 -6 1.02 -6 0 C-3 -1 -3 -1 0 0 Z " fill="#6C6C6E" transform="translate(53,23)"/>
</svg>
