<?xml version="1.0" encoding="UTF-8"?>
<svg version="1.1" xmlns="http://www.w3.org/2000/svg" width="111" height="98">
<path d="M0 0 C5.41236375 2.36137878 8.67456949 6.37148475 11.6484375 11.3828125 C13.5345521 17.04115629 13.55990819 23.11936189 11.1484375 28.6328125 C8.18455943 33.87005942 3.30678129 37.4966979 -2.3515625 39.3828125 C-4.07951602 39.45084217 -5.80991615 39.46776895 -7.5390625 39.4453125 C-8.44011719 39.43628906 -9.34117188 39.42726562 -10.26953125 39.41796875 C-10.95660156 39.40636719 -11.64367187 39.39476562 -12.3515625 39.3828125 C-12.6815625 37.7328125 -13.0115625 36.0828125 -13.3515625 34.3828125 C-12.62710938 34.35703125 -11.90265625 34.33125 -11.15625 34.3046875 C-5.19325379 33.95485839 -0.91494337 33.60393981 3.6484375 29.3828125 C6.57786915 24.98866503 7.19912062 21.61430215 6.6484375 16.3828125 C5.38792091 12.25111924 4.22019953 9.9266837 1.0859375 6.9453125 C-3.52016092 4.8516314 -7.36980841 4.69855147 -12.3515625 5.3828125 C-16.55072788 7.11725037 -18.83203804 9.63951902 -21.3515625 13.3828125 C-22.04462616 16.95191546 -22.04462616 16.95191546 -22.1015625 20.6953125 C-22.15828125 21.94957031 -22.215 23.20382813 -22.2734375 24.49609375 C-22.29921875 25.44871094 -22.325 26.40132812 -22.3515625 27.3828125 C-24.26953125 27.0390625 -24.26953125 27.0390625 -26.3515625 26.3828125 C-28.93750962 21.45719894 -28.65623332 16.64876646 -27.3515625 11.3828125 C-21.60095677 0.49773737 -11.71799415 -3.07548684 0 0 Z " fill="#505155" transform="translate(81.3515625,24.6171875)"/>
<path d="M0 0 C1.60294922 0.04060547 1.60294922 0.04060547 3.23828125 0.08203125 C4.04652344 0.11683594 4.85476562 0.15164062 5.6875 0.1875 C6.25 2.125 6.25 2.125 6.6875 4.1875 C5.0847044 5.7902956 3.21373175 5.38418444 1 5.5 C-4.852789 6.04347326 -8.26748189 7.86981281 -12.1875 12.3125 C-13.87734251 16.63098642 -13.97210983 20.6142052 -13.3125 25.1875 C-11.12402692 29.64550073 -8.83967302 32.13949316 -4.3125 34.1875 C0.32477805 35.63020873 3.49395384 35.0333635 7.85546875 33.20703125 C11.13699437 31.38085175 13.12749081 28.9154231 14.28125 25.35546875 C14.75284772 22.83876938 14.78367171 20.49654961 14.75 17.9375 C14.74097656 17.04546875 14.73195312 16.1534375 14.72265625 15.234375 C14.71105469 14.55890625 14.69945312 13.8834375 14.6875 13.1875 C16.3375 12.8575 17.9875 12.5275 19.6875 12.1875 C21.96844455 16.7493891 21.5096356 23.57545776 20.00390625 28.359375 C17.31141786 33.40918725 13.30878342 36.65841801 8.4375 39.5 C1.69936279 41.1845343 -4.46614932 40.92338291 -10.55859375 37.46484375 C-15.24764148 34.04988026 -18.85907825 29.21045859 -20.125 23.5625 C-20.77984932 16.95337255 -18.58620003 11.40457368 -14.4375 6.3125 C-10.21063927 1.53129688 -6.38997777 -0.21065861 0 0 Z " fill="#484B4F" transform="translate(49.3125,23.8125)"/>
<path d="M0 0 C1.60294922 0.04060547 1.60294922 0.04060547 3.23828125 0.08203125 C4.04652344 0.11683594 4.85476562 0.15164062 5.6875 0.1875 C6.25 2.125 6.25 2.125 6.6875 4.1875 C5.0847044 5.7902956 3.21373175 5.38418444 1 5.5 C-4.852789 6.04347326 -8.26748189 7.86981281 -12.1875 12.3125 C-14.10406495 17.2103882 -14.429925 22.45924156 -12.41015625 27.390625 C-11.23366298 29.51655075 -11.23366298 29.51655075 -9.3125 32.1875 C-10.3025 32.6825 -10.3025 32.6825 -11.3125 33.1875 C-11.9725 32.5275 -12.6325 31.8675 -13.3125 31.1875 C-13.9725 31.8475 -14.6325 32.5075 -15.3125 33.1875 C-18.73964552 28.76537675 -20.56401734 24.93047916 -20.3125 19.1875 C-18.95204502 11.60034724 -15.1915268 6.02597292 -9.01171875 1.50390625 C-5.77723251 -0.07354941 -3.57726082 -0.11793168 0 0 Z " fill="#3B3C40" transform="translate(49.3125,23.8125)"/>
<path d="M0 0 C-1.32 0.33 -2.64 0.66 -4 1 C-3.67 1.66 -3.34 2.32 -3 3 C-0.87423218 3.46651207 -0.87423218 3.46651207 1.5625 3.625 C2.38878906 3.69976563 3.21507813 3.77453125 4.06640625 3.8515625 C4.70449219 3.90054687 5.34257813 3.94953125 6 4 C6 4.33 6 4.66 6 5 C5.20335938 5.06316406 4.40671875 5.12632813 3.5859375 5.19140625 C-3.68294132 5.95085496 -3.68294132 5.95085496 -9.6875 9.75 C-13.48374585 14.97122964 -12.98279913 21.79908468 -13 28 C-14.91796875 27.65625 -14.91796875 27.65625 -17 27 C-19.58594712 22.07438644 -19.30467082 17.26595396 -18 12 C-14.20194801 4.81083016 -8.36327783 -0.46462655 0 0 Z " fill="#7D7D81" transform="translate(72,24)"/>
<path d="M0 0 C1.72265625 1.46875 1.72265625 1.46875 3 3 C3.1875 5.6875 3.1875 5.6875 3 8 C-0.89193339 7.42341728 -3.04539841 5.5000475 -6 3 C-9.03525486 0.97649676 -10.19426202 0.67875982 -13.6875 0.375 C-14.89986328 0.26285156 -14.89986328 0.26285156 -16.13671875 0.1484375 C-16.75160156 0.09945313 -17.36648437 0.05046875 -18 0 C-18.33 -0.99 -18.66 -1.98 -19 -3 C-11.85935961 -5.28500493 -6.11967372 -3.97778792 0 0 Z " fill="#424448" transform="translate(87,28)"/>
<path d="M0 0 C1.32 0 2.64 0 4 0 C6.23185269 4.46370539 5.81142843 11.43362171 4.328125 16.125 C3.5 17.75 3.5 17.75 2 20 C1.67 18.68 1.34 17.36 1 16 C-0.98 16.99 -0.98 16.99 -3 18 C-2.67 17.05125 -2.34 16.1025 -2 15.125 C-0.81016515 11.06458458 -0.88135818 7.24090796 -1.02734375 3.0390625 C-1 1 -1 1 0 0 Z " fill="#87888B" transform="translate(65,36)"/>
<path d="M0 0 C-1.32 0.33 -2.64 0.66 -4 1 C-3.67 1.66 -3.34 2.32 -3 3 C-0.87423218 3.46651207 -0.87423218 3.46651207 1.5625 3.625 C2.38878906 3.69976563 3.21507813 3.77453125 4.06640625 3.8515625 C4.70449219 3.90054687 5.34257813 3.94953125 6 4 C6 4.33 6 4.66 6 5 C5.19175781 5.09796875 4.38351563 5.1959375 3.55078125 5.296875 C-4.53689391 6.30423143 -4.53689391 6.30423143 -11 11 C-11.33 10.34 -11.66 9.68 -12 9 C-13.32 9.33 -14.64 9.66 -16 10 C-14.224409 5.48031381 -11.02447681 3.26529801 -7 0.75 C-4.57226299 -0.16040138 -2.57166137 -0.14287008 0 0 Z " fill="#6D6E72" transform="translate(72,24)"/>
<path d="M0 0 C0.66 0 1.32 0 2 0 C1.95359375 0.85722656 1.9071875 1.71445312 1.859375 2.59765625 C1.63528982 9.69635478 1.71121045 14.23693905 6 20 C5.34 20.33 4.68 20.66 4 21 C3.34 20.34 2.68 19.68 2 19 C1.34 19.66 0.68 20.32 0 21 C-3.68994181 16.23878476 -4.71249067 13.03769584 -5 7 C-4.5625 4 -4.5625 4 -4 2 C-3.67 2 -3.34 2 -3 2 C-3 5.96 -3 9.92 -3 14 C-2.34 14 -1.68 14 -1 14 C-0.67 9.38 -0.34 4.76 0 0 Z " fill="#727378" transform="translate(34,36)"/>
<path d="M0 0 C3.96 1.98 7.92 3.96 12 6 C12 6.99 12 7.98 12 9 C6.73840541 9.64165788 4.31407151 8.20577001 0.3203125 5.09375 C-0.11539063 4.7328125 -0.55109375 4.371875 -1 4 C-0.67 2.68 -0.34 1.36 0 0 Z " fill="#38393E" transform="translate(36,54)"/>
<path d="M0 0 C0.99 0 1.98 0 3 0 C3 0.99 3 1.98 3 3 C2.34 3 1.68 3 1 3 C1 7.95 1 12.9 1 18 C0.01 17.67 -0.98 17.34 -2 17 C-2.05398987 14.72942623 -2.09278742 12.45848712 -2.125 10.1875 C-2.14820312 8.92292969 -2.17140625 7.65835938 -2.1953125 6.35546875 C-2 3 -2 3 0 0 Z " fill="#27282D" transform="translate(33,33)"/>
<path d="M0 0 C3.3 0 6.6 0 10 0 C9.01 0.495 9.01 0.495 8 1 C8 1.99 8 2.98 8 4 C8.99 4.33 9.98 4.66 11 5 C7.7 5 4.4 5 1 5 C0.67 3.35 0.34 1.7 0 0 Z " fill="#5B5B60" transform="translate(68,59)"/>
<path d="M0 0 C2.35119399 3.52679099 2.21443452 5.02879485 2.125 9.1875 C2.10695312 10.27417969 2.08890625 11.36085938 2.0703125 12.48046875 C2.03550781 13.72763672 2.03550781 13.72763672 2 15 C1.01 15 0.02 15 -1 15 C-1.02693575 12.87506859 -1.04636628 10.75004088 -1.0625 8.625 C-1.07410156 7.44164062 -1.08570313 6.25828125 -1.09765625 5.0390625 C-1 2 -1 2 0 0 Z " fill="#2B2C30" transform="translate(56,36)"/>
<path d="M0 0 C0.99 0 1.98 0 3 0 C3.05410687 1.77049689 3.09284119 3.54146849 3.125 5.3125 C3.14820312 6.29863281 3.17140625 7.28476562 3.1953125 8.30078125 C3 11 3 11 1 14 C0.34 13.34 -0.32 12.68 -1 12 C-0.9765625 9.1796875 -0.9765625 9.1796875 -0.625 5.875 C-0.51414062 4.77929688 -0.40328125 3.68359375 -0.2890625 2.5546875 C-0.14597656 1.29011719 -0.14597656 1.29011719 0 0 Z " fill="#25262A" transform="translate(66,37)"/>
<path d="M0 0 C3.96 0 7.92 0 12 0 C12.33 1.32 12.66 2.64 13 4 C12 5 12 5 9.93359375 5.09765625 C9.10988281 5.08605469 8.28617188 5.07445312 7.4375 5.0625 C6.61121094 5.05347656 5.78492188 5.04445313 4.93359375 5.03515625 C4.29550781 5.02355469 3.65742187 5.01195312 3 5 C3 4.67 3 4.34 3 4 C6.465 3.505 6.465 3.505 10 3 C6.32589215 1.82428549 2.83070817 1.92633254 -1 2 C-0.67 1.34 -0.34 0.68 0 0 Z " fill="#898A8C" transform="translate(43,24)"/>
<path d="M0 0 C3.3 0 6.6 0 10 0 C9.67 0.99 9.34 1.98 9 3 C6.36 3 3.72 3 1 3 C0.67 2.01 0.34 1.02 0 0 Z " fill="#222229" transform="translate(68,25)"/>
<path d="M0 0 C-1 3 -1 3 -4 5 C-5.32 5 -6.64 5 -8 5 C-8 4.01 -8 3.02 -8 2 C-4.77208445 -0.1519437 -3.71599191 -0.20086443 0 0 Z " fill="#2A2B30" transform="translate(84,58)"/>
<path d="M0 0 C0.99 0 1.98 0 3 0 C3 0.99 3 1.98 3 3 C2.34 3 1.68 3 1 3 C0.87625 3.639375 0.7525 4.27875 0.625 4.9375 C0.41875 5.618125 0.2125 6.29875 0 7 C-0.99 7.495 -0.99 7.495 -2 8 C-1.125 1.125 -1.125 1.125 0 0 Z " fill="#393A3E" transform="translate(33,33)"/>
<path d="M0 0 C1.65 0.33 3.3 0.66 5 1 C5.33 2.32 5.66 3.64 6 5 C3.69 5 1.38 5 -1 5 C-0.34 4.01 0.32 3.02 1 2 C0.67 1.34 0.34 0.68 0 0 Z " fill="#515459" transform="translate(46,59)"/>
<path d="M0 0 C0.66 0 1.32 0 2 0 C2.1875 2.375 2.1875 2.375 2 5 C1.01 5.66 0.02 6.32 -1 7 C-1.625 4.625 -1.625 4.625 -2 2 C-1.34 1.34 -0.68 0.68 0 0 Z " fill="#37393C" transform="translate(64,52)"/>
<path d="M0 0 C1.98 0.495 1.98 0.495 4 1 C3.42655063 3.86724686 3.1385485 4.8614515 1 7 C1 5.68 1 4.36 1 3 C0.34 3 -0.32 3 -1 3 C-0.67 2.01 -0.34 1.02 0 0 Z " fill="#4F5053" transform="translate(35,30)"/>
<path d="M0 0 C0.33 0.66 0.66 1.32 1 2 C2.32 2 3.64 2 5 2 C4.34 3.65 3.68 5.3 3 7 C2.34 6.01 1.68 5.02 1 4 C0.01 4.495 0.01 4.495 -1 5 C-0.67 3.35 -0.34 1.7 0 0 Z " fill="#67686C" transform="translate(88,48)"/>
</svg>
