<?xml version="1.0" encoding="UTF-8"?>
<svg version="1.1" xmlns="http://www.w3.org/2000/svg" width="115" height="99">
<path d="M0 0 C2.89696854 0.36982577 5.37621929 0.68810965 8 2 C8.66 1.67 9.32 1.34 10 1 C11.99960012 0.960008 14.00047242 0.95653201 16 1 C16.93196901 3.23124345 17.8336546 5.47072842 18.71484375 7.72265625 C19.38328193 9.42727518 20.05485914 11.13098016 20.76220703 12.81982422 C24.73803392 22.3429797 26.70835432 30.75910477 26.59838867 41.13623047 C26.60614372 47.0073967 27.84907542 50.0556638 31 55 C31 55.99 31 56.98 31 58 C28.45716766 58.10871967 25.91904912 58.18762401 23.375 58.25 C22.66214844 58.28351563 21.94929688 58.31703125 21.21484375 58.3515625 C16.03235548 58.44665403 13.08437613 57.47880617 9 54 C9 53.34 9 52.68 9 52 C8.34 52 7.68 52 7 52 C7 52.66 7 53.32 7 54 C2.17562312 58.10909071 -1.3518738 58.53318496 -7.375 58.25 C-8.47908203 58.22292969 -8.47908203 58.22292969 -9.60546875 58.1953125 C-11.40421736 58.14859176 -13.20228711 58.07686183 -15 58 C-15.33 57.34 -15.66 56.68 -16 56 C-15.24404329 54.85069997 -14.44240889 53.73143745 -13.625 52.625 C-10.72216755 47.67449385 -10.74011482 43.62181483 -10.75 38.0625 C-10.68650277 27.42466518 -7.82259221 7.82259221 0 0 Z M2 5 C-5.13888591 22.98927876 -5.13888591 22.98927876 -6 42 C-3.92581131 40.86549975 -3.92581131 40.86549975 -2 39 C-1.37538252 36.37313783 -1.37538252 36.37313783 -1.375 33.5 C-1.1929078 28.2893617 -1.1929078 28.2893617 1 25 C3.625 24.3125 3.625 24.3125 6 24 C6.02690104 21.20826945 6.04679053 18.41679652 6.0625 15.625 C6.07087891 14.8309375 6.07925781 14.036875 6.08789062 13.21875 C6.23040151 8.97607778 6.23040151 8.97607778 5 5 C4.01 5 3.02 5 2 5 Z M12 5 C9.56164332 6.99103192 9.56164332 6.99103192 9.8046875 10.9140625 C9.81799624 12.48449351 9.84186398 14.05486221 9.875 15.625 C9.88402344 16.42679688 9.89304687 17.22859375 9.90234375 18.0546875 C9.92593777 20.03658523 9.96180935 22.01832981 10 24 C10.969375 24.28875 11.93875 24.5775 12.9375 24.875 C16 26 16 26 17 28 C17.23511148 30.82133774 17.38206228 33.64124555 17.5234375 36.46875 C17.75933594 37.72171875 17.75933594 37.72171875 18 39 C18.99 39.66 19.98 40.32 21 41 C23.22015464 31.8418621 21.06041608 25.27331265 18 16.5625 C17.6184375 15.44939453 17.236875 14.33628906 16.84375 13.18945312 C15.90529661 10.45620762 14.95717316 7.72673432 14 5 C13.34 5 12.68 5 12 5 Z M3 28 C1.24216351 29.75783649 1.83077833 32.4266543 1.75 34.8125 C1.34163988 40.63336208 1.34163988 40.63336208 -1.5625 43.75 C-2.366875 44.1625 -3.17125 44.575 -4 45 C-4.66 44.67 -5.32 44.34 -6 44 C-6.309375 45.093125 -6.61875 46.18625 -6.9375 47.3125 C-7.58337897 49.55407994 -8.2623117 51.7869351 -9 54 C-5.14512203 54.53968292 -1.64703763 54.78858165 1.93359375 53.07421875 C4.62382745 50.68074944 5.82278733 48.51992586 6.24462891 44.90185547 C6.51019382 39.58727861 6.3033619 34.30883333 6 29 C5.01 28.67 4.02 28.34 3 28 Z M11 28 C8.75599871 30.24400129 9.67376592 35.23981247 9.625 38.25 C9.58761719 39.10980469 9.55023438 39.96960938 9.51171875 40.85546875 C9.44868387 45.40098396 9.50157643 47.35599727 12.3671875 51.05859375 C16.49311439 54.10100571 19.99642291 54.14295935 25 54 C24.34938905 52.32700041 23.67966676 50.66140763 23 49 C22.71125 48.278125 22.4225 47.55625 22.125 46.8125 C20.72506277 44.55704558 19.39759214 44.04894656 17 43 C14.31907309 40.31907309 14.61329743 38.60832637 14.375 34.875 C14.30023438 33.77929688 14.22546875 32.68359375 14.1484375 31.5546875 C14.09945312 30.71164063 14.05046875 29.86859375 14 29 C13.01 28.67 12.02 28.34 11 28 Z " fill="#37373C" transform="translate(51,19)"/>
<path d="M0 0 C0.66 0 1.32 0 2 0 C2 6.27 2 12.54 2 19 C4.31 19 6.62 19 9 19 C10 20 10 20 10.09765625 22.94140625 C10.08605469 24.13636719 10.07445312 25.33132812 10.0625 26.5625 C10.05347656 27.76003906 10.04445312 28.95757812 10.03515625 30.19140625 C10.02355469 31.11824219 10.01195312 32.04507813 10 33 C9.01 33.495 9.01 33.495 8 34 C8 30.37 8 26.74 8 23 C6.68 23 5.36 23 4 23 C3.67 30.59 3.34 38.18 3 46 C2.01 46 1.02 46 0 46 C0 46.66 0 47.32 0 48 C-4.82437688 52.10909071 -8.3518738 52.53318496 -14.375 52.25 C-15.47908203 52.22292969 -15.47908203 52.22292969 -16.60546875 52.1953125 C-18.40421736 52.14859176 -20.20228711 52.07686183 -22 52 C-22.33 51.34 -22.66 50.68 -23 50 C-22.00390625 47.8359375 -22.00390625 47.8359375 -20.5625 45.375 C-20.08941406 44.55773437 -19.61632813 43.74046875 -19.12890625 42.8984375 C-18.75636719 42.27195313 -18.38382813 41.64546875 -18 41 C-17.34 41 -16.68 41 -16 41 C-16 35.39 -16 29.78 -16 24 C-15.34 23.67 -14.68 23.34 -14 23 C-13.34 26.96 -12.68 30.92 -12 35 C-9.42337719 32.42337719 -9.65884312 31.07916539 -9.4375 27.5 C-9.09516616 22.19033233 -9.09516616 22.19033233 -8 20 C-4.04 19.505 -4.04 19.505 0 19 C0 12.73 0 6.46 0 0 Z M-4 22 C-5.75783649 23.75783649 -5.16922167 26.4266543 -5.25 28.8125 C-5.65836012 34.63336208 -5.65836012 34.63336208 -8.5625 37.75 C-9.366875 38.1625 -10.17125 38.575 -11 39 C-11.66 38.67 -12.32 38.34 -13 38 C-13.309375 39.093125 -13.61875 40.18625 -13.9375 41.3125 C-14.58337897 43.55407994 -15.2623117 45.7869351 -16 48 C-12.14512203 48.53968292 -8.64703763 48.78858165 -5.06640625 47.07421875 C-2.37617255 44.68074944 -1.17721267 42.51992586 -0.75537109 38.90185547 C-0.48980618 33.58727861 -0.6966381 28.30883333 -1 23 C-1.99 22.67 -2.98 22.34 -4 22 Z " fill="#5E5E63" transform="translate(58,25)"/>
<path d="M0 0 C3.69660015 0.41073335 6.84835473 0.97394233 10 3 C10.99 4.485 10.99 4.485 12 6 C11.67 6.33 11.34 6.66 11 7 C10.76298761 9.85877909 10.57780818 12.69883297 10.4375 15.5625 C10.39431641 16.36880859 10.35113281 17.17511719 10.30664062 18.00585938 C10.20024738 20.00368805 10.09959112 22.0018207 10 24 C11.32 24.33 12.64 24.66 14 25 C12.35 25 10.7 25 9 25 C9 18.73 9 12.46 9 6 C8.34 6 7.68 6 7 6 C7 12.27 7 18.54 7 25 C4.69 25.33 2.38 25.66 0 26 C0.33 25.34 0.66 24.68 1 24 C2.65 24 4.3 24 6 24 C5.67 17.73 5.34 11.46 5 5 C4.01 5 3.02 5 2 5 C1.73445313 6.28777344 1.46890625 7.57554688 1.1953125 8.90234375 C0.08191364 13.91263861 -1.45671826 18.71330785 -3.125 23.5625 C-3.40214844 24.38041016 -3.67929687 25.19832031 -3.96484375 26.04101562 C-4.63905137 28.02876568 -5.31892204 30.01459349 -6 32 C-6.66 31.34 -7.32 30.68 -8 30 C-8.33 35.61 -8.66 41.22 -9 47 C-9.33 47 -9.66 47 -10 47 C-11.52723029 30.29474033 -7.60524352 16.34359115 -1 1 C-0.67 0.67 -0.34 0.34 0 0 Z " fill="#686A6D" transform="translate(51,19)"/>
<path d="M0 0 C0.66 0 1.32 0 2 0 C2 6.27 2 12.54 2 19 C4.31 19 6.62 19 9 19 C10 20 10 20 10.09765625 22.94140625 C10.08605469 24.13636719 10.07445313 25.33132812 10.0625 26.5625 C10.05347656 27.76003906 10.04445313 28.95757812 10.03515625 30.19140625 C10.02355469 31.11824219 10.01195313 32.04507813 10 33 C9.01 33.495 9.01 33.495 8 34 C8 30.37 8 26.74 8 23 C6.68 23 5.36 23 4 23 C3.67 30.59 3.34 38.18 3 46 C2.01 45.67 1.02 45.34 0 45 C0 37.74 0 30.48 0 23 C-1.32 23 -2.64 23 -4 23 C-4.66 26.3 -5.32 29.6 -6 33 C-6.66 33 -7.32 33 -8 33 C-8 28.71 -8 24.42 -8 20 C-4.04 19.505 -4.04 19.505 0 19 C0 12.73 0 6.46 0 0 Z " fill="#404145" transform="translate(58,25)"/>
<path d="M0 0 C0.33 0 0.66 0 1 0 C1.01401855 0.85380249 1.01401855 0.85380249 1.02832031 1.72485352 C1.08246169 4.33823653 1.16601745 6.94991242 1.25 9.5625 C1.26417969 10.45775391 1.27835938 11.35300781 1.29296875 12.27539062 C1.51715156 18.39558145 2.69763674 21.8681275 6 27 C6 27.99 6 28.98 6 30 C3.45716766 30.10871967 0.91904912 30.18762401 -1.625 30.25 C-2.33785156 30.28351563 -3.05070312 30.31703125 -3.78515625 30.3515625 C-9.14221553 30.44985717 -11.81598483 29.35249165 -16 26 C-15.67 24.02 -15.34 22.04 -15 20 C-14.154375 20.825 -13.30875 21.65 -12.4375 22.5 C-9.01432489 25.39465639 -6.45962656 25.3430482 -2 25 C-1.34 25.33 -0.68 25.66 0 26 C-0.66 24.35 -1.32 22.7 -2 21 C-1.34 21 -0.68 21 0 21 C0 14.07 0 7.14 0 0 Z " fill="#5B5B60" transform="translate(76,47)"/>
<path d="M0 0 C0.33 0 0.66 0 1 0 C1 3.63 1 7.26 1 11 C1.66 11 2.32 11 3 11 C3 8.36 3 5.72 3 3 C3.33 3 3.66 3 4 3 C4.92017937 11.77578475 4.92017937 11.77578475 2.6640625 14.77734375 C1 16.125 1 16.125 -2 18 C-2.33 17.67 -2.66 17.34 -3 17 C-3.1546875 17.9590625 -3.1546875 17.9590625 -3.3125 18.9375 C-3.539375 19.618125 -3.76625 20.29875 -4 21 C-4.99 21.33 -5.98 21.66 -7 22 C-7.94148531 19.17554408 -8.07311695 17.85828382 -7.87890625 14.98828125 C-7.83056641 14.23095703 -7.78222656 13.47363281 -7.73242188 12.69335938 C-7.67634766 11.90767578 -7.62027344 11.12199219 -7.5625 10.3125 C-7.51029297 9.51521484 -7.45808594 8.71792969 -7.40429688 7.89648438 C-7.27480978 5.93063478 -7.13809959 3.96526335 -7 2 C-6.34 1.67 -5.68 1.34 -5 1 C-4.34 4.96 -3.68 8.92 -3 13 C-0.41073669 10.41073669 -0.62601957 8.97294721 -0.375 5.375 C-0.26285156 3.87066406 -0.26285156 3.87066406 -0.1484375 2.3359375 C-0.09945312 1.56507812 -0.05046875 0.79421875 0 0 Z " fill="#636467" transform="translate(49,47)"/>
<path d="M0 0 C0.66 0 1.32 0 2 0 C0.22089072 6.75052102 -1.70438191 13.40620337 -4 20 C-4.66 19.34 -5.32 18.68 -6 18 C-6.33 23.61 -6.66 29.22 -7 35 C-7.33 35 -7.66 35 -8 35 C-8.5643726 22.53363637 -8.30810592 12.45034276 -3 1 C-2.67 1.66 -2.34 2.32 -2 3 C-1.34 3 -0.68 3 0 3 C0 2.01 0 1.02 0 0 Z " fill="#69686C" transform="translate(49,31)"/>
<path d="M0 0 C0.66 0 1.32 0 2 0 C2 6.27 2 12.54 2 19 C4.31 19 6.62 19 9 19 C10 20 10 20 10.09765625 22.94140625 C10.08605469 24.13636719 10.07445313 25.33132812 10.0625 26.5625 C10.05347656 27.76003906 10.04445313 28.95757812 10.03515625 30.19140625 C10.02355469 31.11824219 10.01195313 32.04507813 10 33 C9.01 33.495 9.01 33.495 8 34 C8 30.37 8 26.74 8 23 C6.02 22.67 4.04 22.34 2 22 C2 21.34 2 20.68 2 20 C1.34 20 0.68 20 0 20 C0 13.4 0 6.8 0 0 Z " fill="#2A2B2F" transform="translate(58,25)"/>
<path d="M0 0 C1.32 0.66 2.64 1.32 4 2 C3.34 3.65 2.68 5.3 2 7 C3.98 7 5.96 7 8 7 C8 7.66 8 8.32 8 9 C9.32 9.66 10.64 10.32 12 11 C6.72 11 1.44 11 -4 11 C-4.33 10.34 -4.66 9.68 -5 9 C-4.00390625 6.8359375 -4.00390625 6.8359375 -2.5625 4.375 C-2.08941406 3.55773437 -1.61632813 2.74046875 -1.12890625 1.8984375 C-0.75636719 1.27195312 -0.38382813 0.64546875 0 0 Z " fill="#6A696F" transform="translate(40,66)"/>
<path d="M0 0 C1.98 0 3.96 0 6 0 C6.67305018 1.60149886 7.33822227 3.20631029 8 4.8125 C8.37125 5.70582031 8.7425 6.59914063 9.125 7.51953125 C10 10 10 10 10 13 C8.68 13 7.36 13 6 13 C5.34 10.03 4.68 7.06 4 4 C2.35 3.67 0.7 3.34 -1 3 C-0.67 2.01 -0.34 1.02 0 0 Z " fill="#3D3D41" transform="translate(61,20)"/>
<path d="M0 0 C2.97 0.495 2.97 0.495 6 1 C5.01 1.495 5.01 1.495 4 2 C4 2.99 4 3.98 4 5 C3.34 5 2.68 5 2 5 C1.67 6.98 1.34 8.96 1 11 C0.01 11.33 -0.98 11.66 -2 12 C-2 12.99 -2 13.98 -2 15 C-2.66 15 -3.32 15 -4 15 C-3.50341703 9.33895411 -2.45489316 5.12325529 0 0 Z " fill="#535458" transform="translate(51,19)"/>
<path d="M0 0 C0.33 0 0.66 0 1 0 C1.06058594 0.78246094 1.12117188 1.56492188 1.18359375 2.37109375 C1.26738281 3.38300781 1.35117188 4.39492188 1.4375 5.4375 C1.51871094 6.44683594 1.59992188 7.45617188 1.68359375 8.49609375 C1.73211468 10.93640779 1.73211468 10.93640779 3 12 C3.66 10.68 4.32 9.36 5 8 C5 11.3 5 14.6 5 18 C0.76555535 16.94138884 -0.42778393 16.39168314 -3 13 C-3.390625 9.984375 -3.390625 9.984375 -3.25 6.75 C-3.21390625 5.67234375 -3.1778125 4.5946875 -3.140625 3.484375 C-3.09421875 2.66453125 -3.0478125 1.8446875 -3 1 C-2.67 1 -2.34 1 -2 1 C-1.67 4.3 -1.34 7.6 -1 11 C-0.67 7.37 -0.34 3.74 0 0 Z " fill="#77787C" transform="translate(68,47)"/>
<path d="M0 0 C0.66 0 1.32 0 2 0 C2.33 7.59 2.66 15.18 3 23 C2.01 22.67 1.02 22.34 0 22 C0 14.74 0 7.48 0 0 Z " fill="#232429" transform="translate(58,48)"/>
<path d="M0 0 C2.08229108 3.12343663 2.23770457 3.53852922 1.9765625 7.01171875 C1.925 7.76904297 1.8734375 8.52636719 1.8203125 9.30664062 C1.75585938 10.09232422 1.69140625 10.87800781 1.625 11.6875 C1.56828125 12.48478516 1.5115625 13.28207031 1.453125 14.10351562 C1.31183972 16.06973581 1.15720094 18.03498824 1 20 C0.01 20 -0.98 20 -2 20 C-1.86177801 16.85378318 -1.71314916 13.70814434 -1.5625 10.5625 C-1.52318359 9.66466797 -1.48386719 8.76683594 -1.44335938 7.84179688 C-1.40146484 6.98779297 -1.35957031 6.13378906 -1.31640625 5.25390625 C-1.27974854 4.46314697 -1.24309082 3.6723877 -1.20532227 2.85766602 C-1 1 -1 1 0 0 Z " fill="#27282C" transform="translate(43,48)"/>
<path d="M0 0 C0.25 6.625 0.25 6.625 -2 10 C-2.33 9.34 -2.66 8.68 -3 8 C-3.33 13.61 -3.66 19.22 -4 25 C-4.33 25 -4.66 25 -5 25 C-5.11667875 21.77113991 -5.18740546 18.54282555 -5.25 15.3125 C-5.28351562 14.40048828 -5.31703125 13.48847656 -5.3515625 12.54882812 C-5.41599335 8.11920688 -5.43325881 5.69754668 -3.046875 1.85546875 C-1 0 -1 0 0 0 Z " fill="#6F6F73" transform="translate(46,41)"/>
<path d="M0 0 C0.33 0 0.66 0 1 0 C1.01981934 0.57967529 1.03963867 1.15935059 1.06005859 1.7565918 C1.15572601 4.40065937 1.26523453 7.0439817 1.375 9.6875 C1.42140625 11.05551758 1.42140625 11.05551758 1.46875 12.45117188 C1.66776954 17.01203631 1.85690122 20.86190275 4 25 C2.68 25.33 1.36 25.66 0 26 C-0.66 24.35 -1.32 22.7 -2 21 C-1.34 21 -0.68 21 0 21 C0 14.07 0 7.14 0 0 Z " fill="#828387" transform="translate(76,47)"/>
<path d="M0 0 C1.98 0 3.96 0 6 0 C6.5625 1.9375 6.5625 1.9375 7 4 C6 5 6 5 2.9375 5.0625 C1.4834375 5.0315625 1.4834375 5.0315625 0 5 C0 3.35 0 1.7 0 0 Z " fill="#79797B" transform="translate(34,33)"/>
<path d="M0 0 C1.32 0 2.64 0 4 0 C4.66 2.31 5.32 4.62 6 7 C5.01 7 4.02 7 3 7 C2.67 7.66 2.34 8.32 2 9 C1.34 6.03 0.68 3.06 0 0 Z " fill="#57565C" transform="translate(68,33)"/>
<path d="M0 0 C1.2065625 0.0309375 1.2065625 0.0309375 2.4375 0.0625 C2.7675 1.7125 3.0975 3.3625 3.4375 5.0625 C1.4575 5.0625 -0.5225 5.0625 -2.5625 5.0625 C-3.125 3.125 -3.125 3.125 -3.5625 1.0625 C-2.5625 0.0625 -2.5625 0.0625 0 0 Z " fill="#6F6F73" transform="translate(80.5625,32.9375)"/>
<path d="M0 0 C1.32 0 2.64 0 4 0 C4 2.31 4 4.62 4 7 C2.68 7 1.36 7 0 7 C0 4.69 0 2.38 0 0 Z " fill="#676769" transform="translate(57,10)"/>
<path d="M0 0 C-0.99 0 -1.98 0 -3 0 C-3 0.99 -3 1.98 -3 3 C-7.95 3 -12.9 3 -18 3 C-18 2.67 -18 2.34 -18 2 C-14.37 2 -10.74 2 -7 2 C-7 1.34 -7 0.68 -7 0 C-3.86650268 -1.04449911 -3.01031744 -0.93423645 0 0 Z " fill="#36363A" transform="translate(55,73)"/>
<path d="M0 0 C1.32 0.66 2.64 1.32 4 2 C2.35 3.65 0.7 5.3 -1 7 C-1.66 5.68 -2.32 4.36 -3 3 C-2.01 2.01 -1.02 1.02 0 0 Z " fill="#666667" transform="translate(74,17)"/>
<path d="M0 0 C1.98 0 3.96 0 6 0 C5.67 1.32 5.34 2.64 5 4 C3.35 4 1.7 4 0 4 C-0.33 3.34 -0.66 2.68 -1 2 C-0.67 1.34 -0.34 0.68 0 0 Z " fill="#383A3D" transform="translate(61,20)"/>
<path d="M0 0 C1.65 1.65 3.3 3.3 5 5 C4.01 5.66 3.02 6.32 2 7 C0.68 5.35 -0.64 3.7 -2 2 C-1.34 1.34 -0.68 0.68 0 0 Z " fill="#575759" transform="translate(42,17)"/>
<path d="M0 0 C2 3 2 3 2 5 C1.34 5 0.68 5 0 5 C-0.33 6.32 -0.66 7.64 -1 9 C-1.625 6.1875 -1.625 6.1875 -2 3 C-1.34 2.01 -0.68 1.02 0 0 Z " fill="#525357" transform="translate(67,21)"/>
</svg>
