<?xml version="1.0" encoding="UTF-8"?>
<svg version="1.1" xmlns="http://www.w3.org/2000/svg" width="102" height="87">
<path d="M0 0 C2.44498019 3.14354596 2.05787051 6.1542417 2 10 C-8.546966 15.34234388 -19.15360835 20.53400342 -29.88598633 25.49438477 C-31.44269616 26.21684212 -32.99667707 26.94520418 -34.5480957 27.67895508 C-36.83217723 28.75876736 -39.12382266 29.82067791 -41.41796875 30.87890625 C-42.10755173 31.20895157 -42.7971347 31.53899689 -43.50761414 31.87904358 C-46.44383001 33.21241912 -48.60916425 34.02247949 -51.85668945 33.83569336 C-54 33 -54 33 -55.875 30.75 C-57.22949072 27.43902269 -57.29868149 26.31955505 -56 23 C-53.66482385 21.47077472 -51.59529323 20.35159716 -49.07421875 19.22265625 C-48.00574959 18.71787498 -48.00574959 18.71787498 -46.91569519 18.20289612 C-45.39470476 17.48658589 -43.8699017 16.77832545 -42.34173584 16.07745361 C-40.04473967 15.02058512 -37.76256132 13.9369772 -35.48291016 12.84326172 C-31.70624192 11.03541949 -27.91473752 9.26226597 -24.11401367 7.50561523 C-22.55730384 6.78315788 -21.00332293 6.05479582 -19.4519043 5.32104492 C-17.16782277 4.24123264 -14.87617734 3.17932209 -12.58203125 2.12109375 C-11.89244827 1.79104843 -11.2028653 1.46100311 -10.49238586 1.12095642 C-6.63321573 -0.63154519 -4.05479117 -1.53974062 0 0 Z M-5 2 C-4.34 3.98 -3.68 5.96 -3 8 C-2.34 8 -1.68 8 -1 8 C-1.33 6.35 -1.66 4.7 -2 3 C-2.99 2.67 -3.98 2.34 -5 2 Z M-14.78515625 6.625 C-15.95498047 7.16640625 -17.12480469 7.7078125 -18.33007812 8.265625 C-19.57423762 8.84370938 -20.818378 9.42183492 -22.0625 10 C-23.31046656 10.57829836 -24.55851241 11.15642562 -25.80664062 11.734375 C-28.87188051 13.15456336 -31.93628988 14.57651529 -35 16 C-34.01 17.98 -33.02 19.96 -32 22 C-25.73235792 20.17668594 -19.90579796 17.68823019 -14 14.9375 C-12.85059937 14.40866211 -12.85059937 14.40866211 -11.67797852 13.86914062 C-7.64878491 12.21857534 -7.64878491 12.21857534 -5 9 C-6.31865712 6.35774595 -6.31865712 6.35774595 -8 4 C-10.25986056 4 -12.81201695 5.7099209 -14.78515625 6.625 Z M-48.125 22 C-49.22070312 22.556875 -50.31640625 23.11375 -51.4453125 23.6875 C-52.28835937 24.120625 -53.13140625 24.55375 -54 25 C-53.67 26.65 -53.34 28.3 -53 30 C-49.98680243 31.36915789 -49.98680243 31.36915789 -47.08203125 29.78515625 C-46.00308594 29.21667969 -44.92414062 28.64820313 -43.8125 28.0625 C-42.72582031 27.49660156 -41.63914062 26.93070313 -40.51953125 26.34765625 C-39.68808594 25.90292969 -38.85664062 25.45820312 -38 25 C-38.66 23.02 -39.32 21.04 -40 19 C-43.12114363 19 -45.3698871 20.59313384 -48.125 22 Z " fill="#09090E" transform="translate(81,31)"/>
<path d="M0 0 C0.99 0 1.98 0 3 0 C3.36332974 2.58234359 3.71594867 5.16539782 4.0625 7.75 C4.16626953 8.47960938 4.27003906 9.20921875 4.37695312 9.9609375 C4.85806208 13.6107296 5.04532842 16.47672914 4 20 C3.01 20 2.02 20 1 20 C1.020625 18.7625 1.04125 17.525 1.0625 16.25 C1.06639789 14.02040496 1.04145011 12.16580045 0.5 10 C-0.32587892 6.6964843 -0.05656988 3.39419252 0 0 Z " fill="#0A0A0E" transform="translate(74,9)"/>
<path d="M0 0 C0.66 0 1.32 0 2 0 C2 4.29 2 8.58 2 13 C1.01 13 0.02 13 -1 13 C-1.02686553 11.02090602 -1.04633375 9.04171029 -1.0625 7.0625 C-1.07410156 5.96035156 -1.08570312 4.85820312 -1.09765625 3.72265625 C-1 1 -1 1 0 0 Z " fill="#0A0A0F" transform="translate(71,17)"/>
<path d="M0 0 C0.66 0 1.32 0 2 0 C2.33 1.32 2.66 2.64 3 4 C2.34 4 1.68 4 1 4 C1.33 6.31 1.66 8.62 2 11 C1.01 11.66 0.02 12.32 -1 13 C-1.02686553 11.02090602 -1.04633375 9.04171029 -1.0625 7.0625 C-1.07410156 5.96035156 -1.08570313 4.85820313 -1.09765625 3.72265625 C-1 1 -1 1 0 0 Z " fill="#12141B" transform="translate(43,46)"/>
<path d="M0 0 C3 1 3 1 4 3 C4.039992 4.99960012 4.04346799 7.00047242 4 9 C3.01 8.67 2.02 8.34 1 8 C0.67 5.36 0.34 2.72 0 0 Z " fill="#111016" transform="translate(79,32)"/>
</svg>
