<?xml version="1.0" encoding="UTF-8"?>
<svg version="1.1" xmlns="http://www.w3.org/2000/svg" width="178" height="142">
<path d="M0 0 C5.85375067 0.22257607 10.91396187 0.74208362 16.3125 3.125 C21.19399593 5.23570972 23.92087433 5.13376257 28.94140625 3.28515625 C42.42404562 -1.56280531 55.97936412 -0.56153701 69.0390625 5.265625 C79.36958023 11.3167462 86.25420113 20.88571504 89.3125 32.375 C91.6536249 44.97248159 89.66207338 56.13829049 83 67 C79.60349022 71.45110061 75.84799783 75.29327902 71.58984375 78.9140625 C67.72570466 82.26148793 64.11810462 85.81873419 60.5234375 89.44921875 C59.945298 90.03287704 59.36715851 90.61653534 58.77149963 91.21788025 C56.35995554 93.65705362 53.95211788 96.09981191 51.54882812 98.54711914 C49.77399173 100.35228441 47.99287771 102.15106938 46.2109375 103.94921875 C45.67640961 104.49720627 45.14188171 105.04519379 44.59115601 105.60978699 C38.19862498 112.04431567 31.95981599 115.95822688 22.75 116.4375 C15.30636519 116.29552331 9.83220983 113.27808182 4.125 108.6875 C0.45815413 104.05001846 -2 99.98199922 -2 94 C-0.515 93.505 -0.515 93.505 1 93 C1.52787109 94.10408203 1.52787109 94.10408203 2.06640625 95.23046875 C5.78961884 102.5894033 8.89754294 107.29918098 17 110 C18.88981495 110.19598081 20.78860221 110.31178445 22.6875 110.375 C23.68136719 110.42398438 24.67523438 110.47296875 25.69921875 110.5234375 C33.68244368 109.25745864 39.132467 103.25243459 44.5 97.625 C48.81572012 93.15482253 53.19465777 88.90501273 57.90234375 84.84863281 C61.82185215 81.39442918 65.53362757 77.73241777 69.25 74.0625 C70.03890625 73.30259766 70.8278125 72.54269531 71.640625 71.75976562 C79.78380558 63.70599497 83.96326898 55.37453903 84.375 43.75 C84.1705713 33.26401012 80.54716892 24.36681378 73 17 C63.25042423 9.58862191 54.22951374 6.88290891 42 7 C36.28086906 7.87413257 31.15763695 9.4105691 26 12 C23.19767383 13.13372117 22.14809227 13.0451702 19.1953125 12.14453125 C17.13243177 11.24956646 15.08519364 10.31773209 13.0546875 9.3515625 C8.81467029 7.47554466 4.56448415 6.67659389 0 6 C0 4.02 0 2.04 0 0 Z " fill="#F9CCAB" transform="translate(71,10)"/>
<path d="M0 0 C2.375 1.0625 2.375 1.0625 4 3 C4.75079001 6.4809355 4.77291901 8.76070951 2.84765625 11.84765625 C-1.09836273 16.54621675 -5.73471588 20.60332882 -10.29150391 24.69750977 C-15.00189371 28.93686059 -19.4207056 33.4214558 -23.8203125 37.98046875 C-26 40 -26 40 -28 40 C-28 40.66 -28 41.32 -28 42 C-30.375 44.625 -30.375 44.625 -33 47 C-33.66 47 -34.32 47 -35 47 C-36.96671789 51.7432608 -37.29464681 55.00636229 -36 60 C-34.29008567 62.70736436 -33.00196749 63.72843872 -29.91015625 64.56640625 C-24.79558387 65.37486611 -22.29809563 65.12062332 -18 62 C-15.80701957 60.00031631 -13.74482848 57.88805599 -11.6875 55.75 C-7.66111986 51.59152719 -3.53113495 47.67566908 0.84692383 43.88867188 C16.96785029 30.4509715 16.96785029 30.4509715 26.18359375 12.2734375 C26.45300781 11.52320313 26.72242188 10.77296875 27 10 C29.09765625 9.1640625 29.09765625 9.1640625 31 9 C31.99614357 16.30505286 28.85623001 21.92663569 25 28 C21.77412016 31.84372791 18.18711044 35.15812042 14.3527832 38.38720703 C10.10253214 42.00923658 6.11763566 45.83640229 2.21484375 49.828125 C1.70550293 50.34767258 1.19616211 50.86722015 0.67138672 51.4025116 C-1.44451772 53.56377041 -3.55816066 55.72690137 -5.6574707 57.90429688 C-7.2116292 59.513218 -8.77844519 61.10889928 -10.34765625 62.703125 C-11.72449585 64.12093262 -11.72449585 64.12093262 -13.12915039 65.56738281 C-16.91805454 68.7779144 -20.5995424 70.739236 -25.625 71.28515625 C-32.00119159 70.68738829 -35.84857394 68.95024274 -40 64 C-42.5409344 59.91240988 -42.9089277 54.69099127 -42 50 C-38.88499147 44.67732851 -34.86199186 40.58617444 -30.49609375 36.265625 C-29.41655174 35.18677032 -29.41655174 35.18677032 -28.31520081 34.08612061 C-26.80047552 32.57440413 -25.28333286 31.06510641 -23.76391602 29.55810547 C-21.43640997 27.24891854 -19.1170682 24.93176667 -16.79882812 22.61328125 C-15.32338874 21.14275536 -13.84749299 19.67268719 -12.37109375 18.203125 C-11.67729111 17.51043518 -10.98348846 16.81774536 -10.2686615 16.10406494 C-9.62111404 15.46289734 -8.97356659 14.82172974 -8.30639648 14.16113281 C-7.45512428 13.31557831 -7.45512428 13.31557831 -6.58665466 12.45294189 C-5 11 -5 11 -2 9 C-1.67 8.01 -1.34 7.02 -1 6 C-5.75617461 7.33767411 -8.64301631 10.21221399 -12.1328125 13.5390625 C-14 15 -14 15 -17 15 C-17.3398504 11.80763476 -17.33091666 10.43624405 -15.35546875 7.83203125 C-14.64003906 7.16558594 -13.92460938 6.49914063 -13.1875 5.8125 C-12.12595703 4.80123047 -12.12595703 4.80123047 -11.04296875 3.76953125 C-7.20615364 0.4462478 -5.05989159 -0.51631547 0 0 Z " fill="#75A7BB" transform="translate(120,46)"/>
<path d="M0 0 C3.00028055 1.85762051 5.43572612 4.27797349 7.87890625 6.80859375 C9.79162294 8.39210295 9.79162294 8.39210295 12.3671875 8.01953125 C14.96150928 7.09181492 16.21637385 6.1889882 18.1484375 4.26171875 C23.88308568 -0.87968996 29.66634775 -2.41871606 37.31640625 -2.1484375 C44.05007742 -1.38633208 50.38485877 0.79799715 54.8359375 6.13671875 C59.94432749 13.36684745 61.09667036 20.43011919 59.8359375 29.13671875 C56.75027587 40.97995181 44.65711376 49.89548069 35.69140625 57.50390625 C32.23951354 60.54157184 29.04725793 63.8485316 25.8359375 67.13671875 C24.8459375 66.80671875 23.8559375 66.47671875 22.8359375 66.13671875 C23.32250826 61.7875247 24.41306966 60.18921099 27.7734375 57.44921875 C33.19122746 52.79638604 38.27537871 47.86266805 43.3359375 42.82421875 C44.13765381 42.0350708 44.93937012 41.24592285 45.76538086 40.43286133 C46.52085205 39.67900146 47.27632324 38.9251416 48.0546875 38.1484375 C49.0746582 37.13463013 49.0746582 37.13463013 50.11523438 36.1003418 C54.27130113 31.35754314 54.2083657 27.16294858 54.08203125 21.046875 C53.63099153 15.71315127 51.80508453 13.10586578 48.0859375 9.38671875 C42.37818343 5.4351967 37.24001253 4.60803503 30.46875 5.45703125 C24.35483125 7.03540197 19.20744768 10.67547082 14.8359375 15.13671875 C12.9609375 16.01171875 12.9609375 16.01171875 10.8359375 16.13671875 C6.87406862 14.31640062 3.84778012 11.47552571 0.6796875 8.5390625 C-3.40126585 5.43511705 -7.12253374 4.87848301 -12.1640625 4.94921875 C-13.1746875 4.95566406 -14.1853125 4.96210937 -15.2265625 4.96875 C-18.16123092 5.06593437 -18.16123092 5.06593437 -20.9765625 5.7109375 C-21.6984375 5.85144531 -22.4203125 5.99195313 -23.1640625 6.13671875 C-24.1640625 5.13671875 -24.1640625 5.13671875 -24.2265625 2.57421875 C-24.2059375 1.76984375 -24.1853125 0.96546875 -24.1640625 0.13671875 C-16.85349135 -3.26764741 -7.42864516 -3.21281067 0 0 Z " fill="#EC938F" transform="translate(82.1640625,29.86328125)"/>
<path d="M0 0 C4.45656323 2.5749032 7.11806157 5.04385634 8.671875 10.09375 C9.42412454 16.06876063 8.65491405 19.7974326 5.671875 25.09375 C3.95774523 27.06069616 2.270205 28.87095645 0.41015625 30.68359375 C-0.0993306 31.19120743 -0.60881744 31.69882111 -1.13374329 32.22181702 C-2.20862255 33.2900072 -3.28707715 34.3546105 -4.36889648 35.41577148 C-6.00040363 37.01631749 -7.62118534 38.62709697 -9.24023438 40.24023438 C-14.26256905 45.22459773 -19.33192781 50.12329387 -24.71801758 54.71801758 C-27.08487261 56.74034178 -29.25721186 58.76397271 -31.328125 61.09375 C-31.328125 62.08375 -31.328125 63.07375 -31.328125 64.09375 C-29.05519559 63.07485061 -27.49787939 62.28472369 -25.828125 60.40625 C-25.333125 59.973125 -24.838125 59.54 -24.328125 59.09375 C-22.140625 59.40625 -22.140625 59.40625 -20.328125 60.09375 C-20.80341507 64.37136063 -23.0949556 66.43536627 -26.328125 69.09375 C-29.328125 70.15625 -29.328125 70.15625 -32.328125 70.09375 C-35.203125 68.53125 -35.203125 68.53125 -37.328125 66.09375 C-38.078125 63.34375 -38.078125 63.34375 -37.328125 60.09375 C-34.43533878 55.81556315 -30.75727009 52.44818691 -26.85546875 49.109375 C-21.50123533 44.46212881 -16.52640392 39.4420316 -11.52563477 34.42163086 C-9.87305318 32.76362045 -8.21510301 31.11111024 -6.55664062 29.45898438 C-5.50228281 28.40396689 -4.44823462 27.34863986 -3.39453125 26.29296875 C-2.89981827 25.80028 -2.40510529 25.30759125 -1.895401 24.79997253 C1.20019273 21.68291424 2.56467155 20.23010659 2.984375 15.78125 C2.90247199 12.11160927 2.90247199 12.11160927 1.234375 9.21875 C-1.84356199 6.66631445 -3.93549505 6.25472305 -7.81640625 5.74609375 C-15.52918817 6.81364832 -20.65637817 13.0854592 -25.765625 18.40625 C-29.94585115 22.71509849 -34.12894243 27.01127184 -38.55078125 31.07421875 C-39.15801025 31.63391357 -39.76523926 32.1936084 -40.39086914 32.77026367 C-42.68183563 34.33539654 -44.60145076 34.71884332 -47.328125 35.09375 C-46.91512798 30.25241575 -44.61284066 27.81980481 -41.26953125 24.57421875 C-40.76518051 24.07078445 -40.26082977 23.56735016 -39.74119568 23.04866028 C-38.67748081 21.99096874 -37.60892776 20.93812338 -36.53588867 19.88989258 C-34.88914842 18.27980629 -33.25911991 16.65414197 -31.63085938 15.02539062 C-30.59469141 13.99904871 -29.55761295 12.97362501 -28.51953125 11.94921875 C-28.02989395 11.4618071 -27.54025665 10.97439545 -27.03578186 10.47221375 C-23.56030161 7.09375 -23.56030161 7.09375 -21.328125 7.09375 C-21.080625 6.495625 -20.833125 5.8975 -20.578125 5.28125 C-16.53436336 -1.79533287 -7.10112853 -2.76419768 0 0 Z " fill="#E7878F" transform="translate(124.328125,37.90625)"/>
<path d="M0 0 C0 1.32 0 2.64 0 4 C-0.99 4.29132812 -1.98 4.58265625 -3 4.8828125 C-10.584483 7.2006136 -17.18412551 9.37087377 -23 15 C-23.62390625 15.58523437 -24.2478125 16.17046875 -24.890625 16.7734375 C-32.41061129 24.51459986 -34.67789966 33.40093547 -34.53442383 44.0144043 C-33.93363639 56.26435826 -27.8456237 64.97421459 -19 73 C-15.484947 75.09489447 -13.11150798 75.63253969 -9 75 C-3.73703652 71.9879985 0.39562111 67.75403509 4.359375 63.22265625 C6 62 6 62 8.203125 62.30859375 C8.79609375 62.53675781 9.3890625 62.76492187 10 63 C9.54111769 67.31349376 6.76452702 69.68048153 3.8125 72.5625 C3.34263672 73.04396484 2.87277344 73.52542969 2.38867188 74.02148438 C-1.77080383 78.14691253 -5.62790675 80.74584715 -11.5 81.375 C-19.80690195 80.48497479 -25.40101335 74.69628296 -30.68994141 68.67675781 C-39.25036843 57.72017697 -41.16046873 45.50507346 -40 32 C-37.67439872 20.95671622 -31.14372114 11.51266816 -22 5 C-6.58379063 -4.38919375 -6.58379063 -4.38919375 0 0 Z " fill="#B05292" transform="translate(66,12)"/>
<path d="M0 0 C2.23748464 1.62779618 2.23748464 1.62779618 4.5859375 0.765625 C5.4934375 0.29125 6.4009375 -0.183125 7.3359375 -0.671875 C14.0198962 -4.13562688 19.80826155 -5.39046655 27.3359375 -5.671875 C28.3984375 -3.796875 28.3984375 -3.796875 29.3359375 -1.671875 C29.0059375 -1.011875 28.6759375 -0.351875 28.3359375 0.328125 C26.37466171 0.83989078 24.38968558 1.26189287 22.3984375 1.640625 C17.80629839 2.61136196 14.06102581 3.79749036 9.9609375 6.078125 C6.68545466 7.83246937 5.42581444 8.32662705 1.5859375 8.390625 C-2.02383043 7.21050856 -4.54416451 5.47305487 -7.6640625 3.328125 C-15.85899123 0.05015351 -25.43537016 0.13840491 -33.640625 3.3671875 C-41.76447137 7.22523037 -46.33773442 13.0503784 -49.48046875 21.53125 C-49.94012303 23.11271786 -50.31420934 24.71880047 -50.6640625 26.328125 C-51.9840625 26.328125 -53.3040625 26.328125 -54.6640625 26.328125 C-56.62928722 19.31671034 -53.15547526 13.31095051 -50.0390625 7.078125 C-37.34944873 -7.615112 -16.39591344 -10.28951752 0 0 Z " fill="#F4C2A9" transform="translate(90.6640625,24.671875)"/>
<path d="M0 0 C4.92495137 2.37509751 9.14018704 6.35280394 12 11 C12.5625 13.5 12.5625 13.5 12 16 C9.58830109 19.19195444 8.04765452 20.74947392 4.125 21.6875 C-0.31938737 20.70973478 -2.82975168 18.15148946 -6 15 C-6.336745 18.26453647 -6.336745 18.26453647 -3.4375 20.8125 C-1.29897222 23.26087129 -1.00607272 23.69636406 -0.9375 27.125 C-2.15088573 30.40827904 -3.16288048 31.95096924 -6 34 C-9.31424716 34.49548546 -10.5994155 34.28746263 -13.3515625 32.3125 C-22.27080376 23.24000717 -22.27080376 23.24000717 -23 17 C-22.70430562 10.58233686 -20.5417723 6.43363487 -16 2 C-11.09187723 -1.07023264 -5.57684151 -0.82222663 0 0 Z M-16 10 C-17.62954098 12.81466169 -17.99189667 14.62724665 -18.0625 17.875 C-16.53194627 22.37662861 -13.50901131 24.90327461 -10 28 C-9.01 27.67 -8.02 27.34 -7 27 C-8.03047408 24.78051737 -8.91596964 23.08726229 -10.625 21.3125 C-12.76078749 17.72049377 -12.23543781 14.0809221 -12 10 C-7.69031085 8.9656746 -5.74324483 8.57737058 -1.8125 10.8125 C-0.884375 11.534375 0.04375 12.25625 1 13 C2.3191582 13.69429379 3.64649406 14.37530495 5 15 C5 13.68 5 12.36 5 11 C0.38152174 6.74613845 -2.60925011 5.63986978 -8.7421875 5.71875 C-12.1507503 6.14334606 -13.74615278 7.47295918 -16 10 Z " fill="#E58C92" transform="translate(76,37)"/>
<path d="M0 0 C0.99 0 1.98 0 3 0 C3.40084824 5.36017994 1.63803204 7.45571559 -1.67578125 11.47265625 C-4.60045642 14.65293328 -7.73718242 17.53672467 -10.95800781 20.41430664 C-15.16717382 24.21343577 -19.19916891 28.16337673 -23.19140625 32.1875 C-23.74223877 32.74236084 -24.29307129 33.29722168 -24.8605957 33.86889648 C-27.11298631 36.14084758 -29.36322778 38.41476943 -31.60394287 40.69824219 C-33.1991965 42.32387538 -34.80042143 43.94344187 -36.40234375 45.5625 C-36.87700577 46.05065186 -37.35166779 46.53880371 -37.8407135 47.04174805 C-44.15103022 53.39814672 -50.27594095 56.97049552 -59.25 57.4375 C-66.69363481 57.29552331 -72.16779017 54.27808182 -77.875 49.6875 C-81.54184587 45.05001846 -84 40.98199922 -84 35 C-82.515 34.505 -82.515 34.505 -81 34 C-80.47212891 35.10408203 -80.47212891 35.10408203 -79.93359375 36.23046875 C-76.21038116 43.5894033 -73.10245706 48.29918098 -65 51 C-63.11018505 51.19598081 -61.21139779 51.31178445 -59.3125 51.375 C-58.31863281 51.42398438 -57.32476562 51.47296875 -56.30078125 51.5234375 C-48.31755632 50.25745864 -42.867533 44.25243459 -37.5 38.625 C-33.81225825 34.80527592 -30.13524064 31.05622806 -26.109375 27.58984375 C-21.44963048 23.57703463 -17.09863512 19.28251126 -12.75 14.9375 C-11.56664062 13.77250977 -11.56664062 13.77250977 -10.359375 12.58398438 C-5.58932744 7.84838811 -5.58932744 7.84838811 -1.640625 2.44140625 C-1.09921875 1.63574219 -0.5578125 0.83007812 0 0 Z " fill="#99C4CE" transform="translate(153,69)"/>
<path d="M0 0 C2.375 1.0625 2.375 1.0625 4 3 C4.75079001 6.4809355 4.77291901 8.76070951 2.84765625 11.84765625 C-1.09836273 16.54621675 -5.73471588 20.60332882 -10.29150391 24.69750977 C-15.00189371 28.93686059 -19.4207056 33.4214558 -23.8203125 37.98046875 C-26 40 -26 40 -28 40 C-28 40.66 -28 41.32 -28 42 C-30.375 44.625 -30.375 44.625 -33 47 C-33.66 47 -34.32 47 -35 47 C-35.66 48.98 -36.32 50.96 -37 53 C-37.66 53 -38.32 53 -39 53 C-39 53.66 -39 54.32 -39 55 C-39.66 55 -40.32 55 -41 55 C-41.48559374 51.67021433 -41.82993742 49.27207156 -39.94458008 46.38232422 C-33.91687952 39.7612526 -27.58697218 33.43623413 -21.24658203 27.11621094 C-19.23743174 25.11246555 -17.2337383 23.10337293 -15.23046875 21.09375 C-13.95084173 19.81478302 -12.67090496 18.53612586 -11.390625 17.2578125 C-10.79372864 16.65889191 -10.19683228 16.05997131 -9.58184814 15.44290161 C-7.14950502 13.02430426 -4.86293722 10.90862482 -2 9 C-1.67 8.01 -1.34 7.02 -1 6 C-5.75617461 7.33767411 -8.64301631 10.21221399 -12.1328125 13.5390625 C-14 15 -14 15 -17 15 C-17.3398504 11.80763476 -17.33091666 10.43624405 -15.35546875 7.83203125 C-14.64003906 7.16558594 -13.92460938 6.49914063 -13.1875 5.8125 C-12.12595703 4.80123047 -12.12595703 4.80123047 -11.04296875 3.76953125 C-7.20615364 0.4462478 -5.05989159 -0.51631547 0 0 Z " fill="#E99299" transform="translate(120,46)"/>
<path d="M0 0 C1.32 0.66 2.64 1.32 4 2 C3.38349808 6.00726246 1.21423629 8.67864556 -1 12 C-2.91098443 16.77746106 -2.59830176 22.20509473 -1 27 C0.86499904 29.79749856 2.69915419 31.704576 5.125 34 C7.69075509 36.48527937 8.92686812 37.81351371 10.25 41.1875 C9.91018797 45.0103853 8.84248268 46.449054 6 49 C3.19921875 49.9453125 3.19921875 49.9453125 0 50 C-2.25552964 48.39641112 -3.79723252 47.06382022 -5.625 45.0625 C-6.10573975 44.55759033 -6.58647949 44.05268066 -7.08178711 43.5324707 C-10.7341389 39.57664453 -13.05541262 35.98828937 -15 31 C-15.4125 29.948125 -15.825 28.89625 -16.25 27.8125 C-16.9822451 25.06658087 -17.16621401 22.82563816 -17 20 C-16.01 19.67 -15.02 19.34 -14 19 C-11.69051441 21.30948559 -11.42839177 22.63094958 -10.625 25.75 C-9.35833968 30.22854899 -7.73046249 33.26836793 -5 37 C-4.67 37.99 -4.34 38.98 -4 40 C-1.99983534 41.20882096 -1.99983534 41.20882096 0 42 C0 42.66 0 43.32 0 44 C1.32 43.34 2.64 42.68 4 42 C3.61328125 41.56429687 3.2265625 41.12859375 2.828125 40.6796875 C-3.65341732 33.26762673 -8.60250813 26.52404797 -8.3203125 16.18359375 C-7.41720861 10.02706844 -4.97385336 3.90802764 0 0 Z " fill="#D37A97" transform="translate(52,34)"/>
<path d="M0 0 C1.60407328 -0.02708567 3.2082785 -0.04643483 4.8125 -0.0625 C5.70582031 -0.07410156 6.59914062 -0.08570313 7.51953125 -0.09765625 C10 0 10 0 13 1 C13 1.99 13 2.98 13 4 C14.5159375 4.0309375 14.5159375 4.0309375 16.0625 4.0625 C21.20458496 4.83121573 23.95349759 7.99374026 27 12 C33.38632295 22.228227 35.54903918 33.42124752 33.6171875 45.3671875 C32.74419583 49.0392953 31.51159066 52.54493562 30 56 C28.68 55.01 27.36 54.02 26 53 C26.33 51.783125 26.66 50.56625 27 49.3125 C29.47032229 37.90963554 28.51926605 27.6631033 22.5625 17.5625 C17.0017858 9.64917595 9.17439314 4.78869219 0 2 C0 1.34 0 0.68 0 0 Z " fill="#ECB695" transform="translate(127,16)"/>
<path d="M0 0 C0 1.32 0 2.64 0 4 C-0.99 4.29132812 -1.98 4.58265625 -3 4.8828125 C-10.584483 7.2006136 -17.18412551 9.37087377 -23 15 C-23.62390625 15.58523437 -24.2478125 16.17046875 -24.890625 16.7734375 C-29.27831776 21.29018005 -31.27300366 25.64047602 -32.98046875 31.6796875 C-34 34 -34 34 -36.06640625 34.90625 C-37.02353516 35.44765625 -37.02353516 35.44765625 -38 36 C-38.70672206 39.10930941 -38.70672206 39.10930941 -38.75 42.625 C-38.80671875 43.81351563 -38.8634375 45.00203125 -38.921875 46.2265625 C-38.94765625 47.14179687 -38.9734375 48.05703125 -39 49 C-39.33 49 -39.66 49 -40 49 C-40.60221471 34.73085706 -39.3957014 23.48363505 -30 12 C-23.7906909 5.36246268 -9.04130973 -6.02753982 0 0 Z " fill="#EBA395" transform="translate(66,12)"/>
<path d="M0 0 C-1.61692373 4.08127134 -4.54274354 6.80605615 -7.625 9.8125 C-8.16261963 10.34367432 -8.70023926 10.87484863 -9.25415039 11.42211914 C-12.82910686 14.92864516 -16.50783452 18.28177451 -20.30859375 21.54296875 C-22.69590306 23.59947307 -24.90403225 25.64203629 -27 28 C-27 28.99 -27 29.98 -27 31 C-24.72707059 29.98110061 -23.16975439 29.19097369 -21.5 27.3125 C-21.005 26.879375 -20.51 26.44625 -20 26 C-17.8125 26.3125 -17.8125 26.3125 -16 27 C-16.47529007 31.27761063 -18.7668306 33.34161627 -22 36 C-25 37.0625 -25 37.0625 -28 37 C-30.875 35.4375 -30.875 35.4375 -33 33 C-33.75 30.25 -33.75 30.25 -33 27 C-29.55802776 21.90961334 -24.92334436 17.95037023 -20.265625 14.0078125 C-15.62971483 9.89943693 -11.34239682 5.41423795 -7 1 C-6.34 1.33 -5.68 1.66 -5 2 C-2 0 -2 0 0 0 Z " fill="#838EB6" transform="translate(120,71)"/>
<path d="M0 0 C3.66381181 2.22142695 6.97851114 4.94963455 9.85546875 8.125 C9.85546875 8.785 9.85546875 9.445 9.85546875 10.125 C12.82546875 9.465 15.79546875 8.805 18.85546875 8.125 C17.6485722 12.95258621 17.6485722 12.95258621 14.85546875 15.125 C12.98046875 16 12.98046875 16 10.85546875 16.125 C6.89359987 14.30468187 3.86731137 11.46380696 0.69921875 8.52734375 C-3.3817346 5.4233983 -7.10300249 4.86676426 -12.14453125 4.9375 C-13.15515625 4.94394531 -14.16578125 4.95039062 -15.20703125 4.95703125 C-18.14169967 5.05421562 -18.14169967 5.05421562 -20.95703125 5.69921875 C-21.67890625 5.83972656 -22.40078125 5.98023438 -23.14453125 6.125 C-24.14453125 5.125 -24.14453125 5.125 -24.20703125 2.5625 C-24.18640625 1.758125 -24.16578125 0.95375 -24.14453125 0.125 C-16.87231109 -3.26150698 -7.37756318 -3.27192568 0 0 Z " fill="#E08B83" transform="translate(82.14453125,29.875)"/>
<path d="M0 0 C0.99 0.33 1.98 0.66 3 1 C3.92380073 14.4669617 3.92380073 14.4669617 -0.12109375 19.90625 C-6.3500736 26.84748326 -13.00789762 33.28980785 -20.109375 39.33203125 C-23.57009817 42.38518992 -26.77684187 45.69969181 -30 49 C-30.99 48.67 -31.98 48.34 -33 48 C-32.51342924 43.65080595 -31.42286784 42.05249224 -28.0625 39.3125 C-22.66754221 34.67816852 -17.60233656 29.76769449 -12.5625 24.75 C-11.7691626 23.96923096 -10.9758252 23.18846191 -10.15844727 22.3840332 C-9.40619873 21.633396 -8.6539502 20.88275879 -7.87890625 20.109375 C-6.86679077 19.10342285 -6.86679077 19.10342285 -5.83422852 18.07714844 C-2.20262877 13.96459012 -0.64204093 10.65787943 -0.3125 5.1875 C-0.24675781 4.21167969 -0.18101562 3.23585937 -0.11328125 2.23046875 C-0.07589844 1.49441406 -0.03851563 0.75835937 0 0 Z " fill="#CF6E8C" transform="translate(138,48)"/>
<path d="M0 0 C7.84260611 0.57384923 14.46682859 4.58978795 20 10 C25.26810751 17.04846518 27.30207784 23.23974272 27 32 C25.68 32 24.36 32 23 32 C22.78085938 31.29875 22.56171875 30.5975 22.3359375 29.875 C19.08479057 20.14799131 15.4757301 13.65600395 6.125 8.96484375 C3.77510895 7.89788954 1.43315131 6.86337627 -1 6 C-1.042721 4.33388095 -1.04063832 2.66617115 -1 1 C-0.67 0.67 -0.34 0.34 0 0 Z " fill="#F1AA9C" transform="translate(124,20)"/>
<path d="M0 0 C-0.39829383 4.87964959 -2.73290788 7.18182931 -6.171875 10.3515625 C-7.23984297 11.37863635 -8.30754247 12.40598941 -9.375 13.43359375 C-11.05275477 15.02502218 -12.73513851 16.61109662 -14.42382812 18.19091797 C-21.49370606 24.83718751 -26.8247551 30.56077786 -30 40 C-30.99 39.67 -31.98 39.34 -33 39 C-32.93883714 37.62383557 -32.84975557 36.24890621 -32.75 34.875 C-32.70359375 34.10929687 -32.6571875 33.34359375 -32.609375 32.5546875 C-31.20558215 26.66955593 -26.65920899 22.3420949 -22.5 18.1640625 C-21.98244141 17.63984711 -21.46488281 17.11563171 -20.93164062 16.57553101 C-19.84506862 15.47890346 -18.75583554 14.38490668 -17.6640625 13.29345703 C-15.99405917 11.61904348 -14.34074006 9.9292285 -12.6875 8.23828125 C-11.62598022 7.17089926 -10.56351292 6.10445858 -9.5 5.0390625 C-9.00822266 4.53291412 -8.51644531 4.02676575 -8.00976562 3.50527954 C-5.03129545 0.56603016 -4.39071314 0 0 0 Z " fill="#D66882" transform="translate(102,61)"/>
<path d="M0 0 C0.99 0 1.98 0 3 0 C3.99614357 7.30505286 0.85623001 12.92663569 -3 19 C-5.76437367 22.29383014 -8.77467589 25.16215137 -12 28 C-13.09634766 28.97453125 -13.09634766 28.97453125 -14.21484375 29.96875 C-15.56343521 31.15410414 -16.9208791 32.32950201 -18.2890625 33.4921875 C-20.15565817 35.07802597 -20.15565817 35.07802597 -22.1875 37.4375 C-24 39 -24 39 -26.75 39.25 C-27.4925 39.1675 -28.235 39.085 -29 39 C-27.47526794 35.32128968 -25.28947884 33.16263104 -22.38671875 30.47265625 C-21.46826172 29.59673828 -20.54980469 28.72082031 -19.60351562 27.81835938 C-17.68617166 25.99838179 -15.75248699 24.20228803 -13.80664062 22.41210938 C-7.0034317 15.86562532 -3.85527619 9.93502321 -1 1 C-0.67 0.67 -0.34 0.34 0 0 Z " fill="#D57E98" transform="translate(148,55)"/>
<path d="M0 0 C0.99 0 1.98 0 3 0 C3.39885718 5.3335553 1.65927959 7.42306005 -1.62890625 11.42578125 C-4.83622843 14.90786579 -8.27377379 18.0816143 -11.78857422 21.24926758 C-18.0939315 26.9324214 -24.04333734 32.955596 -30 39 C-31.32 38.34 -32.64 37.68 -34 37 C-31.84062207 33.3110627 -29.70273956 30.60127942 -26.421875 27.8515625 C-21.65335544 23.75226131 -17.19687223 19.3806665 -12.75 14.9375 C-11.56664062 13.77250977 -11.56664062 13.77250977 -10.359375 12.58398438 C-5.58932744 7.84838811 -5.58932744 7.84838811 -1.640625 2.44140625 C-0.82851562 1.23291016 -0.82851562 1.23291016 0 0 Z " fill="#D1809E" transform="translate(153,69)"/>
<path d="M0 0 C-1.42062515 3.2268998 -3.14245441 5.39942512 -5.625 7.890625 C-6.68460938 8.95410156 -6.68460938 8.95410156 -7.765625 10.0390625 C-8.50296875 10.76867187 -9.2403125 11.49828125 -10 12.25 C-11.10601562 13.36761719 -11.10601562 13.36761719 -12.234375 14.5078125 C-12.94078125 15.21164063 -13.6471875 15.91546875 -14.375 16.640625 C-15.02210937 17.28547852 -15.66921875 17.93033203 -16.3359375 18.59472656 C-18 20 -18 20 -20 20 C-20 20.66 -20 21.32 -20 22 C-22.375 24.625 -22.375 24.625 -25 27 C-25.66 27 -26.32 27 -27 27 C-27.66 28.98 -28.32 30.96 -29 33 C-29.66 33 -30.32 33 -31 33 C-31 33.66 -31 34.32 -31 35 C-31.66 35 -32.32 35 -33 35 C-33.51286134 31.48323652 -33.82799398 29.20396749 -31.76660156 26.20654297 C-31.2094043 25.59955566 -30.65220703 24.99256836 -30.078125 24.3671875 C-29.44189209 23.67206055 -28.80565918 22.97693359 -28.15014648 22.26074219 C-24.25406564 18.16426114 -20.30848348 14.12408836 -16.3125 10.125 C-15.47138672 9.27164063 -14.63027344 8.41828125 -13.76367188 7.5390625 C-12.95091797 6.724375 -12.13816406 5.9096875 -11.30078125 5.0703125 C-10.57028564 4.33570801 -9.83979004 3.60110352 -9.0871582 2.84423828 C-4.26090161 -1.42030054 -4.26090161 -1.42030054 0 0 Z " fill="#C6769C" transform="translate(112,66)"/>
<path d="M0 0 C-1.38629244 3.12324544 -2.99511571 5.24190707 -5.4140625 7.64453125 C-6.09339844 8.32193359 -6.77273437 8.99933594 -7.47265625 9.69726562 C-8.18292969 10.39529297 -8.89320312 11.09332031 -9.625 11.8125 C-10.31207031 12.49892578 -10.99914062 13.18535156 -11.70703125 13.89257812 C-13.78362049 15.95163518 -15.88300884 17.9825339 -18 20 C-18.70350586 20.67208496 -19.40701172 21.34416992 -20.13183594 22.03662109 C-20.81793945 22.66777832 -21.50404297 23.29893555 -22.2109375 23.94921875 C-22.8198584 24.51342529 -23.4287793 25.07763184 -24.05615234 25.65893555 C-26.35093044 27.24210762 -28.26032983 27.62554886 -31 28 C-30.58392999 23.1753352 -28.31045705 20.75144564 -24.9765625 17.515625 C-24.47458344 17.01456238 -23.97260437 16.51349976 -23.45541382 15.99725342 C-22.39589453 14.94375845 -21.3315361 13.89511069 -20.26269531 12.85107422 C-18.62697819 11.25193395 -17.00790082 9.63729835 -15.390625 8.01953125 C-14.35771062 6.99644614 -13.32388667 5.97427836 -12.2890625 4.953125 C-11.80458649 4.47087463 -11.32011047 3.98862427 -10.82095337 3.49176025 C-7.17099484 -0.05629445 -4.99013473 -1.5486625 0 0 Z " fill="#E1787D" transform="translate(108,45)"/>
<path d="M0 0 C1.31677734 -0.02126953 1.31677734 -0.02126953 2.66015625 -0.04296875 C4.9375 0.1875 4.9375 0.1875 6.9375 2.1875 C6.34582031 2.21328125 5.75414063 2.2390625 5.14453125 2.265625 C-0.07710645 2.64042444 -3.36559802 3.15451602 -7.0625 7.1875 C-8.74850223 10.09968567 -9.07017408 11.81914419 -9 15.1875 C-7.83016771 18.93096333 -5.87368395 20.51687524 -3.0625 23.1875 C-2.25 25.5 -2.25 25.5 -2.0625 27.1875 C1.0120356 26.4111068 1.0120356 26.4111068 2.9375 24.1875 C3.9275 24.1875 4.9175 24.1875 5.9375 24.1875 C5.38049928 27.41810419 4.64534878 29.2533223 1.9375 31.1875 C-1.36559128 31.65460382 -2.67098103 31.46845714 -5.4140625 29.5 C-10.19572246 24.63618093 -13.54435549 20.91071139 -15.0625 14.1875 C-14.9915903 11.70093302 -14.62250221 9.631146 -14.0625 7.1875 C-13.0725 7.1875 -12.0825 7.1875 -11.0625 7.1875 C-11.0625 6.5275 -11.0625 5.8675 -11.0625 5.1875 C-10.4025 5.1875 -9.7425 5.1875 -9.0625 5.1875 C-8.9078125 4.2284375 -8.9078125 4.2284375 -8.75 3.25 C-8.523125 2.569375 -8.29625 1.88875 -8.0625 1.1875 C-5.12020079 0.2067336 -3.0716216 0.02261872 0 0 Z " fill="#E78187" transform="translate(68.0625,39.8125)"/>
<path d="M0 0 C0 0.99 0 1.98 0 3 C-0.64066406 2.855625 -1.28132813 2.71125 -1.94140625 2.5625 C-7.08040377 1.45964509 -11.74695843 0.77160689 -17 1 C-16.67 1.99 -16.34 2.98 -16 4 C-16.59167969 4.18175781 -17.18335937 4.36351562 -17.79296875 4.55078125 C-22.212508 5.95667057 -26.12540125 7.37527181 -30 10 C-30 9.01 -30 8.02 -30 7 C-30.556875 7.33 -31.11375 7.66 -31.6875 8 C-34.30284522 9.1309601 -36.1806646 9.15662974 -39 9 C-38.12601562 8.61134766 -38.12601562 8.61134766 -37.234375 8.21484375 C-34.84301895 6.91464841 -33.20856663 5.44418075 -31.25 3.5625 C-21.81563177 -4.79266006 -11.32595316 -4.59603896 0 0 Z " fill="#F1A392" transform="translate(131,31)"/>
<path d="M0 0 C1.82421875 2.1640625 1.82421875 2.1640625 3 4 C1.02 3.67 -0.96 3.34 -3 3 C-3 2.01 -3 1.02 -3 0 C-9.6 0 -16.2 0 -23 0 C-21.68 -0.66 -20.36 -1.32 -19 -2 C-28.23581216 -2.23647883 -36.19341327 -1.93552891 -45 1 C-45 -0.32 -45 -1.64 -45 -3 C-43.67037928 -3.48937429 -42.33600575 -3.96583581 -41 -4.4375 C-40.2575 -4.70433594 -39.515 -4.97117187 -38.75 -5.24609375 C-26.20031283 -8.68656197 -11.19894139 -6.72307925 0 0 Z " fill="#F8CDA7" transform="translate(143,17)"/>
<path d="M0 0 C0.33 0 0.66 0 1 0 C1.01417969 1.23234375 1.02835938 2.4646875 1.04296875 3.734375 C1.34242826 16.17326859 3.42237742 25.26808947 10 36 C9.01 36 8.02 36 7 36 C6.67 36.66 6.34 37.32 6 38 C5.05488054 36.65114018 4.1193328 35.29557262 3.1875 33.9375 C2.66542969 33.18339844 2.14335938 32.42929688 1.60546875 31.65234375 C-2.14164097 25.46186322 -3.48790664 20.47557294 -3.375 13.375 C-3.38660156 12.63765625 -3.39820312 11.9003125 -3.41015625 11.140625 C-3.38574291 6.59974406 -2.81034451 3.60922417 0 0 Z " fill="#E3858A" transform="translate(30,43)"/>
<path d="M0 0 C1.485 0.99 1.485 0.99 3 2 C3 2.66 3 3.32 3 4 C3.99 4.66 4.98 5.32 6 6 C9.96017411 13.64313602 8.49976686 23.08407162 6 31 C5.36971413 32.68076231 4.71949183 34.35544725 4 36 C2.68 35.01 1.36 34.02 0 33 C0.33 31.783125 0.66 30.56625 1 29.3125 C2.886909 20.78097573 2.8144586 12.26747215 0 4 C0 2.68 0 1.36 0 0 Z " fill="#E78E8A" transform="translate(153,36)"/>
<path d="M0 0 C4.9251718 2.35964822 9.14475345 6.36022436 12 11 C12.25 13.8125 12.25 13.8125 12 16 C11.4121875 15.0409375 11.4121875 15.0409375 10.8125 14.0625 C8.54581887 11.48317319 7.31209244 11.61620325 4 11 C3.071875 10.34 2.14375 9.68 1.1875 9 C-2.77227634 6.51543446 -5.38613312 6.31819772 -10 6 C-10 5.67 -10 5.34 -10 5 C-6.535 4.505 -6.535 4.505 -3 4 C-4.60407328 3.97291433 -6.2082785 3.95356517 -7.8125 3.9375 C-8.70582031 3.92589844 -9.59914063 3.91429687 -10.51953125 3.90234375 C-13.13413791 3.88990033 -13.13413791 3.88990033 -16 5 C-16.33 5.99 -16.66 6.98 -17 8 C-17.66 8 -18.32 8 -19 8 C-19 8.66 -19 9.32 -19 10 C-19.66 10 -20.32 10 -21 10 C-19.64717831 5.57258356 -17.76701112 3.63690779 -14 1 C-9.75435483 -1.12282259 -4.59801237 -0.61076355 0 0 Z " fill="#EEA8A3" transform="translate(76,37)"/>
<path d="M0 0 C-1.61687425 4.08114645 -4.54252902 6.80635597 -7.625 9.8125 C-8.16044434 10.34077393 -8.69588867 10.86904785 -9.24755859 11.41333008 C-20.10836363 22.05418181 -20.10836363 22.05418181 -24 24 C-24 23.34 -24 22.68 -24 22 C-24.66 22 -25.32 22 -26 22 C-26 19 -26 19 -24.63671875 17.5625 C-23.99347656 17.046875 -23.35023437 16.53125 -22.6875 16 C-18.9264185 12.86013843 -15.44437101 9.539877 -12 6.0625 C-11.26076294 5.31709961 -11.26076294 5.31709961 -10.5065918 4.55664062 C-9.33568453 3.37311181 -8.1675374 2.18685328 -7 1 C-6.34 1.33 -5.68 1.66 -5 2 C-2 0 -2 0 0 0 Z " fill="#CA80A3" transform="translate(120,71)"/>
<path d="M0 0 C2.35208084 2.12744391 3.54684523 3.95791722 4.75 6.875 C6.9044673 11.3828085 9.74745543 13.53272178 14 16 C14.66 16.4125 15.32 16.825 16 17.25 C18.93457355 18.35046508 21.89941412 18.64224009 25 19 C25 19.33 25 19.66 25 20 C12.469116 21.92929769 12.469116 21.92929769 7.5 19.0625 C2.50312673 15.24881871 -0.87548563 10.25520402 -1.8125 4 C-1.874375 3.01 -1.93625 2.02 -2 1 C-1.34 0.67 -0.68 0.34 0 0 Z " fill="#87ADC1" transform="translate(71,103)"/>
<path d="M0 0 C0.8971875 0.5259375 0.8971875 0.5259375 1.8125 1.0625 C0.843125 1.35125 -0.12625 1.64 -1.125 1.9375 C-4.29414203 2.70464682 -4.29414203 2.70464682 -5.1875 5.0625 C-4.1975 5.3925 -3.2075 5.7225 -2.1875 6.0625 C-1.48355388 7.37653276 -0.82404342 8.7145257 -0.1875 10.0625 C0.534375 10.8875 1.25625 11.7125 2 12.5625 C3.8125 15.0625 3.8125 15.0625 3.5625 17.375 C3.19125 18.2103125 3.19125 18.2103125 2.8125 19.0625 C2.255625 19.18625 1.69875 19.31 1.125 19.4375 C-1.40864364 20.12226855 -3.76671032 21.05383763 -6.1875 22.0625 C-5.8575 20.7425 -5.5275 19.4225 -5.1875 18.0625 C-4.5275 18.0625 -3.8675 18.0625 -3.1875 18.0625 C-4.22143396 15.83556531 -5.16411512 14.08858314 -6.8125 12.25 C-8.80395505 9.08177606 -8.58690109 6.72367666 -8.1875 3.0625 C-6.07360265 0.04264665 -3.6263342 -1.55414323 0 0 Z " fill="#E88D9A" transform="translate(71.1875,45.9375)"/>
<path d="M0 0 C1.32 0.66 2.64 1.32 4 2 C3.56011842 4.85923028 2.81484669 6.25085288 1.0625 8.625 C-1.57874349 12.94703479 -2.25566165 17.04427363 -3 22 C-3.33 21.34 -3.66 20.68 -4 20 C-4.66 20 -5.32 20 -6 20 C-6 21.98 -6 23.96 -6 26 C-8.50793127 22.2381031 -8.60895491 18.35179969 -8 14 C-6.40625619 8.52869394 -4.60212625 3.61595634 0 0 Z " fill="#E79A94" transform="translate(52,34)"/>
<path d="M0 0 C1.0625 1.875 1.0625 1.875 2 4 C1.67 4.66 1.34 5.32 1 6 C-1.8359375 6.66796875 -1.8359375 6.66796875 -5.375 7.1875 C-6.53773437 7.36667969 -7.70046875 7.54585937 -8.8984375 7.73046875 C-12 8 -12 8 -15 7 C-16.99961564 6.96079185 -19.00049364 6.95556653 -21 7 C-21 7.99 -21 8.98 -21 10 C-23.4375 9.625 -23.4375 9.625 -26 9 C-26.33 8.34 -26.66 7.68 -27 7 C-26.2884375 6.8865625 -25.576875 6.773125 -24.84375 6.65625 C-21.79648588 5.9530352 -19.31255502 4.8588749 -16.5 3.5 C-10.83198374 0.76152023 -6.29188533 -0.14632291 0 0 Z " fill="#F6CFBC" transform="translate(118,19)"/>
<path d="M0 0 C2.1640625 0.3515625 2.1640625 0.3515625 4 1 C3.49802682 5.11803928 1.45404973 6.69391239 -1.625 9.3125 C-5.9339497 13.05187589 -10.02656916 16.90815565 -14 21 C-14.99 20.67 -15.98 20.34 -17 20 C-16.55976709 15.27372591 -14.89054042 13.56291954 -11.3125 10.5625 C-8.23878455 7.9447994 -5.33647609 5.36529111 -2.625 2.375 C-1.325625 1.199375 -1.325625 1.199375 0 0 Z " fill="#AC63A2" transform="translate(122,76)"/>
<path d="M0 0 C3.67363585 2.24285136 6.77744823 5.14484046 9.85546875 8.1328125 C6.85546875 9.1328125 6.85546875 9.1328125 3.85546875 8.1328125 C3.85546875 6.8128125 3.85546875 5.4928125 3.85546875 4.1328125 C-8.67551477 1.51349235 -8.67551477 1.51349235 -21.14453125 3.1328125 C-20.15453125 3.7928125 -19.16453125 4.4528125 -18.14453125 5.1328125 C-19.80067782 5.51500017 -21.46910149 5.84676352 -23.14453125 6.1328125 C-24.14453125 5.1328125 -24.14453125 5.1328125 -24.20703125 2.5703125 C-24.18640625 1.7659375 -24.16578125 0.9615625 -24.14453125 0.1328125 C-16.86157151 -3.25869565 -7.39404351 -3.24770355 0 0 Z " fill="#F6B29F" transform="translate(82.14453125,29.8671875)"/>
<path d="M0 0 C3.460065 2.30671 3.49828997 2.89982225 4.4375 6.75 C5.66738582 11.25958134 7.25809953 14.25273603 10 18 C10.33 18.99 10.66 19.98 11 21 C13.00016466 22.20882096 13.00016466 22.20882096 15 23 C15 23.66 15 24.32 15 25 C15.99 25.33 16.98 25.66 18 26 C16.35 26 14.7 26 13 26 C12.67 25.01 12.34 24.02 12 23 C9.99878825 20.63493157 9.03200339 20.0106678 6 19 C5.67 19.66 5.34 20.32 5 21 C-2.42618271 8.24510604 -2.42618271 8.24510604 -2 1 C-1.34 0.67 -0.68 0.34 0 0 Z " fill="#E58994" transform="translate(37,53)"/>
<path d="M0 0 C0 1.32 0 2.64 0 4 C-3.27003339 4.50867186 -6.46599505 4.97141945 -9.7734375 5.1484375 C-15.47907669 5.26178029 -15.47907669 5.26178029 -20.25 7.9375 C-20.8275 8.618125 -21.405 9.29875 -22 10 C-25.75 11.25 -25.75 11.25 -29 12 C-23.92482804 4.38724207 -15.6439099 0.72291317 -6.9375 -1.5 C-3 -2 -3 -2 0 0 Z " fill="#F5CAA9" transform="translate(66,12)"/>
<path d="M0 0 C0 0.66 0 1.32 0 2 C-0.61746094 2.1959375 -1.23492187 2.391875 -1.87109375 2.59375 C-8.95152894 5.093995 -13.70418683 8.72977047 -19 14 C-19.99 13.01 -20.98 12.02 -22 11 C-22.33 11.99 -22.66 12.98 -23 14 C-25.0625 14.6875 -25.0625 14.6875 -27 15 C-26.05560016 11.82338234 -25.40284183 10.29396566 -22.6875 8.3125 C-20 7 -20 7 -17.4375 6.0625 C-14.86957066 5.126818 -14.86957066 5.126818 -13 2.9375 C-9.2978533 -0.64895462 -4.92341694 -0.11449807 0 0 Z " fill="#EEBB97" transform="translate(59,16)"/>
<path d="M0 0 C4.74201404 0.28739479 7.10742908 2.54255099 10.44921875 5.625 C13.04331361 7.92505388 14.75297762 8.11688746 18.125 8.0625 C20.043125 8.0315625 20.043125 8.0315625 22 8 C21.67 8.66 21.34 9.32 21 10 C18.69 10 16.38 10 14 10 C14 10.66 14 11.32 14 12 C17.3 12 20.6 12 24 12 C20.25816125 14.49455917 18.43756964 14.37606522 14 14 C8.22775927 12.03498188 3.75325022 7.72490383 0 3 C0 2.01 0 1.02 0 0 Z " fill="#AC7CB2" transform="translate(37,79)"/>
<path d="M0 0 C0 0.99 0 1.98 0 3 C-0.33 3.33 -0.66 3.66 -1 4 C-0.01 4.66 0.98 5.32 2 6 C1.61328125 6.40089844 1.2265625 6.80179687 0.828125 7.21484375 C-3.32668119 11.75016436 -5.79404423 16.27749121 -8 22 C-8.99 21.67 -9.98 21.34 -11 21 C-10.57250533 11.38136985 -6.82084579 6.51080735 0 0 Z " fill="#A869A8" transform="translate(80,79)"/>
<path d="M0 0 C0.66 0.33 1.32 0.66 2 1 C1.51789062 1.78503906 1.03578125 2.57007813 0.5390625 3.37890625 C-4.22933536 11.28381616 -4.22933536 11.28381616 -7 20 C-8.32 20 -9.64 20 -11 20 C-12.15837626 15.94568308 -11.83691257 13.78187881 -10 10 C-9.34 10 -8.68 10 -8 10 C-7.690625 9.21625 -7.38125 8.4325 -7.0625 7.625 C-5.35794641 3.41374997 -4.10150782 2.1007723 0 0 Z " fill="#E4958A" transform="translate(47,31)"/>
<path d="M0 0 C1.22203125 -0.01417969 2.4440625 -0.02835938 3.703125 -0.04296875 C6.75 0.1875 6.75 0.1875 8.75 2.1875 C7.54085937 2.27386719 6.33171875 2.36023438 5.0859375 2.44921875 C-4.47781931 3.23607292 -12.65558376 4.53299792 -21.5625 8.26171875 C-24.25 9.1875 -24.25 9.1875 -27.25 8.1875 C-27.58 7.1975 -27.91 6.2075 -28.25 5.1875 C-27.66992188 5.15011719 -27.08984375 5.11273437 -26.4921875 5.07421875 C-21.36012763 4.64231272 -17.84164784 3.63637885 -13.25 1.1875 C-8.81379746 0.23915828 -4.52963013 0.02409378 0 0 Z " fill="#EAB497" transform="translate(117.25,13.8125)"/>
<path d="M0 0 C1.32 0.99 2.64 1.98 4 3 C-0.62 7.62 -5.24 12.24 -10 17 C-11.32 16.34 -12.64 15.68 -14 15 C-11.225761 10.26067505 -8.01006394 7.0386196 -3.8046875 3.515625 C-1.91675177 1.97457228 -1.91675177 1.97457228 0 0 Z " fill="#9683B5" transform="translate(133,91)"/>
<path d="M0 0 C0.54398438 0.27199219 1.08796875 0.54398437 1.6484375 0.82421875 C1.6484375 3.82421875 1.6484375 3.82421875 0.0390625 5.5078125 C-0.66734375 6.08660156 -1.37375 6.66539063 -2.1015625 7.26171875 C-4.43392535 9.19647317 -6.51017896 11.00096281 -8.5390625 13.26171875 C-10.3515625 14.82421875 -10.3515625 14.82421875 -13.1015625 15.07421875 C-13.8440625 14.99171875 -14.5865625 14.90921875 -15.3515625 14.82421875 C-13.73095217 10.82989094 -10.95817077 8.02863554 -7.9765625 5.01171875 C-7.49445313 4.49673828 -7.01234375 3.98175781 -6.515625 3.45117188 C-2.90157254 -0.21689496 -2.90157254 -0.21689496 0 0 Z " fill="#B678A9" transform="translate(134.3515625,79.17578125)"/>
<path d="M0 0 C0.66 0.99 1.32 1.98 2 3 C0.57140593 4.03325986 -0.86822383 5.05127634 -2.3125 6.0625 C-3.11300781 6.63097656 -3.91351563 7.19945312 -4.73828125 7.78515625 C-5.85783203 8.38650391 -5.85783203 8.38650391 -7 9 C-7.99 8.67 -8.98 8.34 -10 8 C-10.66 8.66 -11.32 9.32 -12 10 C-12.99 10 -13.98 10 -15 10 C-15.309375 10.78375 -15.61875 11.5675 -15.9375 12.375 C-17 15 -17 15 -18 17 C-18.66 17 -19.32 17 -20 17 C-18.67100745 12.34852606 -17.03050962 8.78813703 -14 5 C-10.546875 3.3203125 -10.546875 3.3203125 -6.75 2.125 C-6.1003125 1.91359375 -5.450625 1.7021875 -4.78125 1.484375 C-3.19348953 0.97068779 -1.59746675 0.48265707 0 0 Z " fill="#F2AD93" transform="translate(57,24)"/>
<path d="M0 0 C0.33 0 0.66 0 1 0 C1 1.65 1 3.3 1 5 C1.66 5 2.32 5 3 5 C3.33 4.34 3.66 3.68 4 3 C4.27263672 3.81404297 4.27263672 3.81404297 4.55078125 4.64453125 C4.80214844 5.35996094 5.05351563 6.07539062 5.3125 6.8125 C5.55613281 7.52019531 5.79976563 8.22789063 6.05078125 8.95703125 C7.6506973 12.40047197 9.86368159 13.90912106 13 16 C11.68 16.99 10.36 17.98 9 19 C5.19510255 17.50521886 3.33809165 15.30557786 1 12 C0.03929566 9.11788698 -0.10581883 7.30149956 -0.0625 4.3125 C-0.05347656 3.50425781 -0.04445313 2.69601563 -0.03515625 1.86328125 C-0.02355469 1.24839844 -0.01195313 0.63351563 0 0 Z " fill="#92B3CC" transform="translate(78,96)"/>
<path d="M0 0 C3.37034745 1.96552255 5.27953113 3.38886696 7.13671875 6.87109375 C7.38421875 7.95390625 7.38421875 7.95390625 7.63671875 9.05859375 C4.37210902 7.25446732 2.7474208 6.22464682 0.63671875 3.05859375 C-1.90064396 2.75230855 -4.14245051 2.64012382 -6.67578125 2.68359375 C-7.99191406 2.67585938 -9.30804688 2.668125 -10.6640625 2.66015625 C-14.47150989 3.0702509 -16.29716048 3.85813549 -19.36328125 6.05859375 C-20.35328125 6.55359375 -20.35328125 6.55359375 -21.36328125 7.05859375 C-19.96743333 3.6852946 -18.43962514 2.01626713 -15.36328125 0.05859375 C-10.3110034 -1.62549887 -5.01920935 -1.99938753 0 0 Z " fill="#F6C2BE" transform="translate(124.36328125,37.94140625)"/>
<path d="M0 0 C1.32 0.33 2.64 0.66 4 1 C4 1.66 4 2.32 4 3 C4.99 3.33 5.98 3.66 7 4 C7 4.99 7 5.98 7 7 C9.97 6.34 12.94 5.68 16 5 C16.33 6.32 16.66 7.64 17 9 C15.3125 10.5625 15.3125 10.5625 13 12 C8.6779894 11.69433149 6.66030172 10.18177917 3.6875 7.125 C2.64142578 6.07699219 2.64142578 6.07699219 1.57421875 5.0078125 C0 3 0 3 0 0 Z " fill="#B65A87" transform="translate(43,72)"/>
<path d="M0 0 C-0.85768676 5.04587145 -4.05001865 7.9590775 -8 11 C-11.375 11.8125 -11.375 11.8125 -14 12 C-14.33 12.66 -14.66 13.32 -15 14 C-14.51612749 9.45966295 -12.9493049 7.38150804 -9.75 4.1875 C-8.98171875 3.39730469 -8.2134375 2.60710938 -7.421875 1.79296875 C-4.65501442 -0.25540062 -3.35964787 -0.39910711 0 0 Z " fill="#DC8097" transform="translate(129,61)"/>
<path d="M0 0 C0.80566406 0.02964844 1.61132812 0.05929688 2.44140625 0.08984375 C7.78168596 0.47062891 12.6353535 1.77105234 17 5 C17.33 5.99 17.66 6.98 18 8 C15.13275314 7.42655063 14.1385485 7.1385485 12 5 C10.906875 5 9.81375 5 8.6875 5 C5 5 5 5 2.7265625 4.0390625 C-0.66520844 2.7464965 -3.69502517 2.57784906 -7.3125 2.375 C-9.19388672 2.26285156 -9.19388672 2.26285156 -11.11328125 2.1484375 C-12.06589844 2.09945313 -13.01851562 2.05046875 -14 2 C-9.50633955 -0.99577363 -5.2681505 -0.21921163 0 0 Z " fill="#EA9E84" transform="translate(75,22)"/>
<path d="M0 0 C0.73863281 0.22816406 1.47726563 0.45632812 2.23828125 0.69140625 C-5.31488649 9.69810455 -5.31488649 9.69810455 -8.76171875 12.69140625 C-10.08171875 12.69140625 -11.40171875 12.69140625 -12.76171875 12.69140625 C-11.68564226 7.17651426 -8.92068258 4.54995938 -4.9296875 0.9140625 C-2.76171875 -0.30859375 -2.76171875 -0.30859375 0 0 Z " fill="#AAA7CB" transform="translate(120.76171875,93.30859375)"/>
<path d="M0 0 C-1.20381448 2.49361571 -2.45428722 4.68143083 -4 7 C-4.66 7 -5.32 7 -6 7 C-6.66 8.98 -7.32 10.96 -8 13 C-8.66 13 -9.32 13 -10 13 C-10 13.66 -10 14.32 -10 15 C-10.66 15 -11.32 15 -12 15 C-12.42397033 10.76029672 -12.43792242 8.01657823 -9.75 4.6875 C-6.38388219 1.39788487 -4.70037609 0 0 0 Z " fill="#8D7EAF" transform="translate(91,86)"/>
<path d="M0 0 C0.99 0.33 1.98 0.66 3 1 C3.55353075 14.81776765 3.55353075 14.81776765 0 20 C-0.33 19.34 -0.66 18.68 -1 18 C-2.65 18.33 -4.3 18.66 -6 19 C-5.65066406 18.55011719 -5.30132812 18.10023437 -4.94140625 17.63671875 C-0.88357762 11.90058139 -0.14049435 6.94808431 0 0 Z " fill="#E16E72" transform="translate(138,48)"/>
<path d="M0 0 C1.32 0 2.64 0 4 0 C3.51696726 4.31013828 2.3982201 6.0235163 -0.9375 8.75 C-1.64777344 9.34296875 -2.35804687 9.9359375 -3.08984375 10.546875 C-5 12 -5 12 -7 13 C-7 12.34 -7 11.68 -7 11 C-7.66 11 -8.32 11 -9 11 C-9 8 -9 8 -7.28515625 6.2109375 C-6.18494141 5.30214844 -6.18494141 5.30214844 -5.0625 4.375 C-4.33160156 3.76398438 -3.60070312 3.15296875 -2.84765625 2.5234375 C-2.23792969 2.02070312 -1.62820312 1.51796875 -1 1 C-0.67 0.67 -0.34 0.34 0 0 Z " fill="#A0579C" transform="translate(103,82)"/>
<path d="M0 0 C0 0.99 0 1.98 0 3 C-1.60463449 2.68991116 -3.20869231 2.37683713 -4.8125 2.0625 C-5.70582031 1.88847656 -6.59914063 1.71445312 -7.51953125 1.53515625 C-10 1 -10 1 -13 0 C-17.84815131 -0.15895578 -22.22480555 0.04496111 -27 1 C-19.04645079 -5.53327257 -8.93467666 -3.62566589 0 0 Z " fill="#F5C5B4" transform="translate(131,31)"/>
<path d="M0 0 C0.33 0.99 0.66 1.98 1 3 C1.66 3 2.32 3 3 3 C1.40653756 7.14300236 -1.47523211 10.36288759 -5 13 C-7.875 13.375 -7.875 13.375 -10 13 C-7.10917547 8.04254346 -4.24404412 3.88026891 0 0 Z " fill="#C97098" transform="translate(88,71)"/>
<path d="M0 0 C0 0.66 0 1.32 0 2 C-0.825 2.185625 -1.65 2.37125 -2.5 2.5625 C-6.58350225 4.23965271 -9.02477915 6.50126584 -12.16796875 9.5390625 C-14 11 -14 11 -17 11 C-17 10.01 -17 9.02 -17 8 C-16.34 8 -15.68 8 -15 8 C-14.34 6.68 -13.68 5.36 -13 4 C-12.01 4.33 -11.02 4.66 -10 5 C-9.814375 3.7934375 -9.814375 3.7934375 -9.625 2.5625 C-9.41875 1.716875 -9.2125 0.87125 -9 0 C-5.93109813 -1.53445094 -3.29905734 -0.54984289 0 0 Z " fill="#D56F76" transform="translate(120,50)"/>
<path d="M0 0 C3.42434346 0.01307001 6.66676448 0.18112639 10 1 C12.4375 3.875 12.4375 3.875 14 7 C14.5775 7.5775 15.155 8.155 15.75 8.75 C17 10 17 10 17 12 C14.12947516 10.58430934 11.30485336 9.10420878 8.5 7.5625 C7.7471875 7.15128906 6.994375 6.74007813 6.21875 6.31640625 C4.00037057 5.00021986 1.96419801 3.6740324 0 2 C0 1.34 0 0.68 0 0 Z " fill="#E7A38B" transform="translate(124,23)"/>
<path d="M0 0 C0 0.66 0 1.32 0 2 C4.455 1.505 4.455 1.505 9 1 C4.42862434 5.57137566 -1.42691303 5.23196079 -7.51171875 5.265625 C-10 5 -10 5 -13 3 C-9.21656826 -0.94792877 -5.07874402 -0.29300446 0 0 Z " fill="#A2D2D4" transform="translate(98,121)"/>
<path d="M0 0 C-1.56048464 4.05726008 -4.4835557 7.47623615 -8 10 C-9.32 10 -10.64 10 -12 10 C-11.50153711 6.31137465 -10.9758353 4.31453856 -8 2 C-4.914097 0.1086401 -3.82679269 0 0 0 Z " fill="#D36B81" transform="translate(89,63)"/>
<path d="M0 0 C3.38256721 1.39197329 4.83688682 2.8025496 6.6875 5.9375 C7.31205078 6.97197266 7.31205078 6.97197266 7.94921875 8.02734375 C10.0726494 12.01370984 10.10653588 15.23987578 10.0625 19.6875 C10.05347656 20.86699219 10.04445312 22.04648437 10.03515625 23.26171875 C10.02355469 24.16535156 10.01195312 25.06898437 10 26 C9.67 26 9.34 26 9 26 C9 22.7 9 19.4 9 16 C8.34 16 7.68 16 7 16 C6.67 19.3 6.34 22.6 6 26 C5.67 26 5.34 26 5 26 C5 21.71 5 17.42 5 13 C5.66 13 6.32 13 7 13 C7.33 12.34 7.66 11.68 8 11 C7.34 11 6.68 11 6 11 C5.87625 10.360625 5.7525 9.72125 5.625 9.0625 C5.41875 8.381875 5.2125 7.70125 5 7 C4.34 6.67 3.68 6.34 3 6 C2.67 5.01 2.34 4.02 2 3 C1.34 2.67 0.68 2.34 0 2 C0 1.34 0 0.68 0 0 Z " fill="#F1B9B6" transform="translate(132,33)"/>
<path d="M0 0 C0.74609375 1.734375 0.74609375 1.734375 1 4 C-0.65234375 6.140625 -0.65234375 6.140625 -2.9375 8.25 C-3.68902344 8.95640625 -4.44054687 9.6628125 -5.21484375 10.390625 C-5.80394531 10.92171875 -6.39304687 11.4528125 -7 12 C-7.99 11.67 -8.98 11.34 -10 11 C-9.70985788 7.51829452 -9.27243676 6.25771045 -6.6875 3.8125 C-4.49308876 2.33254823 -2.41301628 1.07245168 0 0 Z " fill="#985B9F" transform="translate(115,85)"/>
<path d="M0 0 C0.99 0 1.98 0 3 0 C3.34615998 5.65394631 2.43425238 9.03006806 0 14 C-1.32 13.34 -2.64 12.68 -4 12 C-3.52494322 10.18641846 -3.04483958 8.37415821 -2.5625 6.5625 C-2.29566406 5.55316406 -2.02882812 4.54382812 -1.75390625 3.50390625 C-1 1 -1 1 0 0 Z " fill="#E48B96" transform="translate(148,55)"/>
<path d="M0 0 C3.22357307 1.1512761 4.05261915 2.0831722 5.9375 5.0625 C7.70633249 8.21225644 7.70633249 8.21225644 10.75 8.875 C11.4925 8.91625 12.235 8.9575 13 9 C15.42857143 15.28571429 15.42857143 15.28571429 14 19 C13.67 18.01 13.34 17.02 13 16 C12.01 15.34 11.02 14.68 10 14 C9.67 13.01 9.34 12.02 9 11 C8.01 11.495 8.01 11.495 7 12 C5.82767315 10.3790787 4.6622923 8.75313167 3.5 7.125 C2.8503125 6.22007813 2.200625 5.31515625 1.53125 4.3828125 C0 2 0 2 0 0 Z " fill="#E5A491" transform="translate(145,26)"/>
<path d="M0 0 C1.31677734 -0.02126953 1.31677734 -0.02126953 2.66015625 -0.04296875 C4.9375 0.1875 4.9375 0.1875 6.9375 2.1875 C6.34582031 2.21328125 5.75414063 2.2390625 5.14453125 2.265625 C-0.07710645 2.64042444 -3.36559802 3.15451602 -7.0625 7.1875 C-8.39548974 9.80568456 -8.39548974 9.80568456 -9.0625 12.1875 C-10.25 10.625 -10.25 10.625 -11.0625 8.1875 C-9.875 4.5 -9.875 4.5 -8.0625 1.1875 C-5.12020079 0.2067336 -3.0716216 0.02261872 0 0 Z " fill="#D97272" transform="translate(68.0625,39.8125)"/>
<path d="M0 0 C-3.30514863 1.94298486 -6.05580046 2.3611286 -9.859375 2.6328125 C-10.97441406 2.71660156 -12.08945313 2.80039063 -13.23828125 2.88671875 C-14.39714844 2.96535156 -15.55601563 3.04398438 -16.75 3.125 C-17.92433594 3.21136719 -19.09867188 3.29773438 -20.30859375 3.38671875 C-23.20527203 3.59867082 -26.10228598 3.80280327 -29 4 C-22.04834296 -2.95165704 -8.86225057 -0.96007714 0 0 Z " fill="#F8E1C6" transform="translate(127,11)"/>
<path d="M0 0 C0.8971875 0.5259375 0.8971875 0.5259375 1.8125 1.0625 C0.843125 1.35125 -0.12625 1.64 -1.125 1.9375 C-4.29414203 2.70464682 -4.29414203 2.70464682 -5.1875 5.0625 C-4.1975 5.3925 -3.2075 5.7225 -2.1875 6.0625 C-1.48598848 7.3778341 -0.82224075 8.71367592 -0.1875 10.0625 C0.34875 10.59875 0.885 11.135 1.4375 11.6875 C1.89125 12.14125 2.345 12.595 2.8125 13.0625 C2.8125 13.7225 2.8125 14.3825 2.8125 15.0625 C1.8225 15.0625 0.8325 15.0625 -0.1875 15.0625 C-0.1875 14.0725 -0.1875 13.0825 -0.1875 12.0625 C-1.5075 11.7325 -2.8275 11.4025 -4.1875 11.0625 C-4.31125 10.423125 -4.435 9.78375 -4.5625 9.125 C-4.76875 8.444375 -4.975 7.76375 -5.1875 7.0625 C-5.8475 6.7325 -6.5075 6.4025 -7.1875 6.0625 C-7.5175 7.3825 -7.8475 8.7025 -8.1875 10.0625 C-8.55408354 3.58619077 -8.55408354 3.58619077 -6.875 1.1875 C-4.30363515 -0.52674324 -2.91615247 -1.24977963 0 0 Z " fill="#E9A1A5" transform="translate(71.1875,45.9375)"/>
<path d="M0 0 C0.99 0.33 1.98 0.66 3 1 C3.33 1.99 3.66 2.98 4 4 C7.0745356 3.2236068 7.0745356 3.2236068 9 1 C9.99 1 10.98 1 12 1 C11.44299928 4.23060419 10.70784878 6.0658223 8 8 C5.5625 8.4375 5.5625 8.4375 3 8 C0.625 6.25 0.625 6.25 -1 4 C-0.75 1.75 -0.75 1.75 0 0 Z " fill="#D1687E" transform="translate(62,63)"/>
<path d="M0 0 C0.66 0 1.32 0 2 0 C2.27417238 9.13907933 1.70367084 16.53446666 -2 25 C-3.32 24.01 -4.64 23.02 -6 22 C-5.67 20.35 -5.34 18.7 -5 17 C-4.67 18.32 -4.34 19.64 -4 21 C-3.34 21 -2.68 21 -2 21 C-0.9609622 16.57317509 -0.68407049 12.21065368 -0.4375 7.6875 C-0.37272461 6.57665039 -0.37272461 6.57665039 -0.30664062 5.44335938 C-0.20129568 3.62908536 -0.10021684 1.8145645 0 0 Z " fill="#E8A6AD" transform="translate(159,47)"/>
<path d="M0 0 C0 0.99 0 1.98 0 3 C-0.33 3.33 -0.66 3.66 -1 4 C-0.34 4.33 0.32 4.66 1 5 C-0.49097658 8.7952131 -2.75700849 10.61042731 -6 13 C-6.66 12.67 -7.32 12.34 -8 12 C-6.64994369 6.32976351 -4.1842771 3.82042691 0 0 Z " fill="#8AAEC0" transform="translate(121,102)"/>
<path d="M0 0 C1.32 1.65 2.64 3.3 4 5 C2.02 6.65 0.04 8.3 -2 10 C-2 9.34 -2 8.68 -2 8 C-4.31 8.66 -6.62 9.32 -9 10 C-8.06409496 8.8944811 -7.12620142 7.79064547 -6.1875 6.6875 C-5.66542969 6.07261719 -5.14335938 5.45773438 -4.60546875 4.82421875 C-3.12827531 3.14575321 -1.59960869 1.56117966 0 0 Z " fill="#E18991" transform="translate(91,55)"/>
<path d="M0 0 C0.33 0 0.66 0 1 0 C1.29296875 6.0546875 1.29296875 6.0546875 1 8 C0.01 8.66 -0.98 9.32 -2 10 C-2.66 9.67 -3.32 9.34 -4 9 C-4 9.66 -4 10.32 -4 11 C-4.99 11.33 -5.98 11.66 -7 12 C-7.8125 10.3125 -7.8125 10.3125 -8 8 C-5.75 5.25 -5.75 5.25 -3 3 C-2.01 3 -1.02 3 0 3 C0 2.01 0 1.02 0 0 Z " fill="#E49098" transform="translate(122,50)"/>
<path d="M0 0 C0.33 0.99 0.66 1.98 1 3 C1 2.01 1 1.02 1 0 C2.32 0.33 3.64 0.66 5 1 C1.535 3.97 1.535 3.97 -2 7 C-2.66 6.01 -3.32 5.02 -4 4 C-4.33 4.99 -4.66 5.98 -5 7 C-7.0625 7.6875 -7.0625 7.6875 -9 8 C-8.01437243 4.68470727 -7.34552581 3.25050621 -4.5 1.1875 C-2 0 -2 0 0 0 Z " fill="#EEB59C" transform="translate(41,23)"/>
<path d="M0 0 C0.66 0 1.32 0 2 0 C2.054348 2.0622048 2.09294961 4.12482816 2.125 6.1875 C2.14820313 7.33605469 2.17140625 8.48460937 2.1953125 9.66796875 C2.00484152 12.91740372 1.39360127 15.08660521 0 18 C-0.66 18 -1.32 18 -2 18 C-2.23268915 11.71739294 -1.40454548 6.11980533 0 0 Z " fill="#E16F7C" transform="translate(157,50)"/>
<path d="M0 0 C0.66 0 1.32 0 2 0 C3.65 3.63 5.3 7.26 7 11 C5.68 11 4.36 11 3 11 C2.67 11.66 2.34 12.32 2 13 C0.21590198 9.93753253 -0.22880021 7.77920727 -0.125 4.25 C-0.10695312 3.45078125 -0.08890625 2.6515625 -0.0703125 1.828125 C-0.04710937 1.22484375 -0.02390625 0.6215625 0 0 Z " fill="#E893A1" transform="translate(46,54)"/>
<path d="M0 0 C2.38672669 2.96283313 4.7353371 5.94270509 7 9 C5.35 9.66 3.7 10.32 2 11 C-3 5.25 -3 5.25 -3 3 C-1.5 1.375 -1.5 1.375 0 0 Z " fill="#E58794" transform="translate(58,55)"/>
<path d="M0 0 C0.33 0.99 0.66 1.98 1 3 C1.99 3 2.98 3 4 3 C3.01 5.97 2.02 8.94 1 12 C0.01 11.67 -0.98 11.34 -2 11 C-1.85892253 9.54119891 -1.71197585 8.08296449 -1.5625 6.625 C-1.48128906 5.81289062 -1.40007812 5.00078125 -1.31640625 4.1640625 C-1 2 -1 2 0 0 Z " fill="#A18ABA" transform="translate(71,89)"/>
<path d="M0 0 C-0.54161908 3.79133356 -1.99283725 5.66109564 -5 8 C-7.75 8.25 -7.75 8.25 -10 8 C-8.70989008 5.12206249 -7.42638194 3.03816083 -5 1 C-2 0 -2 0 0 0 Z " fill="#9867A5" transform="translate(129,86)"/>
<path d="M0 0 C0.66 0.33 1.32 0.66 2 1 C0.56036361 4.35915158 -1.12416589 6.71624938 -4 9 C-6.25 8.75 -6.25 8.75 -8 8 C-6.49776416 3.79373966 -3.71449966 2.26099979 0 0 Z " fill="#A062A3" transform="translate(142,84)"/>
<path d="M0 0 C-0.36712972 2.71675995 -0.72744599 4.61063713 -2.3125 6.875 C-4 8 -4 8 -6 7.6875 C-6.66 7.460625 -7.32 7.23375 -8 7 C-8.99 7 -9.98 7 -11 7 C-4.36842105 0 -4.36842105 0 0 0 Z " fill="#BC79AF" transform="translate(150,78)"/>
<path d="M0 0 C1.86011719 -0.02126953 1.86011719 -0.02126953 3.7578125 -0.04296875 C6.875 0.1875 6.875 0.1875 8.875 2.1875 C-1.52 2.6825 -1.52 2.6825 -12.125 3.1875 C-11.125 1.1875 -11.125 1.1875 -9.5078125 0.57421875 C-6.32092374 0.05700238 -3.22783426 0.01684673 0 0 Z " fill="#E5AE8C" transform="translate(117.125,13.8125)"/>
<path d="M0 0 C5.16254129 0.37774692 9.68908001 2.18430902 14 5 C14.99 6.485 14.99 6.485 16 8 C14.02 7.34 12.04 6.68 10 6 C10 5.34 10 4.68 10 4 C6.7 3.67 3.4 3.34 0 3 C0.33 3.99 0.66 4.98 1 6 C0.34 6 -0.32 6 -1 6 C-1.042721 4.33388095 -1.04063832 2.66617115 -1 1 C-0.67 0.67 -0.34 0.34 0 0 Z " fill="#F6D3C2" transform="translate(124,20)"/>
<path d="M0 0 C1.010625 0.474375 2.02125 0.94875 3.0625 1.4375 C6.65922205 2.9936328 10.09268709 3.6012946 14 4 C14 4.33 14 4.66 14 5 C11.9399629 5.25034126 9.87672534 5.47443346 7.8125 5.6875 C6.08966797 5.87892578 6.08966797 5.87892578 4.33203125 6.07421875 C0.61521817 5.99142924 -1.04010104 5.16836289 -4 3 C-2.68 2.67 -1.36 2.34 0 2 C0 1.34 0 0.68 0 0 Z " fill="#9ECBD0" transform="translate(82,118)"/>
<path d="M0 0 C0.91007812 0.00902344 1.82015625 0.01804687 2.7578125 0.02734375 C3.45648438 0.03894531 4.15515625 0.05054687 4.875 0.0625 C4.545 1.3825 4.215 2.7025 3.875 4.0625 C2.41757537 4.14346803 0.95887193 4.20167774 -0.5 4.25 C-1.31210938 4.28480469 -2.12421875 4.31960937 -2.9609375 4.35546875 C-3.67507812 4.25878906 -4.38921875 4.16210938 -5.125 4.0625 C-5.785 3.0725 -6.445 2.0825 -7.125 1.0625 C-4.60024538 -0.19987731 -2.81299534 -0.03606404 0 0 Z " fill="#E7AB8B" transform="translate(113.125,20.9375)"/>
<path d="M0 0 C5.86809507 0.52393706 10.54873741 1.76108858 16 4 C16 4.33 16 4.66 16 5 C10.36718401 5.2396943 5.45461169 4.38529821 0 3 C0 2.01 0 1.02 0 0 Z " fill="#E8B793" transform="translate(72,13)"/>
<path d="M0 0 C0.33 0 0.66 0 1 0 C1 1.65 1 3.3 1 5 C1.66 5 2.32 5 3 5 C3.33 4.34 3.66 3.68 4 3 C4.66 6.3 5.32 9.6 6 13 C4.35 12.67 2.7 12.34 1 12 C0.03929566 9.11788698 -0.10581883 7.30149956 -0.0625 4.3125 C-0.05347656 3.50425781 -0.04445313 2.69601563 -0.03515625 1.86328125 C-0.02355469 1.24839844 -0.01195313 0.63351563 0 0 Z " fill="#999EC4" transform="translate(78,96)"/>
<path d="M0 0 C0.90105469 0.19464844 1.80210938 0.38929687 2.73046875 0.58984375 C3.41753906 0.74582031 4.10460937 0.90179688 4.8125 1.0625 C4.8125 1.3925 4.8125 1.7225 4.8125 2.0625 C4.19761719 2.19527344 3.58273438 2.32804687 2.94921875 2.46484375 C1.73685547 2.72974609 1.73685547 2.72974609 0.5 3 C-0.30050781 3.17402344 -1.10101563 3.34804688 -1.92578125 3.52734375 C-4.332901 4.06136159 -4.332901 4.06136159 -7.1875 5.0625 C-8.1775 4.7325 -9.1675 4.4025 -10.1875 4.0625 C-9.375 2.125 -9.375 2.125 -8.1875 0.0625 C-4.80475734 -1.06508089 -3.41971777 -0.75500262 0 0 Z " fill="#ED9893" transform="translate(115.1875,40.9375)"/>
<path d="M0 0 C-0.39337119 2.28155293 -0.91286211 3.86700007 -2.1875 5.8125 C-4 7 -4 7 -7.1875 6.6875 C-8.115625 6.460625 -9.04375 6.23375 -10 6 C-10 5.01 -10 4.02 -10 3 C-3.375 0 -3.375 0 0 0 Z " fill="#E47D79" transform="translate(101,38)"/>
<path d="M0 0 C5.90054805 0.46583274 11.02392664 2.90337881 16 6 C16.99 7.485 16.99 7.485 18 9 C15.03 8.505 15.03 8.505 12 8 C12 7.01 12 6.02 12 5 C11.30132812 4.89042969 10.60265625 4.78085937 9.8828125 4.66796875 C8.97273437 4.50941406 8.06265625 4.35085937 7.125 4.1875 C6.22007812 4.03667969 5.31515625 3.88585937 4.3828125 3.73046875 C2 3 2 3 0 0 Z " fill="#F8E0C7" transform="translate(128,12)"/>
<path d="M0 0 C2.40072955 2.88087546 4.47291037 5.56404834 6 9 C5.01 9 4.02 9 3 9 C2.67 9.66 2.34 10.32 2 11 C-2 6.25 -2 6.25 -2 4 C-1.34 4 -0.68 4 0 4 C0 2.68 0 1.36 0 0 Z " fill="#D281A0" transform="translate(34,70)"/>
<path d="M0 0 C0.99 0.33 1.98 0.66 3 1 C1.50902342 4.7952131 -0.75700849 6.61042731 -4 9 C-4.66 8.67 -5.32 8.34 -6 8 C-4.55746343 4.63408134 -2.66735273 2.48952921 0 0 Z " fill="#CE6680" transform="translate(109,65)"/>
<path d="M0 0 C0 3 0 3 -1 5 C-0.01 5.33 0.98 5.66 2 6 C-0.31 7.98 -2.62 9.96 -5 12 C-4.67 10.35 -4.34 8.7 -4 7 C-4.66 6.67 -5.32 6.34 -6 6 C-4.02 4.02 -2.04 2.04 0 0 Z " fill="#9EB4CD" transform="translate(109,101)"/>
<path d="M0 0 C0 0.66 0 1.32 0 2 C-0.99 2 -1.98 2 -3 2 C-3 2.66 -3 3.32 -3 4 C-6.08838665 7.95313492 -9.19827866 8.89191046 -14 10 C-10.6083172 5.47775627 -6.20114471 0 0 0 Z " fill="#F9DAC5" transform="translate(51,14)"/>
<path d="M0 0 C-1.75 2.5 -1.75 2.5 -4 5 C-5.32 5 -6.64 5 -8 5 C-8.33 5.66 -8.66 6.32 -9 7 C-9.25 4.6875 -9.25 4.6875 -9 2 C-6.04897468 -1.27891703 -4.09533092 -1.25135112 0 0 Z " fill="#9180B2" transform="translate(123,94)"/>
<path d="M0 0 C3.39417765 3.12621626 5.6062718 5.56541027 7 10 C4.625 9.6875 4.625 9.6875 2 9 C-0.29013653 5.5647952 -0.17842973 4.014669 0 0 Z " fill="#F5C2AF" transform="translate(150,25)"/>
<path d="M0 0 C-0.375 2.4375 -0.375 2.4375 -1 5 C-1.99 5.495 -1.99 5.495 -3 6 C-3.33 5.34 -3.66 4.68 -4 4 C-5.65 5.32 -7.3 6.64 -9 8 C-9.66 7.67 -10.32 7.34 -11 7 C-9.9296491 5.82141137 -8.84316035 4.6574639 -7.75 3.5 C-7.14671875 2.8503125 -6.5434375 2.200625 -5.921875 1.53125 C-4 0 -4 0 0 0 Z " fill="#DF92A3" transform="translate(102,61)"/>
<path d="M0 0 C0.99 0.33 1.98 0.66 3 1 C3 2.32 3 3.64 3 5 C4.32 5.33 5.64 5.66 7 6 C7 6.66 7 7.32 7 8 C6.34 8 5.68 8 5 8 C4.67 8.66 4.34 9.32 4 10 C2 8.375 2 8.375 0 6 C-0.25 2.75 -0.25 2.75 0 0 Z " fill="#E27B84" transform="translate(64,52)"/>
<path d="M0 0 C4.92127034 -0.16682272 8.50343896 -0.24828052 13 2 C12.67 2.66 12.34 3.32 12 4 C10.37399059 3.9129995 8.74910322 3.8048219 7.125 3.6875 C6.22007813 3.62949219 5.31515625 3.57148437 4.3828125 3.51171875 C2 3 2 3 0 0 Z " fill="#DD8B7E" transform="translate(113,31)"/>
<path d="M0 0 C4.98012761 1.50912958 8.24259942 4.55661849 12 8 C9 9 9 9 6 8 C6 6.68 6 5.36 6 4 C3.03 3.505 3.03 3.505 0 3 C0 2.01 0 1.02 0 0 Z " fill="#F4BDB1" transform="translate(80,30)"/>
<path d="M0 0 C-1.20381448 2.49361571 -2.45428722 4.68143083 -4 7 C-5.32 7 -6.64 7 -8 7 C-7.75 4.625 -7.75 4.625 -7 2 C-4.43689172 0.2058242 -3.16880694 0 0 0 Z " fill="#915A9F" transform="translate(91,86)"/>
<path d="M0 0 C0.99 0 1.98 0 3 0 C3.25 2.3125 3.25 2.3125 3 5 C1 6.8125 1 6.8125 -1 8 C-1.99 7.34 -2.98 6.68 -4 6 C-2.1875 3 -2.1875 3 0 0 Z " fill="#8797BA" transform="translate(123,100)"/>
<path d="M0 0 C0.33 0.66 0.66 1.32 1 2 C1.66 2 2.32 2 3 2 C2.6875 3.875 2.6875 3.875 2 6 C1.01 6.66 0.02 7.32 -1 8 C-1 7.01 -1 6.02 -1 5 C-1.66 5 -2.32 5 -3 5 C-3 5.66 -3 6.32 -3 7 C-3.66 7 -4.32 7 -5 7 C-3.70700306 4.11562221 -2.34058637 2.12780579 0 0 Z " fill="#A48CBC" transform="translate(93,91)"/>
<path d="M0 0 C0 3 0 3 -1 6 C-1.66 6.66 -2.32 7.32 -3 8 C-3 8.99 -3 9.98 -3 11 C-3.99 11.495 -3.99 11.495 -5 12 C-5.99 10.68 -6.98 9.36 -8 8 C-5.36 5.36 -2.72 2.72 0 0 Z " fill="#D88AA9" transform="translate(131,67)"/>
<path d="M0 0 C1.32 0.33 2.64 0.66 4 1 C4 3.64 4 6.28 4 9 C3.01 8.67 2.02 8.34 1 8 C-0.35439668 5.29120665 -0.06501451 2.99066732 0 0 Z " fill="#E18185" transform="translate(146,44)"/>
<path d="M0 0 C1.03125 0.33 2.0625 0.66 3.125 1 C6.48426709 1.9715192 9.49106202 2.17116771 13 2 C13 2.99 13 3.98 13 5 C4.2404908 5.44539877 4.2404908 5.44539877 0 2 C0 1.34 0 0.68 0 0 Z " fill="#F8E0C5" transform="translate(85,13)"/>
<path d="M0 0 C-0.33 1.32 -0.66 2.64 -1 4 C-1 3.01 -1 2.02 -1 1 C-1.825 1.165 -2.65 1.33 -3.5 1.5 C-7.41272317 2.05896045 -11.05183173 2.06807187 -15 2 C-12.2458439 0.16389594 -10.63695953 -0.51804278 -7.5 -1.25 C-6.7265625 -1.44078125 -5.953125 -1.6315625 -5.15625 -1.828125 C-3 -2 -3 -2 0 0 Z " fill="#F7E2C8" transform="translate(66,12)"/>
<path d="M0 0 C2.0625 0.4375 2.0625 0.4375 4 1 C3.67 1.99 3.34 2.98 3 4 C-0.63 4 -4.26 4 -8 4 C-8 3.34 -8 2.68 -8 2 C-6.865625 1.855625 -5.73125 1.71125 -4.5625 1.5625 C-1.19222799 1.38828522 -1.19222799 1.38828522 0 0 Z " fill="#8E5298" transform="translate(59,87)"/>
<path d="M0 0 C0.33 0.99 0.66 1.98 1 3 C0.01 3.66 -0.98 4.32 -2 5 C-3.21418833 6.9466071 -3.21418833 6.9466071 -4.1875 9.125 C-4.53167969 9.84945312 -4.87585937 10.57390625 -5.23046875 11.3203125 C-5.48441406 11.87460937 -5.73835938 12.42890625 -6 13 C-6.66 13 -7.32 13 -8 13 C-6.68203796 8.38713287 -4.86611786 4.85134588 -2 1 C-1.34 0.67 -0.68 0.34 0 0 Z " fill="#F3C6BB" transform="translate(45,28)"/>
<path d="M0 0 C0 0.66 0 1.32 0 2 C-1.32 2.33 -2.64 2.66 -4 3 C-4 3.66 -4 4.32 -4 5 C-6.64 5.66 -9.28 6.32 -12 7 C-5.36842105 0 -5.36842105 0 0 0 Z " fill="#F4D2BC" transform="translate(58,21)"/>
<path d="M0 0 C1.32 0.33 2.64 0.66 4 1 C4 1.66 4 2.32 4 3 C4.99 3.33 5.98 3.66 7 4 C6.67 5.32 6.34 6.64 6 8 C1.3125 4.38671875 1.3125 4.38671875 0 3 C0 2.01 0 1.02 0 0 Z " fill="#C75C83" transform="translate(43,72)"/>
<path d="M0 0 C1.9375 0.8125 1.9375 0.8125 4 2 C4.33 2.99 4.66 3.98 5 5 C7.00016466 6.20882096 7.00016466 6.20882096 9 7 C9 7.66 9 8.32 9 9 C9.99 9.33 10.98 9.66 12 10 C10.35 10 8.7 10 7 10 C6.67 9.01 6.34 8.02 6 7 C3.99878825 4.63493157 3.03200339 4.0106678 0 3 C-0.33 3.66 -0.66 4.32 -1 5 C-0.67 3.35 -0.34 1.7 0 0 Z " fill="#DE99B3" transform="translate(43,69)"/>
<path d="M0 0 C1.32 0.99 2.64 1.98 4 3 C-0.625 7 -0.625 7 -4 7 C-4 6.01 -4 5.02 -4 4 C-3.34 4 -2.68 4 -2 4 C-1.34 2.68 -0.68 1.36 0 0 Z " fill="#D87D89" transform="translate(107,54)"/>
<path d="M0 0 C1.77155654 0.11429397 3.54226229 0.24183037 5.3125 0.375 C6.79169922 0.47941406 6.79169922 0.47941406 8.30078125 0.5859375 C11 1 11 1 14 3 C13.15695313 2.96519531 12.31390625 2.93039062 11.4453125 2.89453125 C9.80175781 2.85392578 9.80175781 2.85392578 8.125 2.8125 C7.03445312 2.77769531 5.94390625 2.74289062 4.8203125 2.70703125 C3.42425781 2.85205078 3.42425781 2.85205078 2 3 C1.34 3.99 0.68 4.98 0 6 C0 4.02 0 2.04 0 0 Z " fill="#F6E4CD" transform="translate(71,10)"/>
<path d="M0 0 C2.475 0.99 2.475 0.99 5 2 C3.68 3.65 2.36 5.3 1 7 C0.01 6.67 -0.98 6.34 -2 6 C-1.125 1.125 -1.125 1.125 0 0 Z " fill="#A48AB6" transform="translate(107,90)"/>
<path d="M0 0 C2.1875 0.3125 2.1875 0.3125 4 1 C3.6875 2.875 3.6875 2.875 3 5 C2.01 5.66 1.02 6.32 0 7 C-0.99 5.68 -1.98 4.36 -3 3 C-1.75 1.4375 -1.75 1.4375 0 0 Z " fill="#C87AA4" transform="translate(136,75)"/>
<path d="M0 0 C1.32 0.33 2.64 0.66 4 1 C3.625 2.9375 3.625 2.9375 3 5 C2.01 5.495 2.01 5.495 1 6 C1 5.34 1 4.68 1 4 C-0.98 4.66 -2.96 5.32 -5 6 C-3.35 4.02 -1.7 2.04 0 0 Z " fill="#CC799B" transform="translate(72,74)"/>
<path d="M0 0 C1.32 0.66 2.64 1.32 4 2 C3.34 3.98 2.68 5.96 2 8 C1.67 7.34 1.34 6.68 1 6 C-0.65 6.33 -2.3 6.66 -4 7 C-2.68 4.69 -1.36 2.38 0 0 Z " fill="#E38D9B" transform="translate(136,60)"/>
<path d="M0 0 C0.33 0 0.66 0 1 0 C1 2.31 1 4.62 1 7 C1.99 7 2.98 7 4 7 C3.34 8.65 2.68 10.3 2 12 C1.67 11.34 1.34 10.68 1 10 C-1.02463255 9.34786708 -1.02463255 9.34786708 -3 9 C-2.34 8.01 -1.68 7.02 -1 6 C-0.60986284 4.0103005 -0.26797351 2.00980131 0 0 Z " fill="#E99DA4" transform="translate(128,51)"/>
<path d="M0 0 C0.639375 0.33 1.27875 0.66 1.9375 1 C3.76794567 2.07271225 3.76794567 2.07271225 5 2 C5 3.98 5 5.96 5 8 C4.67 7.34 4.34 6.68 4 6 C3.34 6 2.68 6 2 6 C2 7.98 2 9.96 2 12 C-0.60018816 8.09971775 -0.15085514 4.52565431 0 0 Z " fill="#E89FA2" transform="translate(44,48)"/>
<path d="M0 0 C1.32 0.33 2.64 0.66 4 1 C4.6875 3.3125 4.6875 3.3125 5 6 C3.9375 7.8125 3.9375 7.8125 2 9 C-1.1875 9.1875 -1.1875 9.1875 -4 9 C-3.34 8.34 -2.68 7.68 -2 7 C-0.68 7 0.64 7 2 7 C2.33 5.35 2.66 3.7 3 2 C2.01 1.67 1.02 1.34 0 1 C0 0.67 0 0.34 0 0 Z " fill="#D4656F" transform="translate(82,48)"/>
<path d="M0 0 C0 0.66 0 1.32 0 2 C-0.66 2 -1.32 2 -2 2 C-2.061875 2.78375 -2.12375 3.5675 -2.1875 4.375 C-3 7 -3 7 -5.375 8.3125 C-8 9 -8 9 -11 9 C-9.54782324 7.49403892 -8.08807139 5.99537896 -6.625 4.5 C-5.40683594 3.24703125 -5.40683594 3.24703125 -4.1640625 1.96875 C-2 0 -2 0 0 0 Z " fill="#EEABAD" transform="translate(103,45)"/>
<path d="M0 0 C4.4571874 0.26218749 6.51522698 0.57711289 9.9375 3.5625 C10.618125 4.366875 11.29875 5.17125 12 6 C9.61435923 5.42415568 7.33317216 4.77772405 5 4 C5 3.34 5 2.68 5 2 C3.02 2 1.04 2 -1 2 C-0.67 1.34 -0.34 0.68 0 0 Z " fill="#D17274" transform="translate(115,40)"/>
<path d="M0 0 C0.86044922 0.54720703 0.86044922 0.54720703 1.73828125 1.10546875 C-2.09497492 3.81129663 -4.58710024 4.43160493 -9.26171875 4.10546875 C-9.26171875 5.09546875 -9.26171875 6.08546875 -9.26171875 7.10546875 C-9.92171875 6.77546875 -10.58171875 6.44546875 -11.26171875 6.10546875 C-10.10260836 2.62813758 -9.57910334 2.38984864 -6.44921875 0.79296875 C-5.76214844 0.42558594 -5.07507812 0.05820312 -4.3671875 -0.3203125 C-2.26171875 -0.89453125 -2.26171875 -0.89453125 0 0 Z " fill="#E7AD8C" transform="translate(51.26171875,18.89453125)"/>
<path d="M0 0 C0 0.99 0 1.98 0 3 C-3.3 3.33 -6.6 3.66 -10 4 C-10 3.34 -10 2.68 -10 2 C-6.5980513 -0.09350689 -3.94727588 -0.17942163 0 0 Z " fill="#87C2C7" transform="translate(108,119)"/>
<path d="M0 0 C0 2.62113708 -0.31292445 4.50935112 -1 7 C-2.32 7.33 -3.64 7.66 -5 8 C-5 6 -5 6 -4 5 C-5.32 4.67 -6.64 4.34 -8 4 C-5.36 2.68 -2.72 1.36 0 0 Z " fill="#83ABC0" transform="translate(105,107)"/>
<path d="M0 0 C0.33 0.66 0.66 1.32 1 2 C1.66 2 2.32 2 3 2 C3 2.99 3 3.98 3 5 C2.34 5 1.68 5 1 5 C0.67 5.66 0.34 6.32 0 7 C0 6.34 0 5.68 0 5 C-1.98 5.66 -3.96 6.32 -6 7 C-4.02 4.69 -2.04 2.38 0 0 Z " fill="#B069A4" transform="translate(91,81)"/>
<path d="M0 0 C0.99 0 1.98 0 3 0 C2.690625 0.5775 2.38125 1.155 2.0625 1.75 C1.07416636 3.84294184 0.4831387 5.74535275 0 8 C-1.65 8 -3.3 8 -5 8 C-4.24266726 6.6589523 -3.46867264 5.32730219 -2.6875 4 C-2.25824219 3.2575 -1.82898438 2.515 -1.38671875 1.75 C-0.70029297 0.88375 -0.70029297 0.88375 0 0 Z " fill="#B4548E" transform="translate(83,76)"/>
<path d="M0 0 C3.85630673 0.53559816 6.02085954 1.51738295 9 4 C9.99 4.66 10.98 5.32 12 6 C6.73628638 6.50130606 4.0909066 5.31168629 0 2 C0 1.34 0 0.68 0 0 Z " fill="#DD988A" transform="translate(83,26)"/>
<path d="M0 0 C4.8 2.46153846 4.8 2.46153846 5.8125 5.1875 C5.874375 5.785625 5.93625 6.38375 6 7 C3.03 6.505 3.03 6.505 0 6 C-1.125 2.25 -1.125 2.25 0 0 Z " fill="#82B9C4" transform="translate(77,114)"/>
<path d="M0 0 C2.1875 0.3125 2.1875 0.3125 4 1 C3.6875 2.875 3.6875 2.875 3 5 C2.01 5.66 1.02 6.32 0 7 C-0.33 6.01 -0.66 5.02 -1 4 C-1.66 3.67 -2.32 3.34 -3 3 C-1.75 1.4375 -1.75 1.4375 0 0 Z " fill="#9EA0C2" transform="translate(100,97)"/>
<path d="M0 0 C0.99 0.33 1.98 0.66 3 1 C-0.465 3.97 -0.465 3.97 -4 7 C-4 6.34 -4 5.68 -4 5 C-5.32 4.34 -6.64 3.68 -8 3 C-4.86650268 1.95550089 -4.01031744 2.06576355 -1 3 C-0.67 2.01 -0.34 1.02 0 0 Z " fill="#B97EB4" transform="translate(67,83)"/>
<path d="M0 0 C2.375 0.3125 2.375 0.3125 5 1 C5.66 1.99 6.32 2.98 7 4 C5.02 4.99 5.02 4.99 3 6 C1.5 4.6875 1.5 4.6875 0 3 C0 2.01 0 1.02 0 0 Z " fill="#B9639A" transform="translate(37,79)"/>
<path d="M0 0 C0 3 0 3 -2 6 C-1.34 6 -0.68 6 0 6 C-1.75 9.875 -1.75 9.875 -4 11 C-4 9.68 -4 8.36 -4 7 C-4.66 6.67 -5.32 6.34 -6 6 C-4.02 4.02 -2.04 2.04 0 0 Z " fill="#D68CA6" transform="translate(105,67)"/>
<path d="M0 0 C1.625 1.625 1.625 1.625 3 4 C2.1875 7.25 2.1875 7.25 1 10 C-0.32 8.35 -1.64 6.7 -3 5 C-2.67 4.34 -2.34 3.68 -2 3 C-1.34 3.33 -0.68 3.66 0 4 C0 2.68 0 1.36 0 0 Z " fill="#E290A3" transform="translate(41,63)"/>
<path d="M0 0 C0 0.66 0 1.32 0 2 C-0.99 2.495 -0.99 2.495 -2 3 C-2.65213292 5.02463255 -2.65213292 5.02463255 -3 7 C-3.639375 7.12375 -4.27875 7.2475 -4.9375 7.375 C-5.9584375 7.684375 -5.9584375 7.684375 -7 8 C-7.33 8.66 -7.66 9.32 -8 10 C-8.66 10 -9.32 10 -10 10 C-8.50006099 6.10015857 -4.53875449 0 0 0 Z " fill="#EDA9B0" transform="translate(113,48)"/>
<path d="M0 0 C0.66 0.99 1.32 1.98 2 3 C-2.43076923 6.07692308 -2.43076923 6.07692308 -5.3125 5.6875 C-5.869375 5.460625 -6.42625 5.23375 -7 5 C-4.63707344 2.47411298 -3.33537489 1.11179163 0 0 Z " fill="#E79E86" transform="translate(57,24)"/>
<path d="M0 0 C0.66 0.99 1.32 1.98 2 3 C0.25 6.875 0.25 6.875 -2 8 C-2 7.34 -2 6.68 -2 6 C-2.66 6 -3.32 6 -4 6 C-4 5.01 -4 4.02 -4 3 C-2 1.3125 -2 1.3125 0 0 Z " fill="#9C71AC" transform="translate(98,87)"/>
<path d="M0 0 C-1.28519565 2.86697492 -2.57129254 4.97607712 -5 7 C-5.66 7 -6.32 7 -7 7 C-6.22006468 2.47637516 -4.81844319 0 0 0 Z " fill="#C16094" transform="translate(99,76)"/>
<path d="M0 0 C1.32 0.33 2.64 0.66 4 1 C4 2.98 4 4.96 4 7 C3.01 7 2.02 7 1 7 C0.67 4.69 0.34 2.38 0 0 Z " fill="#D77088" transform="translate(30,67)"/>
<path d="M0 0 C0.99 0.33 1.98 0.66 3 1 C2.01 1.33 1.02 1.66 0 2 C0.33 3.32 0.66 4.64 1 6 C-0.32 6.33 -1.64 6.66 -3 7 C-3.33 5.68 -3.66 4.36 -4 3 C-2.1875 1.4375 -2.1875 1.4375 0 0 Z " fill="#DC7278" transform="translate(96,52)"/>
<path d="M0 0 C5.28 0.33 10.56 0.66 16 1 C16 1.33 16 1.66 16 2 C7.585 2.495 7.585 2.495 -1 3 C-0.67 2.01 -0.34 1.02 0 0 Z " fill="#EAB2A3" transform="translate(59,23)"/>
<path d="M0 0 C3.01962385 1.20784954 5.45378681 2.99940392 8 5 C5.36 5 2.72 5 0 5 C-0.66 3.68 -1.32 2.36 -2 1 C-1.34 0.67 -0.68 0.34 0 0 Z " fill="#B574AE" transform="translate(43,83)"/>
<path d="M0 0 C0.99 0.66 1.98 1.32 3 2 C3.66 2 4.32 2 5 2 C5 1.34 5 0.68 5 0 C5.66 0 6.32 0 7 0 C5.60667426 3.36720387 4.0210714 4.9859524 1 7 C1 5.68 1 4.36 1 3 C0.01 2.67 -0.98 2.34 -2 2 C-1.34 1.34 -0.68 0.68 0 0 Z " fill="#E19FAA" transform="translate(113,59)"/>
<path d="M0 0 C4.20626034 1.50223584 5.73900021 4.28550034 8 8 C7.67 8.66 7.34 9.32 7 10 C5.0625 9.3125 5.0625 9.3125 3 8 C2.375 5.4375 2.375 5.4375 2 3 C1.34 2.67 0.68 2.34 0 2 C0 1.34 0 0.68 0 0 Z " fill="#F4CCC1" transform="translate(140,28)"/>
<path d="M0 0 C6.52307692 0.49230769 6.52307692 0.49230769 8.9375 3.0625 C9.288125 3.701875 9.63875 4.34125 10 5 C9.01 5.495 9.01 5.495 8 6 C4.86049226 4.38999603 2.36595933 2.61500768 0 0 Z " fill="#F8C6A7" transform="translate(140,20)"/>
<path d="M0 0 C0 0.99 0 1.98 0 3 C-0.33 3.33 -0.66 3.66 -1 4 C-0.34 4.33 0.32 4.66 1 5 C-0.75 8.875 -0.75 8.875 -3 10 C-3.75 7.25 -3.75 7.25 -4 4 C-2.0625 1.625 -2.0625 1.625 0 0 Z " fill="#A6BCD0" transform="translate(121,102)"/>
<path d="M0 0 C0.66 0.33 1.32 0.66 2 1 C0.13605682 4.54149204 -1.10775626 6.74074467 -5 8 C-7.75 8.125 -7.75 8.125 -10 8 C-9.46375 7.79375 -8.9275 7.5875 -8.375 7.375 C-4.9982346 5.42003056 -2.69525161 2.81776305 0 0 Z " fill="#F1BFB1" transform="translate(102,32)"/>
<path d="M0 0 C0.53625 0.2475 1.0725 0.495 1.625 0.75 C0.965 0.75 0.305 0.75 -0.375 0.75 C-0.375 1.41 -0.375 2.07 -0.375 2.75 C-2.72938733 4.17944945 -3.85532433 4.83661261 -6.625 4.375 C-7.2025 4.16875 -7.78 3.9625 -8.375 3.75 C-2.95961538 -0.31153846 -2.95961538 -0.31153846 0 0 Z " fill="#DA8A84" transform="translate(110.375,33.25)"/>
<path d="M0 0 C1.32 0 2.64 0 4 0 C4 0.66 4 1.32 4 2 C3.01 2 2.02 2 1 2 C1 2.99 1 3.98 1 5 C2.32 5.33 3.64 5.66 5 6 C3.34385343 6.38218767 1.67542976 6.71395102 0 7 C-1 6 -1 6 -1.125 3.5 C-1 1 -1 1 0 0 Z " fill="#EBC3B5" transform="translate(59,29)"/>
<path d="M0 0 C0.66 0.33 1.32 0.66 2 1 C2 3.31 2 5.62 2 8 C1.34 8 0.68 8 0 8 C-1.625 6 -1.625 6 -3 4 C-2 2 -2 2 0 0 Z " fill="#9CC2CF" transform="translate(75,111)"/>
<path d="M0 0 C0.66 0 1.32 0 2 0 C1.40138258 2.35171131 0.73075648 4.6859378 0 7 C-0.99 7.495 -0.99 7.495 -2 8 C-2 7.34 -2 6.68 -2 6 C-2.66 5.67 -3.32 5.34 -4 5 C-2.71937515 3.2925002 -1.38232443 1.62626404 0 0 Z " fill="#BB6596" transform="translate(111,75)"/>
<path d="M0 0 C0.66 0 1.32 0 2 0 C3.35439668 2.70879335 3.06501451 5.00933268 3 8 C2.01 7.67 1.02 7.34 0 7 C0 4.69 0 2.38 0 0 Z " fill="#DD6D73" transform="translate(46,54)"/>
<path d="M0 0 C0.66 0 1.32 0 2 0 C1.67 2.31 1.34 4.62 1 7 C0.01 7 -0.98 7 -2 7 C-2 5.35 -2 3.7 -2 2 C-1.34 2 -0.68 2 0 2 C0 1.34 0 0.68 0 0 Z " fill="#726AA3" transform="translate(90,96)"/>
<path d="M0 0 C1.32 0 2.64 0 4 0 C3.67 1.65 3.34 3.3 3 5 C2.34 5 1.68 5 1 5 C1 4.34 1 3.68 1 3 C0.01 2.67 -0.98 2.34 -2 2 C-1.34 1.34 -0.68 0.68 0 0 Z " fill="#B068A4" transform="translate(103,82)"/>
<path d="M0 0 C0.33 0 0.66 0 1 0 C1 2.64 1 5.28 1 8 C-0.32 7.67 -1.64 7.34 -3 7 C-2.67 5.68 -2.34 4.36 -2 3 C-1.34 3 -0.68 3 0 3 C0 2.01 0 1.02 0 0 Z " fill="#DC7781" transform="translate(140,54)"/>
<path d="M0 0 C1 2 1 2 0.44140625 4.1640625 C0.15136719 4.97617187 -0.13867188 5.78828125 -0.4375 6.625 C-0.72496094 7.44226562 -1.01242188 8.25953125 -1.30859375 9.1015625 C-1.53675781 9.72804688 -1.76492187 10.35453125 -2 11 C-2.33 11 -2.66 11 -3 11 C-3.36923077 3.49230769 -3.36923077 3.49230769 -1.5 1 C-1.005 0.67 -0.51 0.34 0 0 Z " fill="#E19E97" transform="translate(42,40)"/>
<path d="M0 0 C2.97 0.495 2.97 0.495 6 1 C4.68 2.32 3.36 3.64 2 5 C1.01 4.67 0.02 4.34 -1 4 C-0.67 2.68 -0.34 1.36 0 0 Z " fill="#84AEC3" transform="translate(85,110)"/>
<path d="M0 0 C0.33 0 0.66 0 1 0 C1 1.65 1 3.3 1 5 C1.99 5 2.98 5 4 5 C4.33 3.68 4.66 2.36 5 1 C5.33 2.32 5.66 3.64 6 5 C4.68 5.99 3.36 6.98 2 8 C0 6 0 6 -0.125 2.875 C-0.08375 1.92625 -0.0425 0.9775 0 0 Z " fill="#B2B5D6" transform="translate(87,98)"/>
<path d="M0 0 C0.99 0 1.98 0 3 0 C2.67 1.65 2.34 3.3 2 5 C0.68 5 -0.64 5 -2 5 C-1.34 3.35 -0.68 1.7 0 0 Z " fill="#7685AF" transform="translate(110,101)"/>
<path d="M0 0 C0.99 0.33 1.98 0.66 3 1 C3 1.99 3 2.98 3 4 C1.02 4.99 1.02 4.99 -1 6 C-1.66 5.34 -2.32 4.68 -3 4 C-2.01 2.68 -1.02 1.36 0 0 Z " fill="#AC5991" transform="translate(133,79)"/>
<path d="M0 0 C0.66 0 1.32 0 2 0 C1.6875 2.375 1.6875 2.375 1 5 C0.01 5.66 -0.98 6.32 -2 7 C-2.125 4.625 -2.125 4.625 -2 2 C-1.34 1.34 -0.68 0.68 0 0 Z " fill="#BB6EA1" transform="translate(148,78)"/>
<path d="M0 0 C2.0625 0.4375 2.0625 0.4375 4 1 C3.625 2.9375 3.625 2.9375 3 5 C2.01 5.495 2.01 5.495 1 6 C0.34 4.35 -0.32 2.7 -1 1 C-0.67 0.67 -0.34 0.34 0 0 Z " fill="#C3759D" transform="translate(122,76)"/>
<path d="M0 0 C-1.75 3.875 -1.75 3.875 -4 5 C-4.66 4.67 -5.32 4.34 -6 4 C-6 3.01 -6 2.02 -6 1 C-3 0 -3 0 0 0 Z " fill="#CD6181" transform="translate(95,70)"/>
<path d="M0 0 C-1.39332574 3.36720387 -2.9789286 4.9859524 -6 7 C-6.33 6.01 -6.66 5.02 -7 4 C-2.25 0 -2.25 0 0 0 Z " fill="#D68088" transform="translate(103,50)"/>
<path d="M0 0 C1.32 0 2.64 0 4 0 C4.33 0.99 4.66 1.98 5 3 C2.69 3.33 0.38 3.66 -2 4 C-1.34 2.68 -0.68 1.36 0 0 Z " fill="#DF6266" transform="translate(68,47)"/>
<path d="M0 0 C2.1875 -0.4375 2.1875 -0.4375 5 0 C6.98441782 2.13995327 8.5023304 4.50175965 10 7 C6.42032008 5.34784004 3.22017048 3.26875648 0 1 C0 0.67 0 0.34 0 0 Z " fill="#F48F8B" transform="translate(120,40)"/>
<path d="M0 0 C1.9375 0.8125 1.9375 0.8125 4 2 C4.33 2.99 4.66 3.98 5 5 C7.01508358 5.73323796 7.01508358 5.73323796 9 6 C8.01 6.495 8.01 6.495 7 7 C3.34952803 5.26602582 1.44390925 3.80666984 0 0 Z " fill="#D68C89" transform="translate(86,39)"/>
<path d="M0 0 C2.29633824 3.44450737 2.54016485 5.93812283 3 10 C1.29115995 8.37660195 -0.37446717 6.70680947 -2 5 C-2 4.34 -2 3.68 -2 3 C-1.34 3 -0.68 3 0 3 C0 2.01 0 1.02 0 0 Z " fill="#F7BDB4" transform="translate(157,35)"/>
<path d="M0 0 C2.25 0.25 2.25 0.25 4 1 C3.67 1.66 3.34 2.32 3 3 C0.67843403 3.40729228 -1.6568787 3.74438677 -4 4 C-2.25 1.9375 -2.25 1.9375 0 0 Z " fill="#DE9B84" transform="translate(103,25)"/>
<path d="M0 0 C1.65 0 3.3 0 5 0 C5.33 0.66 5.66 1.32 6 2 C5.34 2.66 4.68 3.32 4 4 C1.875 3.625 1.875 3.625 0 3 C0 2.01 0 1.02 0 0 Z " fill="#DC798F" transform="translate(49,65)"/>
<path d="M0 0 C0 3 0 3 -1 6 C-4.0625 7.1875 -4.0625 7.1875 -7 8 C-6.02133662 6.85373678 -5.04205413 5.70800212 -4.0625 4.5625 C-3.51722656 3.92441406 -2.97195312 3.28632812 -2.41015625 2.62890625 C-1.63204305 1.73008851 -0.84063472 0.84063472 0 0 Z " fill="#EB949C" transform="translate(89,57)"/>
<path d="M0 0 C-0.33 0.99 -0.66 1.98 -1 3 C-1.66 2.67 -2.32 2.34 -3 2 C-3 2.66 -3 3.32 -3 4 C-3.99 4.33 -4.98 4.66 -6 5 C-6.33 4.01 -6.66 3.02 -7 2 C-4.35261084 0.5393715 -3.10551666 0 0 0 Z " fill="#DC6F7D" transform="translate(121,57)"/>
<path d="M0 0 C0.66 0.33 1.32 0.66 2 1 C0.625 3.5 0.625 3.5 -1 6 C-1.66 6 -2.32 6 -3 6 C-3 6.66 -3 7.32 -3 8 C-3.66 8 -4.32 8 -5 8 C-3.8141763 4.62496331 -2.72426311 2.35277269 0 0 Z " fill="#ECA9A1" transform="translate(60,39)"/>
<path d="M0 0 C1.98 0 3.96 0 6 0 C6 0.99 6 1.98 6 3 C3.69 2.67 1.38 2.34 -1 2 C-0.67 1.34 -0.34 0.68 0 0 Z " fill="#EDBA92" transform="translate(59,13)"/>
<path d="M0 0 C3.63 0.33 7.26 0.66 11 1 C11 1.33 11 1.66 11 2 C7.37 2.33 3.74 2.66 0 3 C0 2.01 0 1.02 0 0 Z " fill="#7ABEBD" transform="translate(85,121)"/>
<path d="M0 0 C0.66 0.33 1.32 0.66 2 1 C2 2.32 2 3.64 2 5 C0.68 5 -0.64 5 -2 5 C-2 3.68 -2 2.36 -2 1 C-1.34 0.67 -0.68 0.34 0 0 Z " fill="#9DADC3" transform="translate(71,103)"/>
<path d="M0 0 C0.33 1.98 0.66 3.96 1 6 C-0.65 5.67 -2.3 5.34 -4 5 C-4 4.01 -4 3.02 -4 2 C-1 0 -1 0 0 0 Z " fill="#809ABA" transform="translate(83,103)"/>
<path d="M0 0 C0.33 1.32 0.66 2.64 1 4 C0.01 4.495 0.01 4.495 -1 5 C-3.125 4.0625 -3.125 4.0625 -5 3 C-2.25 0 -2.25 0 0 0 Z " fill="#B7669E" transform="translate(122,78)"/>
<path d="M0 0 C1.32 0 2.64 0 4 0 C3.6875 1.9375 3.6875 1.9375 3 4 C2.01 4.33 1.02 4.66 0 5 C0 3.35 0 1.7 0 0 Z " fill="#D46C76" transform="translate(125,61)"/>
<path d="M0 0 C2.97851562 0.53710938 2.97851562 0.53710938 5.95703125 1.07421875 C5.95703125 1.40421875 5.95703125 1.73421875 5.95703125 2.07421875 C2.32703125 2.40421875 -1.30296875 2.73421875 -5.04296875 3.07421875 C-2.04296875 0.07421875 -2.04296875 0.07421875 0 0 Z " fill="#DA9192" transform="translate(114.04296875,40.92578125)"/>
<path d="M0 0 C3.63 0 7.26 0 11 0 C11.33 0.99 11.66 1.98 12 3 C6.06 2.01 6.06 2.01 0 1 C0 0.67 0 0.34 0 0 Z " fill="#EBB7BB" transform="translate(66,42)"/>
<path d="M0 0 C0.99 0 1.98 0 3 0 C3.33 1.98 3.66 3.96 4 6 C3.01 6 2.02 6 1 6 C0.67 4.02 0.34 2.04 0 0 Z " fill="#E68A86" transform="translate(77,40)"/>
<path d="M0 0 C1.65 1.32 3.3 2.64 5 4 C4.67 4.99 4.34 5.98 4 7 C3.34 7 2.68 7 2 7 C0.5393715 4.35261084 0 3.10551666 0 0 Z " fill="#E0908C" transform="translate(142,36)"/>
<path d="M0 0 C2.88575819 0.39803561 3.82189513 0.79009069 5.75 3.0625 C6.1625 3.701875 6.575 4.34125 7 5 C4.03824877 4.38722388 2.61941217 3.74627478 0 2 C0 1.34 0 0.68 0 0 Z " fill="#D68A85" transform="translate(127,35)"/>
<path d="M0 0 C1 3 1 3 0 6 C-2.0625 6.6875 -2.0625 6.6875 -4 7 C-2.92598892 4.08482708 -2.22189824 2.22189824 0 0 Z " fill="#F4CEB8" transform="translate(36,24)"/>
</svg>
