<?xml version="1.0" encoding="UTF-8"?>
<svg version="1.1" xmlns="http://www.w3.org/2000/svg" width="159" height="128">
<path d="M0 0 C5.0108794 0.29777767 9.59399759 0.64890595 14.25 2.625 C19.01807613 4.37329458 21.73925362 3.97649045 26.32421875 1.99609375 C36.17422254 -1.67069598 47.32795606 -0.13769167 56.8125 3.875 C66.44135767 8.58662964 71.28240418 14.37877418 75.375 24.25 C78.77278237 34.47189989 77.78532273 44.41458503 73 54 C70.43447647 58.09599586 67.72026187 61.52761741 64.296875 64.93359375 C63.39839844 65.83013672 62.49992187 66.72667969 61.57421875 67.65039062 C60.64222656 68.57013672 59.71023437 69.48988281 58.75 70.4375 C57.83347656 71.35337891 56.91695312 72.26925781 55.97265625 73.21289062 C51.33099994 77.82475028 46.62394202 82.28524951 41.65771484 86.54516602 C39.62085099 88.33274653 37.77664363 90.26129964 35.9375 92.25 C31.03790602 97.14959398 26.61590446 99.11076379 19.6875 99.5 C13.61872628 99.29159431 8.85588636 97.66945688 4 94 C0.7734827 90.43859468 -1.8866856 87.12315406 -2.1484375 82.21875 C-2.09945312 81.4865625 -2.05046875 80.754375 -2 80 C-0.68 80 0.64 80 2 80 C2.29132812 80.60328125 2.58265625 81.2065625 2.8828125 81.828125 C6.21262987 88.32022175 8.91881013 91.63960338 16 94 C22.20380245 94.51698354 25.88102289 93.74011753 31 90 C34.28877083 87.03227066 37.36266557 83.87467945 40.4375 80.6875 C46.10190405 74.86939305 51.80034811 69.24804032 58 64 C66.18165616 57.01235004 70.49738444 49.17848914 72.0625 38.4375 C72.45857358 30.59524314 69.41228796 22.74326405 64.61328125 16.5625 C56.41215483 8.61952042 46.80662821 6.56267453 35.76953125 6.66015625 C31.34222772 7.05930175 28.05938889 8.30775962 24.0703125 10.1640625 C21.01834071 11.39636809 19.0822112 11.02740373 16 10 C14.31009497 9.26664499 12.62055632 8.53188002 10.9453125 7.765625 C7.4198522 6.37809444 3.7106066 5.71519628 0 5 C0 3.35 0 1.7 0 0 Z " fill="#E7CE91" transform="translate(56,9)"/>
<path d="M0 0 C2 2 2 2 2.4375 5.3125 C1.8798014 10.01310252 0.4175212 10.82157311 -3 14 C-3.94855689 14.94925893 -4.89204141 15.90360921 -5.83081055 16.86254883 C-8.53205368 19.59911313 -11.23915716 22.3297917 -13.94848633 25.05834961 C-15.11496811 26.23498468 -16.27966271 27.413394 -17.44262695 28.59350586 C-19.12768058 30.30268913 -20.81899907 32.00544429 -22.51171875 33.70703125 C-23.03255539 34.23819046 -23.55339203 34.76934967 -24.0900116 35.31660461 C-25.35594144 36.58292938 -26.67373347 37.79701461 -28 39 C-28.66 39 -29.32 39 -30 39 C-32.22597431 43.32100896 -32.13071827 46.30317025 -31 51 C-29.26312218 53.89479637 -27.94847318 54.01335881 -24.625 54.875 C-19.82206324 55.04061851 -17.73417617 53.60258168 -14.23046875 50.36474609 C-12.18955868 48.35109617 -10.18359789 46.30806518 -8.1875 44.25 C-2.9833122 38.91134993 2.33158395 33.84404583 8 29 C15.16649985 22.79048344 18.96235305 17.02135351 22 8 C23.32 8 24.64 8 26 8 C25.82126797 9.50381436 25.60493637 11.00315931 25.375 12.5 C25.25898437 13.3353125 25.14296875 14.170625 25.0234375 15.03125 C22.01121525 23.76899394 14.03084735 30.2423647 7.625 36.5625 C6.7175 37.46935547 5.81 38.37621094 4.875 39.31054688 C0.2650805 43.89057496 -4.39779466 48.34446525 -9.34887695 52.55493164 C-10.92087438 53.930749 -12.36784535 55.36745318 -13.8125 56.875 C-16.82541477 59.80183149 -19.32502555 60.16706537 -23.375 60.25 C-28.79844335 60.17088981 -31.4306883 58.5693117 -35.25 54.75 C-37.43545768 51.31570936 -37.92983257 49.06971098 -38 45 C-35.92286316 38.25754786 -31.82476341 34.31832372 -26.8125 29.5 C-26.08224609 28.77941406 -25.35199219 28.05882813 -24.59960938 27.31640625 C-20.42803226 23.22981255 -16.13844279 19.31875139 -11.72094727 15.50048828 C-9.76495854 13.79506812 -7.89309284 12.0267074 -6.0625 10.1875 C-5.49660156 9.62417969 -4.93070313 9.06085937 -4.34765625 8.48046875 C-2.89834828 7.02284428 -2.89834828 7.02284428 -2 5 C-6.96912937 7.65741947 -6.96912937 7.65741947 -11.25 11.25 C-11.8275 11.8275 -12.405 12.405 -13 13 C-13.99 13 -14.98 13 -16 13 C-16.37162231 9.73544098 -16.31732134 8.41230188 -14.27734375 5.76171875 C-6.32228436 -1.29026211 -6.32228436 -1.29026211 0 0 Z " fill="#D2B78B" transform="translate(99,40)"/>
<path d="M0 0 C3.47411244 1.63448718 5.64962594 3.31451446 8.36328125 6.08984375 C9.47703125 7.17265625 9.47703125 7.17265625 10.61328125 8.27734375 C13.93976854 7.96821564 15.58899431 6.62086012 17.92578125 4.33984375 C22.26828344 0.47881302 26.29636296 -0.51202731 32.05078125 -1.03515625 C39.63433215 -0.36993249 45.52365468 2.56834463 50.61328125 8.27734375 C53.84471404 13.69781165 54.51754516 19.09820705 53.61328125 25.27734375 C51.78591642 31.10825788 49.65794964 34.9800367 45.24609375 39.2734375 C44.72949188 39.79245132 44.21289001 40.31146515 43.68063354 40.84620667 C42.59570358 41.9301647 41.50462859 43.00800457 40.40771484 44.07983398 C38.73349151 45.71953473 37.08482661 47.3821529 35.4375 49.04882812 C34.37512816 50.10430612 33.31137256 51.15839354 32.24609375 52.2109375 C31.75634064 52.70565048 31.26658752 53.20036346 30.76199341 53.71006775 C27.83318519 56.54028348 25.70504385 57.92806963 21.61328125 58.27734375 C21.61328125 54.27734375 21.61328125 54.27734375 24.17578125 51.2890625 C25.31098741 50.17010468 26.45750334 49.06253999 27.61328125 47.96484375 C28.20616943 47.38669922 28.79905762 46.80855469 29.40991211 46.21289062 C32.58513679 43.13839125 35.82345429 40.15894548 39.17578125 37.27734375 C44.83610642 32.36775644 47.42064654 28.59488842 48.546875 21.06640625 C48.65260984 16.62554291 47.43817869 13.66881667 44.61328125 10.27734375 C39.64103394 6.21836635 35.55021288 5.69622823 29.1953125 5.95703125 C24.23101448 6.57287457 21.4728375 8.4177875 17.98828125 11.90234375 C15.61328125 14.27734375 15.61328125 14.27734375 13.67578125 15.33984375 C9.40272563 15.21035722 6.23602327 11.80667446 3.11328125 9.15234375 C-3.43138744 4.24384223 -9.66098619 5.35225603 -17.38671875 6.27734375 C-17.71671875 4.62734375 -18.04671875 2.97734375 -18.38671875 1.27734375 C-12.94884848 -1.95948379 -5.96222926 -1.80525763 0 0 Z " fill="#DCC091" transform="translate(63.38671875,24.72265625)"/>
<path d="M0 0 C4.38253554 2.19126777 7.16669816 4.41674539 9 9 C9.9728565 15.48571003 8.84270541 18.63455676 5 24 C3.47752405 25.68649323 1.90754456 27.33111567 0.296875 28.93359375 C-0.60160156 29.83013672 -1.50007813 30.72667969 -2.42578125 31.65039062 C-3.82376953 33.03000977 -3.82376953 33.03000977 -5.25 34.4375 C-6.16652344 35.35337891 -7.08304688 36.26925781 -8.02734375 37.21289062 C-12.70834208 41.86383975 -17.42501898 46.36260134 -22.53027344 50.54711914 C-24.2658989 52.04376088 -24.2658989 52.04376088 -25 55 C-22.53199953 53.84826645 -20.95216435 52.95216435 -19 51 C-18.01 51 -17.02 51 -16 51 C-16.33533277 54.01799494 -16.86565598 55.80881813 -18.625 58.3125 C-21.91111739 60.64737288 -24.0581042 60.50169583 -28 60 C-29.9375 58.8125 -29.9375 58.8125 -31 57 C-31.45744639 53.70014808 -31.30847831 52.41380162 -29.29101562 49.70751953 C-28.50404297 48.94036621 -27.71707031 48.17321289 -26.90625 47.3828125 C-26.04 46.52816406 -25.17375 45.67351562 -24.28125 44.79296875 C-23.3634375 43.91253906 -22.445625 43.03210938 -21.5 42.125 C-20.1696875 40.81595703 -20.1696875 40.81595703 -18.8125 39.48046875 C-14.2388122 35.00767113 -9.58703881 30.66523346 -4.71655273 26.51708984 C-0.55007681 22.83475712 2.4841383 19.69088001 4.125 14.3125 C4.2773642 10.9992746 4.2773642 10.9992746 2.5 8.625 C-0.77804972 6.49426768 -3.0987084 6.06844371 -7 6 C-12.06783003 8.36972087 -15.87571403 12.43012126 -19.875 16.25 C-20.55691406 16.89324219 -21.23882812 17.53648438 -21.94140625 18.19921875 C-26.0093474 22.04630913 -26.0093474 22.04630913 -29.92675781 26.04492188 C-30.53100586 26.68494141 -31.13525391 27.32496094 -31.7578125 27.984375 C-32.28777832 28.56413086 -32.81774414 29.14388672 -33.36376953 29.74121094 C-35 31 -35 31 -39 31 C-38.68911037 25.60456062 -35.64093292 23.13865834 -31.9375 19.625 C-31.34767334 19.05136719 -30.75784668 18.47773437 -30.15014648 17.88671875 C-25.89465764 13.77515784 -21.54557012 9.78970083 -17 6 C-16.13568359 5.26136719 -16.13568359 5.26136719 -15.25390625 4.5078125 C-10.07669484 0.11276972 -6.73513165 -0.81637959 0 0 Z " fill="#CEAB73" transform="translate(100,32)"/>
<path d="M0 0 C-0.33 1.65 -0.66 3.3 -1 5 C-1.61746094 5.14695312 -2.23492187 5.29390625 -2.87109375 5.4453125 C-12.01817116 7.86782615 -19.61084404 11.993254 -25 20 C-29.53031831 28.1813972 -30.40516004 36.56976432 -28.41015625 45.69921875 C-26.0442278 52.64436357 -20.70284477 60.64857762 -14 64 C-10.38893203 64.57777087 -7.99354634 64.67346531 -4.90234375 62.578125 C-2.00386728 60.0426353 0.66296842 57.35524951 3.3125 54.5625 C5 53 5 53 8 53 C8.38686869 56.31769208 8.27691212 57.62955312 6.2421875 60.3515625 C-3.3159032 69.53111495 -3.3159032 69.53111495 -10.4375 70.4375 C-18.06662343 69.5005901 -22.33332525 65.15454024 -27.13671875 59.51171875 C-33.60306018 50.79503628 -35.73527662 42.70235966 -35 32 C-33.32600789 20.84951019 -28.84867799 12.68743815 -20.1484375 5.50390625 C-14.42686282 1.49880398 -6.99355484 -2.33118495 0 0 Z " fill="#D9BE90" transform="translate(52,10)"/>
<path d="M0 0 C2.52549554 2.24298248 3.9174728 3.62647937 4.98828125 6.84375 C5.125 9.25 5.125 9.25 3.4375 12 C1.09164384 14.28245464 0.29947288 14.98298826 -2.875 15.25 C-4.796875 14.03515625 -4.796875 14.03515625 -6.625 12.3125 C-7.23859375 11.74660156 -7.8521875 11.18070313 -8.484375 10.59765625 C-8.94328125 10.15292969 -9.4021875 9.70820312 -9.875 9.25 C-10.865 9.745 -10.865 9.745 -11.875 10.25 C-10.6684375 11.3328125 -10.6684375 11.3328125 -9.4375 12.4375 C-5.78004451 16.45178042 -5.78004451 16.45178042 -5.875 20.25 C-7.7401459 23.60726262 -8.91671514 24.96687038 -12.625 26.0625 C-17.68126388 24.79843403 -20.67231012 21.24762961 -23.875 17.25 C-25.551194 12.22141801 -25.48142735 7.90969589 -23.6875 3 C-21.21609136 -0.74972345 -18.78894425 -3.0952296 -14.5 -4.5625 C-8.23774054 -5.00980425 -4.80635182 -4.05106796 0 0 Z M-19.875 6.25 C-21.11184105 8.68099674 -21.11184105 8.68099674 -20.875 11.25 C-19.1696915 14.92987623 -16.82664119 17.50192027 -13.875 20.25 C-12.885 19.92 -11.895 19.59 -10.875 19.25 C-11.7 18.404375 -12.525 17.55875 -13.375 16.6875 C-15.61180773 14.01222712 -15.88439115 13.17956637 -16.375 9.5 C-16.21 8.4275 -16.045 7.355 -15.875 6.25 C-12.875 4.25 -12.875 4.25 -9.9375 4.375 C-6.50617696 5.35537801 -5.13899153 6.55062548 -2.875 9.25 C-1.885 8.92 -0.895 8.59 0.125 8.25 C-0.65875 7.280625 -1.4425 6.31125 -2.25 5.3125 C-2.69085938 4.76722656 -3.13171875 4.22195312 -3.5859375 3.66015625 C-5.68395435 1.36505296 -6.98620175 1.23716903 -10.125 0.875 C-15.13894466 1.37639447 -16.4647703 2.59618247 -19.875 6.25 Z " fill="#D6BB8C" transform="translate(65.875,35.75)"/>
<path d="M0 0 C0.928125 0.5775 1.85625 1.155 2.8125 1.75 C4.90596942 3.19778352 4.90596942 3.19778352 7.25 2.9375 C9.72323799 2.09435069 11.90539571 1.0772382 14.25 -0.0625 C19.04396036 -2.29431012 22.76102481 -2.33263335 28 -2 C28 -0.35 28 1.3 28 3 C27.2265625 3.17015625 26.453125 3.3403125 25.65625 3.515625 C20.6725556 4.67519746 16.06234747 5.76256032 11.5625 8.25 C8 10 8 10 5.4375 10 C2.09751868 8.62975125 -0.87800248 6.81643492 -4 5 C-11.51990628 2.59673098 -19.59789003 3.38808976 -26.7109375 6.6171875 C-34.13517218 11.10213473 -37.36517959 18.01371204 -40 26 C-40.99 25.67 -41.98 25.34 -43 25 C-43.72650601 18.31614467 -41.66954126 13.56696259 -38 8 C-28.05275108 -3.83767632 -13.73485606 -5.38290492 0 0 Z " fill="#CAA968" transform="translate(69,19)"/>
<path d="M0 0 C5.0108794 0.29777767 9.59399759 0.64890595 14.25 2.625 C19.01807613 4.37329458 21.73925362 3.97649045 26.32421875 1.99609375 C36.17422254 -1.67069598 47.32795606 -0.13769167 56.8125 3.875 C65.86718868 8.30567507 70.63926516 13.74713197 74.9375 22.8125 C75.95866516 25.87599549 76.27887764 27.09345991 75 30 C74.71125 29.195625 74.4225 28.39125 74.125 27.5625 C73.26737432 24.8673532 73.26737432 24.8673532 71 24 C70.67 24.66 70.34 25.32 70 26 C69.67128906 25.34773438 69.34257813 24.69546875 69.00390625 24.0234375 C65.36195034 17.33171363 61.74481724 13.52358556 55 10 C54.39671875 9.66097656 53.7934375 9.32195313 53.171875 8.97265625 C46.0361569 5.6064588 36.42987977 5.6065909 29.01953125 7.9375 C27.36110995 8.66007993 25.71042705 9.40084088 24.0703125 10.1640625 C21.01834071 11.39636809 19.0822112 11.02740373 16 10 C14.31009497 9.26664499 12.62055632 8.53188002 10.9453125 7.765625 C7.4198522 6.37809444 3.7106066 5.71519628 0 5 C0 3.35 0 1.7 0 0 Z " fill="#FBECB5" transform="translate(56,9)"/>
<path d="M0 0 C1.32 0 2.64 0 4 0 C4.57507816 4.88816433 2.6671896 7.03962756 0 11 C-1.4593242 15.89915982 -1.01928153 19.31526686 1 24 C2.33379993 25.37454739 3.71322688 26.70566641 5.125 28 C8.91798021 31.54516299 8.91798021 31.54516299 9.6875 35.8125 C9 39 9 39 7.875 40.9375 C5.10793349 42.50550436 3.14080181 42.31330658 0 42 C-6.54119205 37.42751624 -11.87957946 30.63107907 -13.453125 22.72265625 C-13.70682003 20.82328161 -13.86347338 18.91137272 -14 17 C-12.68 16.67 -11.36 16.34 -10 16 C-9.76925781 16.79664062 -9.53851562 17.59328125 -9.30078125 18.4140625 C-7.37378838 24.67488518 -5.72596012 29.39840725 -1 34 C-0.34 34.33 0.32 34.66 1 35 C1 35.66 1 36.32 1 37 C1.99 37 2.98 37 4 37 C2.35001597 34.04739701 0.64338157 31.58249549 -1.5625 29 C-5.64878009 23.9707322 -6.442642 20.01540444 -6.328125 13.640625 C-5.68841907 8.49251535 -3.67907322 3.67907322 0 0 Z " fill="#BA955B" transform="translate(39,30)"/>
<path d="M0 0 C3.47411244 1.63448718 5.64962594 3.31451446 8.36328125 6.08984375 C9.47703125 7.17265625 9.47703125 7.17265625 10.61328125 8.27734375 C13.93976854 7.96821564 15.58899431 6.62086012 17.92578125 4.33984375 C22.26828344 0.47881302 26.29636296 -0.51202731 32.05078125 -1.03515625 C39.94172354 -0.34296833 44.98651031 2.84399306 50.61328125 8.27734375 C50.28328125 8.93734375 49.95328125 9.59734375 49.61328125 10.27734375 C48.85402344 9.85582031 48.09476562 9.43429688 47.3125 9 C46.31863281 8.45214844 45.32476562 7.90429688 44.30078125 7.33984375 C43.31464844 6.79457031 42.32851562 6.24929687 41.3125 5.6875 C36.87034567 3.36677972 33.60274968 2.94471252 28.61328125 3.27734375 C24.90949356 4.63539924 21.89279642 6.0910003 18.61328125 8.27734375 C18.61328125 9.26734375 18.61328125 10.25734375 18.61328125 11.27734375 C17.1778085 13.14345832 15.88831985 14.1350824 13.80078125 15.21484375 C9.44767356 15.33921826 6.27728056 11.84174317 3.11328125 9.15234375 C-3.43138744 4.24384223 -9.66098619 5.35225603 -17.38671875 6.27734375 C-17.71671875 4.62734375 -18.04671875 2.97734375 -18.38671875 1.27734375 C-12.94884848 -1.95948379 -5.96222926 -1.80525763 0 0 Z " fill="#F0E0A2" transform="translate(63.38671875,24.72265625)"/>
<path d="M0 0 C2 2 2 2 2.4375 5.3125 C1.88009986 10.01058688 0.4109784 10.82045879 -3 14 C-4.40926463 15.44967142 -5.81840685 16.89946695 -7.22422791 18.35247803 C-9.38301666 20.57869037 -11.55564916 22.7911945 -13.72875977 25.00341797 C-14.87063268 26.17057883 -16.00799781 27.34216642 -17.14086914 28.51806641 C-18.78918157 30.22712745 -20.45321929 31.91942645 -22.12109375 33.609375 C-22.62128525 34.13537292 -23.12147675 34.66137085 -23.63682556 35.20330811 C-26.94037287 38.50943349 -29.33150293 39.71078957 -34 40 C-29.9600846 35.08658938 -25.63726076 30.59594027 -21.10913086 26.12866211 C-17.7827086 22.82943595 -14.66916307 19.41597404 -11.6328125 15.8515625 C-9.3410998 13.25282609 -6.87619916 10.84925031 -4.3828125 8.4453125 C-2.89145515 7.02890223 -2.89145515 7.02890223 -2 5 C-6.96912937 7.65741947 -6.96912937 7.65741947 -11.25 11.25 C-11.8275 11.8275 -12.405 12.405 -13 13 C-13.99 13 -14.98 13 -16 13 C-16.37162231 9.73544098 -16.31732134 8.41230188 -14.27734375 5.76171875 C-6.32228436 -1.29026211 -6.32228436 -1.29026211 0 0 Z " fill="#CFB381" transform="translate(99,40)"/>
<path d="M0 0 C1.15628906 -0.03867187 1.15628906 -0.03867187 2.3359375 -0.078125 C4.625 0.25 4.625 0.25 8.625 3.25 C2.685 3.745 2.685 3.745 -3.375 4.25 C-3.045 4.91 -2.715 5.57 -2.375 6.25 C-3.03757812 6.59546875 -3.70015625 6.9409375 -4.3828125 7.296875 C-8.43368595 9.94104827 -11.75942426 13.16601084 -15.25 16.5 C-15.93191406 17.14324219 -16.61382812 17.78648438 -17.31640625 18.44921875 C-21.3843474 22.29630913 -21.3843474 22.29630913 -25.30175781 26.29492188 C-25.90600586 26.93494141 -26.51025391 27.57496094 -27.1328125 28.234375 C-27.66277832 28.81413086 -28.19274414 29.39388672 -28.73876953 29.99121094 C-30.375 31.25 -30.375 31.25 -34.375 31.25 C-34.06411037 25.85456062 -31.01593292 23.38865834 -27.3125 19.875 C-26.72267334 19.30136719 -26.13284668 18.72773437 -25.52514648 18.13671875 C-21.26965764 14.02515784 -16.92057012 10.03970083 -12.375 6.25 C-11.51068359 5.51136719 -11.51068359 5.51136719 -10.62890625 4.7578125 C-6.91469797 1.6047436 -4.86534764 0.09698367 0 0 Z " fill="#D5B986" transform="translate(95.375,31.75)"/>
<path d="M0 0 C-0.33 1.65 -0.66 3.3 -1 5 C-1.92619141 5.22042969 -1.92619141 5.22042969 -2.87109375 5.4453125 C-12.30730783 7.94440116 -19.13960945 12.18614594 -25 20 C-25.66 20.66 -26.32 21.32 -27 22 C-28.32 22 -29.64 22 -31 22 C-31.33 24.31 -31.66 26.62 -32 29 C-32.66 29 -33.32 29 -34 29 C-32.40388267 18.94446083 -28.00309061 11.9892616 -20.1484375 5.50390625 C-14.42686282 1.49880398 -6.99355484 -2.33118495 0 0 Z " fill="#D5BB7B" transform="translate(52,10)"/>
<path d="M0 0 C6.2282441 5.24952003 6.2282441 5.24952003 7.44921875 8.91796875 C7.5859375 11.32421875 7.5859375 11.32421875 5.8984375 14.07421875 C3.55258134 16.35667339 2.76041038 17.05720701 -0.4140625 17.32421875 C-2.3359375 16.109375 -2.3359375 16.109375 -4.1640625 14.38671875 C-4.77765625 13.82082031 -5.39125 13.25492188 -6.0234375 12.671875 C-6.48234375 12.22714844 -6.94125 11.78242187 -7.4140625 11.32421875 C-7.0840625 10.66421875 -6.7540625 10.00421875 -6.4140625 9.32421875 C-8.3940625 9.32421875 -10.3740625 9.32421875 -12.4140625 9.32421875 C-12.4140625 11.63421875 -12.4140625 13.94421875 -12.4140625 16.32421875 C-13.0740625 15.99421875 -13.7340625 15.66421875 -14.4140625 15.32421875 C-14.89746223 8.91917227 -14.89746223 8.91917227 -12.7890625 6.32421875 C-9.52706048 4.95074422 -7.77190932 5.27489162 -4.4140625 6.32421875 C-2.0390625 8.38671875 -2.0390625 8.38671875 -0.4140625 10.32421875 C0.2459375 9.99421875 0.9059375 9.66421875 1.5859375 9.32421875 C0.1009375 8.14859375 0.1009375 8.14859375 -1.4140625 6.94921875 C-2.4040625 6.08296875 -3.3940625 5.21671875 -4.4140625 4.32421875 C-4.4140625 3.66421875 -4.4140625 3.00421875 -4.4140625 2.32421875 C-6.33002218 2.24288084 -8.24698182 2.18487508 -10.1640625 2.13671875 C-11.23140625 2.10191406 -12.29875 2.06710938 -13.3984375 2.03125 C-16.71434105 2.35339089 -18.00422923 3.09570789 -20.4140625 5.32421875 C-19.01770632 1.94969131 -17.5534272 0.20783757 -14.4140625 -1.67578125 C-9.23942535 -3.35404195 -4.54642547 -3.1560138 0 0 Z " fill="#DCBC73" transform="translate(63.4140625,33.67578125)"/>
<path d="M0 0 C0.99 0.33 1.98 0.66 3 1 C2.48139985 5.10945103 0.39212553 6.88981337 -2.55078125 9.66796875 C-3.47697266 10.56193359 -4.40316406 11.45589844 -5.35742188 12.37695312 C-6.82741267 13.77909443 -8.30117542 15.17684944 -9.78100586 16.56860352 C-15.73743625 22.19439942 -20.50736866 27.06867865 -23 35 C-23.99 34.67 -24.98 34.34 -26 34 C-26.75267355 27.97861158 -24.46550228 24.6530245 -21 20 C-18.09120238 16.73483225 -15.00622912 13.67581232 -11.875 10.625 C-11.06417969 9.81933594 -10.25335938 9.01367188 -9.41796875 8.18359375 C-3.46705572 2.31137048 -3.46705572 2.31137048 0 0 Z " fill="#CEB181" transform="translate(80,52)"/>
<path d="M0 0 C0.928125 0.5775 1.85625 1.155 2.8125 1.75 C4.90596942 3.19778352 4.90596942 3.19778352 7.25 2.9375 C9.72323799 2.09435069 11.90539571 1.0772382 14.25 -0.0625 C19.04396036 -2.29431012 22.76102481 -2.33263335 28 -2 C28 -1.34 28 -0.68 28 0 C21.565 0.495 21.565 0.495 15 1 C14.67 1.99 14.34 2.98 14 4 C11.07343331 6.41011375 9.50593882 7.00954602 5.6875 6.9375 C2.01481869 6.00376746 -0.84169915 4.67852689 -4.1640625 2.921875 C-9.27738209 0.3543358 -15.48572366 0.19478717 -21.01171875 1.4609375 C-26.47109926 3.28430623 -33.33870222 6.67740444 -36 12 C-38.0625 12.625 -38.0625 12.625 -40 13 C-38.6335286 7.36330548 -34.60526517 4.15490568 -30 1 C-19.63502824 -4.21297109 -10.69097517 -4.18996039 0 0 Z " fill="#F8EAAF" transform="translate(69,19)"/>
<path d="M0 0 C0.99 0.33 1.98 0.66 3 1 C3.33 2.65 3.66 4.3 4 6 C4.66 6 5.32 6 6 6 C6.70316485 18.28585258 4.72500213 28.10138254 -3.41015625 37.65625 C-6.37491829 40.87123492 -8.43137923 42.7312576 -13 43 C-12.43257564 39.53572495 -11.41358576 38.22351507 -8.75 36 C-2.05825877 29.55610103 0.5302859 20.72231898 1.01953125 11.625 C0.99018168 7.68041781 0.575716 3.90207511 0 0 Z " fill="#C7AC79" transform="translate(127,33)"/>
<path d="M0 0 C4.61203065 0.30328546 8.36301379 0.71445446 12.625 2.625 C16.73653768 4.30007091 18.71902726 4.05146699 23 3 C24.19625 2.484375 25.3925 1.96875 26.625 1.4375 C35.3269873 -1.95593906 44.75007523 -0.45907472 53.2734375 2.734375 C59.76912684 5.74956604 64.94151584 10.10865203 69 16 C68.505 17.485 68.505 17.485 68 19 C65.88812967 16.88812967 63.80815266 14.78622725 61.8125 12.5625 C53.608541 5.0877818 45.67029143 3.5473806 34.83984375 3.6953125 C30.35484792 4.05119213 27.10286298 5.28752911 23.0703125 7.1640625 C20.01834071 8.39636809 18.0822112 8.02740373 15 7 C13.865625 6.505 12.73125 6.01 11.5625 5.5 C7.96802217 3.98653565 4.86253963 3.3941367 1 3 C0.67 2.01 0.34 1.02 0 0 Z " fill="#C4A56A" transform="translate(57,12)"/>
<path d="M0 0 C7.61503863 0.3108179 13.14292334 3.74772781 18.3125 9.25 C22.19554469 14.11971998 24.2341903 19.3302306 23.6875 25.5625 C23.460625 26.366875 23.23375 27.17125 23 28 C22.01 28 21.02 28 20 28 C19.63648438 26.78763672 19.63648438 26.78763672 19.265625 25.55078125 C18.93046875 24.48214844 18.5953125 23.41351563 18.25 22.3125 C17.92515625 21.25675781 17.6003125 20.20101562 17.265625 19.11328125 C14.24112462 11.67338371 9.6379981 9.60739699 2.58203125 6.52734375 C0 5 0 5 -0.92578125 2.87890625 C-0.95027344 2.25886719 -0.97476563 1.63882812 -1 1 C-0.67 0.67 -0.34 0.34 0 0 Z " fill="#F3E2A4" transform="translate(101,18)"/>
<path d="M0 0 C1.32 0 2.64 0 4 0 C4.57507816 4.88816433 2.6671896 7.03962756 0 11 C-1.4593242 15.89915982 -1.01928153 19.31526686 1 24 C3.48391292 26.87850602 6.16913603 29.46538924 9 32 C8.67 32.66 8.34 33.32 8 34 C5.69 32.02 3.38 30.04 1 28 C1.33 29.32 1.66 30.64 2 32 C-2.34051936 29.06721665 -4.74072787 26.07583536 -6 21 C-6.96676942 13.87891794 -5.64678755 8.17558183 -2 2 C-1.34 1.34 -0.68 0.68 0 0 Z " fill="#E5D0A3" transform="translate(39,30)"/>
<path d="M0 0 C4.38458986 -0.34215008 8.62379187 -0.50307461 13 0 C16.05222565 2.64526223 16.71747006 4.25824951 17.35546875 8.19140625 C17.69529099 13.61937771 16.62961404 16.81198379 13 21 C10.74295443 23.1023872 8.4175303 25.08499004 6 27 C5.34 26.34 4.68 25.68 4 25 C4.94875 24.236875 5.8975 23.47375 6.875 22.6875 C11.00120374 18.57112055 11.99104768 13.72053541 12 8 C10.87905095 5.21170841 10.87905095 5.21170841 8 4 C5.0255857 3.12757317 2.05838232 2.49666038 -1 2 C-0.67 1.34 -0.34 0.68 0 0 Z " fill="#D8B573" transform="translate(92,35)"/>
<path d="M0 0 C-0.6967358 6.01630042 -6.48968503 10.00808563 -10.57250977 14.07348633 C-12.17867733 15.67868267 -13.76235241 17.30397284 -15.34570312 18.93164062 C-16.36848716 19.95963288 -17.39253596 20.98636864 -18.41796875 22.01171875 C-19.34375732 22.94459717 -20.2695459 23.87747559 -21.22338867 24.83862305 C-24.27044682 27.21052191 -26.19338615 27.72972656 -30 28 C-25.9452779 23.06858123 -21.59082915 18.54006642 -17.04321289 14.06713867 C-14.42655939 11.47825995 -11.9548781 8.84897012 -9.625 6 C-6.91145352 2.89880402 -4.3387147 0 0 0 Z " fill="#BD9961" transform="translate(95,52)"/>
<path d="M0 0 C0.33 0.66 0.66 1.32 1 2 C2.32 1.67 3.64 1.34 5 1 C-10.71428571 19.85714286 -10.71428571 19.85714286 -19 24 C-19.66 23.34 -20.32 22.68 -21 22 C-20.236875 21.278125 -19.47375 20.55625 -18.6875 19.8125 C-16.01203612 17.25513708 -16.01203612 17.25513708 -14.75 14.71875 C-12.42550585 11.10748231 -9.50198847 8.53143176 -6.3125 5.6875 C-5.70599609 5.13771484 -5.09949219 4.58792969 -4.47460938 4.02148438 C-2.98809229 2.67542559 -1.49472592 1.33693744 0 0 Z " fill="#DDC48A" transform="translate(113,74)"/>
<path d="M0 0 C0.66 0.33 1.32 0.66 2 1 C-3.61 6.61 -9.22 12.22 -15 18 C-14.01 18 -13.02 18 -12 18 C-12.5259375 19.0209375 -12.5259375 19.0209375 -13.0625 20.0625 C-14.94860572 25.97229793 -12.53467395 32.16823897 -11 38 C-14.82919612 36.49567295 -16.78089547 34.44343806 -19 31 C-20.27383279 26.41420196 -20.18043997 23.33658137 -18.21459961 18.99316406 C-15.63175362 14.75470082 -11.87481903 11.47285793 -8.3125 8.0625 C-7.51521484 7.28326172 -6.71792969 6.50402344 -5.89648438 5.70117188 C-3.93978942 3.79134387 -1.97436381 1.89152783 0 0 Z " fill="#E4CEA4" transform="translate(81,61)"/>
<path d="M0 0 C0 0.99 0 1.98 0 3 C-0.7734375 3.17015625 -1.546875 3.3403125 -2.34375 3.515625 C-7.3274444 4.67519746 -11.93765253 5.76256032 -16.4375 8.25 C-20 10 -20 10 -22.5625 10 C-25 9 -25 9 -27.875 7.0625 C-33.44990343 3.63274956 -40.61341919 3.62468487 -47 3 C-47 2.67 -47 2.34 -47 2 C-38.70952466 0.68755798 -33.5132959 0.66826872 -26.2109375 4.8984375 C-23.85174213 6.26515684 -23.85174213 6.26515684 -20.25 6.125 C-16.89648756 4.96416877 -15.34716151 3.48070274 -12.8203125 1.078125 C-9.01584946 -1.17516212 -4.26646053 -0.34162051 0 0 Z " fill="#CCAD7C" transform="translate(97,19)"/>
<path d="M0 0 C-0.89162185 4.90591632 -3.81004221 7.28894214 -7.25 10.6875 C-7.82363281 11.28111328 -8.39726563 11.87472656 -8.98828125 12.48632812 C-12.14459338 15.63904536 -14.32251884 17.76260904 -19 18 C-19 14 -19 14 -17.87011719 12.3684082 C-17.35094727 11.85109131 -16.83177734 11.33377441 -16.296875 10.80078125 C-15.72839844 10.23166016 -15.15992187 9.66253906 -14.57421875 9.07617188 C-13.97222656 8.49416016 -13.37023437 7.91214844 -12.75 7.3125 C-12.16347656 6.71888672 -11.57695313 6.12527344 -10.97265625 5.51367188 C-7.45429631 2.04670371 -5.13285362 0 0 0 Z " fill="#E0CAA0" transform="translate(104,65)"/>
<path d="M0 0 C0.2734375 2.203125 0.2734375 2.203125 0 5 C-1.8984375 7.421875 -1.8984375 7.421875 -4.375 9.75 C-5.18710937 10.52859375 -5.99921875 11.3071875 -6.8359375 12.109375 C-10.50674384 15.31636105 -12.8109172 15.10969689 -17.625 15.0625 C-18.81351563 15.05347656 -20.00203125 15.04445313 -21.2265625 15.03515625 C-22.14179687 15.02355469 -23.05703125 15.01195313 -24 15 C-24.33 14.34 -24.66 13.68 -25 13 C-21.7 13 -18.4 13 -15 13 C-15 12.34 -15 11.68 -15 11 C-13.390625 9.4140625 -13.390625 9.4140625 -11.25 7.625 C-8.93143575 5.66628347 -6.77965621 3.76774574 -4.6875 1.5625 C-3 0 -3 0 0 0 Z " fill="#CCAA74" transform="translate(60,63)"/>
<path d="M0 0 C0.33 0.66 0.66 1.32 1 2 C1.66 2 2.32 2 3 2 C1.40128806 6.15665105 -1.61307461 9.1991075 -5 12 C-7.76047543 12.92015848 -9.63362269 13.19267245 -12.5 13.25 C-13.66015625 13.28867188 -13.66015625 13.28867188 -14.84375 13.328125 C-17 13 -17 13 -18.78125 11.671875 C-20 10 -20 10 -20 7 C-19.33613281 7.10699219 -18.67226562 7.21398437 -17.98828125 7.32421875 C-12.48810226 8.13104167 -12.48810226 8.13104167 -7.1875 6.875 C-4.65227216 4.70194757 -2.29445783 2.4255697 0 0 Z " fill="#D8B573" transform="translate(88,87)"/>
<path d="M0 0 C1.33333333 1.33333333 2.66666667 2.66666667 4 4 C6.21858253 3.86358623 6.21858253 3.86358623 8 3 C8 3.99 8 4.98 8 6 C8.66 6 9.32 6 10 6 C10.33 4.68 10.66 3.36 11 2 C11.33 2.99 11.66 3.98 12 5 C10.30480459 7.63697063 9.01079814 9.55971369 6.08984375 10.83203125 C4 11 4 11 2.078125 9.78515625 C1.47484375 9.21667969 0.8715625 8.64820313 0.25 8.0625 C-0.36359375 7.49660156 -0.9771875 6.93070313 -1.609375 6.34765625 C-2.06828125 5.90292969 -2.5271875 5.45820312 -3 5 C-2.67 4.34 -2.34 3.68 -2 3 C-3.98 3 -5.96 3 -8 3 C-8 5.31 -8 7.62 -8 10 C-8.66 9.67 -9.32 9.34 -10 9 C-10.48339973 2.59495352 -10.48339973 2.59495352 -8.375 0 C-5.11299798 -1.37347453 -3.35784682 -1.04932713 0 0 Z " fill="#DBBE88" transform="translate(59,40)"/>
<path d="M0 0 C1.03853578 2.70019303 1.06290167 3.82597206 0.0625 6.59375 C-1.23011391 10.73771813 -1.44954828 14.56181183 -1.625 18.875 C-1.68300781 20.050625 -1.68300781 20.050625 -1.7421875 21.25 C-1.83566622 23.16631367 -1.91888495 25.08312319 -2 27 C-2.66 27 -3.32 27 -4 27 C-5.95031692 22.92276266 -6.21581971 19.68307578 -6.125 15.1875 C-6.10695313 14.02605469 -6.08890625 12.86460938 -6.0703125 11.66796875 C-6.04710938 10.78753906 -6.02390625 9.90710937 -6 9 C-5.34 9 -4.68 9 -4 9 C-3.8453125 7.329375 -3.8453125 7.329375 -3.6875 5.625 C-3.460625 4.42875 -3.23375 3.2325 -3 2 C-2.01 1.34 -1.02 0.68 0 0 Z " fill="#BD9960" transform="translate(24,30)"/>
<path d="M0 0 C4.61203065 0.30328546 8.36301379 0.71445446 12.625 2.625 C16.67373001 4.2744826 18.79215295 4.01300022 23 3 C23.73347656 2.64550781 24.46695313 2.29101562 25.22265625 1.92578125 C28.84427419 0.71857527 32.08114119 1.01793217 35.8125 1.375 C36.85180664 1.46007812 36.85180664 1.46007812 37.91210938 1.546875 C39.60898446 1.68730604 41.30465248 1.84219407 43 2 C43 2.33 43 2.66 43 3 C41.91460937 3.10957031 40.82921875 3.21914062 39.7109375 3.33203125 C38.26555848 3.49158608 36.82024949 3.65177611 35.375 3.8125 C34.66214844 3.88275391 33.94929688 3.95300781 33.21484375 4.02539062 C28.54344721 4.56110124 25.19677589 5.76295206 21 8 C17.36801376 7.84544739 14.90151246 6.95702362 11.5625 5.5 C7.96802217 3.98653565 4.86253963 3.3941367 1 3 C0.67 2.01 0.34 1.02 0 0 Z " fill="#C4A870" transform="translate(57,12)"/>
<path d="M0 0 C1.06347656 0.00386719 2.12695312 0.00773437 3.22265625 0.01171875 C5.9375 0.3125 5.9375 0.3125 7.9375 2.3125 C7.34582031 2.33828125 6.75414063 2.3640625 6.14453125 2.390625 C0.95815625 2.76289335 -2.43901692 3.23608153 -6.0625 7.3125 C-7.43280588 11.21260135 -7.14293494 15.21031802 -7.0625 19.3125 C-10.0625 17.3125 -10.0625 17.3125 -10.64453125 15.32421875 C-11.18102551 9.91381049 -11.22711658 6.22450863 -7.86328125 1.69921875 C-5.25645581 -0.30820648 -3.24635306 -0.05127897 0 0 Z " fill="#C3A363" transform="translate(53.0625,34.6875)"/>
<path d="M0 0 C1.98 0 3.96 0 6 0 C6 0.99 6 1.98 6 3 C6.88816406 3.22945312 7.77632813 3.45890625 8.69140625 3.6953125 C12.48256101 5.1902897 14.24069647 6.85063132 16.9375 9.875 C18.12666016 11.17050781 18.12666016 11.17050781 19.33984375 12.4921875 C21 15 21 15 20.75390625 17.3203125 C20.50511719 17.87460937 20.25632812 18.42890625 20 19 C20.66 19 21.32 19 22 19 C22.33 21.31 22.66 23.62 23 26 C22.01 26 21.02 26 20 26 C19.63648438 24.78763672 19.63648438 24.78763672 19.265625 23.55078125 C18.93046875 22.48214844 18.5953125 21.41351563 18.25 20.3125 C17.92515625 19.25675781 17.6003125 18.20101562 17.265625 17.11328125 C14.80081472 11.05015226 11.61028274 8.42654519 5.75 5.6875 C4.67234375 5.17574219 3.5946875 4.66398437 2.484375 4.13671875 C1.66453125 3.76160156 0.8446875 3.38648438 0 3 C0 2.01 0 1.02 0 0 Z " fill="#C09E65" transform="translate(101,20)"/>
<path d="M0 0 C1.32 0.99 2.64 1.98 4 3 C-1.94 3.495 -1.94 3.495 -8 4 C-7.67 4.66 -7.34 5.32 -7 6 C-7.7425 6.433125 -8.485 6.86625 -9.25 7.3125 C-11.61833926 8.76579909 -13.80924065 10.29607606 -16 12 C-16 11.01 -16 10.02 -16 9 C-17.32 9.33 -18.64 9.66 -20 10 C-14.35480994 2.91926332 -9.62423605 -1.75612178 0 0 Z " fill="#E2CA85" transform="translate(100,32)"/>
<path d="M0 0 C0.99 0.33 1.98 0.66 3 1 C2.42682097 4.74252192 0.87775435 6.58273055 -1.75 9.25 C-2.42546875 9.95640625 -3.1009375 10.6628125 -3.796875 11.390625 C-6.46794019 13.34182865 -7.77657398 13.10448707 -11 13 C-13.81331378 15.39583651 -13.81331378 15.39583651 -16 18 C-16.66 17.67 -17.32 17.34 -18 17 C-15.56661391 14.53756523 -13.12759787 12.08078261 -10.6875 9.625 C-9.65206055 8.57699219 -9.65206055 8.57699219 -8.59570312 7.5078125 C-7.92861328 6.8375 -7.26152344 6.1671875 -6.57421875 5.4765625 C-5.96151123 4.85861816 -5.34880371 4.24067383 -4.7175293 3.60400391 C-3 2 -3 2 0 0 Z " fill="#D3B781" transform="translate(80,52)"/>
<path d="M0 0 C-0.33 1.32 -0.66 2.64 -1 4 C-1 3.34 -1 2.68 -1 2 C-7.79210595 3.71194474 -13.26235878 5.98497623 -19 10 C-22 12 -22 12 -25 12 C-25 12.66 -25 13.32 -25 14 C-25.66 14 -26.32 14 -27 14 C-24.44682548 7.85346874 -18.19472033 3.77725984 -12.25 1.125 C-7.78635344 -0.42010843 -4.58038909 -1.52679636 0 0 Z " fill="#F9EEC3" transform="translate(52,10)"/>
<path d="M0 0 C3.61116091 1.80558046 5.53128418 2.91410523 8 6 C8.49631357 8.90697947 8.43323149 10.30201593 6.875 12.8125 C4.06992828 14.58904542 2.24145792 14.54024299 -1 14 C-2.875 11.5 -2.875 11.5 -4 9 C-1.3333581 7.66667905 0.16680303 8.32897967 3 9 C2.01 6.03 1.02 3.06 0 0 Z " fill="#C09D65" transform="translate(40,58)"/>
<path d="M0 0 C1.99038023 1.89340114 3.40670663 3.73855135 5 6 C4.01 7.485 4.01 7.485 3 9 C2.46375 8.071875 1.9275 7.14375 1.375 6.1875 C-1.33768003 2.54679786 -2.7028107 1.40635286 -7 0 C-13.54428969 -0.70221886 -18.21430959 -0.32677199 -24 3 C-24.99 2.67 -25.98 2.34 -27 2 C-25.92250558 1.17977251 -24.83770492 0.36913831 -23.75 -0.4375 C-23.14671875 -0.88996094 -22.5434375 -1.34242187 -21.921875 -1.80859375 C-14.83077292 -6.20450053 -6.68266359 -4.1220168 0 0 Z " fill="#B89558" transform="translate(108,31)"/>
<path d="M0 0 C0.99 0.33 1.98 0.66 3 1 C3.33 2.65 3.66 4.3 4 6 C4.66 6 5.32 6 6 6 C6.02693575 8.12493141 6.04636628 10.24995912 6.0625 12.375 C6.07410156 13.55835938 6.08570313 14.74171875 6.09765625 15.9609375 C6 19 6 19 5 21 C4.34 21 3.68 21 3 21 C2.67 21.99 2.34 22.98 2 24 C1.93941406 23.02160156 1.87882813 22.04320313 1.81640625 21.03515625 C1.36678488 14.00031117 0.85950635 6.99883741 0 0 Z " fill="#BC9860" transform="translate(127,33)"/>
<path d="M0 0 C2.48701892 1.8511334 4.77075779 3.84738799 7 6 C6.67 6.66 6.34 7.32 6 8 C5.24074219 7.57847656 4.48148438 7.15695313 3.69921875 6.72265625 C2.70535156 6.17480469 1.71148437 5.62695312 0.6875 5.0625 C-0.29863281 4.51722656 -1.28476563 3.97195312 -2.30078125 3.41015625 C-6.67123018 1.12689711 -10.30425679 0.75110277 -15.1875 0.4375 C-16.45980469 0.35371094 -17.73210937 0.26992188 -19.04296875 0.18359375 C-20.01878906 0.12300781 -20.99460937 0.06242187 -22 0 C-15.06151799 -4.62565467 -7.18049384 -3.82866175 0 0 Z " fill="#F3E6A6" transform="translate(107,27)"/>
<path d="M0 0 C5.84191796 0.34716316 10.76948669 1.10521191 16.171875 3.3671875 C18.80587096 4.27895533 21.24731696 4.20645123 24 4 C24 4.99 24 5.98 24 7 C18.04406301 8.58824986 14.29249481 7.32042051 8.6484375 5.0078125 C6.09726413 4.03701201 3.68582491 3.45571758 1 3 C0.67 3.66 0.34 4.32 0 5 C0 3.35 0 1.7 0 0 Z " fill="#F8ECB5" transform="translate(56,9)"/>
<path d="M0 0 C3.4375 0.375 3.4375 0.375 5.4375 2.375 C5.875 5.6875 5.875 5.6875 5.4375 9.375 C2.9375 12.3125 2.9375 12.3125 0.4375 14.375 C0.1075 13.715 -0.2225 13.055 -0.5625 12.375 C-1.8825 13.365 -3.2025 14.355 -4.5625 15.375 C-5.2225 15.045 -5.8825 14.715 -6.5625 14.375 C-6.06878906 13.89289062 -5.57507813 13.41078125 -5.06640625 12.9140625 C-4.42574219 12.28242187 -3.78507812 11.65078125 -3.125 11 C-2.48691406 10.37351562 -1.84882812 9.74703125 -1.19140625 9.1015625 C0.51632176 7.45776939 0.51632176 7.45776939 1.4375 5.375 C0.4475 5.045 -0.5425 4.715 -1.5625 4.375 C0.0875 4.375 1.7375 4.375 3.4375 4.375 C3.1075 3.715 2.7775 3.055 2.4375 2.375 C-1.18778568 2.17359524 -3.42751708 2.51723235 -6.5625 4.375 C-4.71562606 0.89853141 -4.02907592 0.42411325 0 0 Z " fill="#D5BA83" transform="translate(95.5625,39.625)"/>
<path d="M0 0 C0 0.99 0 1.98 0 3 C-0.825 3.804375 -1.65 4.60875 -2.5 5.4375 C-5.46554923 7.88052115 -5.46554923 7.88052115 -5 12 C-6.1875 13.75 -6.1875 13.75 -8 15 C-8.7734375 14.94328125 -9.546875 14.8865625 -10.34375 14.828125 C-13.93184021 15.06029554 -14.91387158 16.39809798 -17.3125 19 C-18.00988281 19.7425 -18.70726563 20.485 -19.42578125 21.25 C-19.94527344 21.8275 -20.46476562 22.405 -21 23 C-21.66 22.67 -22.32 22.34 -23 22 C-17.74455547 16.64763129 -12.46155109 11.41802649 -6.76171875 6.5390625 C-4.38847084 4.46575944 -2.19312738 2.26166261 0 0 Z " fill="#D4B886" transform="translate(102,52)"/>
<path d="M0 0 C1.32 0.66 2.64 1.32 4 2 C-5.22551253 11.59453303 -5.22551253 11.59453303 -11 15 C-11.66 14.34 -12.32 13.68 -13 13 C-11.51114845 9.0748459 -9.53524258 8.08900698 -6 6 C-3.90207669 4.07978313 -1.96683688 2.05831767 0 0 Z " fill="#C6A876" transform="translate(89,66)"/>
<path d="M0 0 C5.51549611 1.93617985 8.89166111 4.89166111 13 9 C15.67790896 9.87238858 15.67790896 9.87238858 18 10 C17.01 10.99 16.02 11.98 15 13 C12.01657515 11.05730475 9.21532689 9.18302786 6.5 6.875 C1.49377057 3.12032793 -3.95104379 2.62575409 -10 2 C-6.20991318 -0.52672455 -4.50802658 -0.44341245 0 0 Z " fill="#BB9C65" transform="translate(60,27)"/>
<path d="M0 0 C1.32 0 2.64 0 4 0 C5.98 3.96 7.96 7.92 10 12 C9.01 12.33 8.02 12.66 7 13 C3.66881599 10.80629345 1.27710992 8.83132977 0 5 C-0.125 2.25 -0.125 2.25 0 0 Z " fill="#DCC286" transform="translate(54,89)"/>
<path d="M0 0 C-0.48818289 4.24063347 -1.51778264 5.94766011 -4.8125 8.625 C-5.49957031 9.19476563 -6.18664062 9.76453125 -6.89453125 10.3515625 C-8.90974573 11.9293371 -10.94424492 13.47550747 -13 15 C-13.33 13.68 -13.66 12.36 -14 11 C-13.38511719 10.45730469 -12.77023438 9.91460937 -12.13671875 9.35546875 C-11.32847656 8.64003906 -10.52023438 7.92460938 -9.6875 7.1875 C-8.88699219 6.47980469 -8.08648437 5.77210937 -7.26171875 5.04296875 C-5.04918198 3.09783225 -5.04918198 3.09783225 -3.33203125 1.23828125 C-2 0 -2 0 0 0 Z " fill="#BD9858" transform="translate(84,41)"/>
<path d="M0 0 C0.33 0.66 0.66 1.32 1 2 C-1.97 2 -4.94 2 -8 2 C-8 2.66 -8 3.32 -8 4 C-9.01320313 4.38091797 -9.01320313 4.38091797 -10.046875 4.76953125 C-11.38492188 5.28580078 -11.38492188 5.28580078 -12.75 5.8125 C-13.63171875 6.14894531 -14.5134375 6.48539063 -15.421875 6.83203125 C-17.93039808 7.96846822 -19.87279005 9.26542927 -22 11 C-22.33 10.01 -22.66 9.02 -23 8 C-15.57637198 1.86827608 -9.64001752 -0.33824623 0 0 Z " fill="#C3A368" transform="translate(58,19)"/>
<path d="M0 0 C3.2423893 0.27019911 4.69743822 0.70660676 7.0625 3 C13.38336024 12.78713843 13.38336024 12.78713843 12.60546875 17.27734375 C12.40566406 17.84582031 12.20585937 18.41429688 12 19 C11.71125 18.195625 11.4225 17.39125 11.125 16.5625 C10.26737432 13.8673532 10.26737432 13.8673532 8 13 C7.67 13.66 7.34 14.32 7 15 C6.95875 14.01 6.9175 13.02 6.875 12 C6.21473313 7.03276153 3.15706605 3.71703495 0 0 Z " fill="#F2DD9C" transform="translate(119,20)"/>
<path d="M0 0 C-0.04125 1.11375 -0.0825 2.2275 -0.125 3.375 C-0.14300722 8.39901336 0.88041764 13.1218197 2 18 C1.01 18 0.02 18 -1 18 C-3.66193262 12.67613477 -4.59681354 8.96813537 -4 3 C-1.84375 0 -1.84375 0 0 0 Z " fill="#C9A976" transform="translate(38,39)"/>
<path d="M0 0 C1 3 1 3 -0.1875 5.4375 C-4.54945055 11.6043956 -4.54945055 11.6043956 -8.75 12.75 C-9.86375 12.87375 -9.86375 12.87375 -11 13 C-10.42073787 9.46180427 -9.15676523 7.74971757 -6.625 5.25 C-5.71621094 4.32960938 -5.71621094 4.32960938 -4.7890625 3.390625 C-3 2 -3 2 0 2 C0 1.34 0 0.68 0 0 Z " fill="#C7AB77" transform="translate(125,63)"/>
<path d="M0 0 C0 0.99 0 1.98 0 3 C-0.99580078 3.27263672 -0.99580078 3.27263672 -2.01171875 3.55078125 C-7.65338286 5.14448155 -7.65338286 5.14448155 -12.875 7.75 C-15 9 -15 9 -17.3125 8.6875 C-17.869375 8.460625 -18.42625 8.23375 -19 8 C-13.93085209 3.42141479 -7.09737102 -0.91578981 0 0 Z " fill="#C8A96F" transform="translate(51,12)"/>
<path d="M0 0 C-0.08566397 2.912575 -0.57910955 4.56798024 -2.625 6.66796875 C-4.38391375 8.16091772 -6.16313019 9.60436262 -8 11 C-8 10.34 -8 9.68 -8 9 C-9.32 9.33 -10.64 9.66 -12 10 C-11.06409496 8.8944811 -10.12620142 7.79064547 -9.1875 6.6875 C-8.66542969 6.07261719 -8.14335938 5.45773438 -7.60546875 4.82421875 C-7.07566406 4.22222656 -6.54585938 3.62023438 -6 3 C-5.50113281 2.42894531 -5.00226563 1.85789063 -4.48828125 1.26953125 C-3 0 -3 0 0 0 Z " fill="#BFA067" transform="translate(112,56)"/>
<path d="M0 0 C0.33 0.66 0.66 1.32 1 2 C2.32 1.67 3.64 1.34 5 1 C0.59156563 6.29012124 -4.07559794 11.18808428 -9 16 C-9.66 15.67 -10.32 15.34 -11 15 C-10.50628906 14.51789063 -10.01257813 14.03578125 -9.50390625 13.5390625 C-8.86324219 12.90742187 -8.22257812 12.27578125 -7.5625 11.625 C-6.92441406 10.99851562 -6.28632812 10.37203125 -5.62890625 9.7265625 C-3.92117824 8.08276939 -3.92117824 8.08276939 -3 6 C-3.66 5.67 -4.32 5.34 -5 5 C-3.35 3.35 -1.7 1.7 0 0 Z " fill="#DBC397" transform="translate(113,74)"/>
<path d="M0 0 C1.50433594 0.01353516 1.50433594 0.01353516 3.0390625 0.02734375 C3.80992188 0.03894531 4.58078125 0.05054687 5.375 0.0625 C5.375 1.0525 5.375 2.0425 5.375 3.0625 C-1.555 4.5475 -1.555 4.5475 -8.625 6.0625 C-8.295 4.4125 -7.965 2.7625 -7.625 1.0625 C-4.98041621 -0.25979189 -2.94738699 -0.03427194 0 0 Z " fill="#E8D096" transform="translate(91.625,18.9375)"/>
<path d="M0 0 C0.33 0.66 0.66 1.32 1 2 C1.66 2 2.32 2 3 2 C1.4169423 6.2742558 -1.50568404 8.26531794 -5 11 C-5 10.34 -5 9.68 -5 9 C-6.65 9 -8.3 9 -10 9 C-9.278125 8.443125 -8.55625 7.88625 -7.8125 7.3125 C-5.02542701 5.02090666 -2.51358472 2.58540143 0 0 Z " fill="#D6B478" transform="translate(88,87)"/>
<path d="M0 0 C1.00960562 3.67664712 1.37166101 7.28722992 1.71875 11.07421875 C1.80469862 13.00386502 1.80469862 13.00386502 3 14 C3.66 13.01 4.32 12.02 5 11 C7.31 12.98 9.62 14.96 12 17 C11.01 17.33 10.02 17.66 9 18 C8.01 17.34 7.02 16.68 6 16 C6.33 17.32 6.66 18.64 7 20 C5.84775972 19.07038578 4.70340824 18.1309875 3.5625 17.1875 C2.92441406 16.66542969 2.28632812 16.14335938 1.62890625 15.60546875 C-0.39912715 13.60661569 -0.93915318 11.88764772 -1.1328125 9.0625 C-1.13023438 8.381875 -1.12765625 7.70125 -1.125 7 C-1.12757812 6.319375 -1.13015625 5.63875 -1.1328125 4.9375 C-1 3 -1 3 0 0 Z " fill="#E3CA9E" transform="translate(42,39)"/>
<path d="M0 0 C2.9375 2.5625 2.9375 2.5625 5 5 C3.7625 4.505 3.7625 4.505 2.5 4 C-3.72763217 2.22067652 -8.97732954 2.47888213 -15 5 C-15.99 5.66 -16.98 6.32 -18 7 C-16.60364382 3.62547256 -15.1393647 1.88361882 -12 0 C-7.81140528 -1.35846315 -4.25013435 -1.06253359 0 0 Z " fill="#F1DEA4" transform="translate(61,32)"/>
<path d="M0 0 C1.4540625 0.0309375 1.4540625 0.0309375 2.9375 0.0625 C3.2675 0.7225 3.5975 1.3825 3.9375 2.0625 C2.6175 2.3925 1.2975 2.7225 -0.0625 3.0625 C0.50121414 6.33204202 1.43712266 7.88825883 3.9375 10.0625 C3.6075 10.7225 3.2775 11.3825 2.9375 12.0625 C0 11.0625 0 11.0625 -3.0625 9.0625 C-4.00754181 6.26112607 -4.01387847 4.07703465 -4.0625 1.0625 C-3.0625 0.0625 -3.0625 0.0625 0 0 Z " fill="#BE9553" transform="translate(54.0625,41.9375)"/>
<path d="M0 0 C1 1 1 1 1.0625 4.5625 C1.041875 5.696875 1.02125 6.83125 1 8 C-0.32 6.68 -1.64 5.36 -3 4 C-2.67 3.67 -2.34 3.34 -2 3 C-3.98 3 -5.96 3 -8 3 C-8 5.31 -8 7.62 -8 10 C-8.66 9.67 -9.32 9.34 -10 9 C-10.48339973 2.59495352 -10.48339973 2.59495352 -8.375 0 C-5.21894086 -1.32886701 -3.26284135 -0.87009103 0 0 Z " fill="#DEC58D" transform="translate(59,40)"/>
<path d="M0 0 C0.3125 2.25 0.3125 2.25 0 5 C-2.3125 7.375 -2.3125 7.375 -5 9 C-5.99 8.67 -6.98 8.34 -8 8 C-7.32253522 3.25774652 -4.9532836 0 0 0 Z " fill="#C8A877" transform="translate(60,63)"/>
<path d="M0 0 C0.33 0 0.66 0 1 0 C1.66 4.95 2.32 9.9 3 15 C3.66 15 4.32 15 5 15 C5.33 13.68 5.66 12.36 6 11 C6.66 13.64 7.32 16.28 8 19 C7.01 18.67 6.02 18.34 5 18 C4.67 18.99 4.34 19.98 4 21 C0.51098155 13.81947541 -0.54470737 7.9587799 0 0 Z " fill="#E2C9A6" transform="translate(17,42)"/>
<path d="M0 0 C2.475 0.99 2.475 0.99 5 2 C5.33 1.34 5.66 0.68 6 0 C8.64 1.32 11.28 2.64 14 4 C13.01 4.33 12.02 4.66 11 5 C11 5.99 11 6.98 11 8 C6.51400257 6.74809374 3.40652872 5.20614467 0 2 C0 1.34 0 0.68 0 0 Z " fill="#EBD59E" transform="translate(58,99)"/>
<path d="M0 0 C0.99 0 1.98 0 3 0 C2.69381595 3.67420866 2.24228216 4.78135513 -0.5625 7.3125 C-1.366875 7.869375 -2.17125 8.42625 -3 9 C-3 8.01 -3 7.02 -3 6 C-4.65 5.67 -6.3 5.34 -8 5 C-7.67 4.01 -7.34 3.02 -7 2 C-6.67 2.66 -6.34 3.32 -6 4 C-3.53199953 2.84826645 -1.95216435 1.95216435 0 0 Z " fill="#E0C18F" transform="translate(81,83)"/>
<path d="M0 0 C0 4.62 0 9.24 0 14 C-3 12 -3 12 -3.6171875 9.94140625 C-3.70226563 9.15636719 -3.78734375 8.37132812 -3.875 7.5625 C-3.97554687 6.78003906 -4.07609375 5.99757813 -4.1796875 5.19140625 C-4 3 -4 3 -2.5703125 1.21484375 C-1 0 -1 0 0 0 Z " fill="#BF9A53" transform="translate(46,40)"/>
<path d="M0 0 C2.94880018 0.85360005 4.59872139 1.38852783 6.3125 4 C7.30666451 8.33817243 7.15484087 12.56983055 7 17 C6.67 17 6.34 17 6 17 C6 14.36 6 11.72 6 9 C4.68 9.33 3.36 9.66 2 10 C2.04125 9.0925 2.0825 8.185 2.125 7.25 C2.00468444 4.1217954 1.6085292 2.61385994 0 0 Z " fill="#D1B484" transform="translate(110,33)"/>
<path d="M0 0 C0.33 0 0.66 0 1 0 C1.07347656 1.04800781 1.07347656 1.04800781 1.1484375 2.1171875 C1.22320312 3.02726562 1.29796875 3.93734375 1.375 4.875 C1.44460937 5.77992187 1.51421875 6.68484375 1.5859375 7.6171875 C1.79568132 10.17941903 1.79568132 10.17941903 4 12 C4.33 10.68 4.66 9.36 5 8 C6.4216319 11.3171411 7.39009109 14.44219804 8 18 C4.17080388 16.49567295 2.21910453 14.44343806 0 11 C-0.89969984 7.05516225 -1.38771073 3.85475203 0 0 Z " fill="#E8D1A6" transform="translate(62,81)"/>
<path d="M0 0 C-1.44518781 3.3721049 -3.12350453 5.69880363 -6 8 C-8.75 8.25 -8.75 8.25 -11 8 C-11 6 -11 6 -9.609375 4.4921875 C-8.99578125 3.95851563 -8.3821875 3.42484375 -7.75 2.875 C-7.14671875 2.33617188 -6.5434375 1.79734375 -5.921875 1.2421875 C-4 0 -4 0 0 0 Z " fill="#BA975C" transform="translate(73,64)"/>
<path d="M0 0 C-0.54269531 0.33773438 -1.08539063 0.67546875 -1.64453125 1.0234375 C-2.71767578 1.69246094 -2.71767578 1.69246094 -3.8125 2.375 C-4.87404297 3.03628906 -4.87404297 3.03628906 -5.95703125 3.7109375 C-7.65432039 4.78188476 -9.33014358 5.88676239 -11 7 C-11.99 7 -12.98 7 -14 7 C-14 7.66 -14 8.32 -14 9 C-14.66 9 -15.32 9 -16 9 C-14.49687867 5.17387297 -12.37198449 3.29908033 -9 1 C-3.69026549 -1.2300885 -3.69026549 -1.2300885 0 0 Z " fill="#F7E5A5" transform="translate(41,15)"/>
<path d="M0 0 C0 0.33 0 0.66 0 1 C-1.62808594 1.18175781 -1.62808594 1.18175781 -3.2890625 1.3671875 C-4.73441404 1.53612469 -6.17972442 1.70541425 -7.625 1.875 C-8.33785156 1.95363281 -9.05070312 2.03226563 -9.78515625 2.11328125 C-14.08202185 2.62575146 -17.921207 3.46884427 -22 5 C-22 4.01 -22 3.02 -22 2 C-15.03679985 -2.24585375 -7.75734949 -0.82864866 0 0 Z " fill="#D5BE90" transform="translate(100,14)"/>
<path d="M0 0 C1.37058195 4.11174586 0.75640862 6.73660595 0 11 C-0.99 11.495 -0.99 11.495 -2 12 C-2.66 11.67 -3.32 11.34 -4 11 C-4.17754126 7.09409237 -4.20731737 4.31097606 -2 1 C-1.34 0.67 -0.68 0.34 0 0 Z " fill="#C9A571" transform="translate(58,75)"/>
<path d="M0 0 C13.6332574 -0.3690205 13.6332574 -0.3690205 20 2 C20 2.33 20 2.66 20 3 C13.4 2.67 6.8 2.34 0 2 C0 1.34 0 0.68 0 0 Z " fill="#BE964F" transform="translate(88,12)"/>
<path d="M0 0 C0.33 0 0.66 0 1 0 C1.33 2.64 1.66 5.28 2 8 C0.68 8.99 -0.64 9.98 -2 11 C-2 10.34 -2 9.68 -2 9 C-3.32 9.99 -4.64 10.98 -6 12 C-6.66 11.67 -7.32 11.34 -8 11 C-7.50628906 10.45730469 -7.01257813 9.91460937 -6.50390625 9.35546875 C-5.86324219 8.64003906 -5.22257812 7.92460938 -4.5625 7.1875 C-3.92441406 6.47980469 -3.28632812 5.77210937 -2.62890625 5.04296875 C-0.80913988 3.00103848 -0.80913988 3.00103848 0 0 Z " fill="#CFB180" transform="translate(118,55)"/>
<path d="M0 0 C0.71484375 1.765625 0.71484375 1.765625 1 4 C-0.43359375 5.921875 -0.43359375 5.921875 -2.4375 7.75 C-3.09621094 8.36359375 -3.75492187 8.9771875 -4.43359375 9.609375 C-4.95050781 10.06828125 -5.46742187 10.5271875 -6 11 C-6.99 10.34 -7.98 9.68 -9 9 C-7.87895467 7.68412059 -6.75303035 6.37239647 -5.625 5.0625 C-4.99851562 4.33160156 -4.37203125 3.60070313 -3.7265625 2.84765625 C-2 1 -2 1 0 0 Z " fill="#B99356" transform="translate(105,51)"/>
<path d="M0 0 C0 0.66 0 1.32 0 2 C-6.435 2.495 -6.435 2.495 -13 3 C-13.33 3.99 -13.66 4.98 -14 6 C-15.32 5.34 -16.64 4.68 -18 4 C-11.71546794 0.67202085 -7.11341265 -0.45164525 0 0 Z " fill="#F9F0BF" transform="translate(97,17)"/>
<path d="M0 0 C1.08892712 2.83121051 0.96109941 4.16532751 0.25 7.1875 C-0.1625 8.115625 -0.575 9.04375 -1 10 C-1.99 10.33 -2.98 10.66 -4 11 C-4.66 11.66 -5.32 12.32 -6 13 C-6 11.68 -6 10.36 -6 9 C-5.34 9 -4.68 9 -4 9 C-3.8453125 7.329375 -3.8453125 7.329375 -3.6875 5.625 C-3.460625 4.42875 -3.23375 3.2325 -3 2 C-2.01 1.34 -1.02 0.68 0 0 Z " fill="#C8A45D" transform="translate(24,30)"/>
<path d="M0 0 C0.33 0 0.66 0 1 0 C1.33 3.96 1.66 7.92 2 12 C0.68 12 -0.64 12 -2 12 C-2.17835515 7.45194365 -1.99785435 4.1205746 0 0 Z " fill="#D5B77A" transform="translate(28,32)"/>
<path d="M0 0 C2.475 0.495 2.475 0.495 5 1 C5.53394179 2.4117783 6.05165104 3.82970244 6.5625 5.25 C6.85253906 6.03890625 7.14257812 6.8278125 7.44140625 7.640625 C8.04522837 10.19103452 7.8473932 11.55322229 7 14 C6.67 12.35 6.34 10.7 6 9 C5.34 9 4.68 9 4 9 C3 6 3 6 3 4 C2.03886134 2.63838689 1.04115841 1.30144802 0 0 Z " fill="#E2C689" transform="translate(117,30)"/>
<path d="M0 0 C2.97 0.99 5.94 1.98 9 3 C9 3.99 9 4.98 9 6 C6.1875 6.3125 6.1875 6.3125 3 6 C0 2.1 0 2.1 0 0 Z " fill="#B9905B" transform="translate(36,66)"/>
<path d="M0 0 C0.99 0.33 1.98 0.66 3 1 C0.87380903 3.33881007 -0.99776492 4.94038762 -4 6 C-6.75 5.625 -6.75 5.625 -9 5 C-9.33 4.01 -9.66 3.02 -10 2 C-8.3603125 2.061875 -8.3603125 2.061875 -6.6875 2.125 C-2.91107771 2.32074666 -2.91107771 2.32074666 0 0 Z " fill="#C2A571" transform="translate(81,23)"/>
<path d="M0 0 C-0.56589844 0.40992187 -1.13179687 0.81984375 -1.71484375 1.2421875 C-2.44832031 1.78101563 -3.18179688 2.31984375 -3.9375 2.875 C-4.66839844 3.40867187 -5.39929687 3.94234375 -6.15234375 4.4921875 C-8.11098235 5.88012104 -8.11098235 5.88012104 -9 8 C-11.0625 8.625 -11.0625 8.625 -13 9 C-12.07933074 4.97207198 -10.40632779 3.31536059 -7.0625 1.125 C-3.42940794 -1.14313598 -3.42940794 -1.14313598 0 0 Z " fill="#EED78B" transform="translate(42,23)"/>
<path d="M0 0 C1.98 0.99 1.98 0.99 4 2 C4.33 1.34 4.66 0.68 5 0 C6.7074998 1.28062485 8.37373596 2.61767557 10 4 C10 4.66 10 5.32 10 6 C9.01 6 8.02 6 7 6 C6.67 6.66 6.34 7.32 6 8 C4.99403703 7.0479279 3.99538437 6.08812654 3 5.125 C2.443125 4.59132813 1.88625 4.05765625 1.3125 3.5078125 C0 2 0 2 0 0 Z " fill="#D0B484" transform="translate(30,61)"/>
<path d="M0 0 C0.99 0 1.98 0 3 0 C3.33 1.98 3.66 3.96 4 6 C3.34 5.01 2.68 4.02 2 3 C2.66264086 9.06264222 2.66264086 9.06264222 4 15 C0.88979866 12.45528982 -0.00133026 9.84103748 -1 6 C-1.1875 3.1875 -1.1875 3.1875 -1 1 C-0.67 0.67 -0.34 0.34 0 0 Z " fill="#E1CDAC" transform="translate(26,46)"/>
<path d="M0 0 C-1.32 0.99 -2.64 1.98 -4 3 C-4 2.34 -4 1.68 -4 1 C-4.66 1 -5.32 1 -6 1 C-6 1.66 -6 2.32 -6 3 C-6.66 3 -7.32 3 -8 3 C-8.268125 3.639375 -8.53625 4.27875 -8.8125 4.9375 C-10 7 -10 7 -13 8 C-12.25 5.5625 -12.25 5.5625 -11 3 C-8.875 2.1875 -8.875 2.1875 -7 2 C-7 1.34 -7 0.68 -7 0 C-3.86650268 -1.04449911 -3.01031744 -0.93423645 0 0 Z " fill="#E7CD90" transform="translate(34,22)"/>
<path d="M0 0 C0.33 0.99 0.66 1.98 1 3 C-0.40445835 5.2636564 -2.1967913 7.0208685 -4 9 C-4.99 8.34 -5.98 7.68 -7 7 C-5.54744301 3.17053157 -3.57104439 1.87949705 0 0 Z " fill="#BD955A" transform="translate(83,72)"/>
<path d="M0 0 C-0.34879632 3.25543229 -1.02133261 4.01873107 -3.5625 6.25 C-4.366875 6.8275 -5.17125 7.405 -6 8 C-6.66 7.67 -7.32 7.34 -8 7 C-6.47663111 3.31852519 -4.31953005 0 0 0 Z " fill="#B99863" transform="translate(104,65)"/>
<path d="M0 0 C-0.34879632 3.25543229 -1.02133261 4.01873107 -3.5625 6.25 C-4.366875 6.8275 -5.17125 7.405 -6 8 C-6.66 7.67 -7.32 7.34 -8 7 C-7.8125 5.1875 -7.8125 5.1875 -7 3 C-2.82142857 0 -2.82142857 0 0 0 Z " fill="#BB9B63" transform="translate(116,64)"/>
<path d="M0 0 C0.33 0 0.66 0 1 0 C1.33 2.64 1.66 5.28 2 8 C2.66 8 3.32 8 4 8 C3.34 10.31 2.68 12.62 2 15 C1.67 14.01 1.34 13.02 1 12 C0.01 12.33 -0.98 12.66 -2 13 C-1.34 8.71 -0.68 4.42 0 0 Z " fill="#DBC196" transform="translate(128,46)"/>
<path d="M0 0 C0 0.33 0 0.66 0 1 C-0.90363281 1.12117188 -1.80726562 1.24234375 -2.73828125 1.3671875 C-3.91777344 1.53476562 -5.09726563 1.70234375 -6.3125 1.875 C-7.48425781 2.03742187 -8.65601562 2.19984375 -9.86328125 2.3671875 C-13.14530895 2.82300621 -13.14530895 2.82300621 -16 5 C-16.99 4.67 -17.98 4.34 -19 4 C-12.78233529 -1.79373302 -8.16280019 -1.35376489 0 0 Z " fill="#CFB07B" transform="translate(100,29)"/>
<path d="M0 0 C0.99 0 1.98 0 3 0 C2.979375 1.216875 2.95875 2.43375 2.9375 3.6875 C2.93175884 6.91977322 3.21233685 9.84934741 4 13 C3.01 12.67 2.02 12.34 1 12 C-0.26237731 9.47524538 -0.09856404 7.68799534 -0.0625 4.875 C-0.05347656 3.96492188 -0.04445312 3.05484375 -0.03515625 2.1171875 C-0.02355469 1.41851562 -0.01195312 0.71984375 0 0 Z " fill="#B5924D" transform="translate(63,81)"/>
<path d="M0 0 C0.33 0 0.66 0 1 0 C1.4726477 8.19256018 1.4726477 8.19256018 -0.5 11.5625 C-0.995 12.036875 -1.49 12.51125 -2 13 C-2.33 12.34 -2.66 11.68 -3 11 C-3.66 11 -4.32 11 -5 11 C-4.34 8.69 -3.68 6.38 -3 4 C-2.34 5.32 -1.68 6.64 -1 8 C-0.67 5.36 -0.34 2.72 0 0 Z " fill="#DAC798" transform="translate(108,41)"/>
<path d="M0 0 C1.32 0.33 2.64 0.66 4 1 C4 1.66 4 2.32 4 3 C7.465 2.505 7.465 2.505 11 2 C11 3.32 11 4.64 11 6 C7.69747512 6 5.93840447 5.46920223 3 4 C1.1875 1.875 1.1875 1.875 0 0 Z " fill="#D7B86B" transform="translate(69,32)"/>
<path d="M0 0 C1.12758089 3.38274266 0.81750262 4.76778223 0.0625 8.1875 C-0.13214844 9.08855469 -0.32679687 9.98960938 -0.52734375 10.91796875 C-0.68332031 11.60503906 -0.83929688 12.29210938 -1 13 C-3 11 -3 11 -3.3125 7.0625 C-3.25612142 4.23844574 -3.23113287 3.30817716 -1.5 1 C-1.005 0.67 -0.51 0.34 0 0 Z " fill="#B48B40" transform="translate(37,39)"/>
<path d="M0 0 C1.9375 0.125 1.9375 0.125 4 1 C5.5225431 3.68257593 6.12235992 5.24544717 5.625 8.3125 C5.41875 8.869375 5.2125 9.42625 5 10 C4.71125 9.195625 4.4225 8.39125 4.125 7.5625 C3.26737432 4.8673532 3.26737432 4.8673532 1 4 C0.67 4.66 0.34 5.32 0 6 C-0.38218767 4.34385343 -0.71395102 2.67542976 -1 1 C-0.67 0.67 -0.34 0.34 0 0 Z " fill="#DCBF85" transform="translate(126,29)"/>
<path d="M0 0 C0.66 0 1.32 0 2 0 C2 0.66 2 1.32 2 2 C2.99 2 3.98 2 5 2 C5 4.64 5 7.28 5 10 C4.01 10.495 4.01 10.495 3 11 C2.01 7.37 1.02 3.74 0 0 Z " fill="#B38E4A" transform="translate(103,39)"/>
<path d="M0 0 C-1.55500981 3.81684226 -4.03595495 6.19195732 -7 9 C-7.99 8.67 -8.98 8.34 -10 8 C-8.71451591 6.66070495 -7.42141845 5.32871357 -6.125 4 C-5.04605469 2.88625 -5.04605469 2.88625 -3.9453125 1.75 C-2 0 -2 0 0 0 Z " fill="#B49147" transform="translate(110,80)"/>
<path d="M0 0 C0.33 0.99 0.66 1.98 1 3 C-2.96 3 -6.92 3 -11 3 C-11.33 2.34 -11.66 1.68 -12 1 C-10.37512529 0.83211627 -8.75009558 0.66573213 -7.125 0.5 C-6.22007813 0.4071875 -5.31515625 0.314375 -4.3828125 0.21875 C-2 0 -2 0 0 0 Z " fill="#B38D40" transform="translate(47,75)"/>
<path d="M0 0 C0.3125 2.3125 0.3125 2.3125 0 5 C-2.375 6.875 -2.375 6.875 -5 8 C-5.66 7.67 -6.32 7.34 -7 7 C-7 6.34 -7 5.68 -7 5 C-1.4047619 0 -1.4047619 0 0 0 Z " fill="#C2A465" transform="translate(96,82)"/>
<path d="M0 0 C0.99 0.33 1.98 0.66 3 1 C2.60196439 3.88575819 2.20990931 4.82189513 -0.0625 6.75 C-0.701875 7.1625 -1.34125 7.575 -2 8 C-1.125 1.125 -1.125 1.125 0 0 Z " fill="#C9AF7E" transform="translate(80,52)"/>
<path d="M0 0 C3.3 0 6.6 0 10 0 C10 0.99 10 1.98 10 3 C6.37 2.67 2.74 2.34 -1 2 C-0.67 1.34 -0.34 0.68 0 0 Z " fill="#B5904F" transform="translate(92,35)"/>
<path d="M0 0 C-0.1875 1.8125 -0.1875 1.8125 -1 4 C-5.17857143 7 -5.17857143 7 -8 7 C-8 6.34 -8 5.68 -8 5 C-2.52380952 0 -2.52380952 0 0 0 Z " fill="#B39054" transform="translate(122,69)"/>
<path d="M0 0 C2.97 1.98 2.97 1.98 6 4 C5.67 4.99 5.34 5.98 5 7 C2.525 6.01 2.525 6.01 0 5 C0 3.35 0 1.7 0 0 Z " fill="#C49D61" transform="translate(60,44)"/>
<path d="M0 0 C3.79588866 0.54226981 5.47211993 2.20127563 8 5 C7.67 5.66 7.34 6.32 7 7 C4.36 5.35 1.72 3.7 -1 2 C-0.67 1.34 -0.34 0.68 0 0 Z " fill="#ECD595" transform="translate(106,28)"/>
<path d="M0 0 C4.09305456 1.65296434 7.58983503 3.13546142 11 6 C10.67 6.66 10.34 7.32 10 8 C7.525 7.01 7.525 7.01 5 6 C5 5.34 5 4.68 5 4 C4.34 4 3.68 4 3 4 C3 3.34 3 2.68 3 2 C2.01 2 1.02 2 0 2 C0 1.34 0 0.68 0 0 Z " fill="#FCF1C7" transform="translate(112,13)"/>
<path d="M0 0 C4.29 0.33 8.58 0.66 13 1 C13 1.33 13 1.66 13 2 C6.565 2.495 6.565 2.495 0 3 C0 2.01 0 1.02 0 0 Z " fill="#DFC06E" transform="translate(69,104)"/>
<path d="M0 0 C0.99 0.33 1.98 0.66 3 1 C1.63016497 4.16115776 1.0109362 4.9927092 -2 7 C-2 6.34 -2 5.68 -2 5 C-2.66 4.67 -3.32 4.34 -4 4 C-2.68 2.68 -1.36 1.36 0 0 Z " fill="#BD9C6A" transform="translate(75,69)"/>
<path d="M0 0 C1.875 0.3125 1.875 0.3125 4 1 C4.66 1.99 5.32 2.98 6 4 C5.67 4.99 5.34 5.98 5 7 C4.34 7 3.68 7 3 7 C3 6.01 3 5.02 3 4 C2.01 3.67 1.02 3.34 0 3 C0 2.01 0 1.02 0 0 Z " fill="#C5A153" transform="translate(64,39)"/>
<path d="M0 0 C0.625 1.875 0.625 1.875 1 4 C0.34 4.66 -0.32 5.32 -1 6 C-1.99 5.67 -2.98 5.34 -4 5 C-4.33 5.66 -4.66 6.32 -5 7 C-4.75 4.625 -4.75 4.625 -4 2 C-1.9375 0.6875 -1.9375 0.6875 0 0 Z " fill="#CCB06F" transform="translate(39,35)"/>
<path d="M0 0 C0.99 0.33 1.98 0.66 3 1 C3.6875 3.3125 3.6875 3.3125 4 6 C3.01 6.99 2.02 7.98 1 9 C0.67 6.03 0.34 3.06 0 0 Z " fill="#C4A05B" transform="translate(127,33)"/>
<path d="M0 0 C4.75032037 0.46571768 8.12160643 1.14824002 12 4 C12.33 4.66 12.66 5.32 13 6 C8.52761347 4.58192622 4.28853694 2.88695626 0 1 C0 0.67 0 0.34 0 0 Z " fill="#ECD286" transform="translate(60,27)"/>
<path d="M0 0 C1.98 0 3.96 0 6 0 C6.33 1.65 6.66 3.3 7 5 C4.69 4.34 2.38 3.68 0 3 C0 2.01 0 1.02 0 0 Z " fill="#CDB177" transform="translate(101,20)"/>
<path d="M0 0 C1.8871875 0.0309375 1.8871875 0.0309375 3.8125 0.0625 C1.41486815 2.46013185 0.47976502 2.40530586 -2.8125 2.6875 C-3.62976563 2.76226563 -4.44703125 2.83703125 -5.2890625 2.9140625 C-5.91554688 2.96304687 -6.54203125 3.01203125 -7.1875 3.0625 C-7.1875 2.4025 -7.1875 1.7425 -7.1875 1.0625 C-4.43671116 0.14557039 -2.82801087 -0.04636083 0 0 Z " fill="#BE9962" transform="translate(92.1875,19.9375)"/>
<path d="M0 0 C1 2 1 2 0.0625 5.125 C-0.288125 6.07375 -0.63875 7.0225 -1 8 C-1.33 7.34 -1.66 6.68 -2 6 C-3.32 6.33 -4.64 6.66 -6 7 C-4.02 4.69 -2.04 2.38 0 0 Z " fill="#CDAE7C" transform="translate(106,59)"/>
<path d="M0 0 C1.4540625 0.0309375 1.4540625 0.0309375 2.9375 0.0625 C3.2675 0.7225 3.5975 1.3825 3.9375 2.0625 C2.514375 2.495625 2.514375 2.495625 1.0625 2.9375 C-2.11461578 3.83075109 -2.11461578 3.83075109 -4.0625 6.0625 C-4.105221 4.39638095 -4.10313832 2.72867115 -4.0625 1.0625 C-3.0625 0.0625 -3.0625 0.0625 0 0 Z " fill="#B38C40" transform="translate(54.0625,41.9375)"/>
<path d="M0 0 C2.97 0.495 2.97 0.495 6 1 C4.35 2.65 2.7 4.3 1 6 C1 5.01 1 4.02 1 3 C-0.32 3.33 -1.64 3.66 -3 4 C-2.01 2.68 -1.02 1.36 0 0 Z " fill="#D9BD8B" transform="translate(83,38)"/>
<path d="M0 0 C-1.36944102 2.94956528 -2.87830409 5.52468811 -5 8 C-5.66 8 -6.32 8 -7 8 C-6.44414399 4.1090079 -4.34122117 0 0 0 Z " fill="#AE8849" transform="translate(93,75)"/>
<path d="M0 0 C1.65 0 3.3 0 5 0 C5.33 0.99 5.66 1.98 6 3 C3.69 3.33 1.38 3.66 -1 4 C-0.67 2.68 -0.34 1.36 0 0 Z " fill="#B68D41" transform="translate(93,41)"/>
<path d="M0 0 C2.31 0.33 4.62 0.66 7 1 C6.67 2.32 6.34 3.64 6 5 C4.35 4.67 2.7 4.34 1 4 C0.67 2.68 0.34 1.36 0 0 Z " fill="#B0843F" transform="translate(48,55)"/>
<path d="M0 0 C1.31223496 3.93670488 0.24296256 6.12488144 -1 10 C-1.66 10 -2.32 10 -3 10 C-2.25 3.375 -2.25 3.375 0 0 Z " fill="#B0843D" transform="translate(21,38)"/>
<path d="M0 0 C0.99 0 1.98 0 3 0 C3 2.64 3 5.28 3 8 C2.01 8.495 2.01 8.495 1 9 C0.67 6.03 0.34 3.06 0 0 Z " fill="#AD8541" transform="translate(113,42)"/>
<path d="M0 0 C0.66 0 1.32 0 2 0 C1.45276317 3.37462715 0.9451 5.08235 -1 8 C-1.93065133 5.39417629 -2.14917407 4.35801776 -1.0625 1.75 C-0.711875 1.1725 -0.36125 0.595 0 0 Z " fill="#A98446" transform="translate(122,49)"/>
<path d="M0 0 C0.99 0 1.98 0 3 0 C2.625 2.4375 2.625 2.4375 2 5 C1.01 5.495 1.01 5.495 0 6 C-0.66 5.34 -1.32 4.68 -2 4 C-1.34 2.68 -0.68 1.36 0 0 Z " fill="#CDB078" transform="translate(81,83)"/>
<path d="M0 0 C0.66 0.33 1.32 0.66 2 1 C1.60196439 3.88575819 1.20990931 4.82189513 -1.0625 6.75 C-1.701875 7.1625 -2.34125 7.575 -3 8 C-3 7.01 -3 6.02 -3 5 C-2.34 5 -1.68 5 -1 5 C-0.67 3.35 -0.34 1.7 0 0 Z " fill="#C2A06A" transform="translate(69,53)"/>
<path d="M0 0 C0.33 0 0.66 0 1 0 C1.144375 0.7425 1.28875 1.485 1.4375 2.25 C1.93631867 4.92811274 1.93631867 4.92811274 2.6875 7.1875 C2.790625 7.785625 2.89375 8.38375 3 9 C2.34 9.66 1.68 10.32 1 11 C-0.20272819 8.59454362 -0.10071472 7.05003047 -0.0625 4.375 C-0.05347656 3.55773438 -0.04445313 2.74046875 -0.03515625 1.8984375 C-0.02355469 1.27195313 -0.01195313 0.64546875 0 0 Z " fill="#C4A46F" transform="translate(113,45)"/>
<path d="M0 0 C2.4375 0.6875 2.4375 0.6875 5 2 C5.8125 4.625 5.8125 4.625 6 7 C3 6 3 6 1.3125 2.9375 C0.879375 1.968125 0.44625 0.99875 0 0 Z " fill="#DCBA77" transform="translate(110,33)"/>
<path d="M0 0 C0.33 0.99 0.66 1.98 1 3 C1.66 3.33 2.32 3.66 3 4 C2.01 4.66 1.02 5.32 0 6 C0 5.34 0 4.68 0 4 C-1.65 4 -3.3 4 -5 4 C-3.35 2.68 -1.7 1.36 0 0 Z " fill="#E1C88E" transform="translate(83,92)"/>
<path d="M0 0 C0.99 0.33 1.98 0.66 3 1 C3 2.32 3 3.64 3 5 C3.66 5 4.32 5 5 5 C4.67 5.99 4.34 6.98 4 8 C0 3.375 0 3.375 0 0 Z " fill="#A78141" transform="translate(22,60)"/>
<path d="M0 0 C0.93065133 2.60582371 1.14917407 3.64198224 0.0625 6.25 C-0.4634375 7.11625 -0.4634375 7.11625 -1 8 C-1.33 8 -1.66 8 -2 8 C-2 5.69 -2 3.38 -2 1 C-1.34 0.67 -0.68 0.34 0 0 Z " fill="#C19F5E" transform="translate(31,33)"/>
<path d="M0 0 C-0.33 0.66 -0.66 1.32 -1 2 C-4.0625 2.625 -4.0625 2.625 -7 3 C-7 2.01 -7 1.02 -7 0 C-3.86650268 -1.04449911 -3.01031744 -0.93423645 0 0 Z " fill="#CAAC72" transform="translate(53,28)"/>
</svg>
