<?xml version="1.0" encoding="UTF-8"?>
<svg version="1.1" xmlns="http://www.w3.org/2000/svg" width="165" height="160">
<path d="M0 0 C1.50970032 1.19506926 2.99907694 2.41619214 4.46875 3.66015625 C6.69439372 5.48602976 8.96471791 6.95323127 11.41796875 8.453125 C19.07182787 13.5068055 23.17752545 20.82497739 25.73046875 29.515625 C26.23481546 33.54162744 26.29040764 37.52388271 26.29296875 41.578125 C26.33611363 51.37201369 27.17117686 59.28911211 32.85546875 67.515625 C35.71938182 72.14084461 37.30456946 76.02207511 36.73046875 81.515625 C35.40868978 86.34784292 33.78634641 88.80602275 29.5859375 91.62890625 C25.09680604 94.0503201 20.40929324 94.88776105 15.42773438 95.76171875 C11.48941096 96.59360057 9.93326589 97.25552309 7.421875 100.4765625 C6.86371094 101.47945313 6.30554688 102.48234375 5.73046875 103.515625 C1.31510896 107.73901262 -2.35726522 110.40365779 -8.58984375 110.58203125 C-14.85192735 110.26605455 -19.50656883 108.64206248 -24.26953125 104.515625 C-26.36715728 102.09802211 -28.26953125 99.84063096 -28.26953125 96.515625 C-29.50703125 96.433125 -30.74453125 96.350625 -32.01953125 96.265625 C-38.96412219 95.47446907 -47.25383984 93.94517241 -52.45703125 88.953125 C-55.79812334 84.45993219 -55.90411875 79.91843246 -55.26953125 74.515625 C-54.00974755 70.92113346 -52.07993144 67.72909426 -49.96972656 64.56933594 C-45.99023996 58.28109425 -45.64039457 53.08522983 -45.70703125 45.765625 C-45.46696655 31.98654021 -43.78799897 20.93387545 -33.609375 10.875 C-30.05432431 7.66816612 -26.22161325 5.13366635 -22.12109375 2.6796875 C-20.05030283 1.43125633 -20.05030283 1.43125633 -17.51953125 -0.734375 C-12.08095403 -4.9643795 -5.51552398 -3.6073995 0 0 Z M-30.26953125 20.515625 C-34.59435153 26.28205204 -36.36124787 30.79629872 -36.4453125 38.0234375 C-36.46916016 39.09335937 -36.49300781 40.16328125 -36.51757812 41.265625 C-36.56009572 43.49200084 -36.59158793 45.71861821 -36.61132812 47.9453125 C-36.88979087 58.77298023 -40.08448392 66.32536859 -46.29296875 75.09375 C-47.5368047 77.57971695 -47.5368047 77.57971695 -46.76953125 80.671875 C-45.5175206 83.65554644 -45.5175206 83.65554644 -42.87109375 84.90625 C-39.679224 85.8277872 -36.49603636 86.72234715 -33.26953125 87.515625 C-32.40585937 87.7425 -31.5421875 87.969375 -30.65234375 88.203125 C-14.12080524 91.73508575 9.3842779 92.08829992 24.6875 83.94140625 C26.63015189 82.67433407 26.63015189 82.67433407 27.73046875 81.515625 C27.60484842 75.61146933 25.4215572 71.92201707 22.203125 67.04296875 C17.85951838 59.58855634 18.36087833 51.93216255 18.25195312 43.54492188 C17.97345694 32.72432619 15.63762905 24.02089825 7.60546875 16.328125 C2.66836822 12.28288779 -3.03541963 10.91988895 -9.26953125 10.140625 C-18.02558927 11.23513225 -24.32635817 13.85927115 -30.26953125 20.515625 Z M-16.26953125 98.515625 C-13.56495092 101.84645775 -13.56495092 101.84645775 -9.83203125 101.890625 C-5.91840104 101.78660593 -5.91840104 101.78660593 -2.26953125 98.515625 C-6.88953125 98.515625 -11.50953125 98.515625 -16.26953125 98.515625 Z " fill="#5B1250" transform="translate(90.26953125,14.484375)"/>
<path d="M0 0 C3 2 3 2 3.75 3.9375 C4 6 4 6 3 9 C4.65 9 6.3 9 8 9 C8.495 9.99 8.495 9.99 9 11 C5.12844234 13.58103844 2.24097327 13.00578016 -2.1875 12.625 C-7.80945837 12.18834304 -13.35798321 11.8368271 -19 12 C-19.33 12.33 -19.66 12.66 -20 13 C-21.32520503 13.68268138 -22.65812182 14.3507041 -24 15 C-24.99 14.34 -25.98 13.68 -27 13 C-26.67 12.34 -26.34 11.68 -26 11 C-25.360625 10.855625 -24.72125 10.71125 -24.0625 10.5625 C-21.61789145 10.13834965 -21.61789145 10.13834965 -20 7 C-19.34 7 -18.68 7 -18 7 C-18 6.34 -18 5.68 -18 5 C-17.360625 4.71125 -16.72125 4.4225 -16.0625 4.125 C-13.84793921 3.17176549 -13.84793921 3.17176549 -13 1 C-8.27740641 -0.75939761 -4.88446528 -1.3321269 0 0 Z " fill="#5E1052" transform="translate(88,13)"/>
<path d="M0 0 C0.33 0 0.66 0 1 0 C1 3.3 1 6.6 1 10 C1.99 9.67 2.98 9.34 4 9 C5.22969878 5.48809191 5.22969878 5.48809191 6 2 C7.32 1.67 8.64 1.34 10 1 C9.690625 1.7425 9.38125 2.485 9.0625 3.25 C7.10983382 8.05393124 7.10983382 8.05393124 8 13 C8.66 13.66 9.32 14.32 10 15 C8.02 15.99 8.02 15.99 6 17 C6.66 18.32 7.32 19.64 8 21 C9.65 21 11.3 21 13 21 C13 21.66 13 22.32 13 23 C13.78375 23.12375 14.5675 23.2475 15.375 23.375 C18 24 18 24 20 26 C12.6416894 25.46485014 6.27819036 23.70450705 0.5 18.9375 C-2.72819667 14.76774597 -2.378904 10.0314927 -2 5 C-1 1.9375 -1 1.9375 0 0 Z " fill="#55144A" transform="translate(37,84)"/>
<path d="M0 0 C0.58265625 0.12117188 1.1653125 0.24234375 1.765625 0.3671875 C3.53194342 0.72822743 5.30043904 1.07868624 7.0703125 1.421875 C8.88328175 1.77963426 10.69205647 2.16053975 12.4921875 2.578125 C27.72704317 5.74263508 44.78585552 4.99997215 60 2 C59 4 59 4 57.29492188 4.62402344 C49.77504277 6.19303264 42.34067708 6.30519908 34.69580078 6.26074219 C32.50395042 6.25001933 30.31291936 6.26069148 28.12109375 6.2734375 C18.28506751 6.28304367 9.29704528 5.42522721 0 2 C0 1.34 0 0.68 0 0 Z " fill="#511A4A" transform="translate(47,99)"/>
<path d="M0 0 C0.66 0 1.32 0 2 0 C1.67773438 1.21558594 1.35546875 2.43117187 1.0234375 3.68359375 C-0.57559888 10.86520617 -0.35727279 18.16916073 -0.390625 25.49414062 C-0.53509722 32.38466278 -1.07854891 37.2286771 -5 43 C-7.13818359 43.70336914 -7.13818359 43.70336914 -9 44 C-8.36771484 43.11828125 -8.36771484 43.11828125 -7.72265625 42.21875 C-2.59598394 33.82307017 -2.29870759 26.30040153 -2.22680664 16.63085938 C-2.18048112 10.72029606 -1.70913444 5.66998567 0 0 Z " fill="#521B48" transform="translate(47,40)"/>
<path d="M0 0 C1.5 1.3125 1.5 1.3125 3 3 C3 3.99 3 4.98 3 6 C3.99 6.33 4.98 6.66 6 7 C5.360625 7.226875 4.72125 7.45375 4.0625 7.6875 C1.72567164 8.84016601 1.72567164 8.84016601 1.375 11.5625 C1.189375 12.7690625 1.189375 12.7690625 1 14 C0.01 14.495 0.01 14.495 -1 15 C-1.66 14.67 -2.32 14.34 -3 14 C-2.68872484 12.41642541 -2.37592711 10.83315007 -2.0625 9.25 C-1.80146484 7.92742187 -1.80146484 7.92742187 -1.53515625 6.578125 C-1.07631512 4.36764947 -0.56663926 2.18487932 0 0 Z " fill="#600F53" transform="translate(121,87)"/>
<path d="M0 0 C1 2 1 2 0.46875 3.8046875 C-2.10681347 9.30891589 -4.43429126 11.52635167 -10 14 C-10.66 14 -11.32 14 -12 14 C-11.34 12.35 -10.68 10.7 -10 9 C-8.35 9.33 -6.7 9.66 -5 10 C-4.855625 9.4225 -4.71125 8.845 -4.5625 8.25 C-4.2840625 7.13625 -4.2840625 7.13625 -4 6 C-3.87625 5.29875 -3.7525 4.5975 -3.625 3.875 C-3 2 -3 2 0 0 Z " fill="#511845" transform="translate(126,94)"/>
<path d="M0 0 C0.66 0 1.32 0 2 0 C0.94513949 6.12096691 -0.65217026 10.75506674 -4 16 C-4.33 16 -4.66 16 -5 16 C-5 13.36 -5 10.72 -5 8 C-3.68 7.67 -2.36 7.34 -1 7 C-0.67 4.69 -0.34 2.38 0 0 Z " fill="#531949" transform="translate(52,69)"/>
<path d="M0 0 C2.3125 0.5625 2.3125 0.5625 5 2 C6.625 5.4375 6.625 5.4375 8 9 C9.53951047 10.88029239 9.53951047 10.88029239 11 12 C10.34 13.32 9.68 14.64 9 16 C8.34 16 7.68 16 7 16 C6.82984375 15.43152344 6.6596875 14.86304688 6.484375 14.27734375 C4.84932263 9.0677886 2.86690828 4.64636859 0 0 Z " fill="#541B49" transform="translate(100,33)"/>
<path d="M0 0 C0.66 0.66 1.32 1.32 2 2 C0 5 0 5 -3 6 C-5.33299825 6.03954234 -7.66708189 6.04401732 -10 6 C-10 5.67 -10 5.34 -10 5 C-7.36 4.34 -4.72 3.68 -2 3 C-6.29 3 -10.58 3 -15 3 C-15.33 2.34 -15.66 1.68 -16 1 C-13.37549914 0.77880061 -10.75129514 0.57253331 -8.125 0.375 C-7.37863281 0.31054688 -6.63226563 0.24609375 -5.86328125 0.1796875 C-3.9129953 0.03912635 -1.95530533 0.01240151 0 0 Z " fill="#4B1544" transform="translate(88,111)"/>
<path d="M0 0 C0 0.66 0 1.32 0 2 C-1.670625 2.12375 -1.670625 2.12375 -3.375 2.25 C-5.169375 2.62125 -5.169375 2.62125 -7 3 C-8.1500831 4.96672915 -8.1500831 4.96672915 -9 7 C-11.625 7.75 -11.625 7.75 -14 8 C-10.03399393 2.63422709 -7.02750714 0 0 0 Z " fill="#4D1B45" transform="translate(82,11)"/>
<path d="M0 0 C0.33 0 0.66 0 1 0 C1.04254356 1.99954746 1.04080783 4.00041636 1 6 C0.67 6.33 0.34 6.66 0 7 C-0.14636054 10.36629251 -0.07193479 12.78419562 1 16 C0.34 16.33 -0.32 16.66 -1 17 C-2.66550691 12.00347926 -2.63421165 6.94227317 -1 1.9375 C-0.67 1.298125 -0.34 0.65875 0 0 Z " fill="#4E1C46" transform="translate(37,84)"/>
<path d="M0 0 C4.74908547 2.80627778 7.19372222 5.25091453 10 10 C7 10 7 10 5.375 8.6875 C4 7 4 7 3 4 C2.01 3.34 1.02 2.68 0 2 C0 1.34 0 0.68 0 0 Z " fill="#4D1A45" transform="translate(101,23)"/>
<path d="M0 0 C2.37948772 0.17625835 3.70225849 0.69719773 5.37890625 2.40234375 C6.62115486 3.90649092 7.81376056 5.45129851 9 7 C2.29787234 5.06382979 2.29787234 5.06382979 0 2 C0 1.34 0 0.68 0 0 Z " fill="#4E1946" transform="translate(65,116)"/>
</svg>
