<?xml version="1.0" encoding="UTF-8"?>
<svg version="1.1" xmlns="http://www.w3.org/2000/svg" width="164" height="134">
<path d="M0 0 C11.88087946 8.93246737 19.58849678 21.36983891 22.6171875 35.9765625 C24.783532 53.08626292 21.1792381 68.24297817 10.70703125 82.015625 C2.04405691 92.09717861 -9.61075776 100.02665438 -23 102 C-42.14860455 103.25023761 -57.21754495 100.4377633 -72.1875 87.8125 C-83.79730165 76.94995403 -89.73721012 62.10715028 -90.375 46.375 C-90.03972527 31.03125062 -84.4000167 17.08373438 -73.9453125 5.80859375 C-53.20343243 -13.47552367 -23.55792279 -15.68194563 0 0 Z M-67.7421875 12.61328125 C-77.84797035 23.29603786 -81.44777499 35.58294227 -81.2109375 49.95703125 C-80.73349785 62.70349117 -74.02227777 74.0813397 -64.90625 82.703125 C-57.13512768 88.84481845 -47.9236253 93.08240451 -38 94 C-37.2884375 94.06960937 -36.576875 94.13921875 -35.84375 94.2109375 C-23.60179011 94.78755155 -11.53717898 90.58325587 -2.26953125 82.66796875 C7.87206657 72.91585622 13.92092454 62.24833765 14.42407227 47.88745117 C14.51243089 34.23363325 10.26285166 22.20456641 0.75 12.1875 C-19.21104796 -6.53435538 -47.90800524 -6.19499503 -67.7421875 12.61328125 Z " fill="#5A134E" transform="translate(121,13)"/>
<path d="M0 0 C3.5 0.5 3.5 0.5 5.703125 1.890625 C8.50609828 5.96102967 7.92525996 9.93709187 7.75 14.75 C7.73195312 15.68585937 7.71390625 16.62171875 7.6953125 17.5859375 C7.64825673 19.89167015 7.58253713 22.19530945 7.5 24.5 C8.76972656 24.47808594 10.03945312 24.45617187 11.34765625 24.43359375 C14.05859744 24.38680593 15.40733525 24.45960767 17.9375 25.5625 C20.45084153 28.6790435 20.69417012 30.48715085 20.5 34.5 C18.60831048 37.88714677 16.09952281 40.63642759 13.5 43.5 C12.69175781 44.40363281 11.88351563 45.30726562 11.05078125 46.23828125 C9.35378802 48.11718799 7.64674904 49.98707133 5.9296875 51.84765625 C3.23702367 54.78707545 0.63976915 57.79655518 -1.9296875 60.84375 C-3.66946784 62.6787422 -5.36988329 64.13421929 -7.5 65.5 C-10.86311319 65.42993514 -12.85470049 64.92130166 -15.671875 63.08203125 C-18.53151665 59.04309294 -17.9252935 55.06382921 -17.75 50.25 C-17.73195313 49.31414062 -17.71390625 48.37828125 -17.6953125 47.4140625 C-17.64825673 45.10832985 -17.58253713 42.80469055 -17.5 40.5 C-19.40265625 40.54833984 -19.40265625 40.54833984 -21.34375 40.59765625 C-24.42000951 40.67581325 -25.29452047 40.62842471 -28 38.9375 C-30.06219818 35.58642795 -29.84412687 33.38904829 -29.5 29.5 C-27.98828125 26.90234375 -27.98828125 26.90234375 -25.8125 24.4375 C-24.59433594 23.04144531 -24.59433594 23.04144531 -23.3515625 21.6171875 C-22.40350425 20.57587761 -21.45280498 19.53696837 -20.5 18.5 C-19.95956055 17.90606445 -19.41912109 17.31212891 -18.86230469 16.70019531 C-15.57120043 13.09029463 -12.26045786 9.49957715 -8.89013672 5.96337891 C-7.68790659 4.69780683 -6.50781248 3.41127532 -5.33203125 2.12109375 C-3.5 0.5 -3.5 0.5 0 0 Z M-1.5 10.5 C-12.6431799 20.72031963 -12.6431799 20.72031963 -19.5 32.5 C-18.54287109 32.59087891 -18.54287109 32.59087891 -17.56640625 32.68359375 C-16.74011719 32.76738281 -15.91382812 32.85117187 -15.0625 32.9375 C-13.82693359 33.05931641 -13.82693359 33.05931641 -12.56640625 33.18359375 C-10.5 33.5 -10.5 33.5 -9.5 34.5 C-9.34379445 35.91327947 -9.24943827 37.3335459 -9.18359375 38.75390625 C-9.12075195 40.03491211 -9.12075195 40.03491211 -9.05664062 41.34179688 C-9.01732422 42.23962891 -8.97800781 43.13746094 -8.9375 44.0625 C-8.89431641 44.96419922 -8.85113281 45.86589844 -8.80664062 46.79492188 C-8.70021858 49.02978485 -8.59820012 51.26476308 -8.5 53.5 C-3.67887741 49.58845601 0.49093163 45.4746929 4.4375 40.6875 C4.93056641 40.10291016 5.42363281 39.51832031 5.93164062 38.91601562 C8.39292502 36.4995474 8.39292502 36.4995474 9.5 33.5 C6.53 32.84 3.56 32.18 0.5 31.5 C0.17 24.57 -0.16 17.64 -0.5 10.5 C-0.83 10.5 -1.16 10.5 -1.5 10.5 Z " fill="#5A134F" transform="translate(92.5,26.5)"/>
<path d="M0 0 C7.36603774 -0.36226415 7.36603774 -0.36226415 9.75 1 C11.74250219 4.18800351 11.31123006 7.55491235 11.1875 11.1875 C11.17396484 11.93708984 11.16042969 12.68667969 11.14648438 13.45898438 C11.11118539 15.30629767 11.05737917 17.15324066 11 19 C11.76699219 18.51917969 12.53398438 18.03835937 13.32421875 17.54296875 C15.97202082 16.01613398 18.00037252 15.42851821 21 15 C17.62068966 25.37931034 17.62068966 25.37931034 15 28 C12.90625 27.86328125 12.90625 27.86328125 10.5 27.3125 C9.7059375 27.14363281 8.911875 26.97476563 8.09375 26.80078125 C6 26 6 26 4 23 C3.68115234 20.82348633 3.68115234 20.82348633 3.5859375 18.33203125 C3.54726562 17.43935547 3.50859375 16.54667969 3.46875 15.62695312 C3.42234375 14.23379883 3.42234375 14.23379883 3.375 12.8125 C3.33632812 11.87212891 3.29765625 10.93175781 3.2578125 9.96289062 C3.16356813 7.6421229 3.07795975 5.32136252 3 3 C2.34 3 1.68 3 1 3 C0.67 2.01 0.34 1.02 0 0 Z " fill="#5E1152" transform="translate(73,62)"/>
<path d="M0 0 C1.5 1.25 1.5 1.25 3 3 C3 4.32 3 5.64 3 7 C3.7425 7.12375 4.485 7.2475 5.25 7.375 C7.90324709 7.9780107 9.78778243 8.41984459 12 10 C13.09809194 13.29427581 13.11196276 14.66411172 12 18 C10.68 17.67 9.36 17.34 8 17 C8 16.34 8 15.68 8 15 C7.38125 14.87625 6.7625 14.7525 6.125 14.625 C4 14 4 14 2 12 C2 11.01 2 10.02 2 9 C1.01 8.67 0.02 8.34 -1 8 C-1.625 5.6875 -1.625 5.6875 -2 3 C-1.34 2.01 -0.68 1.02 0 0 Z " fill="#5E1051" transform="translate(46,86)"/>
<path d="M0 0 C2.6875 -0.375 2.6875 -0.375 6 0 C9.85506058 3.67983055 11.63470846 6.78706865 13 12 C12.01 12.33 11.02 12.66 10 13 C10 13.66 10 14.32 10 15 C7 14 7 14 5.3125 11.75 C3.93488797 8.8635748 3.73014849 7.14826764 4 4 C2.68 3.67 1.36 3.34 0 3 C0 2.01 0 1.02 0 0 Z " fill="#5F0F53" transform="translate(123,22)"/>
<path d="M0 0 C0 0.33 0 0.66 0 1 C-1.79244141 1.05607422 -1.79244141 1.05607422 -3.62109375 1.11328125 C-15.6289569 1.46421839 -15.6289569 1.46421839 -27 5 C-27.99 6.485 -27.99 6.485 -29 8 C-31.8203125 8.73046875 -31.8203125 8.73046875 -35.125 9.1875 C-36.22070312 9.34605469 -37.31640625 9.50460937 -38.4453125 9.66796875 C-39.28835937 9.77753906 -40.13140625 9.88710937 -41 10 C-30.54626011 -1.21864769 -14.05002064 -0.39310939 0 0 Z " fill="#531A4B" transform="translate(97,3)"/>
<path d="M0 0 C0 0.66 0 1.32 0 2 C-1.64351457 3.36176922 -3.31522656 4.68962066 -5 6 C-9.26252347 9.96015495 -9.26252347 9.96015495 -12 15 C-12 15.66 -12 16.32 -12 17 C-12.66 17 -13.32 17 -14 17 C-14 17.66 -14 18.32 -14 19 C-15.65 19.66 -17.3 20.32 -19 21 C-15.77608847 14.58189041 -8.35008961 0 0 0 Z " fill="#511948" transform="translate(56,13)"/>
<path d="M0 0 C4.02222705 0.8619058 6.96043217 1.88873784 9.8125 4.9375 C10.204375 5.618125 10.59625 6.29875 11 7 C10.67 7.99 10.34 8.98 10 10 C7.525 9.01 7.525 9.01 5 8 C5 7.34 5 6.68 5 6 C4.01 5.67 3.02 5.34 2 5 C0.8125 2.4375 0.8125 2.4375 0 0 Z " fill="#620F53" transform="translate(108,9)"/>
<path d="M0 0 C0.66 0 1.32 0 2 0 C2 0.99 2 1.98 2 3 C1.34 3 0.68 3 0 3 C0 5.97 0 8.94 0 12 C-0.99 12.33 -1.98 12.66 -3 13 C-2.98839844 13.556875 -2.97679687 14.11375 -2.96484375 14.6875 C-2.90323567 19.89778343 -3.25000656 24.8437951 -4 30 C-4.33 30 -4.66 30 -5 30 C-5.67275462 20.13293227 -4.49947143 8.99894286 0 0 Z " fill="#511C48" transform="translate(36,35)"/>
<path d="M0 0 C1 2 1 2 1 6 C0.195625 6.268125 -0.60875 6.53625 -1.4375 6.8125 C-2.283125 7.204375 -3.12875 7.59625 -4 8 C-4.33 8.99 -4.66 9.98 -5 11 C-5.66 11 -6.32 11 -7 11 C-7 13.97 -7 16.94 -7 20 C-9 18 -9 18 -9.40625 14.74609375 C-8.90886934 10.15967015 -7.53489746 8.47675964 -4.5 5.0625 C-3.6646875 4.10472656 -2.829375 3.14695313 -1.96875 2.16015625 C-1.3190625 1.44730469 -0.669375 0.73445313 0 0 Z " fill="#541D49" transform="translate(72,45)"/>
<path d="M0 0 C3.125 -0.1875 3.125 -0.1875 6 0 C3.17277289 2.93193923 0.19478359 5.47780243 -3 8 C-3.66 8.66 -4.32 9.32 -5 10 C-5.99 9.67 -6.98 9.34 -8 9 C-7.8125 7.125 -7.8125 7.125 -7 5 C-5.35448038 4.28272222 -3.68577711 3.61674772 -2 3 C-1.34 2.01 -0.68 1.02 0 0 Z " fill="#5F1156" transform="translate(119,98)"/>
<path d="M0 0 C2.125 0.9375 2.125 0.9375 4 2 C3.34 2.66 2.68 3.32 2 4 C2.3185177 6.10820797 2.3185177 6.10820797 3 8 C1.02 8.33 -0.96 8.66 -3 9 C-4 6 -4 6 -3.1875 3.375 C-2 1 -2 1 0 0 Z " fill="#611051" transform="translate(97,68)"/>
<path d="M0 0 C2.4375 2 2.4375 2 4 4 C3.67 4.66 3.34 5.32 3 6 C2.67 5.01 2.34 4.02 2 3 C-1.92803595 2.17785294 -5.19060412 1.51856827 -9 3 C-10.37466625 5.47636012 -10.37466625 5.47636012 -11 8 C-11.99 7.67 -12.98 7.34 -14 7 C-9.43407922 1.35267693 -7.73100954 -0.66646634 0 0 Z " fill="#501D47" transform="translate(96,27)"/>
<path d="M0 0 C1.32 0.33 2.64 0.66 4 1 C3.57847656 1.69867187 3.15695313 2.39734375 2.72265625 3.1171875 C2.17480469 4.02726562 1.62695312 4.93734375 1.0625 5.875 C0.51722656 6.77992187 -0.02804688 7.68484375 -0.58984375 8.6171875 C-1.43898017 10.05201636 -2.25437724 11.50875448 -3 13 C-3.66 13 -4.32 13 -5 13 C-4.45939743 9.10766151 -3.37781856 7.07134898 -1 4 C-0.29485154 1.85266073 -0.29485154 1.85266073 0 0 Z " fill="#531848" transform="translate(47,28)"/>
<path d="M0 0 C0.33 0.66 0.66 1.32 1 2 C0.02616054 3.68208635 -0.97695052 5.34738161 -2 7 C-2.69579454 9.19130534 -2.69579454 9.19130534 -3 11 C-4.65 10.67 -6.3 10.34 -8 10 C-7.04367001 8.70684939 -6.08486149 7.41553147 -5.125 6.125 C-4.59132813 5.40570313 -4.05765625 4.68640625 -3.5078125 3.9453125 C-2 2 -2 2 0 0 Z " fill="#56184A" transform="translate(81,35)"/>
<path d="M0 0 C2.31 0.66 4.62 1.32 7 2 C7 2.99 7 3.98 7 5 C5.68 5 4.36 5 3 5 C1.25 2.5 1.25 2.5 0 0 Z M1 5 C1.99 5.33 2.98 5.66 4 6 C4.33 6.99 4.66 7.98 5 9 C3.68 8.67 2.36 8.34 1 8 C1 7.01 1 6.02 1 5 Z " fill="#57134A" transform="translate(66,102)"/>
<path d="M0 0 C0 3 0 3 -1.71484375 4.97265625 C-2.44832031 5.66230469 -3.18179688 6.35195312 -3.9375 7.0625 C-6.86434414 9.73700793 -6.86434414 9.73700793 -9 13 C-9.99 13 -10.98 13 -12 13 C-10.86528532 9.59585597 -9.82774013 8.75723352 -7.125 6.5 C-4.64584653 4.41421775 -2.2560424 2.32698713 0 0 Z " fill="#562149" transform="translate(125,88)"/>
<path d="M0 0 C1.98 0 3.96 0 6 0 C6 0.66 6 1.32 6 2 C8.97 2.99 11.94 3.98 15 5 C14.67 5.66 14.34 6.32 14 7 C11.85101768 6.2169216 9.70587905 5.42328757 7.5625 4.625 C6.36753906 4.18414063 5.17257813 3.74328125 3.94140625 3.2890625 C1 2 1 2 0 0 Z " fill="#4E1A43" transform="translate(97,11)"/>
<path d="M0 0 C2.02045442 0.60183749 4.02111039 1.27306096 6 2 C6.33 2.66 6.66 3.32 7 4 C8.64142963 5.0409066 10.30712215 6.04504326 12 7 C11.67 7.66 11.34 8.32 11 9 C9.53699018 8.06981474 8.07974421 7.13055973 6.625 6.1875 C5.81289063 5.66542969 5.00078125 5.14335938 4.1640625 4.60546875 C2 3 2 3 0 0 Z " fill="#4D1746" transform="translate(48,99)"/>
<path d="M0 0 C7.48291572 6.15034169 7.48291572 6.15034169 10 10 C9.67 10.66 9.34 11.32 9 12 C7.88625 10.6078125 7.88625 10.6078125 6.75 9.1875 C5.11987424 7.20905677 3.78044779 5.83978623 1.6875 4.3125 C1.130625 3.879375 0.57375 3.44625 0 3 C0 2.01 0 1.02 0 0 Z " fill="#521C48" transform="translate(124,16)"/>
<path d="M0 0 C2.875 -0.125 2.875 -0.125 6 0 C6.66 0.66 7.32 1.32 8 2 C7.625 4.125 7.625 4.125 7 6 C7 5.34 7 4.68 7 4 C6.21625 3.71125 5.4325 3.4225 4.625 3.125 C2 2 2 2 0 0 Z " fill="#501844" transform="translate(76,59)"/>
<path d="M0 0 C0.66 0.33 1.32 0.66 2 1 C-0.31 3.64 -2.62 6.28 -5 9 C-5.33 8.34 -5.66 7.68 -6 7 C-2.25 1.125 -2.25 1.125 0 0 Z " fill="#4E1749" transform="translate(106,67)"/>
<path d="M0 0 C0 3 0 3 -2.5 5.6875 C-3.325 6.450625 -4.15 7.21375 -5 8 C-5.66 7.67 -6.32 7.34 -7 7 C-4.69 4.69 -2.38 2.38 0 0 Z " fill="#4D1A46" transform="translate(91,73)"/>
</svg>
